<svg width="24" height="25" viewBox="0 0 24 25" fill="none" xmlns="http://www.w3.org/2000/svg">
<path d="M18.0689 0.00439453C18.1209 0.0244473 18.174 0.0416567 18.2279 0.0559449C18.8568 0.203229 19.3296 0.54051 19.5844 1.16058C19.7906 1.66281 20.0262 2.15032 20.2413 2.65109C20.3906 2.99039 20.4677 3.35704 20.4677 3.72774C20.4677 4.09844 20.3906 4.46509 20.2413 4.80439C20.2249 4.86142 20.1888 4.91078 20.1395 4.94369C20.0901 4.9766 20.0307 4.99091 19.9717 4.98408C18.1513 4.97818 16.3309 4.97818 14.5105 4.98408C14.3633 4.98408 14.2896 4.98407 14.3426 4.78818C14.4796 4.29951 14.4678 3.78109 14.3088 3.29914C14.2587 3.1445 14.3088 3.12829 14.4413 3.12829C15.1969 3.12829 15.9524 3.14155 16.7095 3.12829C17.1228 3.13569 17.5304 3.02979 17.8879 2.82209C18.2454 2.61439 18.5392 2.31281 18.7375 1.95002C18.9967 1.50817 18.8848 1.12817 18.4135 0.904303C17.8362 0.627409 17.275 0.703997 16.7507 1.05159C15.9377 1.58917 15.1306 2.12971 14.3235 2.68055C14.1541 2.7969 14.0716 2.78218 13.9774 2.60691C13.9023 2.46699 13.6917 2.3035 13.7241 2.22544C13.7786 2.09141 13.9744 2.01335 14.1144 1.91909C14.836 1.43452 15.5621 0.957324 16.2794 0.465395C16.6075 0.258938 16.965 0.103499 17.3398 0.00439453H18.0689Z" fill="#6F9C3D"/>
<path d="M6.11046 0.00441834C6.76439 0.142865 7.27987 0.542009 7.81745 0.901383C8.41688 1.30494 9.01632 1.7085 9.62017 2.10617C9.73652 2.18275 9.79396 2.23872 9.65994 2.35066C9.52591 2.46259 9.47878 2.75716 9.29615 2.75863C9.14003 2.75863 8.98244 2.57748 8.8278 2.47438C8.11201 1.9957 7.40064 1.51113 6.68044 1.03983C6.45502 0.87714 6.19094 0.776315 5.91446 0.747374C5.63799 0.718434 5.35875 0.762388 5.10453 0.874868C4.56695 1.10316 4.43735 1.49641 4.73927 1.99128C4.94123 2.34216 5.23359 2.63246 5.58589 2.83192C5.93818 3.03139 6.33752 3.13272 6.7423 3.12537C7.48901 3.1401 8.2372 3.13273 8.98539 3.12537C9.14298 3.12537 9.196 3.14157 9.13267 3.32126C8.97912 3.80408 8.97092 4.32139 9.1091 4.80883C9.14298 4.93549 9.12825 4.98115 8.98539 4.98115C7.13259 4.98115 5.2793 4.98115 3.42553 4.98115C3.30181 4.98115 3.26057 4.92076 3.21786 4.82503C3.06633 4.50399 2.98287 4.15507 2.97273 3.8002C2.96259 3.44534 3.02599 3.09222 3.15895 2.76305C3.40491 2.14593 3.67885 1.53912 3.96752 0.941148C4.21201 0.437436 4.66711 0.192944 5.18995 0.057443C5.25328 0.0412417 5.32103 0.0471309 5.37405 0L6.11046 0.00441834Z" fill="#6F9C3D"/>
<path d="M13.0889 18.4604C13.0889 16.3616 13.0889 14.2628 13.0889 12.1655C13.0889 11.9637 13.1375 11.9092 13.3407 11.9107C16.2284 11.9175 19.1156 11.9175 22.0023 11.9107C22.2291 11.9107 22.266 11.9784 22.266 12.1846C22.2601 15.7302 22.2601 19.2759 22.266 22.8215C22.266 23.9364 21.6076 24.7583 20.5531 24.9659C20.4329 24.9864 20.3112 24.9958 20.1893 24.9939C17.905 24.9939 15.6236 24.9939 13.3334 24.9939C13.1375 24.9939 13.0948 24.938 13.0948 24.7494C13.0918 22.6565 13.0889 20.5577 13.0889 18.4604Z" fill="#6F9C3D"/>
<path d="M10.3592 18.4785C10.3592 20.5611 10.3592 22.6437 10.3592 24.7248C10.3592 24.9251 10.3312 25.0002 10.1015 25.0002C7.83185 24.9899 5.56225 25.0002 3.29412 24.9929C3.01924 25.0006 2.74562 24.9529 2.48959 24.8525C2.23356 24.7522 2.00037 24.6013 1.80394 24.4088C1.60751 24.2164 1.45187 23.9863 1.34629 23.7324C1.24072 23.4785 1.18739 23.2059 1.18947 22.9309C1.18064 19.3283 1.18947 15.7243 1.18947 12.1217C1.18947 11.9612 1.23808 11.9185 1.39714 11.9185C4.31625 11.9185 7.23586 11.9185 10.156 11.9185C10.371 11.9185 10.3636 12.0186 10.3636 12.1674C10.3607 14.2696 10.3592 16.3733 10.3592 18.4785Z" fill="#6F9C3D"/>
<path d="M5.709 11.1801C4.30247 11.1801 2.89446 11.1492 1.4894 11.1948C1.10947 11.184 0.747397 11.0311 0.474711 10.7664C0.202025 10.5016 0.0385537 10.1442 0.0165875 9.76469C-0.00697749 8.90308 -0.00403186 8.03999 0.0165875 7.17985C0.0302643 6.78894 0.194547 6.41846 0.475079 6.14588C0.755611 5.8733 1.13066 5.71975 1.5218 5.71732C4.40115 5.70996 7.27902 5.71733 10.1584 5.70996C10.3218 5.70996 10.3587 5.76151 10.3587 5.91616C10.3528 7.59912 10.3528 9.28258 10.3587 10.9665C10.3587 11.1654 10.285 11.1845 10.1201 11.183C8.65021 11.1781 7.17985 11.1771 5.709 11.1801Z" fill="#6F9C3D"/>
<path d="M17.7381 11.1802C16.2756 11.1802 14.8116 11.1802 13.3476 11.1802C13.1547 11.1802 13.0855 11.1463 13.0869 10.9342C13.0968 9.27577 13.0968 7.61686 13.0869 5.95746C13.0869 5.75421 13.137 5.70266 13.3403 5.70413C16.1533 5.7115 18.9664 5.70413 21.7795 5.70413C22.7928 5.70413 23.4334 6.35218 23.4349 7.36844C23.4349 8.13285 23.4437 8.89725 23.4349 9.66166C23.4398 9.95259 23.361 10.2388 23.2081 10.4863C23.0551 10.7338 22.8343 10.9322 22.5718 11.0579C22.4207 11.1373 22.2521 11.1773 22.0814 11.1743C20.6307 11.1787 19.1829 11.1802 17.7381 11.1802Z" fill="#6F9C3D"/>
<path d="M11.741 4.98125C11.2049 4.98125 10.6688 4.98125 10.1327 4.98125C10.0737 4.99043 10.0135 4.9766 9.96443 4.9426C9.91536 4.90861 9.88123 4.85706 9.86909 4.79862C9.60693 4.03127 9.73065 3.32578 10.2874 2.744C10.5352 2.45939 10.8638 2.25683 11.2294 2.16319C11.595 2.06955 11.9804 2.08925 12.3346 2.21967C13.0901 2.46858 13.5379 3.01354 13.6778 3.80445C13.7292 4.14283 13.6926 4.48874 13.5717 4.80893C13.5607 4.86371 13.5289 4.91213 13.4832 4.9442C13.4374 4.97627 13.3811 4.98954 13.3258 4.98125C12.797 4.97536 12.2698 4.98125 11.741 4.98125Z" fill="#6F9C3D"/>
</svg>
