<svg width="25" height="25" viewBox="0 0 25 25" fill="none" xmlns="http://www.w3.org/2000/svg">
<path d="M24.9949 6.68898V18.3089C24.945 18.5935 24.8993 18.8826 24.845 19.1672C24.2169 22.427 21.1786 24.9783 17.8577 24.9913C14.2869 25.0065 10.7139 24.9913 7.14308 24.9913C6.44302 24.9884 5.74801 24.8725 5.08493 24.648C3.59435 24.1734 2.29571 23.2326 1.38045 21.9641C0.465202 20.6956 -0.0182172 19.1666 0.00146862 17.6026C0.00146862 14.2038 0.00146862 10.8035 0.00146862 7.40177C-0.00766525 6.97069 0.0258235 6.53976 0.101444 6.11527C0.683901 3.17716 2.40954 1.24522 5.24358 0.297722C5.69998 0.1456 6.17812 0.106485 6.64321 0H18.3619C18.5207 0.0584788 18.6882 0.0893486 18.8574 0.0912722C21.811 0.669332 23.7518 2.39482 24.7037 5.23948C24.8312 5.71605 24.9284 6.20017 24.9949 6.68898ZM11.2746 16.1118C11.2746 16.8528 11.2746 17.5917 11.2746 18.3328C11.2713 18.5226 11.3124 18.7107 11.3947 18.8818C11.4769 19.053 11.598 19.2026 11.7483 19.3187C11.8986 19.4348 12.074 19.5142 12.2604 19.5505C12.4468 19.5868 12.6391 19.5791 12.822 19.528C13.0865 19.4524 13.3179 19.2904 13.4794 19.0678C13.6409 18.8452 13.7232 18.575 13.7131 18.3002C13.7131 16.8594 13.7131 15.4185 13.7131 13.9799C13.7131 13.7626 13.7696 13.7126 13.9804 13.7148C15.4214 13.7257 16.8623 13.7148 18.3032 13.7148C18.4954 13.7229 18.6868 13.6854 18.8617 13.6054C19.0366 13.5253 19.1901 13.4051 19.3096 13.2544C19.4292 13.1037 19.5114 12.9269 19.5495 12.7384C19.5876 12.5498 19.5806 12.355 19.529 12.1697C19.4531 11.9013 19.2884 11.6666 19.0618 11.504C18.8352 11.3413 18.5601 11.2604 18.2815 11.2743C16.8579 11.2743 15.4344 11.2743 14.0087 11.2743C13.7914 11.2743 13.7109 11.2309 13.7131 10.9875C13.7261 9.55537 13.724 8.12326 13.7131 6.69115C13.7228 6.49913 13.6867 6.30754 13.6079 6.13216C13.5292 5.95678 13.4098 5.8026 13.2598 5.68231C13.1098 5.56202 12.9334 5.47905 12.7451 5.44023C12.5568 5.4014 12.3619 5.40782 12.1766 5.45897C11.9075 5.53263 11.6714 5.69557 11.5071 5.92104C11.3428 6.14652 11.2601 6.42114 11.2724 6.69984C11.2724 8.13195 11.2724 9.56407 11.2724 10.9962C11.2724 11.2135 11.2138 11.2743 10.9943 11.2743C9.5526 11.2642 8.11167 11.2642 6.67147 11.2743C6.48253 11.2682 6.29476 11.3062 6.1231 11.3854C5.95145 11.4646 5.80064 11.5827 5.68268 11.7304C5.56471 11.8782 5.48285 12.0513 5.4436 12.2362C5.40434 12.4212 5.40879 12.6127 5.45657 12.7956C5.52848 13.0653 5.69016 13.3025 5.91496 13.468C6.13976 13.6335 6.41426 13.7175 6.6932 13.7061C8.12543 13.7061 9.55767 13.7061 10.9899 13.7061C11.2072 13.7061 11.279 13.7452 11.2746 13.9799C11.2637 14.6949 11.2746 15.4033 11.2746 16.1118Z" fill="#6F9C3D"/>
</svg>
