<svg width="30" height="32" viewBox="0 0 30 32" fill="none" xmlns="http://www.w3.org/2000/svg">
<path d="M13.9988 15.0244C13.0015 15.0319 12.0128 14.8408 11.0902 14.4622C10.1676 14.0837 9.32961 13.5252 8.6251 12.8194C7.92059 12.1136 7.36365 11.2746 6.98678 10.3513C6.60991 9.42797 6.42065 8.43887 6.43002 7.44167C6.43939 6.44446 6.64722 5.45911 7.04138 4.54307C7.43554 3.62702 8.00815 2.79861 8.72581 2.10617C9.44346 1.41373 10.2918 0.871116 11.2214 0.509957C12.1509 0.148797 13.1431 -0.0236735 14.14 0.00260968C18.2745 0.0703897 21.624 3.47633 21.5675 7.55161C21.511 11.7314 18.1051 15.0921 13.9988 15.0244Z" fill="#6F9C3D"/>
<path d="M17.1846 18.3285C17.1846 18.4442 17.0886 18.4951 17.0321 18.5713C16.7851 18.8888 16.6002 19.25 16.487 19.636C16.3204 20.2009 16.3176 20.2009 15.7019 20.2009C15.0996 20.1688 14.4957 20.1906 13.8973 20.2658C13.1396 20.4179 12.4627 20.8396 11.9922 21.4527C11.5216 22.0657 11.2893 22.8286 11.3382 23.5998C11.3872 24.3711 11.7141 25.0985 12.2584 25.6471C12.8027 26.1957 13.5275 26.5284 14.2983 26.5835C14.8914 26.6202 15.4845 26.6089 16.0747 26.6061C16.2724 26.6061 16.3797 26.6456 16.4164 26.8603C16.5508 27.6393 16.9821 28.3358 17.6195 28.8033C17.6722 28.8316 17.7126 28.8784 17.733 28.9347C17.7533 28.991 17.7521 29.0528 17.7297 29.1083C17.5591 29.6898 17.5641 30.3088 17.7438 30.8875C17.8031 31.0852 17.7438 31.1304 17.563 31.1135H2.64015C2.025 31.1428 1.4204 30.9458 0.940625 30.5597C0.460847 30.1736 0.139125 29.6251 0.0362632 29.0179C0.00922871 28.8641 -0.00212478 28.708 0.00237461 28.5519C0.00237461 26.8349 0.00237461 25.1168 0.00237461 23.3978C-0.0177509 22.9592 0.0903984 22.5241 0.313597 22.1459C0.536796 21.7678 0.865368 21.4628 1.25913 21.2684C3.8612 19.8791 6.67546 18.9305 9.5876 18.4612C11.8396 18.101 14.1271 18.0166 16.3995 18.2098C16.6452 18.2296 16.8881 18.2578 17.1338 18.2861C17.1507 18.2917 17.1648 18.3143 17.1846 18.3285Z" fill="#6F9C3D"/>
<path d="M29.4048 23.4091C29.4048 24.9822 29.4048 26.5581 29.4048 28.1311C29.4198 29.0099 29.1275 29.8664 28.5783 30.5526C28.0292 31.2389 27.2577 31.712 26.3971 31.8901C26.2124 31.9383 26.023 31.9658 25.8322 31.972C24.6574 31.972 23.4825 32.0596 22.3133 31.924C21.427 31.8186 20.6126 31.3841 20.0314 30.7068C19.8348 30.5008 19.728 30.2252 19.7347 29.9405C19.7413 29.6558 19.8607 29.3854 20.0667 29.1888C20.2727 28.9922 20.5483 28.8855 20.833 28.8921C21.1177 28.8987 21.3881 29.0181 21.5847 29.2241C21.7809 29.4307 22.0204 29.5913 22.286 29.6944C22.5517 29.7974 22.8368 29.8403 23.121 29.82C23.9033 29.8031 24.6856 29.82 25.4679 29.82C26.5976 29.82 27.2471 29.1507 27.2471 28.021V18.7775C27.2471 17.6478 26.5806 16.9926 25.4538 16.9898C24.6489 16.9898 23.844 17.0039 23.0391 16.9898C22.7713 16.9734 22.5032 17.0172 22.2545 17.1179C22.0058 17.2185 21.7827 17.3736 21.6016 17.5716C21.464 17.7274 21.2823 17.8377 21.0806 17.8882C20.879 17.9386 20.6667 17.9267 20.472 17.854C20.2861 17.7937 20.121 17.6822 19.9956 17.5324C19.8703 17.3825 19.7897 17.2003 19.7631 17.0068C19.7335 16.8564 19.74 16.7011 19.7823 16.5538C19.8245 16.4065 19.9012 16.2713 20.006 16.1595C20.3118 15.7865 20.6909 15.4803 21.1199 15.2598C21.5488 15.0392 22.0184 14.909 22.4997 14.8773C23.6718 14.8124 24.8466 14.8124 26.0186 14.8773C27.7131 14.9677 29.3229 16.5492 29.3822 18.2663C29.4415 19.9834 29.3822 21.7033 29.3822 23.4204L29.4048 23.4091Z" fill="#6F9C3D"/>
<path d="M19.7431 22.2456C19.4607 21.9632 19.1585 21.6808 18.8704 21.3786C18.7553 21.2822 18.6615 21.1628 18.5951 21.0282C18.5286 20.8936 18.4909 20.7465 18.4844 20.5965C18.4778 20.4465 18.5026 20.2968 18.5571 20.1569C18.6116 20.017 18.6946 19.8899 18.8009 19.7839C18.9071 19.6778 19.0343 19.595 19.1744 19.5408C19.3144 19.4866 19.4641 19.4621 19.6141 19.4689C19.7641 19.4757 19.9111 19.5137 20.0456 19.5804C20.1801 19.6471 20.2993 19.7411 20.3955 19.8564C21.3218 20.7751 22.2472 21.6958 23.1716 22.6184C23.2807 22.7189 23.3678 22.8409 23.4274 22.9768C23.487 23.1127 23.5177 23.2594 23.5177 23.4077C23.5177 23.5561 23.487 23.7028 23.4274 23.8387C23.3678 23.9746 23.2807 24.0966 23.1716 24.1971C22.2453 25.1178 21.318 26.0375 20.3898 26.9563C20.2945 27.072 20.1761 27.1666 20.0422 27.234C19.9083 27.3014 19.7618 27.3401 19.6121 27.3478C19.4624 27.3554 19.3127 27.3317 19.1726 27.2783C19.0326 27.2249 18.9052 27.1428 18.7986 27.0374C18.692 26.932 18.6085 26.8055 18.5535 26.6661C18.4985 26.5266 18.4732 26.3772 18.4792 26.2274C18.4851 26.0776 18.5223 25.9307 18.5882 25.7961C18.6541 25.6614 18.7473 25.542 18.8619 25.4454C19.1585 25.146 19.4663 24.8608 19.7826 24.5558C19.6584 24.4885 19.5149 24.4656 19.3759 24.4908C17.7888 24.4908 16.2016 24.4908 14.6172 24.4908C14.3561 24.5026 14.0993 24.4214 13.8924 24.2616C13.6856 24.1018 13.5421 23.8738 13.4875 23.6181C13.4406 23.3695 13.4822 23.1123 13.6049 22.891C13.7277 22.6698 13.9239 22.4984 14.1597 22.4066C14.3522 22.3458 14.5541 22.3209 14.7556 22.3332H19.7064L19.7431 22.2456Z" fill="#6F9C3D"/>
</svg>
