<svg width="32" height="32" viewBox="0 0 32 32" fill="none" xmlns="http://www.w3.org/2000/svg">
<path d="M6.39812 7.47815V5.68338C6.39812 4.64356 6.39812 3.60375 6.39812 2.57818C6.41235 1.90375 6.68472 1.26044 7.1591 0.7808C7.63348 0.301161 8.27376 0.0217279 8.94805 0H22.3956V6.709C22.3728 7.08907 22.4308 7.46966 22.5659 7.82565C22.701 8.18164 22.9101 8.50492 23.1794 8.77415C23.4486 9.04339 23.7719 9.25242 24.128 9.38751C24.484 9.52259 24.8646 9.58067 25.2447 9.55782H31.9543V29.2289C31.9715 29.6037 31.9089 29.978 31.7706 30.3268C31.6324 30.6756 31.4216 30.991 31.1523 31.2523C30.8829 31.5135 30.5611 31.7146 30.2082 31.8421C29.8553 31.9697 29.4793 32.0209 29.1052 31.9923H9.20445C8.79805 32.0129 8.39231 31.9406 8.01802 31.7809C7.64373 31.6213 7.31073 31.3785 7.04433 31.0709C6.77793 30.7633 6.58513 30.3991 6.48056 30.0059C6.376 29.6127 6.36241 29.2008 6.44085 28.8015H10.8142C11.8323 28.8163 12.8222 28.4672 13.6057 27.8169C14.3892 27.1667 14.9148 26.2581 15.0878 25.2548C15.1161 24.9563 15.1161 24.6558 15.0878 24.3574C15.0878 20.1839 15.0878 16.0246 15.0878 11.8654C15.1092 10.8696 14.7822 9.89771 14.1631 9.11748C13.5441 8.33724 12.672 7.79773 11.6974 7.59213C11.3588 7.53074 11.0158 7.49738 10.6717 7.49241L6.39812 7.47815ZM27.2106 25.6394V13.0618C27.2106 12.2641 26.7974 11.7656 26.1422 11.7514C25.4869 11.7371 25.0738 12.2642 25.0738 13.0761V25.6109H23.4783V17.449C23.4854 17.3352 23.4854 17.221 23.4783 17.1072C23.4689 16.9004 23.3973 16.7014 23.2727 16.5362C23.1481 16.3709 22.9764 16.2472 22.7803 16.1813C22.602 16.1016 22.4034 16.0793 22.212 16.1176C22.0205 16.1559 21.8457 16.2528 21.7119 16.395C21.5857 16.5118 21.488 16.656 21.4263 16.8165C21.3645 16.977 21.3404 17.1495 21.3557 17.3208V25.6822H19.746C19.746 24.2577 19.746 22.9472 19.746 21.594C19.745 21.3619 19.6914 21.1331 19.5893 20.9246C19.4868 20.725 19.3199 20.5657 19.1157 20.4727C18.9115 20.3796 18.6818 20.3582 18.4639 20.4118C18.2191 20.4651 18.0008 20.6026 17.8472 20.8005C17.6936 20.9984 17.6144 21.244 17.6235 21.4944C17.6235 22.7764 17.6235 24.0583 17.6235 25.3402V25.7248H17.0536C16.8459 25.7283 16.6439 25.7939 16.4738 25.9132C16.3037 26.0326 16.1732 26.2002 16.0992 26.3944C16.0213 26.5766 15.9987 26.7777 16.0341 26.9727C16.0696 27.1677 16.1616 27.3479 16.2986 27.4911C16.4167 27.6165 16.5607 27.7147 16.7206 27.7787C16.8806 27.8427 17.0526 27.8709 17.2246 27.8615H27.5952C27.7476 27.8751 27.9012 27.8575 28.0466 27.8098C28.192 27.7621 28.3261 27.6852 28.4408 27.5839C28.5555 27.4825 28.6482 27.3589 28.7135 27.2205C28.7787 27.082 28.8151 26.9318 28.8203 26.7789C28.8151 26.6278 28.7791 26.4794 28.7146 26.3427C28.65 26.206 28.5583 26.084 28.445 25.984C28.3316 25.884 28.1991 25.8082 28.0554 25.7612C27.9117 25.7142 27.76 25.6969 27.6094 25.7106L27.2106 25.6394ZM15.4439 4.27323H19.1762C19.4595 4.27323 19.7313 4.16068 19.9317 3.96034C20.132 3.75999 20.2446 3.48826 20.2446 3.20492C20.2446 2.92159 20.132 2.64986 19.9317 2.44951C19.7313 2.24916 19.4595 2.13661 19.1762 2.13661H11.7686C11.607 2.13215 11.4466 2.16598 11.3006 2.23529C11.1545 2.3046 11.0269 2.40748 10.9281 2.53549C10.7942 2.67811 10.7073 2.85845 10.6793 3.05208C10.6513 3.24572 10.6834 3.44322 10.7714 3.61797C10.8545 3.82221 10.9995 3.99529 11.186 4.11283C11.3726 4.23037 11.5913 4.28648 11.8114 4.27323H15.4439ZM17.595 6.40984H16.0422C15.7589 6.40984 15.4871 6.52239 15.2867 6.72274C15.0864 6.92308 14.9738 7.19482 14.9738 7.47815C14.9738 7.76148 15.0864 8.03322 15.2867 8.23357C15.4871 8.43391 15.7589 8.54646 16.0422 8.54646H19.105C19.3883 8.54646 19.6601 8.43391 19.8604 8.23357C20.0608 8.03322 20.1734 7.76148 20.1734 7.47815C20.1734 7.19482 20.0608 6.92308 19.8604 6.72274C19.6601 6.52239 19.3883 6.40984 19.105 6.40984H17.595Z" fill="#6F9C3D"/>
<path d="M12.809 18.1899V24.5712C12.8214 24.8669 12.7718 25.1618 12.6634 25.4372C12.5549 25.7126 12.3901 25.9623 12.1795 26.1702C11.9689 26.3781 11.7172 26.5397 11.4404 26.6445C11.1636 26.7494 10.868 26.7952 10.5725 26.779H2.21047C1.91603 26.7912 1.62228 26.742 1.34792 26.6344C1.07355 26.5269 0.824599 26.3634 0.616891 26.1544C0.409184 25.9453 0.247274 25.6954 0.141489 25.4203C0.0357035 25.1453 -0.0116362 24.8513 0.00246119 24.5569V11.9082C-0.0117856 11.6126 0.0359365 11.3173 0.142576 11.0413C0.249215 10.7652 0.412405 10.5145 0.621673 10.3053C0.830942 10.096 1.08165 9.93286 1.35772 9.82623C1.63379 9.71961 1.92912 9.67184 2.22473 9.68609H10.5867C10.8836 9.67168 11.1802 9.7198 11.4573 9.82728C11.7344 9.93476 11.9858 10.0992 12.1953 10.3101C12.4048 10.5209 12.5677 10.7733 12.6734 11.051C12.7791 11.3288 12.8253 11.6257 12.809 11.9224V18.1899ZM6.1707 15.4977H8.16503C8.44839 15.4977 8.72015 15.3852 8.92051 15.1848C9.12088 14.9845 9.23343 14.7127 9.23343 14.4294C9.23343 14.1461 9.12088 13.8743 8.92051 13.674C8.72015 13.4736 8.44839 13.3611 8.16503 13.3611H4.1336C3.98446 13.3473 3.83409 13.3646 3.69198 13.4119C3.54987 13.4592 3.4191 13.5354 3.30798 13.6358C3.19685 13.7362 3.10778 13.8586 3.04638 13.9952C2.98497 14.1318 2.95257 14.2796 2.95124 14.4294C2.95476 14.5772 2.98815 14.7228 3.04938 14.8574C3.1106 14.992 3.19841 15.1128 3.30752 15.2125C3.41663 15.3123 3.54479 15.3891 3.6843 15.4381C3.82382 15.4871 3.97181 15.5073 4.11936 15.4977H6.1707ZM8.06531 19.7709C8.83455 19.7709 9.31891 19.3863 9.3474 18.7596C9.3598 18.4839 9.26643 18.2139 9.08639 18.0048C8.90634 17.7956 8.65319 17.6631 8.37871 17.6343C7.52398 17.5346 6.95418 17.8479 6.78323 18.4747C6.75077 18.6507 6.76135 18.8321 6.81406 19.0032C6.86676 19.1743 6.96003 19.3301 7.08594 19.4574C7.21184 19.5847 7.36665 19.6797 7.53717 19.7342C7.70769 19.7888 7.88888 19.8014 8.06531 19.7709ZM8.06531 20.8392C7.36728 20.8392 6.91143 21.1384 6.79747 21.6654C6.76659 21.8088 6.76517 21.9569 6.7933 22.1009C6.82143 22.2449 6.87853 22.3816 6.96113 22.5028C7.04373 22.624 7.15012 22.7273 7.27381 22.8062C7.3975 22.885 7.53593 22.9379 7.6807 22.9616C8.56391 23.1183 9.26193 22.7194 9.3474 22.05C9.40438 21.295 8.92003 20.8392 8.06531 20.8392ZM4.2903 19.8421C4.5815 19.7701 4.86348 19.665 5.13077 19.5288C5.32369 19.3982 5.46396 19.2034 5.52657 18.979C5.58919 18.7546 5.57009 18.5153 5.47267 18.3038C5.25899 17.7767 4.74616 17.5489 3.96266 17.6343C3.73344 17.6551 3.51654 17.7474 3.34269 17.8982C3.16884 18.049 3.04684 18.2507 2.99397 18.4747C2.96428 18.6547 2.97668 18.8392 3.0302 19.0137C3.08373 19.1882 3.17692 19.3479 3.30248 19.4804C3.42804 19.6128 3.58255 19.7144 3.75393 19.7772C3.9253 19.84 4.10889 19.8622 4.2903 19.8421ZM4.2903 22.9759C5.05955 22.9759 5.55813 22.5771 5.55813 21.9361C5.56611 21.6598 5.46668 21.3911 5.28073 21.1866C5.09478 20.982 4.83679 20.8576 4.56097 20.8392C3.67775 20.7538 3.13642 21.0814 2.99397 21.7224C2.96921 21.8953 2.98556 22.0716 3.0417 22.237C3.09784 22.4023 3.1922 22.5522 3.31708 22.6743C3.44197 22.7964 3.59389 22.8873 3.76051 22.9397C3.92713 22.9921 4.10376 23.0045 4.27606 22.9759H4.2903Z" fill="#6F9C3D"/>
<path d="M31.2642 7.47804H25.1672C24.7399 7.47804 24.5547 7.2929 24.5547 6.87982C24.5547 4.8714 24.5547 2.84875 24.5547 0.840333V0.769043L31.2642 7.47804Z" fill="#6F9C3D"/>
</svg>
