<svg width="32" height="32" viewBox="0 0 32 32" fill="none" xmlns="http://www.w3.org/2000/svg">
<path d="M0 15.7491C0.246605 15.0782 0.730589 14.8199 1.43182 14.8551C2.04498 14.8861 2.66065 14.85 3.27716 14.8677C3.5137 14.8744 3.62023 14.8039 3.69656 14.5733C3.99156 13.6584 4.57005 12.8611 5.3483 12.2968C6.12655 11.7324 7.0642 11.4303 8.02556 11.4341C8.98693 11.4379 9.92214 11.7475 10.6959 12.3181C11.4696 12.8886 12.0417 13.6905 12.3294 14.6077C12.4057 14.8484 12.5374 14.8643 12.7404 14.8643C18.6875 14.8609 24.6342 14.8609 30.5807 14.8643C30.7575 14.8562 30.9347 14.8646 31.11 14.8895C31.3772 14.9461 31.615 15.0973 31.7797 15.3153C31.9443 15.5332 32.0247 15.8033 32.0062 16.0758C31.9876 16.3483 31.8713 16.6049 31.6786 16.7986C31.4859 16.9922 31.2298 17.1097 30.9573 17.1296C30.8122 17.1397 30.6654 17.138 30.5203 17.138C24.6046 17.138 18.6889 17.1358 12.7731 17.1313C12.493 17.1313 12.3856 17.2152 12.3009 17.4802C11.7012 19.3429 9.93131 20.5783 7.91485 20.5649C6.01415 20.5532 4.26191 19.2582 3.69237 17.429C3.62107 17.1984 3.51706 17.1254 3.27884 17.1321C2.66485 17.1506 2.04917 17.1137 1.4335 17.1447C0.732268 17.1799 0.248284 16.9191 0.00167922 16.2507L0 15.7491Z" fill="#6F9C3D"/>
<path d="M0 27.1874C0.244089 26.4971 0.748205 26.2774 1.45615 26.2799C6.23727 26.295 11.0184 26.2858 15.7995 26.2933C16.0688 26.2933 16.1929 26.2313 16.2818 25.9579C16.8841 24.0943 18.6397 22.8547 20.6301 22.8673C21.5784 22.8735 22.5005 23.1788 23.2651 23.7396C24.0297 24.3003 24.5979 25.0881 24.8887 25.9906C24.9608 26.2195 25.0631 26.2917 25.3022 26.29C27.0729 26.2791 28.8436 26.2841 30.6143 26.2849C30.8116 26.2731 31.0095 26.2912 31.2014 26.3386C31.4521 26.417 31.6682 26.5792 31.8133 26.7981C31.9584 27.0169 32.0237 27.2791 31.9983 27.5405C31.9731 27.8075 31.853 28.0567 31.6599 28.2428C31.4668 28.429 31.2134 28.5398 30.9456 28.5553C30.4566 28.5762 29.9667 28.5645 29.4769 28.5645C28.071 28.5645 26.6644 28.5645 25.2586 28.5645C25.0648 28.5645 24.9675 28.6098 24.8996 28.8086C24.2923 30.6 23.0349 31.6333 21.1787 31.9545C21.1397 31.9655 21.102 31.9807 21.0663 31.9998H20.0673C20.001 31.9335 19.9121 31.9528 19.8324 31.9369C18.0751 31.5838 16.8706 30.5757 16.2701 28.884C16.1795 28.6324 16.0713 28.562 15.8163 28.5628C11.0352 28.5704 6.25404 28.5628 1.47292 28.5771C0.766659 28.5771 0.262544 28.3666 0.0041955 27.6872L0 27.1874Z" fill="#6F9C3D"/>
<path d="M0.00419294 4.31006C0.262541 3.63072 0.766656 3.41853 1.47292 3.42021C7.01566 3.43615 12.5584 3.42692 18.1012 3.43698C18.3847 3.43698 18.4912 3.34389 18.5742 3.08809C19.1714 1.23794 20.9388 -0.00668253 22.9309 2.69943e-05C24.8291 0.00757521 26.6065 1.30084 27.1752 3.11577C27.2591 3.38079 27.3782 3.43699 27.629 3.43447C28.7194 3.42357 29.8174 3.42189 30.9112 3.43447C31.1846 3.4397 31.4467 3.54503 31.6477 3.73052C31.8486 3.91601 31.9746 4.16877 32.0016 4.4409C32.029 4.70214 31.9655 4.96483 31.8219 5.18478C31.6783 5.40473 31.4634 5.56852 31.2132 5.64861C31.0316 5.69657 30.8437 5.71553 30.6562 5.7048C29.6354 5.7048 28.6146 5.71235 27.5938 5.70061C27.3614 5.70061 27.2532 5.75513 27.1744 5.99332C26.8783 6.90519 26.3008 7.69974 25.5247 8.26276C24.7486 8.82578 23.814 9.12829 22.8552 9.1268C21.8963 9.12531 20.9626 8.8199 20.1883 8.25447C19.414 7.68903 18.8389 6.89269 18.5457 5.9799C18.4618 5.72829 18.3369 5.70145 18.1162 5.70145C12.5634 5.70648 7.00979 5.70145 1.45698 5.71319C0.748203 5.71319 0.244928 5.49597 0 4.80573L0.00419294 4.31006Z" fill="#6F9C3D"/>
</svg>
