<svg width="31" height="32" viewBox="0 0 31 32" fill="none" xmlns="http://www.w3.org/2000/svg">
<path d="M15.2412 11.4462C20.1623 11.4462 25.0846 11.4462 30.0082 11.4462C30.3496 11.4462 30.4672 11.505 30.4653 11.8825C30.4521 17.4945 30.4388 23.1066 30.4653 28.7168C30.4748 30.6779 29.1377 31.7779 27.9087 31.9619C27.7202 31.9887 27.53 32.0014 27.3397 31.9998H3.12183C1.3978 31.9998 0.127073 30.803 0.0113792 29.0828C0.0113792 28.952 0 28.8211 0 28.6902C0 23.0889 0 17.4895 0 11.8919C0 11.5316 0.08914 11.4443 0.449497 11.4443C5.3769 11.4456 10.3075 11.4462 15.2412 11.4462ZM15.226 19.7913C15.4764 19.7913 15.7248 19.7913 15.9752 19.7913C16.3773 19.7954 16.7645 19.6396 17.0519 19.3583C17.3392 19.077 17.5031 18.6932 17.5077 18.2911C17.5247 17.779 17.5247 17.2688 17.5077 16.7567C17.5109 16.3714 17.3641 15.9999 17.0982 15.721C16.8323 15.442 16.4684 15.2775 16.0833 15.2622C15.5148 15.2281 14.9448 15.2281 14.3763 15.2622C13.9972 15.2758 13.6377 15.4345 13.3723 15.7056C13.1068 15.9767 12.9557 16.3394 12.9501 16.7188C12.9292 17.2537 12.9292 17.7904 12.9501 18.3233C12.9591 18.7201 13.1247 19.0972 13.4107 19.3722C13.6968 19.6473 14.0801 19.7979 14.4769 19.7913C14.7272 19.7913 14.9757 19.7913 15.226 19.7913ZM15.226 23.6263C14.9776 23.6263 14.7272 23.6263 14.4769 23.6263C14.0802 23.6181 13.6965 23.7674 13.4097 24.0414C13.1229 24.3155 12.9562 24.692 12.9463 25.0886C12.9235 25.6234 12.9235 26.1582 12.9463 26.6931C12.9495 27.0665 13.0945 27.4246 13.3519 27.6951C13.6094 27.9655 13.96 28.128 14.3327 28.1497C14.9258 28.1876 15.5206 28.1876 16.1136 28.1497C16.4862 28.1295 16.8372 27.9683 17.0954 27.6989C17.3536 27.4295 17.4996 27.0719 17.5039 26.6988C17.5266 26.1639 17.5266 25.6291 17.5039 25.0942C17.4959 24.6972 17.3306 24.3195 17.0443 24.0442C16.758 23.769 16.3742 23.6186 15.9771 23.6263C15.7286 23.6263 15.4764 23.6301 15.2298 23.6301L15.226 23.6263ZM4.58222 17.5211C4.58222 17.7828 4.58222 18.0445 4.58222 18.3063C4.5817 18.6965 4.73519 19.0712 5.00935 19.3489C5.28352 19.6266 5.65619 19.7849 6.04641 19.7894C6.58125 19.7983 7.11547 19.7983 7.64905 19.7894C8.01573 19.7905 8.36926 19.6529 8.63871 19.4042C8.90817 19.1555 9.07362 18.8141 9.10186 18.4485C9.15497 17.8326 9.15497 17.2133 9.10186 16.5974C9.07924 16.2556 8.93437 15.9334 8.69374 15.6896C8.4531 15.4459 8.13277 15.2968 7.7913 15.2698C7.16422 15.212 6.53314 15.212 5.90606 15.2698C5.54088 15.3022 5.20135 15.4712 4.95526 15.743C4.70917 16.0147 4.57461 16.3693 4.57843 16.7359C4.58222 17.0014 4.58601 17.2631 4.58601 17.5249L4.58222 17.5211ZM25.8641 17.5211C25.8641 17.2594 25.8641 16.9976 25.8641 16.7359C25.867 16.3699 25.732 16.0163 25.486 15.7454C25.24 15.4744 24.901 15.306 24.5365 15.2736C23.9088 15.2167 23.2771 15.2167 22.6494 15.2736C22.3161 15.3027 22.0037 15.4483 21.7671 15.6848C21.5306 15.9214 21.385 16.2338 21.3559 16.5671C21.2975 17.1979 21.2975 17.8328 21.3559 18.4637C21.3878 18.8274 21.5553 19.1658 21.8251 19.4118C22.0949 19.6577 22.4474 19.7932 22.8125 19.7913C23.3473 19.8002 23.8822 19.8002 24.417 19.7913C24.8009 19.785 25.1674 19.6301 25.4394 19.3592C25.7114 19.0882 25.8677 18.7224 25.8755 18.3385C25.8736 18.0673 25.8679 17.7942 25.8679 17.5154L25.8641 17.5211ZM4.58791 25.8984C4.58791 26.1715 4.58791 26.4446 4.58791 26.7177C4.59303 27.0783 4.73154 27.4242 4.97673 27.6887C5.22191 27.9531 5.55637 28.1174 5.91554 28.1497C6.5433 28.2066 7.17492 28.2066 7.80268 28.1497C8.14415 28.1226 8.46448 27.9736 8.70511 27.7298C8.94575 27.4861 9.09062 27.1638 9.11324 26.8221C9.16634 26.2062 9.16634 25.5869 9.11324 24.971C9.08457 24.6055 8.91899 24.2644 8.64963 24.0158C8.38027 23.7672 8.02699 23.6294 7.66043 23.6301C7.12559 23.6212 6.59137 23.6212 6.05779 23.6301C5.66741 23.6336 5.29425 23.7912 5.01963 24.0687C4.74501 24.3462 4.59119 24.7209 4.5917 25.1113C4.58222 25.3749 4.58602 25.6367 4.58791 25.8984ZM25.8679 25.8984C25.8679 25.6367 25.8679 25.3749 25.8679 25.1132C25.868 24.723 25.714 24.3485 25.4395 24.0711C25.1649 23.7938 24.7921 23.636 24.4018 23.632C23.867 23.6231 23.3322 23.6231 22.7973 23.632C22.431 23.6313 22.0779 23.7692 21.8088 24.0178C21.5398 24.2665 21.3746 24.6076 21.3464 24.9729C21.2933 25.5888 21.2933 26.2081 21.3464 26.824C21.369 27.1657 21.5139 27.488 21.7545 27.7317C21.9952 27.9755 22.3155 28.1245 22.657 28.1516C23.2847 28.2094 23.9164 28.2094 24.5441 28.1516C24.9037 28.1205 25.2389 27.9566 25.4844 27.6919C25.7298 27.4272 25.8679 27.0806 25.8717 26.7196C25.8736 26.4446 25.8679 26.1715 25.8679 25.8984Z" fill="#6F9C3D"/>
<path d="M15.2319 9.9293C10.3007 9.9293 5.36953 9.9293 0.438333 9.9293C0.100735 9.9293 -0.00547478 9.84964 0.000215062 9.50066C0.0286643 8.01562 -0.0168524 6.52678 0.0438393 5.04363C0.104531 3.56048 1.45303 2.32199 2.94945 2.30113C3.22257 2.30113 3.56585 2.21199 3.74793 2.34286C3.93 2.47372 3.80672 2.85115 3.82 3.11857C3.88638 4.69086 5.11728 6.0052 6.60992 6.08297C8.27135 6.16831 9.62933 5.09484 9.8702 3.48651C9.90564 3.19073 9.91263 2.89222 9.89106 2.5951C9.88158 2.36751 9.94796 2.28406 10.1869 2.29354C10.699 2.31061 11.2092 2.29354 11.7213 2.29354C14.5264 2.29354 17.3334 2.29354 20.1385 2.28406C20.4931 2.28406 20.6107 2.35803 20.5861 2.72787C20.5045 3.91894 20.9237 4.90708 21.9327 5.57279C22.3729 5.88447 22.8917 6.06641 23.4301 6.09792C23.9686 6.12944 24.5051 6.00926 24.9786 5.75106C26.0313 5.21811 26.5585 4.31912 26.6496 3.15271C26.6496 3.10529 26.6496 3.05788 26.6496 3.01046C26.6628 2.28595 26.6628 2.28596 27.4082 2.29165C29.0431 2.29165 30.3669 3.49979 30.4333 5.13656C30.4959 6.64437 30.4561 8.15596 30.4655 9.66567C30.4655 9.84395 30.4086 9.93309 30.219 9.91602C30.1242 9.91602 30.0293 9.91602 29.9326 9.91602L15.2319 9.9293Z" fill="#6F9C3D"/>
<path d="M8.36945 2.34191C8.36945 2.57898 8.36945 2.81796 8.36945 3.05503C8.37826 3.45945 8.22604 3.85081 7.9463 4.143C7.66655 4.4352 7.28219 4.60429 6.87777 4.6131C6.47334 4.6219 6.08199 4.46969 5.7898 4.18994C5.4976 3.9102 5.3285 3.52583 5.3197 3.12141C5.29694 2.59984 5.30263 2.07448 5.3197 1.55291C5.32231 1.35254 5.36437 1.15465 5.44346 0.970526C5.52256 0.786406 5.63715 0.619662 5.78068 0.479826C5.92422 0.339989 6.09389 0.229794 6.28001 0.15553C6.46613 0.0812662 6.66506 0.0443898 6.86544 0.047005C7.06581 0.0496202 7.26371 0.0916795 7.44783 0.170775C7.63195 0.249871 7.79869 0.364455 7.93853 0.50799C8.07837 0.651525 8.18856 0.821198 8.26283 1.00732C8.33709 1.19344 8.37397 1.39237 8.37135 1.59274C8.37135 1.83361 8.36945 2.08397 8.36945 2.34191Z" fill="#6F9C3D"/>
<path d="M22.0793 2.30077V1.58386C22.0715 1.38373 22.1033 1.18405 22.1728 0.9962C22.2422 0.808354 22.348 0.636025 22.484 0.489056C22.6201 0.342087 22.7837 0.223353 22.9657 0.139635C23.1476 0.0559169 23.3443 0.0088548 23.5444 0.00113374C23.7445 -0.00658732 23.9442 0.0251877 24.1321 0.0946388C24.3199 0.16409 24.4922 0.269856 24.6392 0.405906C24.7862 0.541956 24.9049 0.705623 24.9886 0.88756C25.0723 1.0695 25.1194 1.26614 25.1271 1.46627C25.1575 2.02409 25.1575 2.58315 25.1271 3.14097C25.1209 3.3411 25.0753 3.53804 24.993 3.72055C24.9106 3.90305 24.7932 4.06756 24.6472 4.20467C24.5013 4.34177 24.3298 4.44879 24.1426 4.51963C23.9553 4.59046 23.7559 4.62371 23.5558 4.61748C23.3556 4.61126 23.1587 4.56567 22.9762 4.48333C22.7937 4.401 22.6292 4.28352 22.4921 4.13761C22.355 3.99169 22.2479 3.82021 22.1771 3.63293C22.1063 3.44566 22.073 3.24627 22.0793 3.04614C22.0774 2.79958 22.0793 2.55113 22.0793 2.30077Z" fill="#6F9C3D"/>
</svg>
