<svg width="33" height="32" viewBox="0 0 33 32" fill="none" xmlns="http://www.w3.org/2000/svg">
<path d="M15.0046 31.9996L10.4146 29.9582C7.45653 28.6381 4.49841 27.2996 1.52808 25.9978C1.05456 25.8334 0.648633 25.5172 0.373412 25.0983C0.0981905 24.6794 -0.0308899 24.1813 0.00625305 23.6814C0.036812 18.682 0.00625305 13.6825 0.00625305 8.67696V8.06578C0.201947 8.04964 0.39698 8.10382 0.556311 8.21858L14.5218 14.4098C14.6779 14.45 14.8144 14.5449 14.9064 14.6773C14.9984 14.8097 15.0397 14.9707 15.0229 15.131C15.0229 20.6316 15.0229 26.0956 15.0229 31.5717C15.0229 31.6818 15.0107 31.804 15.0046 31.9996Z" fill="#6F9C3D"/>
<path d="M17.0314 32V29.6286C17.0314 24.8553 17.0314 20.082 17.0314 15.3148C17.0035 15.1092 17.0497 14.9004 17.1616 14.7257C17.2736 14.551 17.4441 14.4219 17.6425 14.3614C22.2081 12.3567 26.7613 10.3215 31.3207 8.29236L31.9319 8.02344C32.014 8.21603 32.0395 8.42806 32.0053 8.63462C32.0053 13.6993 32.0053 18.7619 32.0053 23.8224C32.036 24.262 31.925 24.6999 31.6885 25.0717C31.452 25.4436 31.1024 25.7297 30.6912 25.8882L17.3675 31.8655C17.2819 31.9022 17.2025 31.9205 17.0314 32Z" fill="#6F9C3D"/>
<path d="M1.09375 6.23268L6.86328 3.73907C9.55858 2.57783 12.2539 1.42882 14.9431 0.249244C15.2699 0.090537 15.6276 0.00554254 15.9909 0.000262113C16.3542 -0.00501831 16.7142 0.0695422 17.0455 0.218683C21.5275 2.16631 26.0319 4.10985 30.5587 6.04933C30.6626 6.09211 30.8154 6.09212 30.8643 6.31214L26.7999 8.14568L16.5444 12.7112C16.413 12.7902 16.2651 12.8373 16.1123 12.849C15.9595 12.8607 15.8061 12.8365 15.6643 12.7784C10.9032 10.6393 6.12987 8.50016 1.36267 6.39771L1.09375 6.23268Z" fill="#6F9C3D"/>
</svg>
