<svg width="32" height="32" viewBox="0 0 32 32" fill="none" xmlns="http://www.w3.org/2000/svg">
<g clip-path="url(#clip0_6305_5430)">
<rect width="32" height="32" fill="white"/>
<path d="M15.9683 31.9926C11.1988 31.9926 6.42934 31.9926 1.65987 31.9926C1.43848 31.9987 1.2182 31.9592 1.0127 31.8766C0.807211 31.794 0.620893 31.6701 0.465302 31.5125C0.309712 31.3548 0.188176 31.1669 0.108238 30.9604C0.0282994 30.7539 -0.00834569 30.5331 0.000596816 30.3118C0.000596816 25.1401 0.000596816 19.9684 0.000596816 14.7966C-0.0228555 14.5771 0.00289592 14.355 0.0759708 14.1467C0.149046 13.9383 0.267611 13.7488 0.423062 13.592C0.578512 13.4352 0.76694 13.3149 0.97466 13.24C1.18238 13.1651 1.40418 13.1374 1.62395 13.1589H30.3557C30.5716 13.1394 30.7892 13.1672 30.9932 13.2406C31.1972 13.314 31.3826 13.4311 31.5366 13.5837C31.6906 13.7363 31.8093 13.9207 31.8845 14.124C31.9597 14.3274 31.9895 14.5447 31.9719 14.7607V30.3836C31.9904 30.5971 31.962 30.812 31.8889 31.0133C31.8158 31.2147 31.6996 31.3977 31.5484 31.5495C31.3973 31.7014 31.2148 31.8184 31.0138 31.8924C30.8127 31.9665 30.598 31.9958 30.3844 31.9782L15.9683 31.9926ZM15.9683 29.8377H26.0244C26.4769 29.8377 26.599 29.7156 26.6206 29.2631C26.6612 28.5758 26.9516 27.9271 27.437 27.439C27.9225 26.9508 28.5697 26.6569 29.2567 26.6126C29.7308 26.6126 29.8457 26.4761 29.8457 25.9948V19.1423C29.8457 18.697 29.7164 18.5605 29.2783 18.539C28.584 18.5025 27.9279 18.2098 27.437 17.7175C26.9461 17.2253 26.6552 16.5684 26.6206 15.8741C26.6206 15.4503 26.4697 15.3282 26.0388 15.3282H5.92652C5.49555 15.3282 5.36626 15.4503 5.34471 15.8813C5.30996 16.5749 5.01881 17.2309 4.52773 17.722C4.03664 18.213 3.38065 18.5042 2.68702 18.539C2.24886 18.539 2.12675 18.697 2.12675 19.1495C2.12675 21.4337 2.12675 23.7179 2.12675 26.002C2.12675 26.4761 2.24168 26.591 2.70857 26.6126C3.38435 26.6619 4.02097 26.9484 4.50596 27.4216C4.99095 27.8947 5.29311 28.5241 5.35908 29.1984C5.35908 29.7515 5.48118 29.8377 6.02708 29.8377H15.9683Z" fill="#6F9C3D"/>
<path d="M2 12.3763C2.50999 11.4784 2.98406 10.6524 3.43659 9.81917L6.69046 4.14464C6.77868 3.93967 6.91169 3.75706 7.07973 3.61022C7.24776 3.46338 7.44655 3.35606 7.66151 3.29612C7.87646 3.23618 8.10212 3.22515 8.32189 3.26384C8.54166 3.30254 8.74998 3.38998 8.93153 3.51973L24.0588 12.2039C24.1194 12.2346 24.1771 12.2707 24.2312 12.3117C24.1737 12.4266 24.0732 12.3691 24.0013 12.3691H20.7403C20.551 12.3659 20.3665 12.3086 20.2087 12.2039L11.2516 7.06092C10.7919 6.80233 10.7057 6.82389 10.404 7.26205C10.0713 7.74625 9.57641 8.09559 9.00874 8.24706C8.44107 8.39853 7.83795 8.34215 7.30819 8.08808C6.8413 7.87978 6.74073 7.90851 6.48215 8.36822C5.76385 9.60368 5.04556 10.8439 4.32727 12.089C4.29062 12.1807 4.22542 12.2581 4.14134 12.3098C4.05725 12.3616 3.95874 12.3849 3.86038 12.3763C3.29293 12.3619 2.68238 12.3763 2 12.3763Z" fill="#6F9C3D"/>
<path d="M12.0625 4.30268L15.8479 2.56441L20.9334 0.229958C21.1329 0.100638 21.3598 0.0198002 21.5961 -0.00608257C21.8324 -0.0319654 22.0714 -0.00216884 22.2941 0.0809093C22.5169 0.163987 22.717 0.298046 22.8786 0.472356C23.0402 0.646667 23.1588 0.856385 23.2248 1.08473C24.896 4.72409 26.572 8.37062 28.2528 12.0243C28.4181 12.3763 28.4109 12.3763 28.0158 12.3763C27.6207 12.3763 27.0964 12.3763 26.6367 12.3763C26.5348 12.3896 26.4316 12.3666 26.3449 12.3115C26.2583 12.2563 26.1938 12.1725 26.1626 12.0746C25.1283 9.79764 24.0796 7.52065 23.038 5.25084C22.801 4.74803 22.7292 4.71212 22.2192 4.89169C21.6665 5.0931 21.06 5.09012 20.5093 4.88328C19.9586 4.67645 19.5001 4.27942 19.2167 3.76396C18.9653 3.31862 18.8719 3.2899 18.3835 3.51257C17.0546 4.12312 15.7258 4.72648 14.397 5.3514C14.3109 5.39851 14.2131 5.42014 14.1152 5.41378C14.0173 5.40742 13.9231 5.37333 13.8439 5.31548C13.262 4.98507 12.6946 4.66901 12.0625 4.30268Z" fill="#6F9C3D"/>
<path d="M19.007 12.3619H5.35938C5.35938 12.2398 5.40247 12.1751 5.43839 12.1033C6.01302 11.1073 6.58526 10.1064 7.15511 9.10083C7.24849 8.93562 7.3275 8.89971 7.52144 8.95717C8.12733 9.17174 8.78408 9.19735 9.40484 9.03062C10.0256 8.86389 10.5811 8.51266 10.998 8.02339C11.1273 7.88691 11.2063 7.85099 11.3859 7.95156C13.8712 9.38814 16.3636 10.8247 18.8561 12.2613L19.007 12.3619Z" fill="#6F9C3D"/>
<path d="M25.0954 11.7798L14.9531 5.96166L17.6755 4.71183C17.9257 4.54264 18.2061 4.42315 18.5015 4.35986C18.796 4.35986 18.8894 4.76211 19.1049 4.95605C19.4987 5.32494 19.9773 5.59127 20.4984 5.73157C21.0195 5.87186 21.5671 5.88181 22.093 5.76053C22.251 5.72462 22.3516 5.69589 22.4377 5.88264C23.3141 7.79809 24.1928 9.71354 25.0739 11.629C25.084 11.6788 25.0912 11.7292 25.0954 11.7798Z" fill="#6F9C3D"/>
<path d="M15.9999 29.0333H6.48965C6.2598 29.0333 6.15205 29.0333 6.10177 28.7316C5.96897 28.0186 5.62342 27.3625 5.11057 26.8496C4.59772 26.3368 3.94161 25.9912 3.22859 25.8584C3.0131 25.8584 2.98438 25.7363 2.98438 25.5567V19.5734C2.98438 19.3866 3.02029 19.3076 3.22859 19.2645C3.93622 19.1411 4.58974 18.8059 5.10276 18.3031C5.61578 17.8004 5.96413 17.1538 6.10177 16.4488C6.16642 16.1543 6.26698 16.104 6.53275 16.104H25.6106C25.7615 16.104 25.8405 16.104 25.8836 16.3123C25.9969 17.0535 26.3435 17.7394 26.8731 18.2703C27.4026 18.8011 28.0876 19.1494 28.8286 19.2645C29.001 19.2645 29.0441 19.3722 29.0441 19.5374C29.0441 21.5487 29.0441 23.5647 29.0441 25.5855C29.0441 25.7722 28.9794 25.8153 28.7999 25.8512C28.0868 25.984 27.4307 26.3296 26.9179 26.8425C26.405 27.3553 26.0595 28.0114 25.9267 28.7244C25.8764 29.0046 25.7687 29.0333 25.5388 29.0261L15.9999 29.0333ZM15.9999 27.2878C16.9304 27.2893 17.8404 27.0147 18.6149 26.4989C19.3894 25.9831 19.9936 25.2493 20.351 24.3901C20.7084 23.531 20.803 22.5851 20.6229 21.6722C20.4427 20.7593 19.9959 19.9203 19.3389 19.2613C18.682 18.6023 17.8443 18.1529 16.932 17.97C16.0196 17.7871 15.0735 17.8788 14.2132 18.2336C13.353 18.5884 12.6173 19.1903 12.0991 19.9632C11.581 20.7361 11.3036 21.6453 11.3022 22.5758C11.3078 23.8201 11.8031 25.0121 12.6809 25.8939C13.5587 26.7758 14.7485 27.2765 15.9927 27.2878H15.9999Z" fill="#6F9C3D"/>
</g>
<defs>
<clipPath id="clip0_6305_5430">
<rect width="32" height="32" fill="white"/>
</clipPath>
</defs>
</svg>
