<svg width="31" height="32" viewBox="0 0 31 32" fill="none" xmlns="http://www.w3.org/2000/svg">
<path d="M12.139 0C14.3776 0 16.6142 0 18.8528 0C19.5806 0.247207 19.9248 0.763377 20.0114 1.52675C20.1294 2.56898 20.3123 3.60329 20.4461 4.64552C20.4736 4.85317 20.5563 4.95403 20.7313 5.03512C21.2959 5.29815 21.8309 5.61457 22.3385 5.97451C22.4919 6.08328 22.6198 6.08921 22.7929 6.01604C23.7961 5.60271 24.8052 5.20124 25.8124 4.7978C26.7271 4.42996 27.3605 4.6475 27.8542 5.50382C28.8083 7.15912 29.7603 8.8164 30.7105 10.4737C31.2003 11.328 31.0606 12.0261 30.2836 12.6353C29.4338 13.3017 28.5899 13.9722 27.7362 14.6327C27.5985 14.7395 27.5296 14.8443 27.5513 15.0203C27.63 15.6749 27.63 16.3295 27.5513 16.9841C27.5296 17.1641 27.6064 17.265 27.7421 17.3698C28.6115 18.0442 29.4771 18.7225 30.3387 19.4068C31.0567 19.9763 31.1904 20.6804 30.738 21.4734C29.7741 23.1584 28.8083 24.8433 27.8385 26.5263C27.3664 27.3431 26.7113 27.5646 25.8379 27.2126C24.8209 26.8032 23.804 26.3958 22.7889 25.9845C22.6493 25.9271 22.5332 25.8876 22.3876 25.9904C21.8369 26.378 21.2585 26.7221 20.6468 27.0089C20.5189 27.0682 20.4776 27.1572 20.4599 27.2956C20.3045 28.417 20.1333 29.5383 19.976 30.6596C19.856 31.512 19.3209 31.9985 18.4692 31.9985C16.4903 32.0005 14.5114 32.0005 12.5344 31.9985C11.6846 31.9985 11.1397 31.5021 11.0237 30.6596C10.8703 29.5383 10.6971 28.419 10.5417 27.2956C10.5201 27.1414 10.4631 27.0583 10.3273 26.995C9.7372 26.7142 9.17068 26.3899 8.64153 26.0082C8.49596 25.9034 8.374 25.9152 8.21467 25.9805C7.21145 26.3938 6.20232 26.7953 5.19516 27.1987C4.27259 27.5686 3.64508 27.355 3.15134 26.4986C2.1973 24.8433 1.24522 23.1861 0.293141 21.5288C-0.200601 20.6705 -0.0629051 19.9724 0.710166 19.3672C1.55995 18.7027 2.40581 18.0323 3.25757 17.3718C3.3933 17.2669 3.46608 17.1641 3.44641 16.9841C3.36969 16.3295 3.36969 15.6749 3.44641 15.0203C3.46804 14.8423 3.3992 14.7375 3.2615 14.6307C2.39991 13.9643 1.54422 13.2879 0.688531 12.6155C-0.058968 12.0281 -0.198635 11.326 0.273469 10.5033C1.23342 8.82827 2.1973 7.15319 3.16118 5.48009C3.63132 4.6653 4.29423 4.43787 5.16172 4.78594C6.18855 5.19927 7.21538 5.60864 8.23827 6.02791C8.38777 6.08921 8.50186 6.09119 8.63759 5.99428C9.17068 5.61655 9.73327 5.28628 10.3234 5.00545C10.4572 4.94217 10.5201 4.86504 10.5417 4.70683C10.6755 3.69822 10.8506 2.69357 10.9607 1.68101C11.0453 0.884013 11.3247 0.263029 12.139 0ZM20.7864 16.0269C20.8002 13.0842 18.4515 10.6952 15.5303 10.6794C12.6052 10.6635 10.2231 13.0249 10.2034 15.9557C10.1857 18.9123 12.5423 21.3093 15.4752 21.3192C18.4023 21.329 20.7746 18.9638 20.7864 16.0269Z" fill="#6F9C3D"/>
</svg>
