<svg width="24" height="32" viewBox="0 0 24 32" fill="none" xmlns="http://www.w3.org/2000/svg">
<path d="M11.8496 12.6226C13.1336 16.1355 12.4891 19.3979 10.6004 22.5022C10.4766 22.2528 10.5043 21.9602 10.4531 21.6861C10.4019 21.412 10.3743 21.1297 10.3385 20.8505C10.1868 19.5624 9.74533 18.3257 9.04737 17.2339C8.99929 17.159 8.94507 17.0871 8.89801 17.0112C8.88285 16.9752 8.85597 16.9455 8.82177 16.9268C8.78758 16.9082 8.74808 16.9017 8.70975 16.9085C8.60745 16.9362 8.65144 17.0358 8.64939 17.1036C8.59636 19.0286 8.17178 20.9252 7.39917 22.6881C6.22057 25.4659 6.41087 28.1463 7.97006 30.7291C8.21049 31.1284 8.44477 31.5309 8.65246 31.961C7.86392 31.711 7.09766 31.3951 6.36175 31.0166C2.76251 29.1041 0.632431 26.1363 0.100423 22.0711C-0.18809 19.8486 0.137257 17.6774 1.17774 15.6941C2.30315 13.5527 3.11343 11.3312 3.47152 8.94136C3.48482 8.8541 3.51448 8.76889 3.55336 8.62107C4.26953 9.84576 4.95398 11.0314 5.25375 12.5117C8.00587 8.74118 9.34612 4.6144 9.44843 0C11.5294 1.22469 13.2421 2.75118 14.6028 4.67394C15.9607 6.59541 16.8827 8.79208 17.3037 11.1095C18.5509 9.61683 18.4946 7.87989 18.4384 6.12652C18.5028 6.14603 18.5468 6.145 18.5642 6.16656C20.2175 8.21969 21.6151 10.4237 22.3875 12.9768C23.4914 16.6252 23.6776 20.2736 22.2852 23.8912C21.0779 27.0181 18.9714 29.3792 16.0689 31.0289C15.4528 31.3854 14.8186 31.7096 14.169 32C14.2426 31.8635 14.3132 31.7249 14.391 31.5894C15.2545 30.0926 16.1036 28.5877 16.4904 26.8805C17.7406 21.3617 16.2858 16.6703 12.1729 12.8053C12.0921 12.7366 12.0236 12.6349 11.8496 12.6226Z" fill="#6F9C3D"/>
</svg>
