<svg width="34" height="32" viewBox="0 0 34 32" fill="none" xmlns="http://www.w3.org/2000/svg">
<path d="M20.4538 21.3496C21.4752 22.3754 22.4349 23.3406 23.3958 24.2971C23.5928 24.4919 23.4838 24.5436 23.3 24.6041C22.2621 24.9464 21.2243 25.2986 20.1864 25.6288C19.6196 25.8093 19.1474 25.3955 19.3158 24.8298C19.6548 23.6895 20.0532 22.5647 20.4538 21.3496Z" fill="#6F9C3D"/>
<path d="M33.6984 3.40664L33.5715 3.81161C33.452 4.19548 33.251 4.54896 32.982 4.84777C32.7131 5.14658 32.3828 5.38366 32.0136 5.54272C31.6444 5.70178 31.2452 5.77906 30.8434 5.76925C30.4415 5.75944 30.0466 5.66279 29.6856 5.48591C29.6101 5.43674 29.5219 5.41058 29.4318 5.41058C29.3416 5.41058 29.2535 5.43674 29.1779 5.48591C27.651 6.40465 26.118 7.31736 24.5789 8.22402C24.5074 8.25837 24.4481 8.31392 24.4092 8.38313C24.3702 8.45233 24.3536 8.53184 24.3614 8.61086C24.3503 9.26774 24.1086 9.8998 23.6784 10.3963C23.2483 10.8929 22.6572 11.2222 22.0087 11.3267C21.3602 11.4312 20.6957 11.3042 20.1314 10.9679C19.5671 10.6316 19.1391 10.1075 18.9223 9.4873C18.891 9.38635 18.838 9.29347 18.767 9.21517C18.696 9.13686 18.6088 9.07502 18.5114 9.03397C17.1214 8.35699 15.7375 7.66793 14.3596 6.97887C14.3001 6.93517 14.2268 6.91474 14.1533 6.92142C14.0798 6.9281 14.0113 6.96143 13.9607 7.01514C13.5733 7.34359 13.1002 7.5545 12.597 7.62303C12.0937 7.69157 11.5814 7.61487 11.1203 7.40198C11.0446 7.36276 10.9585 7.34809 10.874 7.36C10.7895 7.37192 10.7109 7.40982 10.6489 7.46847C9.00514 8.70152 7.35327 9.93256 5.69336 11.1616C5.62003 11.2037 5.5651 11.2717 5.53938 11.3522C5.51365 11.4327 5.51901 11.52 5.55437 11.5968C5.69915 12.1451 5.67433 12.7244 5.4832 13.2583C5.29207 13.7922 4.9436 14.2556 4.48378 14.5874C4.02395 14.9192 3.47436 15.1038 2.90751 15.1168C2.34066 15.1298 1.78318 14.9706 1.30862 14.6603C0.834059 14.3499 0.464724 13.903 0.249312 13.3784C0.0339007 12.8538 -0.0174509 12.2763 0.102027 11.7219C0.221505 11.1676 0.506193 10.6624 0.918551 10.2732C1.33091 9.88399 1.85155 9.62893 2.4118 9.54169C2.95441 9.44104 3.51507 9.52176 4.00726 9.77138C4.07908 9.81857 4.16474 9.84007 4.25032 9.83238C4.33591 9.8247 4.41638 9.78829 4.47865 9.72907C6.09022 8.52019 7.72394 7.31132 9.37982 6.10244C9.45483 6.06358 9.51186 5.99716 9.53891 5.91712C9.56596 5.83709 9.56093 5.74969 9.52488 5.67329C9.34664 5.15817 9.32982 4.60092 9.47668 4.07599C9.62355 3.55107 9.9271 3.08348 10.3468 2.73571C10.7315 2.36788 11.2184 2.12491 11.7435 2.03862C12.2687 1.95233 12.8077 2.02676 13.2899 2.25216C13.7875 2.45098 14.2162 2.79088 14.5232 3.23007C14.8303 3.66927 15.0024 4.18863 15.0183 4.72432C15.0305 4.81053 15.0305 4.89802 15.0183 4.98423C15.006 5.01424 15.0002 5.04652 15.0013 5.07893C15.0024 5.11135 15.0104 5.14316 15.0247 5.17228C15.0389 5.2014 15.0592 5.22717 15.0841 5.24789C15.1091 5.26861 15.1382 5.28381 15.1694 5.29249C16.4264 5.89693 17.6774 6.53159 18.9344 7.16021C19.0674 7.22669 19.1278 7.20252 19.2184 7.07558C19.4335 6.72845 19.723 6.43345 20.066 6.21192C20.4091 5.99039 20.797 5.84786 21.2019 5.79465C21.6067 5.74143 22.0183 5.77886 22.4069 5.90422C22.7955 6.02957 23.1514 6.23973 23.4488 6.5195C23.4914 6.55944 23.5476 6.58168 23.606 6.58168C23.6643 6.58168 23.7205 6.55944 23.7631 6.5195C25.2014 5.66119 26.6417 4.8049 28.0841 3.95063C28.1929 3.88414 28.2533 3.82974 28.211 3.67259C28.091 3.3039 28.0488 2.91433 28.087 2.52849C28.1251 2.14264 28.2429 1.7689 28.4327 1.43087C28.6226 1.09284 28.8805 0.797855 29.1902 0.564551C29.4998 0.331246 29.8544 0.164688 30.2317 0.0753922C30.6089 -0.0139034 31.0006 -0.0239967 31.3819 0.0457518C31.7632 0.1155 32.126 0.263575 32.4472 0.480624C32.7684 0.697672 33.0412 0.978979 33.2482 1.30678C33.4552 1.63459 33.5921 2.00177 33.6501 2.38514C33.6501 2.41536 33.6863 2.43954 33.7044 2.46371L33.6984 3.40664Z" fill="#6F9C3D"/>
<path d="M33.7004 31.3075C33.5994 31.5365 33.4272 31.7267 33.2094 31.8498C32.9916 31.9729 32.7399 32.0222 32.4917 31.9905C31.5066 31.9543 30.5215 31.9482 29.5365 31.9905C28.2976 32.0389 28.08 31.5554 28.0861 30.552C28.0861 24.6466 28.0861 18.7352 28.0861 12.8298V12.5337C28.0861 11.7237 28.4366 11.3792 29.2585 11.3792C30.3402 11.3792 31.4281 11.3792 32.5098 11.3792C32.7632 11.3426 33.0214 11.394 33.2414 11.5249C33.4614 11.6558 33.6298 11.8583 33.7185 12.0985L33.7004 31.3075Z" fill="#6F9C3D"/>
<path d="M9.36246 22.6335V14.4071C9.36246 13.6092 9.70089 13.2707 10.4986 13.2647H13.8889C14.0404 13.2409 14.1953 13.2533 14.3411 13.3008C14.4868 13.3483 14.6193 13.4295 14.7277 13.538C14.8361 13.6464 14.9174 13.7789 14.9648 13.9247C15.0123 14.0704 15.0247 14.2254 15.0009 14.3768V30.8539C15.0009 31.6275 14.6444 31.9781 13.8708 31.9781C12.7286 31.9781 11.5925 31.9781 10.4503 31.9781C10.3022 32.0007 10.151 31.9881 10.0087 31.9414C9.86642 31.8947 9.73711 31.8152 9.63123 31.7093C9.52535 31.6034 9.44585 31.4741 9.39916 31.3318C9.35247 31.1895 9.3399 31.0382 9.36246 30.8901V22.6335Z" fill="#6F9C3D"/>
<path d="M24.3532 24.5318V30.8482C24.3532 31.6279 24.0087 31.9785 23.2412 31.9785C22.099 31.9785 20.9629 31.9785 19.8207 31.9785C19.6697 32.0011 19.5155 31.988 19.3705 31.94C19.2255 31.892 19.0939 31.8106 18.9862 31.7023C18.8786 31.5941 18.7979 31.462 18.7507 31.3167C18.7035 31.1715 18.6912 31.0172 18.7147 30.8663V18.1066C18.694 17.9583 18.7077 17.8073 18.7549 17.6652C18.802 17.5231 18.8813 17.3938 18.9865 17.2874C19.0918 17.1809 19.2202 17.1002 19.3617 17.0515C19.5032 17.0028 19.6541 16.9874 19.8025 17.0065C20.9629 17.0065 22.1232 17.0065 23.2896 17.0065C23.4352 16.9883 23.583 17.004 23.7216 17.0522C23.8602 17.1004 23.9858 17.1799 24.0887 17.2846C24.1916 17.3892 24.269 17.5162 24.3148 17.6556C24.3607 17.795 24.3738 17.9431 24.3532 18.0884V24.5318Z" fill="#6F9C3D"/>
<path d="M0.0092512 26.357V21.8176C-0.0108398 21.6748 0.00189393 21.5293 0.0464691 21.3921C0.0910442 21.2549 0.166284 21.1297 0.266493 21.026C0.366703 20.9223 0.489244 20.8428 0.624784 20.7935C0.760325 20.7443 0.905304 20.7265 1.04871 20.7417C2.22717 20.7417 3.3996 20.7417 4.57202 20.7417C4.71547 20.7237 4.86114 20.7389 4.99777 20.7862C5.13441 20.8335 5.25834 20.9115 5.35999 21.0144C5.46164 21.1172 5.53828 21.242 5.58398 21.3792C5.62968 21.5164 5.64322 21.6623 5.62356 21.8055C5.62356 24.8398 5.62356 27.8761 5.62356 30.9144C5.64408 31.06 5.63029 31.2083 5.5833 31.3476C5.5363 31.4869 5.4574 31.6133 5.35289 31.7166C5.24838 31.82 5.12116 31.8975 4.98138 31.9429C4.8416 31.9883 4.69313 32.0004 4.54784 31.9783C3.38751 31.9783 2.22719 31.9783 1.06081 31.9783C0.918262 31.9971 0.773265 31.9829 0.637086 31.9367C0.500907 31.8906 0.37719 31.8136 0.275512 31.7119C0.173834 31.6103 0.0969391 31.4865 0.0507663 31.3503C0.00459342 31.2141 -0.00961867 31.0691 0.0092512 30.9265V26.357Z" fill="#6F9C3D"/>
</svg>
