<svg width="32" height="32" viewBox="0 0 32 32" fill="none" xmlns="http://www.w3.org/2000/svg">
<path d="M32 31.9967H22.5674C22.5674 31.8717 22.5791 31.7467 22.5791 31.6226C22.5791 29.343 22.5841 27.0634 22.574 24.783C22.574 24.5247 22.6425 24.4497 22.9079 24.4497C23.9597 24.4639 25.0107 24.4497 26.0625 24.4614C26.297 24.4614 26.3688 24.3956 26.3596 24.1623C26.3421 23.7457 26.3379 23.3291 26.3596 22.9125C26.3738 22.6392 26.2678 22.5792 26.0182 22.5892C25.499 22.6059 24.9781 22.5942 24.4572 22.5942C22.0632 22.5942 19.6691 22.5984 17.2784 22.5892C17.023 22.5892 16.932 22.6484 16.9445 22.9158C16.9663 23.3321 16.9663 23.7493 16.9445 24.1656C16.9337 24.4022 17.0088 24.4639 17.2409 24.4614C18.2818 24.4489 19.3277 24.4672 20.3636 24.4489C20.6583 24.443 20.7259 24.5322 20.7243 24.8163C20.7134 27.1059 20.7184 29.3988 20.7176 31.6867C20.7176 31.79 20.7042 31.8934 20.6967 31.9967H11.3175C11.3078 31.9458 11.3014 31.8943 11.2983 31.8425C11.2983 29.4696 11.2983 27.0934 11.2925 24.7222C11.2925 24.4889 11.3868 24.4514 11.5888 24.4522C12.6606 24.4597 13.7324 24.4522 14.8051 24.4597C15.0087 24.4597 15.0755 24.4031 15.0689 24.1973C15.0544 23.7501 15.0544 23.3024 15.0689 22.8542C15.0755 22.6434 15.0004 22.5817 14.8009 22.5926C14.5505 22.6067 14.3 22.5926 14.0496 22.5926C11.3642 22.5926 8.67803 22.5926 5.99265 22.5876C5.74222 22.5876 5.63789 22.6375 5.65208 22.9108C5.67378 23.3274 5.67044 23.744 5.65208 24.1606C5.64206 24.3939 5.71469 24.4622 5.94925 24.4597C7.01105 24.4472 8.07284 24.4597 9.13463 24.4497C9.3692 24.4497 9.43765 24.5172 9.43264 24.7505C9.41845 25.4579 9.4268 26.1669 9.42763 26.8743C9.43097 28.5817 9.43515 30.2886 9.44015 31.995C6.36773 31.995 3.29558 31.9967 0.223719 32C0.0375711 32 -0.000821552 31.9625 1.31944e-05 31.7759C0.00752591 29.3288 0.00501637 26.8809 0.00501637 24.4339C1.1603 24.4405 2.31559 24.4414 3.47005 24.4597C3.70545 24.4597 3.76805 24.3956 3.76472 24.1623C3.75219 23.1216 3.77223 22.0793 3.75136 21.0387C3.74635 20.7396 3.84485 20.6846 4.11865 20.6854C7.6179 20.6937 11.1169 20.6957 14.6156 20.6912C14.6991 20.6912 14.7825 20.6846 14.866 20.6912C15.0138 20.7046 15.0663 20.6446 15.0638 20.4954C15.0572 20.0055 15.0555 19.5164 15.0638 19.0265C15.0638 18.8541 14.9929 18.8132 14.8393 18.8191C14.6214 18.8274 14.401 18.8049 14.184 18.8249C13.9394 18.8482 13.8868 18.7466 13.8919 18.5216C13.9052 17.9076 13.8919 17.2927 13.9002 16.6786C13.9002 16.4928 13.8476 16.4003 13.6623 16.3454C13.3325 16.2501 13.0148 16.117 12.7157 15.9488C12.5763 15.8654 12.4828 15.8838 12.3684 16.0029C11.926 16.4595 11.4669 16.8986 11.027 17.3568C10.8818 17.5085 10.7966 17.5301 10.6372 17.3668C9.77628 16.4903 8.90731 15.6216 8.03027 14.7606C7.87333 14.6065 7.9084 14.529 8.04362 14.3982C8.49188 13.9641 8.92511 13.5134 9.37421 13.0785C9.50359 12.9535 9.54951 12.8552 9.45268 12.6802C9.28065 12.371 9.14561 12.0427 9.05032 11.702C9.00692 11.5504 8.93013 11.4929 8.76485 11.4962C8.12961 11.5071 7.49436 11.4962 6.85912 11.5046C6.65043 11.5087 6.5703 11.4604 6.57197 11.2321C6.58282 10.014 6.58115 8.79506 6.57197 7.57695C6.57197 7.37699 6.62205 7.3045 6.83324 7.3095C7.42591 7.32367 8.02025 7.30117 8.61375 7.32033C8.87753 7.3295 9.02361 7.27951 9.0929 6.98706C9.16703 6.70619 9.27938 6.43679 9.4268 6.18637C9.54449 5.97808 9.49274 5.8581 9.33665 5.70729C8.90091 5.2907 8.48937 4.84578 8.04863 4.43336C7.86832 4.26672 7.89838 4.1834 8.05698 4.02343C8.91176 3.1847 9.75875 2.33818 10.5979 1.4839C10.7649 1.31726 10.8567 1.2806 11.0354 1.4714C11.4611 1.92798 11.916 2.3579 12.3534 2.80449C12.4603 2.91447 12.5496 2.96029 12.7007 2.87364C13.0181 2.69827 13.3541 2.55855 13.7024 2.45705C13.8318 2.41706 13.891 2.3554 13.8894 2.21626C13.8785 1.47723 13.8735 0.739032 13.8668 0H18.1157C18.109 0.739032 18.1057 1.47723 18.0931 2.21543C18.0931 2.38207 18.1833 2.41623 18.311 2.46538C18.6335 2.58034 18.9492 2.71331 19.2568 2.86364C19.4329 2.95279 19.5306 2.9178 19.6566 2.78782C20.0907 2.33957 20.5448 1.90882 20.9747 1.45473C21.1316 1.2881 21.2184 1.31226 21.3662 1.46223C22.2209 2.33041 23.0835 3.19136 23.9539 4.0451C24.1208 4.20673 24.0924 4.28839 23.9422 4.43253C23.4914 4.86495 23.0615 5.3182 22.6108 5.75062C22.4722 5.88393 22.458 5.98891 22.549 6.15305C22.7122 6.44204 22.8394 6.74981 22.928 7.06955C22.9814 7.26701 23.0816 7.3195 23.2794 7.3145C23.9038 7.30034 24.5315 7.3145 25.1534 7.30534C25.3571 7.30117 25.4222 7.35866 25.4205 7.56612C25.4122 8.79534 25.4122 10.0243 25.4205 11.2529C25.4205 11.4454 25.3621 11.5029 25.1701 11.4987C24.5349 11.4887 23.8996 11.4987 23.2644 11.4912C23.0824 11.4912 22.9797 11.5329 22.9305 11.7204C22.8407 12.0517 22.7098 12.3705 22.5407 12.6694C22.4472 12.836 22.4806 12.9418 22.6124 13.0693C23.0691 13.5109 23.509 13.97 23.9672 14.4099C24.1075 14.544 24.1016 14.6157 23.9672 14.7506C23.0841 15.6205 22.2076 16.4967 21.3378 17.3793C21.2026 17.516 21.1283 17.5176 20.9939 17.3793C20.5465 16.9144 20.0807 16.4628 19.6307 16.0046C19.518 15.8888 19.4329 15.8696 19.2843 15.9421C18.979 16.0978 18.6626 16.2309 18.3377 16.3404C18.134 16.4045 18.0873 16.507 18.0931 16.6986C18.1023 17.3235 18.0931 17.9484 18.0998 18.5724C18.0998 18.7649 18.038 18.8316 17.8494 18.8224C17.6207 18.8091 17.3911 18.8282 17.1624 18.8166C16.9871 18.8082 16.9245 18.8682 16.9295 19.0474C16.9395 19.474 16.9554 19.903 16.9295 20.328C16.9061 20.6446 17.0213 20.6962 17.311 20.6954C20.8511 20.6854 24.3921 20.6954 27.9323 20.6829C28.1827 20.6829 28.2478 20.7479 28.2445 20.9953C28.2311 22.0468 28.2445 23.0991 28.2328 24.1506C28.2328 24.4056 28.3163 24.4589 28.5492 24.4564C29.5901 24.4447 30.636 24.4605 31.6728 24.4455C31.9374 24.4455 31.9992 24.5197 31.9975 24.7788C31.995 27.185 32 29.5913 32 31.9967ZM16.0013 5.6573C15.0121 5.67063 14.0679 6.07184 13.3727 6.77426C12.6775 7.47668 12.287 8.4239 12.2857 9.41127C12.2844 10.3987 12.6723 11.3469 13.3657 12.0512C14.059 12.7554 15.0021 13.1591 15.9912 13.1751C18.0597 13.1868 19.7593 11.4837 19.7576 9.40162C19.7563 8.40811 19.3599 7.45574 18.6556 6.75368C17.9513 6.05163 16.9966 5.6573 16.0013 5.6573ZM16.9429 25.8728C16.9429 25.4879 16.937 25.1029 16.9429 24.718C16.9429 24.5514 16.9111 24.4747 16.7225 24.4789C16.2442 24.4905 15.7659 24.4897 15.2876 24.4789C15.1114 24.4789 15.0563 24.5322 15.058 24.7097C15.0663 25.4895 15.068 26.2694 15.058 27.0492C15.058 27.2475 15.1264 27.2992 15.3084 27.2917C15.7759 27.2817 16.2442 27.2825 16.7125 27.2917C16.8903 27.2917 16.9462 27.2334 16.9412 27.0584C16.9353 26.6635 16.9429 26.2685 16.9429 25.8728ZM5.64122 25.8728C5.64122 25.4987 5.63288 25.1229 5.64122 24.7505C5.64707 24.5597 5.60533 24.4714 5.3908 24.4789C4.93419 24.4947 4.47258 24.4905 4.01932 24.4789C3.83233 24.4789 3.76889 24.5314 3.76889 24.7288C3.77808 25.4979 3.77641 26.2669 3.76889 27.0359C3.76889 27.2159 3.81062 27.3009 4.01013 27.2959C4.47758 27.285 4.94588 27.2867 5.41334 27.2959C5.59198 27.2959 5.6479 27.2359 5.64373 27.0609C5.63455 26.6626 5.64122 26.2685 5.64122 25.872V25.8728ZM26.3671 25.8728C26.3671 26.2677 26.3738 26.6626 26.3671 27.0576C26.3671 27.2325 26.4189 27.2959 26.5975 27.2925C27.065 27.2825 27.5333 27.285 28.0007 27.2925C28.1677 27.2925 28.2436 27.2492 28.242 27.0651C28.2342 26.2752 28.2342 25.4854 28.242 24.6955C28.242 24.5289 28.1819 24.4797 28.0233 24.4822C27.545 24.4889 27.0667 24.4922 26.5892 24.4822C26.4014 24.4822 26.3638 24.5564 26.368 24.7222C26.373 25.1021 26.3671 25.4879 26.3671 25.872V25.8728Z" fill="#6F9C3D"/>
</svg>
