<svg width="30" height="32" viewBox="0 0 30 32" fill="none" xmlns="http://www.w3.org/2000/svg">
<path d="M23.1362 0.00585938C23.2028 0.0315272 23.2708 0.0535555 23.3398 0.0718445C24.1448 0.26037 24.75 0.692094 25.0762 1.48579C25.3401 2.12866 25.6418 2.75268 25.917 3.39367C26.1081 3.82798 26.2068 4.29729 26.2068 4.77179C26.2068 5.24629 26.1081 5.71561 25.917 6.14992C25.8961 6.22292 25.8499 6.2861 25.7867 6.32823C25.7235 6.37035 25.6474 6.38867 25.572 6.37992C23.2418 6.37238 20.9116 6.37238 18.5814 6.37992C18.3928 6.37992 18.2986 6.37992 18.3664 6.12918C18.5418 5.50366 18.5267 4.84008 18.3231 4.22319C18.259 4.02523 18.3231 4.0045 18.4928 4.0045C19.4599 4.0045 20.4271 4.02146 21.3961 4.0045C21.9253 4.01396 22.4469 3.87841 22.9045 3.61255C23.3621 3.34669 23.7383 2.96066 23.9921 2.49629C24.3239 1.93071 24.1807 1.44431 23.5774 1.15775C22.8383 0.803326 22.12 0.90136 21.4489 1.34628C20.4082 2.0344 19.3751 2.72629 18.3419 3.43138C18.1251 3.58031 18.0195 3.56146 17.8989 3.33711C17.8027 3.15801 17.5331 2.94875 17.5746 2.84883C17.6444 2.67727 17.8951 2.57735 18.0742 2.45669C18.998 1.83644 19.9275 1.22562 20.8456 0.595946C21.2656 0.331679 21.7233 0.132715 22.203 0.00585938H23.1362Z" fill="#6F9C3D"/>
<path d="M7.82252 0.00565554C8.65958 0.18287 9.31944 0.69378 10.0076 1.15378C10.7749 1.67034 11.5422 2.1869 12.3152 2.69592C12.4641 2.79396 12.5376 2.8656 12.3661 3.00888C12.1945 3.15216 12.1342 3.5292 11.9004 3.53109C11.7006 3.53109 11.4988 3.2992 11.3009 3.16724C10.3846 2.55453 9.47403 1.93427 8.55212 1.33099C8.26358 1.12275 7.92554 0.993694 7.57163 0.95665C7.21772 0.919606 6.86028 0.975868 6.53487 1.11984C5.84674 1.41206 5.68083 1.91543 6.06731 2.54887C6.32583 2.998 6.70007 3.36958 7.15103 3.6249C7.60199 3.88022 8.11317 4.00993 8.63131 4.00052C9.58715 4.01937 10.5449 4.00994 11.5026 4.00052C11.7043 4.00052 11.7722 4.02126 11.6911 4.25126C11.4946 4.86927 11.4841 5.53144 11.661 6.15537C11.7043 6.3175 11.6855 6.37594 11.5026 6.37594C9.13091 6.37594 6.75859 6.37594 4.38564 6.37594C4.22727 6.37594 4.17449 6.29865 4.11981 6.17611C3.92584 5.76517 3.81901 5.31854 3.80603 4.86431C3.79305 4.41009 3.87421 3.95809 4.0444 3.53675C4.35925 2.74682 4.70991 1.9701 5.07942 1.20468C5.39238 0.559924 5.97494 0.246972 6.64421 0.0735278C6.72528 0.05279 6.812 0.0603282 6.87987 0L7.82252 0.00565554Z" fill="#6F9C3D"/>
<path d="M16.75 23.6299C16.75 20.9434 16.75 18.2569 16.75 15.5723C16.75 15.314 16.8122 15.2442 17.0724 15.2461C20.7688 15.2549 24.4646 15.2549 28.1598 15.2461C28.4501 15.2461 28.4972 15.3328 28.4972 15.5968C28.4897 20.1352 28.4897 24.6737 28.4972 29.2121C28.4972 30.6393 27.6545 31.6912 26.3046 31.9571C26.1508 31.9832 25.995 31.9952 25.839 31.9929C22.9149 31.9929 19.9946 31.9929 17.063 31.9929C16.8122 31.9929 16.7575 31.9212 16.7575 31.6799C16.7538 29.001 16.75 26.3145 16.75 23.6299Z" fill="#6F9C3D"/>
<path d="M13.2506 23.6523C13.2506 26.3181 13.2506 28.9838 13.2506 31.6477C13.2506 31.9041 13.2148 32.0002 12.9207 32.0002C10.0155 31.987 7.11026 32.0002 4.20692 31.9908C3.85505 32.0007 3.5048 31.9396 3.17707 31.8111C2.84934 31.6827 2.55084 31.4895 2.2994 31.2432C2.04796 30.9969 1.84872 30.7024 1.71358 30.3774C1.57844 30.0524 1.51017 29.7034 1.51284 29.3514C1.50153 24.7401 1.51284 20.1269 1.51284 15.5155C1.51284 15.31 1.57506 15.2554 1.77867 15.2554C5.51531 15.2554 9.25258 15.2554 12.9905 15.2554C13.2657 15.2554 13.2563 15.3836 13.2563 15.574C13.2525 18.2649 13.2506 20.9576 13.2506 23.6523Z" fill="#6F9C3D"/>
<path d="M7.30787 14.3109C5.50742 14.3109 3.70508 14.2713 1.90652 14.3298C1.42018 14.316 0.956713 14.1203 0.607658 13.7813C0.258604 13.4424 0.049351 12.9849 0.021233 12.4992C-0.0089316 11.3963 -0.00516103 10.2916 0.021233 9.19057C0.0387402 8.69019 0.249032 8.21597 0.60813 7.86706C0.967228 7.51816 1.44732 7.32161 1.948 7.31851C5.63373 7.30908 9.31759 7.31851 13.0033 7.30908C13.2126 7.30908 13.2597 7.37506 13.2597 7.57302C13.2522 9.72724 13.2522 11.8821 13.2597 14.0376C13.2597 14.2921 13.1655 14.3166 12.9543 14.3147C11.0728 14.3084 9.19064 14.3072 7.30787 14.3109Z" fill="#6F9C3D"/>
<path d="M22.7038 14.3107C20.8317 14.3107 18.9577 14.3107 17.0837 14.3107C16.8368 14.3107 16.7481 14.2673 16.75 13.9959C16.7626 11.8731 16.7626 9.74963 16.75 7.62557C16.75 7.36541 16.8141 7.29942 17.0743 7.30131C20.6752 7.31073 24.2761 7.30131 27.877 7.30131C29.1741 7.30131 29.9942 8.13082 29.9961 9.43165C29.9961 10.4101 30.0074 11.3885 29.9961 12.367C30.0023 12.7394 29.9015 13.1058 29.7057 13.4226C29.5098 13.7394 29.2272 13.9933 28.8913 14.1542C28.6978 14.2558 28.4819 14.307 28.2635 14.3032C26.4065 14.3088 24.5532 14.3107 22.7038 14.3107Z" fill="#6F9C3D"/>
<path d="M15.0336 6.37551C14.3474 6.37551 13.6612 6.37551 12.9749 6.37551C12.8994 6.38726 12.8223 6.36956 12.7595 6.32605C12.6967 6.28254 12.653 6.21655 12.6374 6.14174C12.3019 5.15952 12.4602 4.25648 13.1729 3.51181C13.4902 3.14749 13.9107 2.88822 14.3787 2.76836C14.8467 2.6485 15.3401 2.67371 15.7934 2.84066C16.7606 3.15926 17.3337 3.85681 17.5128 4.86919C17.5786 5.30233 17.5318 5.74509 17.3771 6.15494C17.3629 6.22506 17.3223 6.28704 17.2637 6.32809C17.2051 6.36914 17.133 6.38612 17.0622 6.37551C16.3854 6.36797 15.7105 6.37551 15.0336 6.37551Z" fill="#6F9C3D"/>
</svg>
