<svg width="34" height="32" viewBox="0 0 34 32" fill="none" xmlns="http://www.w3.org/2000/svg">
<path d="M0.0389508 0.377337C0.123019 0.250807 0.239915 0.149526 0.377135 0.0843468C0.514355 0.019168 0.666728 -0.00745756 0.81792 0.00732536C1.98637 0.00732536 3.15483 -0.0238346 4.32328 0.0423772C5.13949 0.0800193 5.91507 0.409312 6.50903 0.97039C7.103 1.53147 7.47589 2.28707 7.5599 3.09981C7.6378 3.64119 7.74295 4.18256 7.81306 4.72783C7.83643 4.91479 7.91043 4.96931 8.08181 4.95763C8.18169 4.95179 8.28182 4.95179 8.38171 4.95763H32.8725C32.9816 4.95763 33.0945 4.95763 33.2036 4.95763C33.3093 4.94737 33.4159 4.96595 33.5119 5.0114C33.608 5.05685 33.6899 5.12747 33.749 5.21576C33.8081 5.30404 33.8422 5.40668 33.8477 5.51279C33.8531 5.6189 33.8298 5.7245 33.78 5.81838C33.3204 7.16988 32.8491 8.51749 32.3817 9.86509C31.7975 11.5528 31.212 13.2406 30.6252 14.9283C30.4079 15.6779 29.9431 16.3316 29.3064 16.7829C28.6698 17.2342 27.899 17.4564 27.1198 17.4132H10.2357C9.81891 17.4132 9.81891 17.4132 9.88122 17.8222C10.0136 18.6557 10.1422 19.4931 10.2707 20.3265C10.3499 20.9059 10.6435 21.4346 11.0934 21.8081C11.5434 22.1816 12.117 22.3729 12.7011 22.3441C13.9319 22.3441 15.1665 22.3441 16.3973 22.3441H29.336C29.4656 22.3347 29.5958 22.3347 29.7255 22.3441C29.8576 22.3604 29.979 22.4253 30.066 22.526C30.1531 22.6267 30.1997 22.7562 30.1967 22.8893C30.2037 23.0282 30.1576 23.1645 30.068 23.2707C29.9784 23.377 29.8518 23.4453 29.7138 23.4619C29.5932 23.4697 29.4722 23.4697 29.3516 23.4619C23.8404 23.4619 18.3253 23.4346 12.814 23.4619C11.8835 23.4926 10.9764 23.1665 10.2784 22.5503C9.58045 21.9342 9.14435 21.0745 9.05941 20.1474C8.68939 17.421 8.21813 14.7219 7.78969 12.0111C7.40281 9.57298 7.01332 7.13353 6.62124 4.69278C6.53166 4.12025 6.45375 3.52433 6.3447 2.97127C6.24036 2.45451 5.96181 1.98924 5.55559 1.65321C5.14937 1.31718 4.64012 1.13076 4.11296 1.12513C3.00293 1.12513 1.8929 1.12513 0.778969 1.12513C0.625102 1.14518 0.468757 1.11881 0.329971 1.04942C0.191185 0.980028 0.0762834 0.870773 0 0.735653L0.0389508 0.377337ZM30.9212 10.5428H9.02825C8.79456 10.5428 8.70498 10.5895 8.77509 10.8349C8.83112 11.0248 8.86254 11.2212 8.86856 11.4191C8.86856 11.7619 9.01268 11.8514 9.34763 11.8475C16.2571 11.8475 23.1665 11.8475 30.076 11.8475H30.3525C30.3912 11.8513 30.43 11.8417 30.4626 11.8205C30.4951 11.7993 30.5195 11.7676 30.5317 11.7307C30.6485 11.3373 30.7771 10.9556 30.9212 10.5428Z" fill="#6F9C3D"/>
<path d="M28.4967 28.7702C28.4993 29.1936 28.418 29.6134 28.2576 30.0053C28.0973 30.3971 27.8609 30.7534 27.5622 31.0535C27.2636 31.3537 26.9084 31.5917 26.5173 31.754C26.1262 31.9163 25.7069 31.9995 25.2834 31.999C24.6431 32.0029 24.016 31.8165 23.4818 31.4634C22.9475 31.1104 22.5301 30.6067 22.2826 30.0161C22.035 29.4255 21.9684 28.7747 22.0913 28.1462C22.2141 27.5178 22.5209 26.94 22.9726 26.4861C23.4243 26.0322 24.0006 25.7226 24.6285 25.5968C25.2564 25.4709 25.9075 25.5343 26.4992 25.779C27.091 26.0237 27.5968 26.4386 27.9524 26.9712C28.308 27.5037 28.4974 28.1299 28.4967 28.7702Z" fill="#6F9C3D"/>
<path d="M10.125 28.7592C10.1282 28.1199 10.3213 27.496 10.6798 26.9667C11.0383 26.4374 11.5461 26.0266 12.1386 25.7864C12.7311 25.5463 13.3816 25.4877 14.0074 25.618C14.6333 25.7484 15.2063 26.0618 15.6537 26.5185C16.1011 26.9752 16.4026 27.5546 16.52 28.183C16.6374 28.8114 16.5654 29.4606 16.3131 30.048C16.0608 30.6354 15.6395 31.1345 15.1029 31.482C14.5663 31.8296 13.9386 32.0097 13.2993 31.9997C12.4505 31.9854 11.6414 31.6373 11.0473 31.0308C10.4532 30.4243 10.1218 29.6082 10.125 28.7592Z" fill="#6F9C3D"/>
</svg>
