<svg width="38" height="32" viewBox="0 0 38 32" fill="none" xmlns="http://www.w3.org/2000/svg">
<path d="M18.7529 24.8849H4.4657C4.09936 24.8849 3.9836 24.7899 3.90648 24.5207C2.82675 20.0078 1.72785 15.5107 0.648124 11.0137L0.0696039 8.65431C-0.0213678 8.42054 -0.0232393 8.16948 0.0644259 7.93486C0.152091 7.70024 0.325126 7.49326 0.560099 7.34164C0.795072 7.19002 1.08085 7.10103 1.37916 7.08659C1.67747 7.07214 1.97401 7.13294 2.22905 7.26084L11.8695 11.1878C12.2937 11.362 12.39 11.2829 12.5443 10.9662C14.1639 7.6092 15.8028 4.26806 17.4224 0.911097C17.5054 0.650138 17.6913 0.419143 17.9513 0.25428C18.2112 0.0894162 18.5304 0 18.8588 0C19.1872 0 19.5065 0.0894162 19.7664 0.25428C20.0263 0.419143 20.2122 0.650138 20.2952 0.911097C21.587 3.57133 22.8981 6.2316 24.1514 8.90767C24.4985 9.62023 24.8649 10.3328 25.1926 11.0612C25.3276 11.3462 25.4624 11.3621 25.7709 11.2354L35.2958 7.30834C35.6623 7.13266 36.0958 7.07615 36.5105 7.14999C36.8801 7.22504 37.1988 7.41677 37.3974 7.68358C37.5959 7.95039 37.6581 8.27074 37.5708 8.5751C36.5297 12.803 35.5078 17.0309 34.4666 21.2429C34.216 22.3038 33.946 23.3648 33.7146 24.4098C33.7146 24.7265 33.5219 24.8691 33.0592 24.8691L18.7529 24.8849ZM21.6641 17.1576C21.7204 16.8638 21.7204 16.5646 21.6641 16.2708C21.5986 15.742 21.3104 15.2487 20.849 14.8759C20.3877 14.5032 19.7823 14.2746 19.1375 14.2295C18.4927 14.1844 17.8488 14.3258 17.3174 14.6291C16.786 14.9324 16.4003 15.3787 16.227 15.8907C16.0078 16.398 15.9224 16.9378 15.9763 17.4742C15.9799 18.0588 16.2125 18.6269 16.6396 19.0946C17.0667 19.5622 17.6655 19.9046 18.3478 20.0711C18.5961 20.1117 18.8516 20.1117 19.0998 20.0711C19.8773 19.9122 20.5612 19.5326 21.0305 18.9993C21.4998 18.4661 21.7242 17.8137 21.6641 17.1576Z" fill="#6F9C3D"/>
<path d="M18.8564 27.2611H32.7387C33.1629 27.2611 33.2401 27.3561 33.2401 27.6886C33.2401 28.7021 33.2401 29.7313 33.2401 30.7606C33.2577 30.9264 33.2308 31.0934 33.1614 31.2498C33.0921 31.4063 32.9819 31.5484 32.8385 31.6661C32.6952 31.7838 32.5223 31.8743 32.3318 31.9313C32.1413 31.9882 31.938 32.0102 31.7361 31.9957H5.89966C5.69674 32.0077 5.49297 31.9835 5.30255 31.9246C5.11212 31.8658 4.93946 31.7738 4.79652 31.6549C4.65357 31.536 4.54374 31.3931 4.47454 31.2359C4.40534 31.0788 4.37844 30.9112 4.3957 30.7447C4.3957 29.7155 4.3957 28.6704 4.3957 27.5778C4.3957 27.2611 4.4921 27.1978 4.87772 27.1978L18.8564 27.2611Z" fill="#6F9C3D"/>
</svg>
