<svg width="32" height="32" viewBox="0 0 32 32" fill="none" xmlns="http://www.w3.org/2000/svg">
<path d="M19.109 12.9929H28.9156C30.7745 12.9929 31.9489 14.1665 31.9506 16.0219C31.9506 16.7372 31.9454 17.4515 31.9506 18.1659C31.9506 18.3502 31.9122 18.4219 31.7073 18.4322C30.6975 18.4901 29.7453 18.9213 29.0356 19.6419C28.3258 20.3625 27.9092 21.3212 27.8666 22.3318C27.7702 24.3758 29.2587 26.1776 31.3233 26.5138C31.9463 26.6154 31.9574 26.6154 31.9429 27.2649C31.9258 28.074 32.0206 28.8865 31.8874 29.6922C31.7751 30.3158 31.4545 30.8827 30.978 31.3004C30.5016 31.7181 29.8975 31.9617 29.2646 31.9915C29.1477 31.9958 29.0308 31.9915 28.9139 31.9915C22.2805 31.9915 15.6472 31.9943 9.01389 32C8.68444 32 8.60422 31.9147 8.61617 31.5963C8.64177 30.9246 8.62982 30.2521 8.62129 29.5804C8.61617 29.175 8.38914 28.9522 8.03921 28.983C7.7439 29.006 7.56381 29.2202 7.5604 29.5906C7.55272 30.2939 7.54674 30.9989 7.5604 31.7022C7.56637 31.9488 7.48529 32.0017 7.25314 32C5.79453 31.9898 4.33506 32 2.87645 31.9941C1.2386 31.9864 0.0181117 30.7582 0.0104303 29.1161C0.00616286 28.3591 0.01043 27.6012 0.0061626 26.8441C0.0061626 26.6564 0.0292068 26.5676 0.262209 26.5548C2.35155 26.4362 3.99025 24.7548 4.09182 22.645C4.18911 20.6325 2.70319 18.8128 0.690662 18.4791C0.637745 18.4706 0.586536 18.4552 0.534473 18.4467C0.0138442 18.3613 0.00360171 18.3613 0.0164041 17.8399C0.0368878 16.9864 -0.0638233 16.1329 0.074442 15.2845C0.18563 14.6548 0.511355 14.083 0.996298 13.6662C1.48124 13.2494 2.0955 13.0133 2.73477 12.998C4.25739 12.981 5.78002 12.998 7.30264 12.9869C7.52541 12.9869 7.56467 13.0723 7.55869 13.2652C7.55016 14.012 7.55869 14.7588 7.55869 15.5056C7.55869 15.7906 7.62612 16.039 7.93764 16.1354C8.31574 16.2524 8.62043 15.9938 8.62043 15.5329C8.62811 14.8074 8.6358 14.082 8.62043 13.3565C8.61275 13.0731 8.68018 12.9835 8.98231 12.9844C12.3587 12.9972 15.7343 12.9929 19.109 12.9929ZM8.62811 19.9061C8.62811 19.5869 8.63238 19.2686 8.62811 18.9494C8.62129 18.5662 8.41047 18.3161 8.10322 18.311C7.79596 18.3059 7.57064 18.5568 7.56637 18.9357C7.55841 19.5844 7.55841 20.233 7.56637 20.8817C7.57064 21.2589 7.79938 21.5116 8.10578 21.5039C8.41218 21.4962 8.61787 21.2478 8.62811 20.8629C8.63323 20.5428 8.62811 20.2228 8.62811 19.9036V19.9061ZM8.62811 25.2498C8.62811 24.9204 8.63409 24.5909 8.62811 24.2615C8.61873 23.8731 8.40962 23.6453 8.08529 23.6512C7.76097 23.6572 7.5732 23.8757 7.56637 24.2487C7.55784 24.9076 7.55784 25.5662 7.56637 26.2245C7.57149 26.5958 7.7806 26.8177 8.09042 26.8219C8.40023 26.8262 8.61787 26.5941 8.62726 26.204C8.63323 25.8848 8.62811 25.5665 8.62811 25.2473V25.2498Z" fill="#6F9C3D"/>
<path d="M28.1358 11.9489H27.7176C19.8495 11.9489 11.9812 11.9503 4.11261 11.9531C3.13195 11.9531 2.13166 11.8174 1.14844 12.3321C1.23877 12.0678 1.37611 11.822 1.55385 11.6066C2.01729 11.0092 2.49268 10.4177 2.94247 9.81429C3.07818 9.6325 3.15926 9.60092 3.36154 9.73662C5.69412 11.2976 8.82387 10.148 9.54592 7.44245C9.9684 5.85668 9.54592 4.46977 8.35104 3.34146C8.18034 3.181 8.159 3.09907 8.31007 2.91472C8.80082 2.3113 9.26086 1.68314 9.75076 1.07887C10.7519 -0.156122 12.4222 -0.356692 13.6811 0.61116C14.8606 1.51585 16.0273 2.44871 17.2085 3.35341C17.3792 3.48228 17.3886 3.56166 17.2581 3.72467C16.7912 4.3059 16.3363 4.89736 15.8814 5.48797C15.6458 5.79437 15.6646 6.11273 15.9181 6.30647C16.1716 6.50021 16.4814 6.42681 16.7195 6.12382C17.1864 5.52638 17.6532 4.93321 18.1098 4.3315C18.2123 4.1958 18.2805 4.19153 18.4086 4.29309C21.6296 6.81258 24.8524 9.33008 28.0769 11.8456C28.1002 11.8778 28.1199 11.9124 28.1358 11.9489ZM14.7872 8.47688C14.7872 8.18413 14.6839 8.01258 14.4603 7.92638C14.2043 7.82823 14.0011 7.91187 13.8407 8.11415C13.4327 8.62965 13.0279 9.14828 12.6262 9.67005C12.3804 9.9884 12.394 10.3196 12.6526 10.5124C12.9112 10.7053 13.1946 10.6473 13.4455 10.3289C13.8467 9.82112 14.241 9.30476 14.6404 8.79864C14.7219 8.70943 14.7732 8.59687 14.7872 8.47688Z" fill="#6F9C3D"/>
</svg>
