<svg width="269" height="287" viewBox="0 0 269 287" fill="none" xmlns="http://www.w3.org/2000/svg">
<path d="M135.06 66.5431C135.06 66.5431 106.11 27.7893 71.009 30.7558C35.9079 33.7222 31.4725 74.7249 54.0463 109.702C76.6202 144.68 22.2319 185.678 67.2558 208.347C112.28 231.016 156.923 184.22 201.092 180.318C245.261 176.417 245.805 134.659 232.972 115.342C220.139 96.0263 149.465 86.6354 135.06 66.5431Z" fill="#6F9C3D" fill-opacity="0.31"/>
<path d="M33.8215 66.519C33.8202 66.519 33.8188 66.519 33.8175 66.519C33.355 66.517 32.9817 66.1403 32.9844 65.6778C33.0198 58.391 34.5254 51.7951 37.4571 46.0752C39.8067 41.4909 43.071 37.4609 47.1575 34.0973C54.1083 28.3767 60.9483 26.5915 61.236 26.5181C61.6842 26.4045 62.1398 26.6752 62.2541 27.1233C62.3683 27.5715 62.097 28.0271 61.6488 28.1414C61.5631 28.1638 54.8231 29.9374 48.168 35.435C39.2661 42.7884 34.7213 52.9662 34.6587 65.6867C34.6566 66.1471 34.2819 66.519 33.8215 66.519Z" fill="#6F9C3D" fill-opacity="0.31"/>
<path d="M245.189 151.015C245.136 151.015 245.082 151.009 245.028 150.999C244.575 150.911 244.278 150.471 244.367 150.017C244.396 149.866 247.232 134.623 239.777 118.481C235.907 110.103 228.85 104.657 223.611 101.564C217.915 98.2022 213.105 96.8258 213.057 96.8122C212.613 96.6864 212.354 96.224 212.479 95.7792C212.605 95.3338 213.068 95.0753 213.512 95.2005C213.716 95.2583 218.582 96.651 224.462 100.123C229.907 103.337 237.247 109.008 241.298 117.779C245.316 126.48 246.385 134.856 246.575 140.349C246.78 146.314 246.042 150.176 246.011 150.338C245.932 150.737 245.582 151.015 245.189 151.015Z" fill="#6F9C3D" fill-opacity="0.31"/>
<path d="M166.301 40.6069C166.301 40.6069 168.536 32.9699 173.379 33.5289C178.221 34.0879 178.967 36.3226 183.064 34.6462C187.162 32.9699 188.652 27.5682 195.358 28.8719C202.063 30.1755 202.808 37.6262 210.445 37.0672C218.082 36.5082 220.689 36.3219 223.483 40.6063L166.301 40.6069Z" fill="#6F9C3D" fill-opacity="0.31"/>
<path d="M39.5762 20.8313C39.5762 20.8313 42.6398 14.0572 51.0052 16.0763C59.2761 18.073 62.8382 6.22772 70.2026 6.98938C77.5669 7.75104 74.9269 14.5523 84.3226 16.0763C93.7183 17.6003 96.4385 13.8926 100.396 20.8313H39.5762Z" fill="#6F9C3D" fill-opacity="0.31"/>
<path d="M19.0703 116.981C18.582 116.981 18.1631 116.647 18.0529 116.17C17.6517 114.437 17.0995 113.884 15.366 113.483C14.8886 113.373 14.5547 112.954 14.5547 112.466C14.5547 111.978 14.8886 111.559 15.366 111.449C17.0995 111.047 17.6517 110.495 18.0529 108.762C18.1638 108.284 18.582 107.951 19.0703 107.951C19.5585 107.951 19.9775 108.285 20.0876 108.762C20.4889 110.495 21.0411 111.048 22.7745 111.449C23.2519 111.56 23.5858 111.978 23.5858 112.466C23.5858 112.954 23.2519 113.373 22.7745 113.483C21.0411 113.885 20.4889 114.437 20.0883 116.17C19.9775 116.647 19.5592 116.981 19.0703 116.981ZM16.3378 112.465C17.823 112.938 18.5976 113.713 19.0703 115.198C19.5429 113.713 20.3175 112.938 21.8027 112.465C20.3175 111.993 19.5429 111.218 19.0703 109.733C18.5976 111.219 17.8237 111.993 16.3378 112.465Z" fill="#FFC04B"/>
<path d="M33.4921 125.683C31.7185 125.683 30.2754 124.24 30.2754 122.467C30.2754 120.693 31.7185 119.25 33.4921 119.25C35.2656 119.25 36.7087 120.693 36.7087 122.467C36.7087 124.24 35.2656 125.683 33.4921 125.683ZM33.4921 120.488C32.4006 120.488 31.5131 121.376 31.5131 122.467C31.5131 123.557 32.4012 124.446 33.4921 124.446C34.5836 124.446 35.471 123.558 35.471 122.467C35.471 121.375 34.5829 120.488 33.4921 120.488Z" fill="#FF8829"/>
<path d="M35.4704 102.746C35.129 102.746 34.8516 102.469 34.8516 102.127V100.489C34.8516 100.148 35.1283 99.8701 35.4704 99.8701C35.8118 99.8701 36.0893 100.147 36.0893 100.489V102.127C36.0893 102.469 35.8118 102.746 35.4704 102.746Z" fill="#259BFF"/>
<path d="M35.4704 107.123C35.129 107.123 34.8516 106.846 34.8516 106.504V104.866C34.8516 104.525 35.1283 104.247 35.4704 104.247C35.8118 104.247 36.0893 104.524 36.0893 104.866V106.504C36.0893 106.846 35.8118 107.123 35.4704 107.123Z" fill="#259BFF"/>
<path d="M34.179 103.974H32.5407C32.1993 103.974 31.9219 103.697 31.9219 103.355C31.9219 103.014 32.1987 102.736 32.5407 102.736H34.179C34.5211 102.736 34.7978 103.013 34.7978 103.355C34.7972 103.697 34.5204 103.974 34.179 103.974Z" fill="#259BFF"/>
<path d="M38.4016 103.974H36.7634C36.422 103.974 36.1445 103.697 36.1445 103.355C36.1445 103.014 36.4213 102.736 36.7634 102.736H38.4016C38.7437 102.736 39.0205 103.013 39.0205 103.355C39.0205 103.697 38.7437 103.974 38.4016 103.974Z" fill="#259BFF"/>
<path d="M18.988 131.511C18.6459 131.511 18.3691 131.234 18.3691 130.892V129.254C18.3691 128.912 18.6459 128.635 18.988 128.635C19.3294 128.635 19.6068 128.912 19.6068 129.254V130.892C19.6062 131.234 19.3294 131.511 18.988 131.511Z" fill="#6F9C3D"/>
<path d="M18.988 135.89C18.6459 135.89 18.3691 135.613 18.3691 135.271V133.633C18.3691 133.291 18.6459 133.014 18.988 133.014C19.3294 133.014 19.6068 133.29 19.6068 133.633V135.271C19.6062 135.612 19.3294 135.89 18.988 135.89Z" fill="#6F9C3D"/>
<path d="M17.6946 132.74H16.0563C15.715 132.74 15.4375 132.463 15.4375 132.121C15.4375 131.779 15.7143 131.502 16.0563 131.502H17.6946C18.036 131.502 18.3135 131.779 18.3135 132.121C18.3128 132.463 18.036 132.74 17.6946 132.74Z" fill="#6F9C3D"/>
<path d="M21.9192 132.74H20.281C19.9396 132.74 19.6621 132.463 19.6621 132.121C19.6621 131.779 19.9389 131.502 20.281 131.502H21.9192C22.2606 131.502 22.5381 131.779 22.5381 132.121C22.5381 132.463 22.2606 132.74 21.9192 132.74Z" fill="#6F9C3D"/>
<path d="M213.582 66.269C213.181 64.5362 212.628 63.9833 210.895 63.5828C210.418 63.4719 210.084 63.0537 210.084 62.5647C210.084 62.0764 210.418 61.6575 210.895 61.5473C212.629 61.1461 213.181 60.5939 213.582 58.8611C213.693 58.3837 214.111 58.0498 214.6 58.0498C215.088 58.0498 215.507 58.3837 215.617 58.8611C216.018 60.5939 216.57 61.1468 218.304 61.5473C218.782 61.6582 219.115 62.0764 219.115 62.5647C219.115 63.053 218.781 63.4719 218.304 63.5828C216.571 63.9833 216.018 64.5362 215.617 66.269C215.506 66.7464 215.088 67.0803 214.6 67.0803C214.111 67.081 213.692 66.7471 213.582 66.269ZM214.599 59.8329C214.126 61.3182 213.352 62.0927 211.866 62.5654C213.352 63.038 214.126 63.8126 214.599 65.2979C215.072 63.8126 215.846 63.038 217.331 62.5654C215.846 62.0927 215.072 61.3182 214.599 59.8329Z" fill="#FFC04B"/>
<path d="M196.961 72.5663C196.961 70.7927 198.404 69.3496 200.178 69.3496C201.951 69.3496 203.394 70.7927 203.394 72.5663C203.394 74.3399 201.951 75.783 200.178 75.783C198.404 75.783 196.961 74.3399 196.961 72.5663ZM198.199 72.5663C198.199 73.6578 199.087 74.5452 200.178 74.5452C201.269 74.5452 202.157 73.6578 202.157 72.5663C202.157 71.4748 201.268 70.5873 200.178 70.5873C199.086 70.5873 198.199 71.4748 198.199 72.5663Z" fill="#FF8829"/>
<path d="M198.197 52.8467C198.538 52.8467 198.816 52.5699 198.816 52.2278V50.5896C198.816 50.2482 198.539 49.9707 198.197 49.9707C197.856 49.9707 197.578 50.2475 197.578 50.5896V52.2278C197.578 52.5692 197.856 52.8467 198.197 52.8467Z" fill="#259BFF"/>
<path d="M198.197 57.2236C198.538 57.2236 198.816 56.9468 198.816 56.6048V54.9665C198.816 54.6251 198.539 54.3477 198.197 54.3477C197.856 54.3477 197.578 54.6244 197.578 54.9665V56.6048C197.578 56.9468 197.856 57.2236 198.197 57.2236Z" fill="#259BFF"/>
<path d="M199.49 54.0756H201.128C201.47 54.0756 201.747 53.7981 201.747 53.4567C201.747 53.1154 201.47 52.8379 201.128 52.8379H199.49C199.149 52.8379 198.871 53.1147 198.871 53.4567C198.871 53.7981 199.149 54.0756 199.49 54.0756Z" fill="#259BFF"/>
<path d="M195.267 54.0756H196.906C197.247 54.0756 197.524 53.7981 197.524 53.4567C197.524 53.1154 197.248 52.8379 196.906 52.8379H195.267C194.925 52.8379 194.648 53.1147 194.648 53.4567C194.648 53.7981 194.925 54.0756 195.267 54.0756Z" fill="#259BFF"/>
<path d="M214.681 81.6103C215.023 81.6103 215.3 81.3336 215.3 80.9915V79.3532C215.3 79.0118 215.023 78.7344 214.681 78.7344C214.34 78.7344 214.062 79.0112 214.062 79.3532V80.9915C214.062 81.3336 214.34 81.6103 214.681 81.6103Z" fill="#6F9C3D"/>
<path d="M214.681 85.9873C215.023 85.9873 215.3 85.7105 215.3 85.3684V83.7302C215.3 83.3888 215.023 83.1113 214.681 83.1113C214.34 83.1113 214.062 83.3881 214.062 83.7302V85.3684C214.062 85.7105 214.34 85.9873 214.681 85.9873Z" fill="#6F9C3D"/>
<path d="M215.974 82.8393H217.613C217.955 82.8393 218.232 82.5625 218.232 82.2204C218.232 81.879 217.955 81.6016 217.613 81.6016H215.974C215.633 81.6016 215.355 81.879 215.355 82.2204C215.355 82.5625 215.633 82.8393 215.974 82.8393Z" fill="#6F9C3D"/>
<path d="M211.752 82.8393H213.39C213.732 82.8393 214.009 82.5625 214.009 82.2204C214.009 81.879 213.732 81.6016 213.39 81.6016H211.752C211.41 81.6016 211.133 81.879 211.133 82.2204C211.133 82.5625 211.41 82.8393 211.752 82.8393Z" fill="#6F9C3D"/>
<path d="M134.138 287C208.22 287 268.276 277.174 268.276 265.054C268.276 252.933 208.22 243.107 134.138 243.107C60.0556 243.107 0 252.933 0 265.054C0 277.174 60.0556 287 134.138 287Z" fill="#6F9C3D" fill-opacity="0.31"/>
<path d="M214.609 226.908H55.9506C55.7989 226.908 55.6541 226.972 55.5514 227.084L26.9305 258.311C26.6122 258.657 26.8584 259.217 27.329 259.217H243.23C243.701 259.217 243.947 258.657 243.629 258.311L215.007 227.084C214.905 226.972 214.761 226.908 214.609 226.908Z" fill="#6F9C3D"/>
<path d="M40.2871 254.359L60.9629 229.282H210.325L232.152 254.359H40.2871Z" fill="white"/>
<path d="M116.134 237.967C116.134 240.095 107.942 241.819 97.8367 241.819C87.731 241.819 79.5391 240.094 79.5391 237.967C79.5391 235.839 87.731 234.114 97.8367 234.114C107.942 234.114 116.134 235.839 116.134 237.967Z" fill="#6F9C3D" fill-opacity="0.31"/>
<path d="M191.919 237.967C191.919 240.095 183.727 241.819 173.622 241.819C163.516 241.819 155.324 240.094 155.324 237.967C155.324 235.839 163.516 234.114 173.622 234.114C183.727 234.114 191.919 235.839 191.919 237.967Z" fill="#6F9C3D" fill-opacity="0.31"/>
<path d="M45.5488 247.353L55.8517 244.964C56.357 244.847 56.7997 244.544 57.0921 244.116L61.9695 236.998C62.5849 236.1 62.4 234.878 61.5458 234.203L58.4264 231.734L45.5488 247.353Z" fill="#6F9C3D"/>
<path d="M57.8171 234.918L52.7194 242.292C52.5283 242.568 52.7738 242.935 53.1016 242.865L53.9931 242.673C54.0836 242.653 54.1632 242.601 54.2169 242.526L58.9997 235.808C59.1133 235.648 59.0827 235.428 58.9304 235.305L58.3543 234.841C58.1857 234.706 57.9388 234.742 57.8171 234.918Z" fill="#674574"/>
<path d="M243.623 259.035L237.818 268.987C237.065 270.278 235.683 271.072 234.189 271.072H36.3661C34.8713 271.072 33.4894 270.279 32.7366 268.987L26.9316 259.035H243.623Z" fill="#6F9C3D"/>
<path d="M64.2913 264.394L63.3705 266.063C63.2094 266.354 62.9027 266.535 62.5694 266.535H51.4485C51.1152 266.535 50.8085 266.354 50.6473 266.063L49.7265 264.394C49.3899 263.784 49.8313 263.037 50.5277 263.037H63.4909C64.1873 263.037 64.6286 263.785 64.2913 264.394Z" fill="#537E23"/>
<path d="M81.848 264.394L80.9272 266.063C80.766 266.354 80.4593 266.535 80.1261 266.535H69.0051C68.6719 266.535 68.3652 266.354 68.204 266.063L67.2832 264.394C66.9466 263.784 67.3879 263.037 68.0843 263.037H81.0475C81.7432 263.037 82.1846 263.785 81.848 264.394Z" fill="#537E23"/>
<path d="M109.905 264.394L108.984 266.063C108.823 266.354 108.516 266.535 108.183 266.535H97.0617C96.7285 266.535 96.4218 266.354 96.2606 266.063L95.3398 264.394C95.0032 263.784 95.4446 263.037 96.1409 263.037H109.104C109.8 263.037 110.241 263.785 109.905 264.394Z" fill="#537E23"/>
<path d="M99.3108 95.9104C98.594 96.7577 97.3685 97.9138 95.8303 99.1794C89.365 104.501 77.3837 111.759 74.5567 106.106C71.8997 100.79 78.5337 93.4472 81.8768 90.2251C82.9357 89.2044 83.6634 88.5957 83.6634 88.5957C83.6634 88.5957 84.5467 88.7276 85.9021 88.9813C85.9041 88.9813 85.9041 88.9813 85.9055 88.9813C90.1212 89.7647 98.8851 91.7002 99.7215 94.3735C99.8759 94.8624 99.7637 95.3745 99.3108 95.9104Z" fill="#FFA86F"/>
<path d="M99.3109 95.9104C98.5941 96.7577 97.3687 97.9138 95.8304 99.1794C90.0873 97.3474 84.5516 92.7087 81.877 90.2251C82.9358 89.2044 83.6635 88.5957 83.6635 88.5957C83.6635 88.5957 84.5469 88.7276 85.9022 88.9813C85.9043 88.9813 85.9043 88.9813 85.9056 88.9813C90.0397 91.0391 96.0983 93.1698 99.7217 94.3735C99.876 94.8624 99.7638 95.3745 99.3109 95.9104Z" fill="#6F9C3D"/>
<path d="M90.8313 96.1731C90.8313 96.1731 83.4418 96.7131 79.6934 98.2487C79.6934 98.2487 84.8087 94.1125 88.751 94.6403C92.6927 95.1687 90.8313 96.1731 90.8313 96.1731Z" fill="#6F9C3D"/>
<path d="M169.527 95.634C170.243 96.4814 171.469 97.6375 173.007 98.9031C179.472 104.225 191.453 111.483 194.281 105.83C196.938 100.514 190.304 93.1709 186.961 89.9488C185.902 88.928 185.175 88.3193 185.175 88.3193C185.175 88.3193 184.291 88.4513 182.936 88.7049C182.934 88.7049 182.934 88.7049 182.933 88.7049C178.717 89.4884 169.953 91.4238 169.117 94.0971C168.962 94.5861 169.074 95.0988 169.527 95.634Z" fill="#FFA86F"/>
<path d="M169.527 95.634C170.244 96.4814 171.469 97.6375 173.007 98.9031C178.751 97.071 184.286 92.4323 186.961 89.9488C185.902 88.928 185.174 88.3193 185.174 88.3193C185.174 88.3193 184.291 88.4513 182.936 88.7049C182.934 88.7049 182.934 88.7049 182.932 88.7049C178.798 90.7628 172.74 92.8934 169.116 94.0971C168.962 94.5861 169.074 95.0988 169.527 95.634Z" fill="#6F9C3D"/>
<path d="M178.006 95.8987C178.006 95.8987 185.395 96.4387 189.144 97.9742C189.144 97.9742 184.028 93.8381 180.086 94.3659C176.144 94.8943 178.006 95.8987 178.006 95.8987Z" fill="#6F9C3D"/>
<path d="M179.222 150.619C179.222 150.619 177.729 155.778 170.128 157.61L169.166 153.511C169.166 153.511 176.883 149.91 179.222 150.619Z" fill="#0074E8"/>
<path d="M95.75 156.907C95.75 156.907 97.8473 161.081 105.721 158.828L108.13 150.191C108.13 150.191 99.8072 149.546 95.75 156.907Z" fill="#0074E8"/>
<path d="M104.214 149.261C104.214 149.261 93.8624 190.528 96.0522 198.944C98.242 207.361 109.987 213.605 117.75 198.944C125.514 184.284 134.137 145.188 134.137 145.188L104.214 149.261Z" fill="#6F9C3D"/>
<path d="M128.617 167.887C128.617 167.887 132.299 163.985 141.914 160.559C151.53 157.133 145.239 143.78 145.239 143.78L122.978 146.798C122.978 146.798 121.559 160.96 128.617 167.887Z" fill="#6F9C3D"/>
<path d="M120.713 188.627C120.713 188.627 118.67 203.017 115.421 214.692C112.171 226.365 107.013 238.817 107.013 238.817C106.44 238.917 105.845 239.004 105.238 239.079C104.799 239.134 104.353 239.184 103.9 239.227C97.858 239.802 90.9336 239.295 88.7051 237.847L95.8511 193.191L117.419 189.232L118.84 188.972L120.713 188.627Z" fill="#6F9C3D"/>
<path d="M126.424 164.23C126.204 165.007 121.892 180.341 118.839 188.971C118.23 190.689 117.673 192.139 117.206 193.158C116.994 194.18 114.524 205.972 111.316 217.166C109.952 221.928 106.964 232.777 105.236 239.078C104.797 239.134 104.351 239.184 103.898 239.227C105.605 233.008 108.713 221.712 110.114 216.823C113.441 205.215 115.971 192.958 115.996 192.837C116.007 192.791 116.021 192.744 116.042 192.701C116.437 191.848 116.905 190.653 117.417 189.232C120.487 180.723 125.165 164.087 125.22 163.893C125.313 163.561 125.658 163.366 125.99 163.459C126.323 163.553 126.517 163.898 126.424 164.23Z" fill="#537E23"/>
<path d="M168.132 149.261C168.132 149.261 178.483 190.528 176.294 198.944C174.104 207.361 162.359 213.605 154.596 198.944C146.832 184.284 138.209 145.188 138.209 145.188L168.132 149.261Z" fill="#6F9C3D"/>
<path d="M183.209 236.429C179.061 238.316 173.549 238.318 169.048 238.034C168.594 238.006 168.151 237.975 167.721 237.943C166.655 237.863 165.667 237.774 164.795 237.702C164.795 237.702 160.177 226.365 156.927 214.691C153.676 203.017 151.635 188.626 151.635 188.626L154.103 189.08L155.478 189.331L176.496 193.19L183.209 236.429Z" fill="#6F9C3D"/>
<path d="M169.046 238.034C168.592 238.005 168.149 237.975 167.719 237.943C166.228 232.65 163.066 221.694 160.841 215.785C157.896 207.968 155.455 194.052 155.311 193.212C155.023 192.26 154.603 190.823 154.1 189.08C151.493 180.019 146.668 162.701 146.609 162.492C146.516 162.16 146.711 161.816 147.043 161.722C147.377 161.629 147.72 161.824 147.813 162.156C147.872 162.369 152.918 180.473 155.475 189.331C155.906 190.821 156.265 192.049 156.518 192.887C156.524 192.91 156.532 192.936 156.535 192.962C156.56 193.104 159.03 207.434 162.01 215.346C164.314 221.462 167.603 232.911 169.046 238.034Z" fill="#537E23"/>
<path d="M161.693 94.3941L161.064 94.0324C161.064 94.0324 161.175 95.5652 161.577 98.3657C162.027 101.497 162.841 106.212 164.275 112.138C166.99 123.361 179.223 150.618 179.223 150.618C179.223 150.618 170.61 155.58 152.751 153.648C135.643 151.798 123.971 149.728 111.844 149.909C99.7165 150.089 95.749 156.906 95.749 156.906C95.749 156.906 101.683 122.456 104.001 113.949C104.973 110.383 105.856 106.281 106.553 102.719C107.519 97.7842 108.129 93.8855 108.129 93.8855L106.658 95.0402L103.096 97.8386C93.3212 97.6577 78.7578 87.4399 78.7578 87.4399C78.7578 87.4399 93.5185 72.9791 94.6786 71.4116C98.0272 66.8865 99.7464 66.3438 103.186 64.5335C106.625 62.7232 127.461 51.541 127.461 51.541H142.193C142.193 51.541 156.854 57.6554 160.112 59.6466C163.371 61.6378 168.2 64.8831 171.601 68.0181C175.546 71.6585 189.39 83.9015 189.39 83.9015C184.322 94.3996 166.085 96.9342 166.085 96.9342L161.693 94.3941Z" fill="#259BFF"/>
<path d="M161.065 94.0336C161.065 94.0336 161.175 95.5664 161.577 98.3669L161.692 99.1517L153.078 87.418L161.692 94.3954L161.065 94.0336Z" fill="#0074E8"/>
<path d="M106.555 102.72C107.521 97.7852 108.131 93.8864 108.131 93.8864L106.659 95.0412L115.346 86.4541L106.555 102.72Z" fill="#0074E8"/>
<path d="M137.909 61.3857C134.356 61.3857 131.405 60.4499 129.313 59.489C126 57.967 124.112 56.1044 124.034 56.0262C123.9 55.8936 123.9 55.6787 124.033 55.5454C124.166 55.4121 124.38 55.4121 124.514 55.5447C124.532 55.563 126.411 57.4128 129.621 58.8824C132.573 60.2337 137.292 61.5312 143.012 60.0419C143.194 59.9943 143.379 60.1038 143.427 60.2854C143.474 60.4669 143.365 60.6526 143.183 60.7002C141.314 61.1864 139.547 61.3857 137.909 61.3857Z" fill="#0074E8"/>
<path d="M136.236 64.6634C135.09 64.6634 133.832 64.5484 132.472 64.2649C132.288 64.2268 132.17 64.0466 132.208 63.8623C132.246 63.6786 132.427 63.561 132.611 63.5991C139.326 65.0014 143.524 62.0567 143.565 62.0268C143.718 61.9173 143.93 61.952 144.04 62.1043C144.149 62.2566 144.115 62.4695 143.962 62.579C143.817 62.683 140.992 64.6634 136.236 64.6634Z" fill="#0074E8"/>
<path d="M158.668 145.825C152.131 145.825 142.656 143.943 130.056 140.158C119.244 136.911 112.289 137.713 108.356 138.958C104.146 140.291 102.455 142.376 102.439 142.398C102.322 142.544 102.108 142.57 101.961 142.453C101.814 142.336 101.789 142.122 101.905 141.975C101.978 141.883 103.744 139.705 108.151 138.31C112.174 137.036 119.273 136.21 130.251 139.507C149.616 145.324 161.469 146.638 166.487 143.526C166.648 143.426 166.856 143.476 166.955 143.635C167.054 143.795 167.005 144.005 166.845 144.104C164.997 145.25 162.281 145.825 158.668 145.825Z" fill="#0074E8"/>
<path d="M159.069 140.587C157.445 140.587 154.652 140.461 150.926 139.824C145.377 138.875 136.644 136.557 126.551 130.898C126.387 130.806 126.329 130.599 126.42 130.436C126.512 130.272 126.72 130.213 126.883 130.305C146.027 141.036 160.48 139.87 160.625 139.856C160.812 139.842 160.977 139.977 160.994 140.164C161.011 140.351 160.873 140.516 160.686 140.533C160.629 140.539 160.072 140.587 159.069 140.587Z" fill="#0074E8"/>
<path d="M157.216 124.783C147.553 124.783 137.77 120.848 130.953 117.328C122.693 113.064 116.881 108.469 116.824 108.424C116.677 108.307 116.652 108.093 116.769 107.946C116.886 107.799 117.1 107.774 117.247 107.891C117.304 107.937 123.073 112.496 131.277 116.73C138.829 120.627 150.05 125.041 160.623 123.927C160.808 123.91 160.977 124.043 160.997 124.23C161.016 124.416 160.881 124.584 160.694 124.603C159.539 124.725 158.379 124.783 157.216 124.783Z" fill="#0074E8"/>
<path d="M142.193 53.4022C142.193 53.4022 140.926 57.3839 135.105 57.3839C128.315 57.3839 126.717 53.764 126.717 53.764C127.307 52.1999 127.712 50.752 127.986 49.4579H127.988C128.491 47.0865 128.562 45.2238 128.531 44.082L140.459 43.6094C140.569 44.6193 140.748 45.8087 140.951 47.0049C141.491 50.1821 142.193 53.4022 142.193 53.4022Z" fill="#FFA86F"/>
<path d="M140.952 47.0059C139.104 48.2912 135.064 50.2042 127.988 49.4588C128.492 47.0875 128.562 45.2248 128.531 44.083L140.459 43.6104C140.57 44.6202 140.75 45.8097 140.952 47.0059Z" fill="#6F9C3D"/>
<path d="M123.147 28.9557C123.147 28.9557 119.455 23.9315 116.584 26.9047C113.713 29.8786 119.25 40.2351 124.275 37.9794L123.147 28.9557Z" fill="#FFA86F"/>
<path d="M121.385 34.8944C121.26 34.8944 121.151 34.8019 121.133 34.6747C120.647 31.1833 117.873 29.0404 117.845 29.0194C117.733 28.9344 117.711 28.7745 117.796 28.6623C117.881 28.5501 118.041 28.5284 118.153 28.6134C118.274 28.7052 121.124 30.9065 121.638 34.604C121.657 34.7434 121.56 34.8726 121.42 34.8917C121.409 34.8937 121.397 34.8944 121.385 34.8944Z" fill="#FF8829"/>
<path d="M120.613 32.3864C120.532 32.3864 120.451 32.347 120.402 32.2742C120.031 31.7261 118.923 31.6703 118.529 31.6948C118.388 31.705 118.267 31.5969 118.258 31.4561C118.249 31.3153 118.356 31.1943 118.497 31.1854C118.567 31.1807 120.216 31.0889 120.824 31.9879C120.903 32.1042 120.872 32.2633 120.755 32.3422C120.712 32.3721 120.662 32.3864 120.613 32.3864Z" fill="#FF8829"/>
<path d="M121.994 38.2076C121.922 38.1967 121.851 38.1736 121.777 38.1539C121.439 38.2926 121.045 38.2708 120.769 38.077C119.918 37.4786 120.659 36.0362 120.669 36.0171C120.739 35.8845 120.688 35.7206 120.556 35.6506C120.423 35.5805 120.259 35.6315 120.189 35.7641C120.149 35.8403 119.214 37.6479 120.458 38.5218C120.71 38.6986 121.02 38.787 121.337 38.787C121.647 38.787 121.963 38.702 122.234 38.532C122.342 38.4633 122.436 38.3824 122.521 38.294C122.342 38.2661 122.172 38.2341 121.994 38.2076Z" fill="#6F9C3D"/>
<path d="M147.429 28.9557C147.429 28.9557 151.12 23.9315 153.992 26.9047C156.863 29.8786 151.326 40.2351 146.301 37.9794L147.429 28.9557Z" fill="#FFA86F"/>
<path d="M149.189 34.8944C149.177 34.8944 149.165 34.8937 149.154 34.8916C149.014 34.8726 148.917 34.7434 148.936 34.604C149.45 30.9065 152.3 28.7045 152.421 28.6127C152.533 28.527 152.693 28.5494 152.778 28.6616C152.863 28.7739 152.841 28.9337 152.729 29.0187C152.701 29.0398 149.925 31.1901 149.441 34.6733C149.424 34.8026 149.314 34.8944 149.189 34.8944Z" fill="#FF8829"/>
<path d="M149.962 32.3874C149.913 32.3874 149.863 32.3731 149.819 32.3439C149.703 32.265 149.672 32.1066 149.751 31.9896C150.359 31.0906 152.008 31.183 152.078 31.1871C152.219 31.196 152.325 31.317 152.316 31.4571C152.308 31.5979 152.185 31.706 152.046 31.6958C151.65 31.672 150.542 31.7291 150.173 32.2752C150.124 32.348 150.044 32.3874 149.962 32.3874Z" fill="#FF8829"/>
<path d="M148.582 38.2076C148.654 38.1967 148.725 38.1736 148.799 38.1539C149.137 38.2926 149.531 38.2708 149.807 38.077C150.658 37.4786 149.917 36.0362 149.906 36.0171C149.836 35.8845 149.887 35.7206 150.02 35.6506C150.153 35.5805 150.317 35.6315 150.387 35.7641C150.427 35.8403 151.362 37.6479 150.118 38.5218C149.866 38.6986 149.556 38.787 149.239 38.787C148.929 38.787 148.613 38.702 148.342 38.532C148.234 38.4633 148.14 38.3824 148.055 38.294C148.234 38.2661 148.404 38.2341 148.582 38.2076Z" fill="#6F9C3D"/>
<path d="M138.334 14.3082C128.008 11.7886 118.662 21.1238 120.991 31.4947C122.634 38.8148 126.452 47.4916 135.315 47.6997C144.551 47.9174 148.047 38.4149 149.366 30.784C150.573 23.8005 146.502 16.9251 139.767 14.717C139.3 14.5646 138.823 14.4273 138.334 14.3082Z" fill="#FFA86F"/>
<path d="M121.166 28.5067C121.166 28.5067 119.435 22.4039 120.035 19.9605C120.635 17.517 121.887 17.9645 121.887 17.9645C121.887 17.9645 111.153 7.71943 116.209 2.70741C120.611 -1.65584 124.726 8.54094 124.726 8.54094C124.726 8.54094 122.582 1.14056 125.632 0.123871C129.432 -1.14308 131.152 7.72623 131.152 7.72623C131.152 7.72623 130.839 1.10995 133.928 1.24053C138.211 1.42142 135.798 6.36884 140.444 8.29952C145.089 10.2302 152.108 11.2108 149.578 18.9941C149.578 18.9941 153.672 20.4304 148.891 28.8168L146.99 28.9223C146.99 28.9223 147.563 25.4628 146.96 23.3675C146.96 23.3675 144.305 21.513 144.426 18.7982C144.426 18.7982 135.074 24.3489 126.446 19.4015C126.446 19.4015 126.99 22.5991 124.274 23.0819C124.274 23.0819 122.947 26.3958 123.007 28.5074L121.166 28.5067Z" fill="#6F9C3D"/>
<path d="M148.71 14.1101C148.71 14.1101 150.188 9.06608 152.574 10.3568C154.278 11.2776 150.309 15.1159 150.309 15.1159C150.309 15.1159 153.648 13.311 155.294 14.5827C156.941 15.8544 152.571 17.3573 150.052 16.9269C147.534 16.4971 148.71 14.1101 148.71 14.1101Z" fill="#6F9C3D"/>
<path d="M130.995 32.0239C131.012 33.0099 130.649 33.8158 130.183 33.824C129.717 33.8321 129.326 33.0392 129.309 32.0531C129.292 31.067 129.655 30.2612 130.121 30.253C130.587 30.2448 130.978 31.0378 130.995 32.0239Z" fill="#6F9C3D"/>
<path d="M126.771 30.1953C126.634 30.2722 126.467 30.2953 126.306 30.2456C125.992 30.1498 125.815 29.8192 125.911 29.5051C126.284 28.2721 127.721 26.0483 130.488 26.4591C130.813 26.5074 131.037 26.81 130.989 27.1351C130.942 27.4601 130.638 27.6845 130.313 27.6363C127.878 27.2738 127.082 29.7465 127.05 29.8519C127.002 30.0035 126.9 30.1232 126.771 30.1953Z" fill="#6F9C3D"/>
<path d="M139.657 32.0239C139.64 33.0099 140.003 33.8158 140.469 33.824C140.935 33.8321 141.326 33.0392 141.343 32.0531C141.36 31.067 140.997 30.2612 140.531 30.253C140.065 30.2448 139.674 31.0378 139.657 32.0239Z" fill="#6F9C3D"/>
<path d="M144.072 30.3613C144.209 30.4382 144.375 30.4613 144.537 30.4117C144.851 30.3158 145.027 29.9853 144.933 29.6711C144.56 28.4381 143.123 26.2143 140.355 26.6251C140.03 26.6734 139.806 26.976 139.854 27.3011C139.902 27.6261 140.205 27.8506 140.53 27.803C142.966 27.4405 143.761 29.9132 143.794 30.0179C143.841 30.1696 143.943 30.2892 144.072 30.3613Z" fill="#6F9C3D"/>
<path d="M136.446 38.5535C136.402 38.5535 136.358 38.5419 136.318 38.5188L134.977 37.7395C134.855 37.6687 134.813 37.513 134.884 37.3913C134.955 37.2695 135.111 37.2281 135.232 37.2988L136.142 37.8272L135.695 33.4272C135.68 33.2871 135.782 33.162 135.923 33.1477C136.061 33.1341 136.188 33.2354 136.202 33.3755L136.7 38.2726C136.709 38.3678 136.665 38.461 136.584 38.5127C136.542 38.5399 136.494 38.5535 136.446 38.5535Z" fill="#FF8829"/>
<path d="M136.007 41.3105C136.006 41.3105 136.004 41.3105 136.003 41.3105C133.091 41.3084 131.924 39.4954 131.877 39.4185C131.802 39.2988 131.839 39.1418 131.958 39.067C132.077 38.9928 132.234 39.0289 132.309 39.1479C132.353 39.2186 133.388 40.7991 136.003 40.8011C136.004 40.8011 136.006 40.8011 136.007 40.8011C138.48 40.8011 139.291 39.1479 139.324 39.0772C139.384 38.9507 139.536 38.8949 139.663 38.9547C139.79 39.0146 139.845 39.1649 139.786 39.292C139.748 39.375 138.817 41.3105 136.007 41.3105Z" fill="#FF8829"/>
<path d="M136.073 42.888H136.071C134.993 42.8873 134.541 42.4296 134.493 42.3779C134.398 42.2739 134.405 42.1127 134.508 42.0175C134.611 41.923 134.77 41.9291 134.866 42.0304C134.885 42.0495 135.223 42.3779 136.072 42.3786H136.073C136.86 42.3786 137.117 42.0474 137.128 42.0332C137.211 41.9223 137.37 41.8958 137.483 41.9767C137.595 42.0576 137.625 42.2107 137.546 42.3256C137.506 42.3827 137.131 42.888 136.073 42.888Z" fill="#FF8829"/>
<path d="M129.089 38.2585C125.822 38.2585 123.164 35.6008 123.164 32.3338C123.164 29.0668 125.822 26.4092 129.089 26.4092C132.356 26.4092 135.013 29.0668 135.013 32.3338C135.014 35.6002 132.356 38.2585 129.089 38.2585ZM129.089 26.9512C126.121 26.9512 123.707 29.3654 123.707 32.3332C123.707 35.3009 126.121 37.7151 129.089 37.7151C132.056 37.7151 134.471 35.3009 134.471 32.3332C134.471 29.3654 132.056 26.9512 129.089 26.9512Z" fill="white"/>
<path d="M142.462 38.2585C139.195 38.2585 136.537 35.6008 136.537 32.3338C136.537 29.0668 139.195 26.4092 142.462 26.4092C145.729 26.4092 148.386 29.0668 148.386 32.3338C148.386 35.6002 145.729 38.2585 142.462 38.2585ZM142.462 26.9512C139.494 26.9512 137.08 29.3654 137.08 32.3332C137.08 35.3009 139.494 37.7151 142.462 37.7151C145.43 37.7151 147.844 35.3009 147.844 32.3332C147.844 29.3654 145.43 26.9512 142.462 26.9512Z" fill="white"/>
<path d="M136.833 33.1341C136.733 33.1341 136.635 33.0776 136.589 32.9804C136.587 32.9756 136.306 32.4187 135.823 32.4187C135.31 32.4187 134.948 32.8947 134.945 32.8995C134.855 33.0192 134.686 33.045 134.565 32.9559C134.445 32.8668 134.419 32.6982 134.508 32.5778C134.529 32.5492 135.031 31.876 135.823 31.876C136.648 31.876 137.06 32.709 137.078 32.7444C137.143 32.8797 137.086 33.0416 136.951 33.1069C136.913 33.1252 136.873 33.1341 136.833 33.1341Z" fill="white"/>
<path d="M124.274 29.6419C124.183 29.6419 124.094 29.5963 124.043 29.5126C122.899 27.6574 120.057 26.2953 120.028 26.2817C119.893 26.2178 119.835 26.0559 119.899 25.9199C119.963 25.7846 120.126 25.7268 120.261 25.7907C120.383 25.8485 123.276 27.2338 124.505 29.2277C124.584 29.3555 124.544 29.5228 124.417 29.601C124.372 29.6289 124.322 29.6419 124.274 29.6419Z" fill="white"/>
<path d="M146.924 29.1314C146.875 29.1314 146.826 29.1185 146.781 29.0913C146.654 29.0124 146.614 28.8451 146.693 28.7179C147.927 26.7172 150.667 25.5951 150.783 25.5482C150.922 25.4918 151.08 25.5598 151.136 25.6985C151.192 25.8372 151.125 25.9957 150.986 26.0521C150.958 26.063 148.294 27.1559 147.155 29.0029C147.103 29.0859 147.014 29.1314 146.924 29.1314Z" fill="white"/>
<path d="M183.806 83.8099L176.423 88.6914L175.57 89.2545L166.827 95.0322C165.327 96.0244 163.304 95.6116 162.313 94.1108L152.426 79.1543L151.883 78.3341L146.04 69.4941C145.048 67.9938 145.461 65.9714 146.962 64.9798L163.94 53.7575C165.442 52.7653 167.463 53.1768 168.454 54.679L184.727 79.2957C185.719 80.7959 185.306 82.8177 183.806 83.8099Z" fill="#FF8829"/>
<path d="M168.323 81.6563C168.004 81.6475 167.693 81.621 167.398 81.5863C167.328 81.5781 167.258 81.5693 167.186 81.5591C165.3 81.2925 163.092 80.3826 160.795 79.4475C160.699 79.4088 160.603 79.3693 160.507 79.3306C160.001 79.1245 159.491 78.9191 158.979 78.7205C159.038 75.4739 158.863 72.1886 159.519 69.8431C159.879 68.5564 160.503 67.0542 162.004 66.0762C163.13 65.3431 164.253 64.9888 165.62 65.2724C166.86 65.5302 167.567 66.3979 168.148 67.2636C168.168 67.2935 168.189 67.3235 168.208 67.3554C168.275 67.4704 168.338 67.5839 168.397 67.6968C168.86 68.5829 169.058 69.4344 168.731 71.0536L168.328 72.4484L169.771 72.6041C170.627 72.7238 171.356 72.9938 171.98 73.4508L171.981 73.4515C172.356 73.7269 172.693 74.071 172.995 74.4899C173.017 74.5198 173.037 74.5504 173.057 74.5804C173.638 75.4461 174.151 76.4505 173.941 77.6746C173.706 79.0511 172.932 79.9528 171.826 80.7158C170.68 81.5074 169.441 81.6883 168.323 81.6563Z" fill="white"/>
<g opacity="0.3">
<path d="M176.422 88.6907L175.569 89.2538L166.826 95.0315C165.326 96.0237 163.304 95.6109 162.312 94.11L152.426 79.1535L151.883 78.3334C153.217 77.0086 155.355 75.0304 155.856 74.5196C156.67 73.6927 158.48 73.1745 160.2 74.6101C161.641 75.8124 172.975 85.6066 176.422 88.6907Z" fill="#6F9C3D"/>
</g>
<path d="M152.678 79.5352L147.943 89.3416C147.739 89.7646 148.162 90.2182 148.598 90.0434L157.316 86.5527L152.678 79.5352Z" fill="#FF8829"/>
<path d="M153.631 52.646L149.068 62.7986L148.943 63.0774L147.665 65.9207L145.288 71.2082C144.971 71.9141 144.432 72.4534 143.791 72.7778C142.944 73.2082 141.916 73.2647 140.98 72.8444L132.049 68.83L123.837 65.1394L114.065 60.7482C112.425 60.0097 111.692 58.0817 112.43 56.4401L114.019 52.9031L120.772 37.8779C121.509 36.2362 123.439 35.5031 125.08 36.2417L151.993 48.3379C153.637 49.0764 154.37 51.0044 153.631 52.646Z" fill="#FFC04B"/>
<g opacity="0.5">
<path d="M123.839 65.1386L114.067 60.7475C112.427 60.0089 111.694 58.081 112.432 56.4393L114.021 52.9023L123.839 65.1386Z" fill="#6F9C3D"/>
</g>
<path d="M139.397 59.1063C139.122 59.2695 138.846 59.413 138.578 59.5415C138.514 59.5721 138.449 59.602 138.384 59.632C136.647 60.4161 134.296 60.8268 131.854 61.2661C131.752 61.2845 131.651 61.3029 131.549 61.3212C131.011 61.4185 130.47 61.5177 129.931 61.6232C128.245 58.8485 126.34 56.1657 125.64 53.8331C125.256 52.5532 124.98 50.951 125.725 49.3209C126.283 48.0995 127.044 47.1991 128.351 46.7081C129.537 46.262 130.598 46.6177 131.552 47.0387C131.585 47.0529 131.619 47.0665 131.652 47.0835C131.77 47.1447 131.884 47.2073 131.994 47.2705C132.859 47.7718 133.482 48.3852 134.071 49.9289L134.477 51.3223L135.78 50.6824C136.566 50.326 137.327 50.1635 138.099 50.2166H138.099C138.564 50.2485 139.032 50.3587 139.512 50.5518C139.546 50.5654 139.579 50.5804 139.612 50.5953C140.566 51.0156 141.536 51.591 142.014 52.7369C142.552 54.0256 142.38 55.2014 141.854 56.4377C141.308 57.7203 140.358 58.535 139.397 59.1063Z" fill="white"/>
<path d="M125.045 65.6816L126.289 76.4993C126.343 76.9665 126.943 77.1229 127.218 76.7421L132.717 69.1295L125.045 65.6816Z" fill="#FFC04B"/>
<g opacity="0.5">
<path d="M147.665 65.9213L145.288 71.2088C144.971 71.9147 144.432 72.454 143.791 72.7783C142.944 73.2088 141.916 73.2653 140.98 72.845L132.049 68.8306L130.848 67.9799L144.001 64.1131C145.842 63.871 146.751 64.8604 147.665 65.9213Z" fill="#6F9C3D"/>
</g>
<path d="M121.811 69.7921L119.105 71.839C119.105 71.839 119.105 71.839 119.103 71.839L109.632 79.0048L98.2753 87.5932C96.8418 88.6772 94.7982 88.395 93.7122 86.9594L90.9028 83.245L88.8899 80.5839L87.9541 79.3455L81.4344 70.7258C80.3504 69.2922 80.6326 67.2486 82.0682 66.1626L105.602 48.3628C107.038 47.2767 109.081 47.559 110.168 48.9946L122.443 65.2268C123.529 66.6645 123.246 68.7081 121.811 69.7921Z" fill="#6F9C3D"/>
<g opacity="0.5">
<path d="M119.102 71.8398L109.631 79.0056L90.9019 83.2464L88.8889 80.5854L87.9531 79.347C96.3988 77.2606 114.05 73.3115 119.102 71.8398Z" fill="#6F9C3D"/>
</g>
<path d="M108.998 64.5871C109.01 64.9067 109.003 65.2175 108.987 65.514C108.983 65.5847 108.979 65.6555 108.973 65.7275C108.827 67.6276 108.059 69.8875 107.272 72.2398C107.239 72.3377 107.206 72.4363 107.174 72.5342C107 73.0524 106.828 73.5747 106.662 74.0984C103.418 74.2453 100.15 74.6281 97.7679 74.1222C96.4608 73.8447 94.9225 73.3177 93.8507 71.8814C93.0476 70.8049 92.6226 69.7059 92.8191 68.324C92.9973 67.0693 93.8188 66.309 94.6457 65.6752C94.6743 65.6534 94.7029 65.6296 94.7335 65.6092C94.8443 65.5351 94.9531 65.465 95.0619 65.3991C95.9168 64.8809 96.7539 64.6293 98.3908 64.853L99.8081 65.1665L99.872 63.7166C99.9366 62.855 100.16 62.1096 100.577 61.4581L100.577 61.4575C100.828 61.0651 101.15 60.7074 101.55 60.3796C101.578 60.3565 101.607 60.334 101.636 60.3123C102.463 59.6778 103.433 59.1024 104.668 59.2337C106.056 59.3813 107.005 60.0967 107.837 61.1514C108.7 62.245 108.959 63.4691 108.998 64.5871Z" fill="white"/>
<path d="M107.875 80.3334L117.962 84.4362C118.397 84.613 118.823 84.1621 118.621 83.7377L114.584 75.2588L107.875 80.3334Z" fill="#6F9C3D"/>
<path d="M182.29 100.695L168.523 115.684C167.306 117.008 165.245 117.098 163.92 115.879L142.187 95.9179C142.077 95.8165 141.973 95.7077 141.881 95.5955C140.856 94.3612 140.876 92.5291 141.991 91.3146L152.335 80.0528L152.607 79.7577L155.758 76.3261C156.975 75.0013 159.036 74.9143 160.361 76.1302L182.094 96.0913C183.419 97.3079 183.506 99.3698 182.29 100.695Z" fill="#6F9C3D"/>
<g opacity="0.5">
<path d="M151.966 91.9876C150.831 92.5071 144.545 94.6806 141.879 95.5966C140.854 94.3623 140.874 92.5303 141.989 91.3157L152.333 80.0539L152.605 79.7588C153.549 82.3471 155.054 86.0976 155.343 87.6128C155.87 90.369 153.414 91.3232 151.966 91.9876Z" fill="#6F9C3D"/>
</g>
<path d="M166.742 102.343C166.43 102.412 166.123 102.461 165.828 102.499C165.758 102.508 165.688 102.516 165.616 102.523C163.721 102.72 161.36 102.37 158.904 102.017C158.802 102.003 158.699 101.988 158.597 101.973C158.055 101.896 157.511 101.82 156.966 101.75C156.24 98.5852 155.277 95.4393 155.347 93.0047C155.385 91.669 155.629 90.0614 156.849 88.7489C157.764 87.7655 158.769 87.1507 160.164 87.0963C161.43 87.0467 162.325 87.7186 163.097 88.4184C163.124 88.4429 163.152 88.466 163.178 88.4925C163.271 88.5884 163.36 88.6829 163.443 88.7781C164.107 89.5262 164.504 90.3049 164.578 91.9554L164.523 93.4059L165.962 93.2087C166.821 93.1183 167.595 93.2039 168.31 93.497L168.311 93.4977C168.742 93.6745 169.151 93.9268 169.546 94.2607C169.573 94.2845 169.601 94.309 169.628 94.3335C170.4 95.0333 171.14 95.884 171.233 97.1224C171.337 98.5145 170.803 99.5768 169.915 100.584C168.993 101.63 167.835 102.105 166.742 102.343Z" fill="white"/>
<path d="M151.051 104.062L148.824 114.721C148.728 115.18 149.248 115.518 149.629 115.244L157.247 109.752L151.051 104.062Z" fill="#6F9C3D"/>
<path d="M151.972 90.7665L130.026 98.2077L124.027 100.242C123.594 100.389 123.152 100.44 122.724 100.407C121.763 100.329 120.871 99.8262 120.311 99.0237C120.137 98.7776 119.996 98.5028 119.895 98.2022L118.698 94.6741L113.359 78.9267C112.781 77.2231 113.695 75.3734 115.399 74.796L116.74 74.3417L121.71 72.6566L122.666 72.3329L143.344 65.3208C145.049 64.7434 146.898 65.6554 147.476 67.361L154.012 86.6345C154.59 88.3373 153.676 90.1871 151.972 90.7665Z" fill="#FFC04B"/>
<path d="M141.455 81.7872C141.365 82.0939 141.26 82.387 141.152 82.6638C141.126 82.7298 141.1 82.7958 141.072 82.8617C140.334 84.6183 138.893 86.5218 137.404 88.5055C137.342 88.5885 137.28 88.6708 137.218 88.7537C136.891 89.191 136.562 89.6324 136.239 90.0771C133.114 89.1944 129.893 88.5273 127.792 87.2964C126.639 86.6211 125.345 85.6357 124.78 83.9349C124.357 82.6604 124.301 81.4833 124.923 80.2333C125.487 79.099 126.507 78.6365 127.492 78.2951C127.526 78.2836 127.56 78.27 127.596 78.2605C127.724 78.2251 127.85 78.1931 127.974 78.1646C128.948 77.9422 129.822 77.9674 131.305 78.6957L132.551 79.4404L133.069 78.0843C133.402 77.2873 133.849 76.6501 134.449 76.1632L134.45 76.1625C134.812 75.8694 135.23 75.6314 135.712 75.4457C135.747 75.4328 135.782 75.4205 135.816 75.409C136.8 75.0669 137.902 74.8269 139.033 75.341C140.304 75.919 140.979 76.8969 141.436 78.1598C141.91 79.4703 141.769 80.7141 141.455 81.7872Z" fill="white"/>
<g opacity="0.5">
<path d="M130.026 98.2078L124.027 100.243C123.595 100.389 123.152 100.44 122.724 100.407C121.763 100.329 120.871 99.8264 120.311 99.0239C120.138 98.7777 119.996 98.503 119.895 98.2024L118.699 94.6743L116.74 74.3419L121.711 72.6567L122.666 72.333C124.459 78.4107 127.863 90.0805 130.026 98.2078Z" fill="#6F9C3D"/>
</g>
<path d="M127.801 96.4219C128.391 99.1503 124.572 99.8738 122.723 100.408C121.762 100.329 120.87 99.8269 120.311 99.0245L127.801 96.4219Z" fill="#6F9C3D"/>
<path d="M135.424 96.377L143.704 103.45C144.061 103.755 144.607 103.461 144.549 102.995L143.39 93.6758L135.424 96.377Z" fill="#FFC04B"/>
<path d="M125.788 98.609L97.1435 107.197C95.5243 107.682 93.8187 106.764 93.3338 105.144L87.3759 85.2704C86.8903 83.6518 87.8097 81.9456 89.4283 81.4607L118.073 72.8729C119.691 72.3874 121.398 73.3068 121.883 74.9253L127.841 94.7993C128.325 96.4179 127.407 98.1241 125.788 98.609Z" fill="#FFC04B"/>
<path d="M115.408 89.3189C115.307 89.6222 115.192 89.9112 115.074 90.1839C115.046 90.2485 115.017 90.3138 114.986 90.3791C114.186 92.1085 112.678 93.9589 111.12 95.8889C111.055 95.9692 110.99 96.0501 110.925 96.1304C110.582 96.5561 110.239 96.9852 109.9 97.4177C106.808 96.4241 103.613 95.6428 101.556 94.3377C100.428 93.6216 99.17 92.5913 98.6668 90.8715C98.2894 89.5828 98.2744 88.4042 98.9408 87.1774C99.5454 86.0642 100.58 85.6378 101.577 85.3317C101.611 85.3208 101.646 85.3086 101.682 85.3004C101.812 85.2698 101.939 85.242 102.063 85.2182C103.045 85.0305 103.918 85.0869 105.374 85.8676L106.592 86.6558L107.158 85.3195C107.519 84.5347 107.988 83.9138 108.606 83.4487L108.607 83.448C108.979 83.1678 109.406 82.9447 109.895 82.7768C109.929 82.7645 109.965 82.7543 109.999 82.7434C110.996 82.4367 112.105 82.2361 113.217 82.7897C114.467 83.4126 115.106 84.4136 115.518 85.6922C115.946 87.0196 115.761 88.2573 115.408 89.3189Z" fill="white"/>
<path d="M108.863 103.683L116.885 111.046C117.231 111.364 117.788 111.09 117.746 110.622L116.921 101.268L108.863 103.683Z" fill="#FFC04B"/>
<path d="M192.71 110.778C187.88 117.42 153.531 105.558 142.258 101.434C140.014 100.613 138.684 100.099 138.684 100.099L139.737 94.3672C139.737 94.3672 143.366 94.665 147.937 94.9833C152.089 95.273 157.018 95.5777 160.708 95.6933C168.456 95.9347 181.731 94.8378 189.453 98.1021C189.453 98.1021 198.503 102.813 192.71 110.778Z" fill="#FFA86F"/>
<path d="M145.256 96.4645C145.256 96.4645 145.946 98.9481 143.203 99.1507C143.203 99.1507 143.452 100.787 142.258 101.434C140.014 100.613 138.684 100.099 138.684 100.099L139.737 94.3672C139.737 94.3672 143.366 94.665 147.937 94.9833C147.574 95.5049 146.818 96.1476 145.256 96.4645Z" fill="#6F9C3D"/>
<path d="M79.3836 98.3758C79.3836 98.3758 70.3334 103.088 76.1254 111.052C81.9175 119.016 130.152 100.373 130.152 100.373L129.099 94.6416C129.099 94.6416 115.878 95.7277 108.129 95.9691C100.38 96.2091 87.1063 95.1122 79.3836 98.3758Z" fill="#FFA86F"/>
<path d="M119.482 95.0813C119.482 95.0813 120.625 102.084 122.462 103.673L125.045 102.875C125.045 102.875 122.811 98.0824 122.562 94.6944C122.562 94.6944 120.634 94.5822 119.482 95.0813Z" fill="#6F9C3D"/>
<path d="M127.161 94.2495C127.161 94.2495 130.903 88.0107 133.375 86.3235C134.397 85.6264 135.989 85.2088 137.508 84.9593C139.071 84.7022 140.128 86.5084 139.136 87.7441L138.499 88.5377C138.499 88.5377 146.983 88.9607 148.433 89.3341C149.883 89.7074 149.274 92.4073 146.74 92.9017C146.74 92.9017 150.324 94.782 144.408 96.0333C144.408 96.0333 146.317 98.0055 142.191 98.5856C142.191 98.5856 144.294 101.258 138.575 101.497L127.416 101.401C127.417 101.4 126.19 96.727 127.161 94.2495Z" fill="#FFA86F"/>
<path d="M96.6022 156.799L72.752 174.838C71.4041 175.858 69.485 175.592 68.4656 174.244L55.9498 157.697C54.9304 156.349 55.1963 154.43 56.5441 153.411L80.3944 135.371C81.7423 134.351 83.6614 134.617 84.6808 135.965L97.1966 152.512C98.2167 153.86 97.9501 155.779 96.6022 156.799Z" fill="#FFC04B"/>
<path d="M83.6338 151.712C83.6454 152.031 83.6385 152.342 83.6229 152.639C83.6188 152.709 83.6147 152.78 83.6086 152.852C83.4624 154.752 82.694 157.012 81.9071 159.364C81.8745 159.462 81.8418 159.561 81.8085 159.659C81.6351 160.177 81.4624 160.699 81.2964 161.223C78.0526 161.37 74.7849 161.753 72.4026 161.247C71.0956 160.969 69.5573 160.442 68.4855 159.006C67.6824 157.93 67.2573 156.831 67.4539 155.449C67.632 154.194 68.4536 153.434 69.2805 152.8C69.3091 152.778 69.3376 152.754 69.3682 152.734C69.4791 152.66 69.5879 152.59 69.6967 152.524C70.5515 152.006 71.3887 151.754 73.0256 151.978L74.4428 152.291L74.5067 150.841C74.5713 149.98 74.7951 149.234 75.2113 148.583L75.212 148.582C75.4629 148.19 75.7846 147.832 76.1838 147.504C76.2123 147.48 76.2416 147.458 76.2701 147.436C77.0971 146.802 78.0668 146.226 79.3018 146.358C80.6898 146.505 81.6392 147.221 82.4709 148.275C83.3359 149.369 83.595 150.594 83.6338 151.712Z" fill="white"/>
<path d="M82.5098 167.457L92.5964 171.56C93.0316 171.736 93.4573 171.285 93.2554 170.862L89.2185 162.383L82.5098 167.457Z" fill="#FFC04B"/>
<path d="M211.322 146.493L188.009 127.765C186.692 126.706 186.481 124.78 187.54 123.463L200.533 107.288C201.592 105.971 203.518 105.761 204.835 106.819L228.149 125.548C229.466 126.606 229.676 128.532 228.618 129.85L215.624 146.024C214.566 147.342 212.64 147.552 211.322 146.493Z" fill="#FF8829"/>
<path d="M213.09 132.677C212.783 132.766 212.48 132.835 212.189 132.892C212.119 132.906 212.049 132.919 211.978 132.931C210.1 133.253 207.721 133.059 205.248 132.87C205.145 132.862 205.042 132.854 204.938 132.846C204.393 132.805 203.845 132.764 203.297 132.731C202.363 129.621 201.195 126.546 201.104 124.112C201.055 122.777 201.191 121.156 202.322 119.766C203.17 118.725 204.131 118.045 205.52 117.898C206.78 117.765 207.718 118.376 208.535 119.024C208.563 119.046 208.592 119.068 208.62 119.093C208.719 119.182 208.814 119.271 208.904 119.36C209.615 120.062 210.063 120.813 210.246 122.455L210.287 123.906L211.709 123.614C212.56 123.467 213.338 123.502 214.071 123.747L214.072 123.748C214.513 123.895 214.939 124.12 215.354 124.428C215.384 124.449 215.412 124.472 215.441 124.495C216.258 125.142 217.052 125.942 217.226 127.172C217.422 128.555 216.96 129.65 216.14 130.713C215.289 131.816 214.164 132.366 213.09 132.677Z" fill="white"/>
<path d="M197.545 135.427L196.027 146.21C195.962 146.675 196.502 146.978 196.865 146.678L204.103 140.695L197.545 135.427Z" fill="#FF8829"/>
<path d="M244.895 172.763L221.916 173.584C220.228 173.645 218.809 172.324 218.748 170.636L218.191 155.053C218.131 153.363 219.452 151.946 221.14 151.885L244.119 151.064C245.808 151.003 247.226 152.324 247.286 154.012L247.843 169.595C247.904 171.284 246.584 172.703 244.895 172.763Z" fill="#FFC04B"/>
<path d="M239.264 163.359C239.123 163.576 238.974 163.778 238.826 163.967C238.79 164.012 238.754 164.057 238.718 164.102C237.739 165.291 236.182 166.43 234.569 167.621C234.502 167.67 234.435 167.72 234.367 167.77C234.012 168.032 233.655 168.297 233.302 168.567C231.088 167.158 228.749 165.895 227.408 164.454C226.672 163.663 225.899 162.6 225.856 161.153C225.824 160.068 226.054 159.144 226.825 158.32C227.526 157.573 228.422 157.451 229.263 157.416C229.293 157.414 229.322 157.412 229.352 157.413C229.459 157.416 229.564 157.42 229.667 157.427C230.473 157.48 231.143 157.703 232.122 158.611L232.914 159.476L233.629 158.547C234.072 158.007 234.566 157.618 235.144 157.38H235.145C235.493 157.237 235.872 157.149 236.288 157.118C236.318 157.116 236.348 157.114 236.377 157.113C237.219 157.077 238.127 157.146 238.883 157.807C239.733 158.549 240.029 159.463 240.089 160.547C240.154 161.672 239.757 162.602 239.264 163.359Z" fill="white"/>
<path d="M231.211 173.253L235.979 180.649C236.186 180.968 236.676 180.867 236.739 180.493L238.004 173.011L231.211 173.253Z" fill="#FFC04B"/>
<path d="M65.6221 137.232L46.2725 124.812C44.8505 123.899 44.4377 122.006 45.3503 120.584L53.7735 107.461C54.6861 106.039 56.5794 105.626 58.0014 106.539L77.3511 118.96C78.7731 119.872 79.1866 121.766 78.2732 123.188L69.8501 136.31C68.9374 137.732 67.0441 138.145 65.6221 137.232Z" fill="#FFC04B"/>
<path d="M66.3562 126.294C66.1168 126.392 65.8794 126.474 65.6496 126.545C65.5952 126.562 65.5401 126.578 65.4837 126.594C64.0018 127.012 62.0732 127.061 60.0697 127.121C59.9861 127.123 59.9024 127.125 59.8188 127.128C59.3774 127.142 58.9327 127.156 58.4893 127.176C57.4726 124.757 56.2702 122.386 55.9894 120.438C55.835 119.369 55.8058 118.055 56.596 116.842C57.1883 115.932 57.9031 115.303 59.0061 115.067C60.0072 114.852 60.813 115.262 61.525 115.713C61.5495 115.728 61.5754 115.743 61.5998 115.761C61.6869 115.824 61.7705 115.887 61.8508 115.951C62.4826 116.455 62.9069 117.02 63.1939 118.324L63.3517 119.486L64.469 119.13C65.1402 118.939 65.7679 118.9 66.3786 119.034H66.3793C66.7465 119.115 67.1083 119.259 67.4681 119.471C67.4939 119.486 67.5184 119.502 67.5435 119.518C68.2556 119.968 68.9628 120.543 69.2076 121.516C69.4831 122.61 69.2056 123.53 68.6378 124.455C68.0495 125.415 67.1933 125.953 66.3562 126.294Z" fill="white"/>
<path d="M54.0995 129.836L53.803 138.631C53.7901 139.011 54.2512 139.208 54.5164 138.936L59.8208 133.508L54.0995 129.836Z" fill="#FFC04B"/>
<path d="M45.3226 193.41L18.0339 181.179C16.4915 180.487 15.802 178.677 16.4929 177.135L24.9787 158.202C25.6696 156.659 27.4806 155.97 29.023 156.661L56.3116 168.892C57.854 169.584 58.5436 171.394 57.8526 172.937L49.3662 191.869C48.6752 193.412 46.8649 194.102 45.3226 193.41Z" fill="#6F9C3D"/>
<path d="M43.5435 179.595C43.2687 179.759 42.9933 179.902 42.7254 180.031C42.6615 180.062 42.5975 180.093 42.5316 180.122C40.7954 180.907 38.4444 181.322 36.0037 181.763C35.9017 181.781 35.8004 181.8 35.6984 181.819C35.1604 181.916 34.6198 182.016 34.0805 182.123C32.3912 179.35 30.4837 176.669 29.7812 174.337C29.3956 173.057 29.1174 171.455 29.8614 169.825C30.4184 168.602 31.178 167.701 32.4844 167.209C33.6697 166.762 34.7313 167.117 35.6854 167.536C35.7188 167.551 35.7528 167.564 35.7854 167.581C35.9037 167.642 36.0173 167.704 36.1275 167.768C36.9932 168.269 37.6161 168.881 38.2078 170.424L38.6144 171.817L39.9167 171.176C40.7029 170.818 41.4639 170.656 42.2357 170.707C42.7002 170.738 43.1695 170.849 43.6496 171.041C43.6836 171.055 43.7169 171.07 43.7502 171.085C44.7044 171.504 45.6755 172.078 46.1542 173.223C46.6928 174.511 46.5221 175.688 45.9978 176.924C45.4538 178.207 44.5051 179.023 43.5435 179.595Z" fill="white"/>
<path d="M29.1973 186.185L30.4527 197.001C30.5071 197.467 31.1069 197.624 31.3816 197.242L36.8731 189.624L29.1973 186.185Z" fill="#6F9C3D"/>
<path d="M83.0508 228.411L54.0947 204.949C52.7815 203.885 52.5795 201.959 53.6438 200.645L70.1624 180.258C71.226 178.945 73.1533 178.743 74.4665 179.806L103.423 203.268C104.736 204.331 104.938 206.259 103.874 207.572L87.3556 227.959C86.2906 229.272 84.364 229.474 83.0508 228.411Z" fill="#FF8829"/>
<path d="M84.7645 211.383C84.3938 211.488 84.0286 211.571 83.6771 211.638C83.5934 211.654 83.5091 211.669 83.4234 211.684C81.1595 212.062 78.2951 211.816 75.3171 211.576C75.1933 211.566 75.0689 211.556 74.9444 211.546C74.2882 211.493 73.6279 211.443 72.9675 211.399C71.8583 207.649 70.467 203.939 70.3697 201.007C70.316 199.399 70.488 197.448 71.8577 195.78C72.8839 194.529 74.0461 193.715 75.719 193.546C77.2376 193.392 78.3638 194.133 79.3444 194.916C79.3784 194.943 79.4138 194.97 79.4471 195C79.5654 195.108 79.679 195.215 79.7871 195.323C80.6399 196.173 81.1758 197.079 81.388 199.058L81.4308 200.805L83.1446 200.461C84.1701 200.289 85.1065 200.334 85.9886 200.633H85.9893C86.5204 200.813 87.0318 201.086 87.5309 201.458C87.5663 201.484 87.601 201.512 87.635 201.539C88.6163 202.323 89.5691 203.29 89.7724 204.772C90.0009 206.438 89.4392 207.755 88.4463 209.032C87.4167 210.357 86.06 211.014 84.7645 211.383Z" fill="white"/>
<path d="M66.028 214.619L64.1456 227.599C64.0646 228.159 64.7148 228.526 65.152 228.167L73.8989 220.997L66.028 214.619Z" fill="#FF8829"/>
<path d="M203.62 198.525L166.597 194.258C164.918 194.065 163.713 192.547 163.907 190.868L166.911 164.801C167.104 163.122 168.623 161.917 170.301 162.111L207.324 166.378C209.003 166.572 210.208 168.09 210.014 169.768L207.01 195.835C206.817 197.514 205.299 198.719 203.62 198.525Z" fill="#6F9C3D"/>
<path d="M195.931 183.237C195.675 183.524 195.411 183.789 195.151 184.035C195.089 184.093 195.026 184.151 194.961 184.209C193.253 185.743 190.705 187.072 188.062 188.467C187.952 188.525 187.841 188.583 187.731 188.642C187.149 188.949 186.564 189.261 185.984 189.578C183.036 187.008 179.872 184.624 178.217 182.202C177.309 180.873 176.408 179.134 176.669 176.992C176.865 175.386 177.408 174.076 178.729 173.035C179.928 172.09 181.276 172.112 182.524 172.247C182.568 172.252 182.612 172.254 182.655 172.263C182.813 172.29 182.967 172.32 183.116 172.353C184.292 172.613 185.23 173.09 186.47 174.646L187.444 176.098L188.705 174.888C189.478 174.192 190.293 173.728 191.198 173.507C191.742 173.374 192.321 173.33 192.942 173.376C192.986 173.38 193.03 173.385 193.074 173.389C194.322 173.524 195.645 173.83 196.612 174.971C197.699 176.254 197.931 177.667 197.778 179.277C197.62 180.948 196.827 182.23 195.931 183.237Z" fill="white"/>
<path d="M181.855 196.017L187.229 207.98C187.461 208.496 188.207 208.458 188.384 207.92L191.92 197.176L181.855 196.017Z" fill="#6F9C3D"/>
<path d="M219.271 240.486L195.958 221.757C194.641 220.699 194.431 218.772 195.489 217.455L208.483 201.28C209.541 199.963 211.467 199.753 212.785 200.811L236.098 219.54C237.415 220.598 237.625 222.525 236.567 223.842L223.573 240.016C222.515 241.334 220.589 241.544 219.271 240.486Z" fill="#FFC04B"/>
<path d="M221.039 226.669C220.732 226.758 220.429 226.828 220.138 226.885C220.068 226.898 219.998 226.911 219.928 226.923C218.049 227.245 215.67 227.051 213.197 226.862C213.094 226.855 212.991 226.847 212.888 226.839C212.343 226.798 211.794 226.758 211.246 226.724C210.312 223.614 209.144 220.539 209.053 218.105C209.004 216.77 209.14 215.15 210.271 213.76C211.119 212.718 212.08 212.038 213.469 211.891C214.729 211.758 215.667 212.37 216.484 213.017C216.512 213.039 216.542 213.061 216.569 213.086C216.667 213.175 216.763 213.264 216.852 213.353C217.564 214.055 218.011 214.806 218.194 216.449L218.236 217.9L219.658 217.608C220.509 217.461 221.286 217.496 222.019 217.741L222.02 217.741C222.462 217.889 222.887 218.114 223.303 218.421C223.333 218.443 223.361 218.466 223.389 218.489C224.207 219.136 225.001 219.936 225.175 221.165C225.371 222.548 224.908 223.643 224.088 224.706C223.238 225.808 222.114 226.358 221.039 226.669Z" fill="white"/>
<path d="M205.496 229.42L203.978 240.203C203.913 240.668 204.453 240.971 204.816 240.671L212.054 234.688L205.496 229.42Z" fill="#FFC04B"/>
</svg>
