<svg width="22" height="22" viewBox="0 0 22 22" fill="none" xmlns="http://www.w3.org/2000/svg">
<path d="M0.00390625 10.8274C0.173427 10.3661 0.506127 10.1885 0.988167 10.2128C1.40966 10.2341 1.83289 10.2093 2.25669 10.2214C2.41929 10.226 2.49252 10.1776 2.54499 10.019C2.74779 9.39004 3.14545 8.84191 3.68043 8.45392C4.21541 8.06594 4.85997 7.85823 5.52084 7.86086C6.1817 7.8635 6.82458 8.07633 7.35646 8.46856C7.88833 8.8608 8.28161 9.41209 8.47939 10.0427C8.53186 10.2081 8.62238 10.2191 8.76192 10.2191C12.85 10.2168 16.938 10.2168 21.0257 10.2191C21.1472 10.2135 21.269 10.2193 21.3895 10.2364C21.5732 10.2753 21.7367 10.3793 21.8499 10.5291C21.963 10.679 22.0183 10.8646 22.0056 11.052C21.9928 11.2393 21.9128 11.4158 21.7804 11.5489C21.6479 11.682 21.4719 11.7628 21.2846 11.7765C21.1848 11.7834 21.0839 11.7822 20.9842 11.7822C16.9176 11.7822 12.851 11.7807 8.78441 11.7776C8.59182 11.7776 8.51802 11.8353 8.45978 12.0175C8.04751 13.2981 6.83088 14.1474 5.44473 14.1382C4.13815 14.1301 2.93362 13.2399 2.54211 11.9823C2.4931 11.8238 2.4216 11.7736 2.25785 11.7782C1.83577 11.7909 1.41255 11.7655 0.989322 11.7869C0.507282 11.8111 0.174582 11.6318 0.00506058 11.1722L0.00390625 10.8274Z" fill="currentColor"/>
<path d="M0.00390625 18.6913C0.171698 18.2168 0.518237 18.0657 1.00489 18.0674C4.29152 18.0778 7.57816 18.0715 10.8648 18.0766C11.0499 18.0766 11.1352 18.034 11.1963 17.846C11.6103 16.5648 12.8172 15.7126 14.1854 15.7213C14.8373 15.7255 15.4712 15.9354 15.9968 16.3209C16.5224 16.7065 16.913 17.248 17.1129 17.8685C17.1624 18.0259 17.2328 18.0755 17.3971 18.0743C18.6143 18.0668 19.8315 18.0703 21.0487 18.0709C21.1844 18.0627 21.3205 18.0752 21.4524 18.1078C21.6247 18.1616 21.7732 18.2732 21.873 18.4236C21.9727 18.5741 22.0176 18.7544 22.0001 18.934C21.9828 19.1176 21.9003 19.2889 21.7675 19.4169C21.6348 19.5449 21.4606 19.6211 21.2765 19.6317C20.9403 19.6461 20.6036 19.6381 20.2669 19.6381C19.3005 19.6381 18.3335 19.6381 17.3671 19.6381C17.2339 19.6381 17.1671 19.6692 17.1204 19.8059C16.7029 21.0375 15.8386 21.7478 14.5625 21.9687C14.5357 21.9762 14.5098 21.9867 14.4853 21.9998H13.7985C13.753 21.9542 13.6919 21.9675 13.6371 21.9566C12.4291 21.7138 11.6011 21.0207 11.1883 19.8577C11.126 19.6848 11.0516 19.6363 10.8763 19.6369C7.58969 19.6421 4.30306 19.6369 1.01642 19.6467C0.530923 19.6467 0.184384 19.502 0.00679032 19.0349L0.00390625 18.6913Z" fill="currentColor"/>
<path d="M0.00288231 2.96314C0.180476 2.4961 0.527015 2.35022 1.01251 2.35137C4.8227 2.36233 8.63289 2.35598 12.4431 2.3629C12.638 2.3629 12.7112 2.2989 12.7683 2.12304C13.1788 0.851076 14.3937 -0.0045942 15.7632 1.85584e-05C17.068 0.00520791 18.2898 0.894318 18.6808 2.14207C18.7384 2.32427 18.8203 2.36291 18.9927 2.36118C19.7423 2.35368 20.4971 2.35253 21.249 2.36118C21.4369 2.36477 21.6171 2.43719 21.7552 2.56471C21.8934 2.69223 21.9799 2.866 21.9985 3.05309C22.0173 3.23269 21.9737 3.41329 21.875 3.5645C21.7763 3.71572 21.6285 3.82832 21.4565 3.88338C21.3317 3.91635 21.2025 3.92939 21.0737 3.92202C20.3719 3.92202 19.6702 3.9272 18.9685 3.91913C18.8088 3.91913 18.7344 3.95661 18.6802 4.12037C18.4767 4.74728 18.0797 5.29352 17.5462 5.68059C17.0127 6.06767 16.3702 6.27564 15.7111 6.27461C15.052 6.27359 14.4101 6.06362 13.8779 5.67489C13.3456 5.28616 12.9502 4.73868 12.7487 4.11114C12.691 3.93816 12.6051 3.91971 12.4535 3.91971C8.63635 3.92317 4.81867 3.91971 1.00156 3.92778C0.514329 3.92778 0.168368 3.77844 0 3.30391L0.00288231 2.96314Z" fill="currentColor"/>
</svg>
