<svg width="22" height="21" viewBox="0 0 22 21" fill="none" xmlns="http://www.w3.org/2000/svg">
<path d="M21.9884 2.22269L21.9056 2.48692C21.8276 2.73738 21.6964 2.968 21.5209 3.16297C21.3455 3.35793 21.1299 3.51261 20.889 3.61639C20.6481 3.72017 20.3875 3.77059 20.1253 3.76419C19.8631 3.75779 19.6053 3.69473 19.3698 3.57932C19.3205 3.54725 19.2629 3.53017 19.2041 3.53017C19.1453 3.53017 19.0878 3.54725 19.0385 3.57932C18.0421 4.17877 17.0417 4.77426 16.0373 5.36582C15.9906 5.38824 15.952 5.42448 15.9266 5.46963C15.9012 5.51479 15.8903 5.56667 15.8954 5.61822C15.8882 6.04681 15.7304 6.4592 15.4497 6.78317C15.169 7.10714 14.7833 7.32203 14.3601 7.39022C13.9369 7.4584 13.5032 7.37552 13.135 7.1561C12.7668 6.93668 12.4875 6.5947 12.346 6.19006C12.3256 6.12419 12.291 6.0636 12.2447 6.01251C12.1983 5.96141 12.1414 5.92106 12.0779 5.89428C11.1708 5.45258 10.2677 5.003 9.36853 4.55342C9.32974 4.52491 9.28185 4.51158 9.23391 4.51593C9.18596 4.52029 9.14126 4.54204 9.10825 4.57708C8.85545 4.79138 8.54668 4.92899 8.2183 4.97371C7.88992 5.01842 7.55559 4.96838 7.2547 4.82948C7.20526 4.80389 7.14909 4.79432 7.09397 4.80209C7.03885 4.80986 6.98752 4.8346 6.94709 4.87286C5.8744 5.67737 4.79645 6.48058 3.71324 7.28246C3.66539 7.30991 3.62955 7.35428 3.61276 7.40683C3.59597 7.45938 3.59947 7.5163 3.62254 7.56641C3.71702 7.92415 3.70082 8.30213 3.5761 8.65048C3.45138 8.99883 3.22398 9.30118 2.92391 9.51766C2.62384 9.73413 2.2652 9.85456 1.89529 9.86305C1.52539 9.87154 1.16159 9.76769 0.851908 9.5652C0.542226 9.36272 0.30121 9.07111 0.16064 8.72885C0.0200691 8.38659 -0.0134413 8.00975 0.0645261 7.64806C0.142494 7.28636 0.328272 6.9568 0.597363 6.70284C0.866454 6.44889 1.20621 6.28247 1.57181 6.22555C1.9259 6.15988 2.29176 6.21254 2.61295 6.37541C2.65982 6.4062 2.71572 6.42023 2.77157 6.41521C2.82742 6.4102 2.87993 6.38644 2.92056 6.34781C3.97222 5.55906 5.03833 4.77032 6.11891 3.98158C6.16785 3.95623 6.20507 3.91289 6.22272 3.86067C6.24038 3.80845 6.23709 3.75143 6.21357 3.70158C6.09725 3.36549 6.08628 3.0019 6.18212 2.65941C6.27796 2.31692 6.47605 2.01184 6.7499 1.78493C7.00096 1.54494 7.31867 1.38641 7.66139 1.33011C8.00411 1.27381 8.35585 1.32238 8.67049 1.46944C8.9952 1.59916 9.27494 1.82093 9.47532 2.10749C9.6757 2.39404 9.788 2.7329 9.7984 3.08242C9.80633 3.13866 9.80633 3.19575 9.7984 3.252C9.79039 3.27158 9.78661 3.29264 9.78732 3.31379C9.78804 3.33494 9.79322 3.35569 9.80254 3.37469C9.81185 3.39369 9.82508 3.41051 9.84136 3.42402C9.85764 3.43754 9.8766 3.44746 9.89699 3.45312C10.7173 3.84749 11.5336 4.26158 12.3539 4.67173C12.4407 4.71511 12.4801 4.69934 12.5393 4.61652C12.6796 4.39003 12.8685 4.19755 13.0924 4.05301C13.3162 3.90847 13.5694 3.81548 13.8336 3.78076C14.0978 3.74604 14.3663 3.77046 14.6199 3.85225C14.8735 3.93404 15.1058 4.07116 15.2999 4.2537C15.3276 4.27976 15.3643 4.29427 15.4024 4.29427C15.4405 4.29427 15.4772 4.27976 15.5049 4.2537C16.4436 3.69369 17.3835 3.135 18.3247 2.57762C18.3957 2.53424 18.4351 2.49875 18.4075 2.39621C18.3292 2.15565 18.3017 1.90148 18.3266 1.64973C18.3515 1.39798 18.4283 1.15413 18.5522 0.933582C18.6761 0.71303 18.8444 0.520567 19.0465 0.368345C19.2485 0.216124 19.4799 0.107452 19.7261 0.0491902C19.9723 -0.0090714 20.2279 -0.0156568 20.4767 0.0298511C20.7256 0.075359 20.9623 0.171971 21.1719 0.313587C21.3815 0.455202 21.5595 0.638742 21.6946 0.852621C21.8297 1.0665 21.919 1.30607 21.9569 1.5562C21.9569 1.57592 21.9805 1.59169 21.9923 1.60747L21.9884 2.22269Z" fill="currentColor"/>
<path d="M21.988 20.4269C21.9221 20.5763 21.8098 20.7004 21.6676 20.7807C21.5255 20.861 21.3612 20.8932 21.1993 20.8725C20.5564 20.8489 19.9136 20.8449 19.2708 20.8725C18.4623 20.9041 18.3204 20.5886 18.3243 19.9339C18.3243 16.0809 18.3243 12.224 18.3243 8.37098V8.17774C18.3243 7.64929 18.553 7.42449 19.0894 7.42449C19.7953 7.42449 20.5052 7.42449 21.2111 7.42449C21.3764 7.4006 21.5449 7.43417 21.6885 7.51959C21.8321 7.605 21.942 7.7371 21.9998 7.8938L21.988 20.4269Z" fill="currentColor"/>
<path d="M6.10867 14.7674V9.4C6.10867 8.87943 6.32952 8.65858 6.85009 8.65464H9.06251C9.16134 8.63914 9.26244 8.64721 9.35755 8.6782C9.45267 8.70918 9.53913 8.76221 9.60986 8.83294C9.6806 8.90368 9.73361 8.99013 9.7646 9.08525C9.79558 9.18036 9.80366 9.28145 9.78816 9.38028V20.1308C9.78816 20.6356 9.55547 20.8644 9.05068 20.8644C8.30532 20.8644 7.56391 20.8644 6.81855 20.8644C6.72195 20.8791 6.62324 20.8709 6.53039 20.8404C6.43754 20.8099 6.35316 20.7581 6.28406 20.689C6.21497 20.6199 6.16309 20.5355 6.13262 20.4426C6.10216 20.3498 6.09395 20.2511 6.10867 20.1545V14.7674Z" fill="currentColor"/>
<path d="M15.8863 16.0059V20.1271C15.8863 20.6358 15.6615 20.8646 15.1606 20.8646C14.4153 20.8646 13.6739 20.8646 12.9285 20.8646C12.83 20.8794 12.7293 20.8708 12.6347 20.8395C12.5401 20.8082 12.4542 20.7551 12.384 20.6844C12.3137 20.6138 12.2611 20.5276 12.2303 20.4328C12.1995 20.3381 12.1914 20.2374 12.2068 20.1389V11.8138C12.1933 11.717 12.2022 11.6185 12.233 11.5258C12.2637 11.4331 12.3155 11.3487 12.3842 11.2793C12.4528 11.2098 12.5366 11.1572 12.629 11.1254C12.7213 11.0936 12.8198 11.0835 12.9167 11.096C13.6739 11.096 14.431 11.096 15.1922 11.096C15.2872 11.0842 15.3837 11.0944 15.4741 11.1258C15.5646 11.1573 15.6465 11.2092 15.7137 11.2775C15.7808 11.3457 15.8313 11.4286 15.8612 11.5195C15.8912 11.6105 15.8997 11.7071 15.8863 11.8019V16.0059Z" fill="currentColor"/>
<path d="M0.00603703 17.1968V14.2351C-0.00707371 14.1419 0.00123591 14.047 0.0303242 13.9575C0.0594124 13.868 0.108511 13.7863 0.173905 13.7186C0.239298 13.6509 0.319264 13.599 0.407714 13.5669C0.496163 13.5348 0.590772 13.5232 0.684356 13.5331C1.45338 13.5331 2.21847 13.5331 2.98355 13.5331C3.07716 13.5214 3.17222 13.5313 3.26138 13.5621C3.35054 13.593 3.43142 13.6439 3.49775 13.711C3.56408 13.7781 3.6141 13.8596 3.64392 13.9491C3.67375 14.0386 3.68258 14.1337 3.66975 14.2272C3.66975 16.207 3.66975 18.188 3.66975 20.1704C3.68314 20.2654 3.67414 20.3621 3.64348 20.453C3.61281 20.5439 3.56132 20.6263 3.49312 20.6938C3.42492 20.7612 3.3419 20.8118 3.25068 20.8414C3.15947 20.871 3.06258 20.8789 2.96777 20.8645C2.21058 20.8645 1.45339 20.8645 0.692251 20.8645C0.599227 20.8768 0.504607 20.8675 0.415741 20.8374C0.326875 20.8073 0.246141 20.7571 0.17979 20.6907C0.113438 20.6244 0.0632592 20.5436 0.0331284 20.4548C0.00299752 20.3659 -0.00627683 20.2713 0.00603703 20.1783V17.1968Z" fill="currentColor"/>
</svg>
