<svg width="22" height="22" viewBox="0 0 22 22" fill="none" xmlns="http://www.w3.org/2000/svg">
<path d="M13.2337 0H20.6665C20.8925 0.0641891 21.1087 0.158706 21.3092 0.28097C21.6567 0.53768 21.9013 0.909934 21.999 1.33082V11.5131C21.9586 11.5417 21.962 11.5871 21.9502 11.6275C21.8616 11.9737 21.6602 12.2806 21.3778 12.4997C21.0954 12.7187 20.748 12.8375 20.3906 12.8371C18.1009 12.8371 15.8111 12.8456 13.5214 12.8371C13.3096 12.8387 13.0997 12.7982 12.9038 12.7179C12.7078 12.6377 12.5298 12.5193 12.38 12.3696C12.2302 12.22 12.1116 12.0421 12.0312 11.8462C11.9507 11.6503 11.91 11.4405 11.9113 11.2287C11.9046 8.02195 11.9046 4.81631 11.9113 1.61179C11.9095 1.28279 12.0087 0.961158 12.1955 0.690358C12.3824 0.419557 12.6479 0.212644 12.9561 0.0975828C13.0469 0.0622512 13.1411 0.0319667 13.2337 0Z" fill="currentColor"/>
<path d="M8.76575 0C8.80108 0.0454263 8.85492 0.0370146 8.90202 0.0504742C9.24016 0.142177 9.53906 0.341893 9.75318 0.619202C9.96731 0.89651 10.0849 1.23621 10.0881 1.58656C10.0982 2.97458 10.1016 4.36261 10.0881 5.75064C10.0868 6.17202 9.91823 6.57564 9.61949 6.87281C9.32074 7.16998 8.91625 7.3364 8.49488 7.33551C6.19223 7.34561 3.88846 7.34561 1.58356 7.33551C1.37342 7.33421 1.16563 7.29121 0.972222 7.20902C0.778816 7.12682 0.603642 7.00706 0.456857 6.85667C0.310072 6.70629 0.194595 6.52826 0.11711 6.33291C0.0396257 6.13757 0.00167657 5.92879 0.00546501 5.71867C0.00546501 4.3727 0.00546501 3.02057 0.00546501 1.66227C-0.0111715 1.28691 0.105795 0.917814 0.335585 0.620557C0.565374 0.3233 0.893104 0.117136 1.26054 0.0386983C1.28642 0.0277266 1.31169 0.0153705 1.33625 0.0016841L8.76575 0Z" fill="currentColor"/>
<path d="M21.9993 20.6642C21.9068 21.0569 21.6874 21.4081 21.3751 21.6635C21.0966 21.8804 20.754 21.9988 20.401 22H13.5301C13.3201 22.0034 13.1115 21.9651 12.9164 21.8875C12.7212 21.8098 12.5434 21.6943 12.3931 21.5476C12.2428 21.4009 12.123 21.2259 12.0407 21.0327C11.9583 20.8395 11.915 20.6319 11.9133 20.4219C11.8987 19.0344 11.8987 17.6464 11.9133 16.2578C11.9145 16.044 11.9585 15.8326 12.0426 15.636C12.1267 15.4394 12.2492 15.2616 12.4029 15.1131C12.5567 14.9645 12.7386 14.8481 12.9379 14.7708C13.1372 14.6935 13.35 14.6568 13.5637 14.6628C15.374 14.6628 17.1843 14.6628 18.9945 14.6628C19.5379 14.6628 20.0847 14.6124 20.6231 14.6914C21.323 14.7941 21.7604 15.2164 21.9556 15.8927C21.967 15.9255 21.9817 15.957 21.9993 15.9869V20.6642Z" fill="currentColor"/>
<path d="M0.00281471 15.578C0.00281471 13.9965 0.00281471 12.4144 0.00281471 10.8317C-0.00705668 10.6086 0.0297738 10.3858 0.110943 10.1776C0.192112 9.96951 0.315833 9.78061 0.474194 9.62303C0.632555 9.46546 0.822064 9.34268 1.0306 9.26255C1.23913 9.18243 1.46209 9.14671 1.68522 9.15771C3.92843 9.15771 6.16883 9.15771 8.40643 9.15771C8.63047 9.1475 8.85418 9.18396 9.06338 9.26479C9.27258 9.34561 9.4627 9.46904 9.62168 9.62723C9.78066 9.78542 9.90503 9.97493 9.98689 10.1837C10.0688 10.3925 10.1063 10.6161 10.0973 10.8402C10.0973 13.9964 10.0973 17.1533 10.0973 20.3107C10.1081 20.5345 10.072 20.7581 9.99124 20.9671C9.91052 21.1762 9.78697 21.366 9.62853 21.5244C9.47009 21.6829 9.28027 21.8064 9.07125 21.8872C8.86224 21.9679 8.63864 22.004 8.41484 21.9932H1.65157C1.4327 22.0017 1.21443 21.9648 1.01046 21.885C0.80648 21.8052 0.621199 21.6841 0.466236 21.5293C0.311273 21.3744 0.189967 21.1893 0.109931 20.9854C0.029896 20.7815 -0.0071418 20.5632 0.0011358 20.3444C0.0011358 18.7539 0.00169311 17.1651 0.00281471 15.578Z" fill="currentColor"/>
</svg>
