<svg width="22" height="22" viewBox="0 0 22 22" fill="none" xmlns="http://www.w3.org/2000/svg">
<path d="M22 21.9977H15.5151C15.5151 21.9118 15.5231 21.8259 15.5231 21.7405C15.5231 20.1733 15.5265 18.6061 15.5197 17.0383C15.5197 16.8607 15.5667 16.8092 15.7492 16.8092C16.4723 16.8189 17.1948 16.8092 17.9179 16.8172C18.0792 16.8172 18.1286 16.7719 18.1222 16.6116C18.1102 16.3251 18.1073 16.0387 18.1222 15.7523C18.132 15.5645 18.0591 15.5232 17.8875 15.5301C17.5306 15.5415 17.1725 15.5335 16.8144 15.5335C15.1684 15.5335 13.5225 15.5364 11.8789 15.5301C11.7033 15.5301 11.6407 15.5708 11.6494 15.7546C11.6643 16.0408 11.6643 16.3276 11.6494 16.6138C11.6419 16.7765 11.6935 16.8189 11.8531 16.8172C12.5687 16.8086 13.2878 16.8212 14 16.8086C14.2026 16.8046 14.2491 16.8659 14.2479 17.0612C14.2405 18.6353 14.2439 20.2117 14.2433 21.7846C14.2433 21.8557 14.2341 21.9267 14.229 21.9977H7.78078C7.77412 21.9627 7.76972 21.9273 7.76758 21.8917C7.76758 20.2604 7.76758 18.6267 7.76357 16.9965C7.76357 16.8361 7.82841 16.8103 7.96729 16.8109C8.70416 16.8161 9.44104 16.8109 10.1785 16.816C10.3185 16.816 10.3644 16.7771 10.3598 16.6356C10.3499 16.3282 10.3499 16.0204 10.3598 15.7122C10.3644 15.5673 10.3128 15.5249 10.1756 15.5324C10.0034 15.5421 9.83128 15.5324 9.65911 15.5324C7.81291 15.5324 5.96614 15.5324 4.11995 15.5289C3.94778 15.5289 3.87605 15.5633 3.8858 15.7512C3.90072 16.0376 3.89843 16.324 3.8858 16.6104C3.87892 16.7708 3.92885 16.8178 4.09011 16.816C4.82009 16.8075 5.55008 16.816 6.28006 16.8092C6.44132 16.8092 6.48839 16.8556 6.48494 17.016C6.47519 17.5023 6.48092 17.9897 6.4815 18.4761C6.48379 19.6499 6.48666 20.8234 6.49011 21.9966C4.37782 21.9966 2.26571 21.9977 0.153807 22C0.0258301 22 -0.000564817 21.9742 9.07117e-06 21.8459C0.00517406 20.1636 0.00344876 18.4806 0.00344876 16.7983C0.79771 16.8029 1.59197 16.8034 2.38566 16.816C2.54749 16.816 2.59054 16.7719 2.58824 16.6116C2.57963 15.8961 2.59341 15.1795 2.57906 14.4641C2.57561 14.2584 2.64333 14.2206 2.83157 14.2212C5.23731 14.2269 7.64285 14.2283 10.0482 14.2252C10.1056 14.2252 10.163 14.2206 10.2204 14.2252C10.322 14.2344 10.3581 14.1931 10.3564 14.0906C10.3518 13.7538 10.3506 13.4176 10.3564 13.0807C10.3564 12.9622 10.3076 12.9341 10.202 12.9381C10.0522 12.9438 9.90072 12.9284 9.75151 12.9421C9.58336 12.9582 9.5472 12.8883 9.55065 12.7336C9.55983 12.3115 9.55065 11.8887 9.55639 11.4666C9.55639 11.3388 9.52023 11.2752 9.39283 11.2374C9.16607 11.172 8.94768 11.0805 8.74204 10.9648C8.6462 10.9075 8.58192 10.9201 8.5033 11.002C8.19914 11.3159 7.88351 11.6178 7.58107 11.9328C7.48121 12.0371 7.42267 12.052 7.31306 11.9397C6.72119 11.3371 6.12377 10.7398 5.52081 10.1479C5.41292 10.042 5.43702 9.9887 5.52999 9.89877C5.83817 9.60034 6.13601 9.29044 6.44477 8.99144C6.53372 8.90551 6.56529 8.83792 6.49872 8.71763C6.38045 8.50505 6.28761 8.27935 6.2221 8.04515C6.19226 7.9409 6.13946 7.90137 6.02583 7.90366C5.5891 7.91111 5.15237 7.90366 4.71564 7.90939C4.57217 7.91226 4.51708 7.87903 4.51823 7.72208C4.52569 6.88463 4.52454 6.04661 4.51823 5.20916C4.51823 5.07168 4.55266 5.02185 4.69785 5.02528C5.10532 5.03502 5.51392 5.01955 5.92196 5.03273C6.1033 5.03903 6.20373 5.00466 6.25137 4.8036C6.30233 4.61051 6.37957 4.4253 6.48092 4.25313C6.56184 4.10993 6.52626 4.02744 6.41894 3.92376C6.11937 3.63736 5.83644 3.33148 5.53343 3.04793C5.40947 2.93337 5.43014 2.87609 5.53918 2.76611C6.12684 2.18948 6.70914 1.6075 7.28609 1.02018C7.40087 0.905616 7.46399 0.880413 7.5868 1.01159C7.87949 1.32549 8.19226 1.62106 8.49298 1.92809C8.56643 2.0037 8.62784 2.0352 8.73171 1.97563C8.94996 1.85506 9.18093 1.75901 9.42038 1.68922C9.50933 1.66173 9.55008 1.61934 9.54893 1.52368C9.54147 1.0156 9.53802 0.508084 9.53343 0H12.4545C12.4499 0.508084 12.4476 1.0156 12.439 1.52311C12.439 1.63767 12.501 1.66116 12.5888 1.69495C12.8105 1.77399 13.0276 1.8654 13.239 1.96876C13.3601 2.03005 13.4273 2.00599 13.5139 1.91663C13.8123 1.60846 14.1245 1.31231 14.4201 1.00013C14.528 0.885567 14.5877 0.902179 14.6892 1.00528C15.2769 1.60216 15.8699 2.19406 16.4683 2.781C16.5831 2.89213 16.5636 2.94827 16.4603 3.04736C16.1504 3.34465 15.8548 3.65626 15.5449 3.95355C15.4496 4.0452 15.4399 4.11737 15.5024 4.23022C15.6146 4.42891 15.7021 4.6405 15.763 4.86031C15.7997 4.99607 15.8686 5.03216 16.0046 5.02872C16.4339 5.01898 16.8654 5.02872 17.293 5.02242C17.433 5.01955 17.4778 5.05908 17.4766 5.20171C17.4709 6.0468 17.4709 6.8917 17.4766 7.7364C17.4766 7.86872 17.4364 7.90825 17.3045 7.90538C16.8677 7.89851 16.431 7.90538 15.9943 7.90023C15.8692 7.90023 15.7986 7.92887 15.7647 8.05775C15.703 8.28554 15.613 8.50471 15.4967 8.71018C15.4324 8.82475 15.4554 8.89749 15.5461 8.98513C15.86 9.28872 16.1624 9.60434 16.4775 9.90679C16.5739 9.99901 16.5699 10.0483 16.4775 10.1411C15.8703 10.7391 15.2677 11.3415 14.6697 11.9483C14.5768 12.0422 14.5257 12.0434 14.4333 11.9483C14.1257 11.6287 13.8055 11.3182 13.4961 11.0032C13.4187 10.9235 13.3601 10.9104 13.258 10.9602C13.048 11.0672 12.8305 11.1587 12.6072 11.234C12.4671 11.2781 12.435 11.3486 12.439 11.4803C12.4453 11.9099 12.439 12.3395 12.4436 12.7686C12.4436 12.9009 12.4011 12.9467 12.2715 12.9404C12.1142 12.9312 11.9564 12.9444 11.7991 12.9364C11.6786 12.9307 11.6356 12.9719 11.639 13.0951C11.6459 13.3883 11.6568 13.6833 11.639 13.9755C11.623 14.1931 11.7022 14.2287 11.9013 14.2281C14.3352 14.2212 16.7696 14.2281 19.2034 14.2195C19.3756 14.2195 19.4204 14.2642 19.4181 14.4343C19.4089 15.1572 19.4181 15.8806 19.41 16.6035C19.41 16.7788 19.4674 16.8155 19.6276 16.8138C20.3432 16.8057 21.0623 16.8166 21.775 16.8063C21.957 16.8063 21.9994 16.8573 21.9983 17.0354C21.9966 18.6897 22 20.344 22 21.9977ZM11.0009 3.8894C10.3208 3.89856 9.67171 4.17439 9.19374 4.6573C8.71577 5.14022 8.44734 5.79143 8.44644 6.47025C8.44553 7.14907 8.71223 7.801 9.18891 8.28518C9.66558 8.76936 10.314 9.04691 10.994 9.05788C12.4161 9.0659 13.5845 7.89507 13.5834 6.46361C13.5824 5.78057 13.31 5.12582 12.8257 4.64316C12.3415 4.1605 11.6852 3.88939 11.0009 3.8894ZM11.6482 17.7875C11.6482 17.5229 11.6442 17.2583 11.6482 16.9936C11.6482 16.8791 11.6264 16.8264 11.4967 16.8292C11.1679 16.8372 10.839 16.8367 10.5102 16.8292C10.3891 16.8292 10.3512 16.8659 10.3524 16.9879C10.3581 17.524 10.3593 18.0602 10.3524 18.5964C10.3524 18.7327 10.3994 18.7682 10.5245 18.763C10.8459 18.7562 11.1679 18.7567 11.4898 18.763C11.6121 18.763 11.6505 18.7229 11.6471 18.6027C11.643 18.3311 11.6482 18.0596 11.6482 17.7875ZM3.87834 17.7875C3.87834 17.5303 3.8726 17.272 3.87834 17.016C3.88236 16.8848 3.85366 16.8241 3.70617 16.8292C3.39226 16.8401 3.0749 16.8372 2.76328 16.8292C2.63473 16.8292 2.59111 16.8653 2.59111 17.0011C2.59743 17.5298 2.59628 18.0585 2.59111 18.5872C2.59111 18.7109 2.6198 18.7693 2.75696 18.7659C3.07834 18.7585 3.40029 18.7596 3.72167 18.7659C3.84448 18.7659 3.88293 18.7247 3.88006 18.6044C3.87375 18.3306 3.87834 18.0596 3.87834 17.787V17.7875ZM18.1274 17.7875C18.1274 18.0591 18.132 18.3306 18.1274 18.6021C18.1274 18.7224 18.163 18.7659 18.2858 18.7636C18.6072 18.7567 18.9291 18.7585 19.2505 18.7636C19.3653 18.7636 19.4175 18.7338 19.4164 18.6072C19.411 18.0642 19.411 17.5212 19.4164 16.9782C19.4164 16.8636 19.375 16.8298 19.266 16.8315C18.9372 16.8361 18.6083 16.8384 18.2801 16.8315C18.1509 16.8315 18.1251 16.8825 18.128 16.9965C18.1314 17.2577 18.1274 17.5229 18.1274 17.787V17.7875Z" fill="currentColor"/>
</svg>
