<svg width="23" height="22" viewBox="0 0 23 22" fill="none" xmlns="http://www.w3.org/2000/svg">
<path d="M10.3157 21.9998L7.16006 20.5964C5.12636 19.6888 3.09266 18.7686 1.05056 17.8736C0.725011 17.7606 0.445935 17.5432 0.256721 17.2552C0.067506 16.9672 -0.0212368 16.6248 0.00429897 16.2811C0.0253082 12.844 0.00429897 9.40688 0.00429897 5.96556V5.54538C0.138838 5.53428 0.272923 5.57153 0.382463 5.65042L9.98371 9.90691C10.091 9.93451 10.1849 9.99977 10.2481 10.0908C10.3114 10.1818 10.3398 10.2925 10.3283 10.4027C10.3283 14.1844 10.3283 17.9409 10.3283 21.7057C10.3283 21.7814 10.3199 21.8654 10.3157 21.9998Z" fill="currentColor"/>
<path d="M11.7086 22V20.3697C11.7086 17.088 11.7086 13.8064 11.7086 10.5289C11.6894 10.3876 11.7212 10.244 11.7981 10.1239C11.8751 10.0038 11.9923 9.91504 12.1288 9.87344C15.2675 8.49523 18.3979 7.09601 21.5325 5.701L21.9527 5.51611C22.0091 5.64852 22.0266 5.79429 22.0031 5.9363C22.0031 9.41824 22.0031 12.8988 22.0031 16.3779C22.0243 16.6801 21.948 16.9812 21.7853 17.2368C21.6227 17.4925 21.3824 17.6892 21.0997 17.7981L11.9397 21.9076C11.8808 21.9328 11.8262 21.9454 11.7086 22Z" fill="currentColor"/>
<path d="M0.753906 4.28497L4.72046 2.57061C6.57348 1.77226 8.4265 0.982313 10.2753 0.171355C10.5 0.0622441 10.7459 0.0038105 10.9957 0.000180203C11.2455 -0.00345009 11.493 0.0478103 11.7208 0.150344C14.8021 1.48934 17.8989 2.82552 21.0111 4.15891C21.0825 4.18833 21.1875 4.18833 21.2211 4.3396L18.4269 5.60015L11.3762 8.73894C11.2859 8.79323 11.1842 8.82567 11.0791 8.8337C10.9741 8.84172 10.8686 8.8251 10.7711 8.78516C7.49788 7.31451 4.21624 5.84386 0.938789 4.39842L0.753906 4.28497Z" fill="currentColor"/>
</svg>
