<svg width="21" height="22" viewBox="0 0 21 22" fill="none" xmlns="http://www.w3.org/2000/svg">
  <path d="M15.9007 0.00390625C15.9465 0.0215527 15.9932 0.036697 16.0407 0.0492706C16.5941 0.178881 17.0101 0.475688 17.2344 1.02135C17.4158 1.46332 17.6232 1.89232 17.8124 2.333C17.9438 2.63159 18.0117 2.95423 18.0117 3.28045C18.0117 3.60666 17.9438 3.92931 17.8124 4.2279C17.798 4.27809 17.7663 4.32153 17.7228 4.35049C17.6794 4.37945 17.6271 4.39204 17.5752 4.38603C15.9733 4.38084 14.3713 4.38084 12.7693 4.38603C12.6397 4.38603 12.5749 4.38602 12.6215 4.21364C12.7421 3.78361 12.7317 3.32739 12.5917 2.90329C12.5477 2.7672 12.5917 2.75294 12.7084 2.75294C13.3733 2.75294 14.0382 2.7646 14.7044 2.75294C15.0682 2.75944 15.4268 2.66626 15.7414 2.48348C16.056 2.30071 16.3146 2.03531 16.4891 1.71606C16.7172 1.32723 16.6187 0.992833 16.204 0.795826C15.6959 0.552159 15.2021 0.619556 14.7407 0.925436C14.0252 1.39851 13.315 1.87418 12.6047 2.35892C12.4556 2.46131 12.3831 2.44835 12.3001 2.29412C12.234 2.17099 12.0487 2.02712 12.0772 1.95843C12.1251 1.84048 12.2975 1.77179 12.4206 1.68884C13.0557 1.26242 13.6947 0.842484 14.3259 0.409586C14.6146 0.227904 14.9293 0.0911183 15.2591 0.00390625H15.9007Z" fill="currentColor"/>
  <path d="M5.37742 0.00388814C5.95289 0.125722 6.40652 0.476968 6.8796 0.793217C7.40711 1.14835 7.93462 1.50348 8.46603 1.85343C8.56842 1.92082 8.61897 1.97008 8.50102 2.06858C8.38308 2.16708 8.3416 2.4263 8.18088 2.4276C8.0435 2.4276 7.90481 2.26818 7.76872 2.17745C7.13882 1.75622 6.5128 1.3298 5.87901 0.915047C5.68064 0.771883 5.44824 0.683157 5.20494 0.65769C4.96163 0.632222 4.7159 0.670902 4.49218 0.769884C4.0191 0.97078 3.90505 1.31684 4.17075 1.75233C4.34848 2.0611 4.60576 2.31656 4.91578 2.49209C5.22581 2.66762 5.57724 2.75679 5.93345 2.75033C6.59057 2.76329 7.24899 2.75681 7.90741 2.75033C8.04609 2.75033 8.09275 2.76458 8.03702 2.92271C7.90189 3.34759 7.89468 3.80282 8.01628 4.23177C8.04609 4.34324 8.03313 4.38341 7.90741 4.38341C6.27691 4.38341 4.64599 4.38341 3.01463 4.38341C2.90576 4.38341 2.86946 4.33027 2.83188 4.24603C2.69853 3.96351 2.62508 3.65646 2.61616 3.34418C2.60724 3.0319 2.66303 2.72115 2.78003 2.43149C2.99648 1.88842 3.23756 1.35443 3.49159 0.82821C3.70674 0.384944 4.10724 0.169791 4.56736 0.0505498C4.62309 0.0362927 4.68271 0.0414752 4.72937 0L5.37742 0.00388814Z" fill="currentColor"/>
  <path d="M11.5195 16.2452C11.5195 14.3983 11.5195 12.5513 11.5195 10.7057C11.5195 10.5281 11.5623 10.4802 11.7412 10.4815C14.2824 10.4875 16.8232 10.4875 19.3635 10.4815C19.5631 10.4815 19.5955 10.5411 19.5955 10.7225C19.5903 13.8427 19.5903 16.9628 19.5955 20.083C19.5955 21.0641 19.0162 21.7874 18.0882 21.9701C17.9824 21.9881 17.8753 21.9964 17.768 21.9947C15.7578 21.9947 13.7501 21.9947 11.7347 21.9947C11.5623 21.9947 11.5247 21.9455 11.5247 21.7796C11.5221 19.9378 11.5195 18.0909 11.5195 16.2452Z" fill="currentColor"/>
  <path d="M9.11595 16.2606C9.11595 18.0933 9.11595 19.926 9.11595 21.7574C9.11595 21.9337 9.09132 21.9998 8.88913 21.9998C6.89184 21.9907 4.89455 21.9998 2.89855 21.9933C2.65665 22.0001 2.41586 21.9581 2.19055 21.8698C1.96524 21.7815 1.76003 21.6487 1.58717 21.4793C1.41431 21.31 1.27733 21.1075 1.18443 20.8841C1.09152 20.6606 1.04459 20.4207 1.04643 20.1787C1.03865 17.0085 1.04643 13.8369 1.04643 10.6667C1.04643 10.5254 1.0892 10.4878 1.22918 10.4878C3.79805 10.4878 6.36735 10.4878 8.93709 10.4878C9.12632 10.4878 9.11983 10.5759 9.11983 10.7068C9.11724 12.5568 9.11595 14.4081 9.11595 16.2606Z" fill="currentColor"/>
  <path d="M5.02403 9.83862C3.78625 9.83862 2.54718 9.8114 1.3107 9.85158C0.97635 9.84208 0.657722 9.70754 0.417754 9.47453C0.177785 9.24152 0.0339279 8.92699 0.0145973 8.59307C-0.00614031 7.83485 -0.00354811 7.07533 0.0145973 6.31841C0.0266331 5.97441 0.171205 5.64838 0.418078 5.40851C0.664951 5.16864 0.995004 5.03351 1.33921 5.03138C3.87309 5.0249 6.40567 5.03138 8.93954 5.0249C9.08341 5.0249 9.11581 5.07027 9.11581 5.20636C9.11063 6.68737 9.11063 8.16881 9.11581 9.65069C9.11581 9.82566 9.05101 9.84251 8.90585 9.84121C7.61234 9.83689 6.3184 9.83603 5.02403 9.83862Z" fill="currentColor"/>
  <path d="M15.6087 9.83846C14.3217 9.83846 13.0334 9.83846 11.7451 9.83846C11.5753 9.83846 11.5143 9.80865 11.5156 9.62201C11.5243 8.1626 11.5243 6.70276 11.5156 5.24249C11.5156 5.06363 11.5597 5.01826 11.7386 5.01956C14.2141 5.02604 16.6897 5.01956 19.1652 5.01956C20.0569 5.01956 20.6207 5.58984 20.622 6.48415C20.622 7.15683 20.6298 7.8295 20.622 8.50218C20.6263 8.7582 20.557 9.01007 20.4224 9.22787C20.2878 9.44568 20.0935 9.62026 19.8625 9.73088C19.7295 9.80072 19.5811 9.83593 19.4309 9.83328C18.1543 9.83717 16.8802 9.83846 15.6087 9.83846Z" fill="currentColor"/>
  <path d="M10.3336 4.38317C9.86185 4.38317 9.39007 4.38317 8.91829 4.38317C8.86639 4.39125 8.81336 4.37907 8.77018 4.34916C8.727 4.31925 8.69697 4.27389 8.68629 4.22245C8.45558 3.54718 8.56446 2.92635 9.05438 2.41439C9.27251 2.16393 9.56161 1.98568 9.88335 1.90328C10.2051 1.82087 10.5443 1.8382 10.856 1.95298C11.5209 2.17202 11.9149 2.65158 12.038 3.34759C12.0832 3.64536 12.0511 3.94976 11.9447 4.23153C11.9349 4.27973 11.907 4.32235 11.8667 4.35057C11.8265 4.37879 11.7769 4.39046 11.7282 4.38317C11.2629 4.37798 10.7989 4.38317 10.3336 4.38317Z" fill="currentColor"/>
</svg>