<svg width="22" height="22" viewBox="0 0 22 22" fill="none" xmlns="http://www.w3.org/2000/svg">
<path d="M0.00271589 10.6837V4.24575C0.00271589 3.61528 0.265457 3.34928 0.887221 3.34874C1.31696 3.34874 1.31642 3.34874 1.42739 2.9277C1.62794 2.16904 1.82921 1.41001 2.0312 0.650619C2.18025 0.0946756 2.52078 -0.101153 3.08325 0.0484406C6.95962 1.07438 10.8358 2.10141 14.7118 3.12952C15.2351 3.44394 15.8145 3.34711 16.3775 3.34711C17.9659 3.35255 19.5543 3.34711 21.1427 3.34711C21.7182 3.34711 22 3.6278 22 4.20333V17.1499C22 17.7402 21.7231 18.0127 21.1296 18.0132C20.6901 18.0132 20.6907 18.0132 20.5759 18.4457C20.3811 19.1753 20.1864 19.9046 19.9916 20.6336C19.8159 21.2983 19.5124 21.4735 18.8433 21.2956C15.2259 20.3342 11.6084 19.3719 7.991 18.4087C7.60477 18.3054 7.19298 18.2711 6.84865 18.0279C6.79425 17.9909 6.70014 18.0121 6.62399 18.0121H0.870361C0.280691 18.0121 0 17.7342 0 17.1418L0.00271589 10.6837ZM10.9997 5.54858H4.54002C3.94165 5.54858 3.66966 5.82057 3.66966 6.41296C3.66966 6.6028 3.73384 6.85248 3.63865 6.96726C3.52985 7.10217 3.26766 7.01078 3.07292 7.01296C2.47454 7.01948 2.20256 7.28494 2.20256 7.88332C2.20256 9.74661 2.20256 11.6096 2.20256 13.4721C2.20256 14.0776 2.47454 14.3457 3.08434 14.3517C3.27255 14.3517 3.51952 14.2669 3.63375 14.3893C3.74799 14.5117 3.66585 14.7532 3.66748 14.9419C3.67237 15.5458 3.94273 15.8161 4.55416 15.8161H11.5404C13.5412 15.8161 15.5417 15.8161 17.5421 15.8161C18.029 15.8161 18.3276 15.5158 18.3336 15.0328C18.3336 14.8571 18.3401 14.6808 18.3336 14.5057C18.3282 14.3887 18.3624 14.3425 18.4865 14.3479C18.6388 14.3577 18.7916 14.3479 18.9445 14.3479C19.5227 14.3479 19.8018 14.0694 19.8018 13.4923C19.8018 11.6293 19.8018 9.7662 19.8018 7.9029C19.8018 7.28386 19.5298 7.0184 18.907 7.01404C18.7258 7.01404 18.4886 7.09238 18.3766 6.98304C18.2536 6.86228 18.3396 6.6213 18.338 6.43363C18.3314 5.82329 18.066 5.54912 17.4605 5.54912L10.9997 5.54858ZM9.6523 3.34112L9.64849 3.30686L5.85427 2.29723C5.0742 2.08998 4.29469 1.88164 3.51517 1.67873C3.43357 1.65752 3.31172 1.56505 3.2682 1.72225C3.12133 2.25589 2.98425 2.79279 2.84009 3.34112H9.6523ZM12.3281 18.0138C12.364 18.0475 12.3684 18.0551 12.3744 18.0562C14.4364 18.606 16.4984 19.1558 18.5604 19.7055C18.6692 19.7349 18.7236 19.7142 18.7525 19.5919C18.8656 19.1333 18.9842 18.6753 19.1175 18.2221C19.1719 18.0459 19.136 18.0094 18.9543 18.01C17.0455 18.0165 15.1367 18.0138 13.2279 18.0138H12.3281Z" fill="currentColor"/>
<path d="M11.0012 14.3461C9.13047 14.3461 7.25919 14.3423 5.38792 14.3521C5.17033 14.3521 5.11104 14.2879 5.13225 14.0861C5.14205 13.9336 5.14205 13.7806 5.13225 13.6281C5.12192 13.1896 4.81565 12.8883 4.37395 12.8806C4.19063 12.8774 4.00676 12.8741 3.82399 12.8806C3.70921 12.8855 3.66406 12.8551 3.66406 12.7294C3.66841 11.3626 3.66841 9.99557 3.66406 8.62838C3.66406 8.50272 3.70921 8.4728 3.82399 8.47716C4.00676 8.48477 4.19063 8.48205 4.37395 8.47716C4.81783 8.469 5.12029 8.16927 5.1328 7.72919C5.1328 7.70634 5.1328 7.68295 5.1328 7.66065C5.14912 7.44959 5.03814 7.16237 5.17794 7.04922C5.30904 6.94043 5.58538 7.01169 5.79753 7.01169C9.39539 7.01169 12.9929 7.00933 16.59 7.00462C16.8304 7.00462 16.8957 7.07316 16.8674 7.2951C16.8587 7.4246 16.8587 7.55454 16.8674 7.68404C16.8718 8.16927 17.1699 8.47172 17.6502 8.47716C17.8259 8.47716 18.0022 8.48368 18.1773 8.47716C18.2932 8.47226 18.3367 8.50436 18.3362 8.62893C18.3325 9.99648 18.3325 11.3637 18.3362 12.7305C18.3362 12.8573 18.2888 12.885 18.173 12.8806C17.9897 12.8736 17.8063 12.8763 17.623 12.8806C17.178 12.8883 16.8761 13.1864 16.8647 13.6275C16.8647 13.6509 16.8647 13.6738 16.8647 13.6966C16.8489 13.9071 16.9588 14.1949 16.8201 14.3075C16.6814 14.4201 16.4127 14.3456 16.2005 14.3456C14.4685 14.3459 12.7354 14.3461 11.0012 14.3461ZM13.9338 10.6911C13.9338 9.07118 12.625 7.74931 11.0181 7.74714C10.6297 7.74056 10.2439 7.81118 9.88309 7.95489C9.52226 8.0986 9.19355 8.31255 8.91606 8.58431C8.63857 8.85608 8.41783 9.18025 8.26663 9.53801C8.11543 9.89578 8.03679 10.28 8.03528 10.6684C8.03376 11.0568 8.10941 11.4416 8.25781 11.8006C8.40622 12.1595 8.62444 12.4854 8.8998 12.7593C9.17517 13.0332 9.50219 13.2497 9.8619 13.3963C10.2216 13.5428 10.6068 13.6164 10.9952 13.6128C12.6032 13.6194 13.9327 12.2975 13.9338 10.6922V10.6911Z" fill="currentColor"/>
<path d="M11.0039 9.21484C11.2944 9.21484 11.5783 9.30098 11.8199 9.46237C12.0614 9.62376 12.2497 9.85314 12.3608 10.1215C12.472 10.3899 12.5011 10.6852 12.4444 10.9701C12.3877 11.255 12.2479 11.5167 12.0424 11.7221C11.837 11.9275 11.5753 12.0674 11.2904 12.1241C11.0055 12.1808 10.7102 12.1517 10.4418 12.0405C10.1735 11.9293 9.94407 11.7411 9.78268 11.4996C9.62129 11.258 9.53516 10.9741 9.53516 10.6836C9.53516 10.294 9.6899 9.92047 9.96534 9.64502C10.2408 9.36958 10.6144 9.21484 11.0039 9.21484Z" fill="currentColor"/>
</svg>
