<svg width="22" height="22" viewBox="0 0 22 22" fill="none" xmlns="http://www.w3.org/2000/svg">
<path d="M10.5884 17.1086H2.52145C2.31461 17.1086 2.24925 17.0432 2.2057 16.8582C1.59606 13.7555 0.975592 10.6637 0.365948 7.57198L0.0393002 5.9499C-0.0120648 5.78918 -0.0131215 5.61658 0.0363766 5.45528C0.0858747 5.29397 0.183575 5.15167 0.316247 5.04743C0.448919 4.94319 0.610277 4.88201 0.77871 4.87208C0.947144 4.86215 1.11458 4.90395 1.25858 4.99188L6.70183 7.69171C6.94133 7.81146 6.99574 7.75705 7.08283 7.53932C7.9973 5.23138 8.92268 2.93432 9.83715 0.626386C9.88402 0.446975 9.989 0.288164 10.1358 0.174819C10.2825 0.0614742 10.4628 0 10.6482 0C10.8336 0 11.0139 0.0614742 11.1606 0.174819C11.3074 0.288164 11.4124 0.446975 11.4592 0.626386C12.1886 2.45532 12.9289 4.28427 13.6365 6.12409C13.8325 6.61398 14.0394 7.10386 14.2244 7.60463C14.3006 7.80059 14.3768 7.8115 14.551 7.7244L19.929 5.02454C20.1359 4.90375 20.3806 4.8649 20.6148 4.91567C20.8235 4.96727 21.0034 5.09908 21.1155 5.28252C21.2276 5.46595 21.2628 5.6862 21.2135 5.89545C20.6256 8.80214 20.0486 11.7088 19.4608 14.6046C19.3193 15.334 19.1668 16.0634 19.0362 16.7819C19.0362 16.9997 18.9274 17.0977 18.6661 17.0977L10.5884 17.1086ZM12.2321 11.7959C12.2639 11.594 12.2639 11.3883 12.2321 11.1863C12.1952 10.8228 12.0324 10.4836 11.7719 10.2273C11.5114 9.97107 11.1696 9.81388 10.8055 9.7829C10.4414 9.75191 10.0779 9.84908 9.77788 10.0576C9.47783 10.2662 9.26006 10.5729 9.16219 10.925C9.03845 11.2738 8.99021 11.6448 9.02066 12.0137C9.0227 12.4155 9.15401 12.8061 9.39515 13.1277C9.63629 13.4492 9.97443 13.6846 10.3597 13.7991C10.4998 13.8269 10.6441 13.8269 10.7843 13.7991C11.2232 13.6898 11.6094 13.4288 11.8744 13.0622C12.1394 12.6956 12.2661 12.247 12.2321 11.7959Z" fill="currentColor"/>
<path d="M10.6326 18.7418H18.4709C18.7104 18.7418 18.754 18.8071 18.754 19.0357C18.754 19.7325 18.754 20.4401 18.754 21.1477C18.764 21.2617 18.7488 21.3765 18.7096 21.4841C18.6705 21.5916 18.6082 21.6893 18.5273 21.7703C18.4464 21.8512 18.3487 21.9134 18.2412 21.9526C18.1336 21.9917 18.0188 22.0068 17.9048 21.9968H3.31689C3.20231 22.0051 3.08726 21.9885 2.97974 21.948C2.87222 21.9076 2.77473 21.8443 2.69402 21.7626C2.61331 21.6808 2.5513 21.5825 2.51223 21.4745C2.47315 21.3665 2.45797 21.2513 2.46771 21.1368C2.46771 20.4292 2.46771 19.7107 2.46771 18.9595C2.46771 18.7418 2.52214 18.6982 2.73987 18.6982L10.6326 18.7418Z" fill="currentColor"/>
</svg>
