<svg width="16" height="22" viewBox="0 0 16 22" fill="none" xmlns="http://www.w3.org/2000/svg">
<path d="M8.14662 8.67805C9.02936 11.0932 8.58623 13.3361 7.2878 15.4703C7.20269 15.2988 7.22168 15.0977 7.18651 14.9092C7.15134 14.7208 7.13235 14.5267 7.10773 14.3347C7.00344 13.4491 6.69991 12.5989 6.22007 11.8483C6.18701 11.7968 6.14973 11.7474 6.11738 11.6952C6.10696 11.6704 6.08848 11.65 6.06497 11.6372C6.04146 11.6244 6.01431 11.6199 5.98796 11.6246C5.91762 11.6437 5.94786 11.7121 5.94646 11.7587C5.91 13.0822 5.6181 14.386 5.08693 15.598C4.27664 17.5078 4.40747 19.3506 5.47942 21.1263C5.64471 21.4008 5.80578 21.6775 5.94857 21.9732C5.40644 21.8013 4.87964 21.5841 4.37371 21.3239C1.89923 20.009 0.434796 17.9687 0.0690405 15.1739C-0.129312 13.6459 0.0943641 12.1532 0.809698 10.7897C1.58341 9.31746 2.14049 7.79019 2.38667 6.14718C2.39581 6.08719 2.41621 6.02861 2.44294 5.92698C2.9353 6.76896 3.40586 7.58411 3.61195 8.60182C5.50404 6.00956 6.42546 3.1724 6.4958 0C7.92646 0.841974 9.10391 1.89144 10.0394 3.21333C10.973 4.53435 11.6068 6.04456 11.8963 7.63775C12.7537 6.61157 12.7151 5.41743 12.6764 4.21198C12.7207 4.22539 12.7509 4.22469 12.7629 4.23951C13.8995 5.65103 14.8603 7.1663 15.3914 8.92153C16.1503 11.4298 16.2784 13.9381 15.3211 16.4252C14.4911 18.5749 13.0428 20.1982 11.0473 21.3324C10.6238 21.5775 10.1878 21.8003 9.74117 22C9.79182 21.9061 9.84035 21.8109 9.89381 21.7177C10.4875 20.6887 11.0713 19.654 11.3371 18.4804C12.1967 14.6862 11.1965 11.4609 8.36889 8.80367C8.31332 8.75638 8.26619 8.68652 8.14662 8.67805Z" fill="currentColor"/>
</svg>
