<svg width="22" height="22" viewBox="0 0 22 22" fill="none" xmlns="http://www.w3.org/2000/svg">
<path d="M13.1374 8.93263H19.8794C21.1574 8.93263 21.9648 9.73945 21.966 11.0151C21.966 11.5068 21.9625 11.9979 21.966 12.4891C21.966 12.6158 21.9396 12.6651 21.7988 12.6721C21.1045 12.712 20.4499 13.0084 19.9619 13.5038C19.474 13.9993 19.1876 14.6584 19.1583 15.3531C19.092 16.7584 20.1153 17.9971 21.5347 18.2283C21.9631 18.2981 21.9707 18.2981 21.9607 18.7447C21.949 19.3009 22.0141 19.8595 21.9226 20.4135C21.8454 20.8421 21.6249 21.2319 21.2974 21.5191C20.9698 21.8062 20.5546 21.9738 20.1194 21.9942C20.0391 21.9972 19.9587 21.9942 19.8783 21.9942C15.3179 21.9942 10.7575 21.9962 6.19705 22.0001C5.97056 22.0001 5.9154 21.9414 5.92361 21.7225C5.94122 21.2608 5.933 20.7984 5.92713 20.3366C5.92361 20.0579 5.76753 19.9047 5.52695 19.9258C5.32393 19.9417 5.20012 20.089 5.19777 20.3436C5.19249 20.8271 5.18839 21.3118 5.19777 21.7953C5.20188 21.9649 5.14614 22.0013 4.98654 22.0001C3.98374 21.993 2.98035 22.0001 1.97756 21.996C0.851539 21.9907 0.0124518 21.1463 0.00717083 20.0174C0.00423696 19.4969 0.00717066 18.9759 0.00423679 18.4554C0.00423679 18.3263 0.0200797 18.2653 0.180269 18.2565C1.61669 18.1749 2.7433 17.019 2.81312 15.5685C2.88002 14.1848 1.85844 12.9338 0.47483 12.7044C0.43845 12.6985 0.403243 12.688 0.36745 12.6821C0.00951789 12.6234 0.00247618 12.6234 0.0112778 12.2649C0.0253604 11.6781 -0.0438785 11.0914 0.0511789 10.5081C0.127621 10.0752 0.351556 9.68208 0.684955 9.39553C1.01835 9.10898 1.44066 8.94666 1.88015 8.93615C2.92696 8.92441 3.97376 8.93615 5.02057 8.92852C5.17372 8.92852 5.20071 8.9872 5.1966 9.11981C5.19073 9.63324 5.1966 10.1467 5.1966 10.6601C5.1966 10.8561 5.24296 11.0268 5.45713 11.0931C5.71707 11.1735 5.92655 10.9957 5.92655 10.6789C5.93183 10.1801 5.93711 9.68135 5.92655 9.18259C5.92127 8.98779 5.96762 8.92618 6.17534 8.92676C8.49662 8.93556 10.8173 8.93263 13.1374 8.93263ZM5.93183 13.6855C5.93183 13.466 5.93476 13.2472 5.93183 13.0277C5.92713 12.7643 5.7822 12.5923 5.57096 12.5888C5.35972 12.5853 5.20481 12.7578 5.20188 13.0183C5.1964 13.4643 5.1964 13.9102 5.20188 14.3562C5.20481 14.6155 5.36207 14.7892 5.57272 14.7839C5.78337 14.7787 5.92479 14.6079 5.93183 14.3433C5.93535 14.1232 5.93183 13.9032 5.93183 13.6837V13.6855ZM5.93183 17.3593C5.93183 17.1328 5.93594 16.9063 5.93183 16.6798C5.92537 16.4128 5.78161 16.2562 5.55864 16.2603C5.33567 16.2644 5.20658 16.4146 5.20188 16.671C5.19601 17.124 5.19601 17.5768 5.20188 18.0294C5.2054 18.2846 5.34916 18.4372 5.56216 18.4401C5.77516 18.4431 5.92479 18.2835 5.93124 18.0153C5.93535 17.7959 5.93183 17.577 5.93183 17.3575V17.3593Z" fill="currentColor"/>
<path d="M19.3468 8.21488H19.0592C13.65 8.21488 8.2405 8.21586 2.83084 8.21781C2.15663 8.21781 1.46893 8.12452 0.792969 8.47834C0.855071 8.29666 0.949494 8.12769 1.07169 7.97958C1.3903 7.56884 1.71714 7.16221 2.02637 6.74736C2.11967 6.62238 2.17541 6.60067 2.31447 6.69396C3.91813 7.76717 6.06983 6.97679 6.56624 5.11671C6.85669 4.02649 6.56624 3.07298 5.74475 2.29726C5.6274 2.18695 5.61273 2.13062 5.71659 2.00388C6.05398 1.58903 6.37026 1.15716 6.70706 0.741728C7.39535 -0.107334 8.54367 -0.245227 9.40916 0.420175C10.2201 1.04216 11.0222 1.6835 11.8343 2.30548C11.9517 2.39408 11.9581 2.44865 11.8683 2.56073C11.5474 2.96032 11.2346 3.36695 10.9219 3.773C10.7599 3.98365 10.7728 4.20252 10.9471 4.33572C11.1214 4.46892 11.3344 4.41845 11.4981 4.21015C11.819 3.79941 12.14 3.3916 12.4539 2.97792C12.5243 2.88463 12.5713 2.88169 12.6593 2.95152C14.8738 4.68367 17.0894 6.41446 19.3063 8.14388C19.3223 8.16603 19.3359 8.18983 19.3468 8.21488ZM10.1696 5.82788C10.1696 5.62662 10.0986 5.50868 9.94488 5.44941C9.76885 5.38194 9.6292 5.43944 9.51888 5.57851C9.23841 5.93292 8.96008 6.28948 8.68391 6.64819C8.51492 6.86706 8.5243 7.09473 8.7021 7.22734C8.87989 7.35995 9.0747 7.32005 9.24721 7.10118C9.52299 6.75205 9.79408 6.39705 10.0687 6.0491C10.1247 5.98777 10.16 5.91038 10.1696 5.82788Z" fill="currentColor"/>
</svg>
