<svg width="74" height="52" viewBox="0 0 74 52" fill="none" xmlns="http://www.w3.org/2000/svg">
<path d="M21.3152 0H58.624L45.5883 31.0016L50.3519 37.6017L42.4882 51.67L42.4475 37.9139L16 33.6378L21.3152 0Z" fill="#FF9100"/>
<path d="M73.6918 24.8365C73.6918 25.9971 73.4632 27.1464 73.019 28.2186C72.5748 29.2908 71.9237 30.2651 71.1029 31.0856C70.2821 31.9062 69.3077 32.5571 68.2354 33.001C67.163 33.445 66.0138 33.6733 64.8532 33.673H8.83652C6.49293 33.673 4.24533 32.742 2.58816 31.0849C0.930989 29.4277 0 27.1801 0 24.8365C0 22.4929 0.930989 20.2453 2.58816 18.5882C4.24533 16.931 6.49293 16 8.83652 16H64.8532C66.0138 15.9997 67.163 16.2281 68.2354 16.672C69.3077 17.116 70.2821 17.7668 71.1029 18.5874C71.9237 19.408 72.5748 20.3822 73.019 21.4544C73.4632 22.5267 73.6918 23.6759 73.6918 24.8365Z" fill="url(#paint0_linear_5301_4082)"/>
<path d="M17.8374 30H16.3232L19.7255 20.5455H21.3736L24.7759 30H23.2617L20.5888 22.2628H20.5149L17.8374 30ZM18.0913 26.2976H23.0032V27.4979H18.0913V26.2976ZM26.0305 30V22.9091H27.3646V24.0355H27.4385C27.5677 23.6539 27.7955 23.3538 28.1217 23.1353C28.451 22.9137 28.8234 22.8029 29.2389 22.8029C29.3251 22.8029 29.4266 22.806 29.5436 22.8121C29.6636 22.8183 29.7575 22.826 29.8252 22.8352V24.1555C29.7698 24.1402 29.6713 24.1232 29.5297 24.1048C29.3882 24.0832 29.2466 24.0724 29.105 24.0724C28.7788 24.0724 28.488 24.1417 28.2325 24.2802C27.9801 24.4156 27.7801 24.6049 27.6324 24.848C27.4846 25.0881 27.4108 25.362 27.4108 25.6697V30H26.0305ZM31.0197 30V22.9091H32.3539V24.0355H32.4277C32.557 23.6539 32.7847 23.3538 33.111 23.1353C33.4403 22.9137 33.8127 22.8029 34.2282 22.8029C34.3143 22.8029 34.4159 22.806 34.5328 22.8121C34.6529 22.8183 34.7467 22.826 34.8145 22.8352V24.1555C34.7591 24.1402 34.6606 24.1232 34.519 24.1048C34.3774 24.0832 34.2359 24.0724 34.0943 24.0724C33.7681 24.0724 33.4772 24.1417 33.2218 24.2802C32.9694 24.4156 32.7694 24.6049 32.6216 24.848C32.4739 25.0881 32.4 25.362 32.4 25.6697V30H31.0197ZM36.009 30V22.9091H37.3893V30H36.009ZM36.7061 21.815C36.466 21.815 36.2598 21.735 36.0874 21.5749C35.9182 21.4118 35.8335 21.2179 35.8335 20.9933C35.8335 20.7655 35.9182 20.5716 36.0874 20.4116C36.2598 20.2485 36.466 20.1669 36.7061 20.1669C36.9461 20.1669 37.1508 20.2485 37.32 20.4116C37.4924 20.5716 37.5786 20.7655 37.5786 20.9933C37.5786 21.2179 37.4924 21.4118 37.32 21.5749C37.1508 21.735 36.9461 21.815 36.7061 21.815ZM45.3123 22.9091L42.7409 30H41.2637L38.6877 22.9091H40.1696L41.9654 28.3658H42.0392L43.8304 22.9091H45.3123ZM48.47 30.157C48.0207 30.157 47.6144 30.0739 47.2512 29.9077C46.8881 29.7384 46.6003 29.4937 46.388 29.1737C46.1787 28.8536 46.074 28.4612 46.074 27.9964C46.074 27.5964 46.151 27.267 46.3049 27.0085C46.4587 26.75 46.6665 26.5453 46.9281 26.3945C47.1897 26.2437 47.4821 26.1299 47.8052 26.0529C48.1284 25.976 48.4577 25.9175 48.7931 25.8775C49.2179 25.8282 49.5626 25.7882 49.8272 25.7575C50.0919 25.7236 50.2843 25.6697 50.4043 25.5959C50.5243 25.522 50.5843 25.402 50.5843 25.2358V25.2035C50.5843 24.8003 50.4705 24.4879 50.2427 24.2663C50.0181 24.0447 49.6826 23.9339 49.2363 23.9339C48.7716 23.9339 48.4054 24.037 48.1376 24.2433C47.8729 24.4464 47.6898 24.6726 47.5882 24.9219L46.291 24.6264C46.4449 24.1955 46.6696 23.8478 46.965 23.5831C47.2636 23.3153 47.6067 23.1214 47.9945 23.0014C48.3823 22.8783 48.7901 22.8168 49.2179 22.8168C49.501 22.8168 49.8011 22.8506 50.1181 22.9183C50.4382 22.983 50.7367 23.103 51.0137 23.2784C51.2937 23.4538 51.523 23.7047 51.7015 24.0309C51.88 24.354 51.9693 24.7741 51.9693 25.2912V30H50.6213V29.0305H50.5659C50.4766 29.209 50.3427 29.3845 50.1642 29.5568C49.9857 29.7292 49.7565 29.8723 49.4764 29.9862C49.1963 30.1 48.8609 30.157 48.47 30.157ZM48.7701 29.049C49.1517 29.049 49.4779 28.9736 49.7488 28.8228C50.0227 28.672 50.2304 28.475 50.372 28.2319C50.5166 27.9857 50.589 27.7225 50.589 27.4425V26.5284C50.5397 26.5777 50.4443 26.6238 50.3027 26.6669C50.1642 26.7069 50.0057 26.7423 49.8272 26.7731C49.6487 26.8008 49.4748 26.8269 49.3056 26.8516C49.1363 26.8731 48.9947 26.8916 48.8809 26.907C48.6131 26.9408 48.3684 26.9978 48.1468 27.0778C47.9283 27.1578 47.7529 27.2732 47.6206 27.424C47.4913 27.5717 47.4267 27.7687 47.4267 28.0149C47.4267 28.3565 47.5529 28.6151 47.8052 28.7905C48.0576 28.9628 48.3792 29.049 48.7701 29.049ZM55.1881 20.5455V30H53.8078V20.5455H55.1881Z" fill="black"/>
<path d="M32.669 5.72727V13H31.6605L27.9638 7.66619H27.8963V13H26.799V5.72727H27.8146L31.5149 11.0682H31.5824V5.72727H32.669ZM36.5353 13.1101C35.9979 13.1101 35.5351 12.9953 35.1468 12.7656C34.7609 12.5336 34.4627 12.2081 34.252 11.7891C34.0436 11.3677 33.9395 10.8741 33.9395 10.3082C33.9395 9.74953 34.0436 9.2571 34.252 8.83097C34.4627 8.40483 34.7562 8.07221 35.1326 7.8331C35.5114 7.59399 35.9541 7.47443 36.4608 7.47443C36.7685 7.47443 37.0668 7.52533 37.3556 7.62713C37.6445 7.72893 37.9037 7.88873 38.1333 8.10653C38.363 8.32434 38.5441 8.60724 38.6767 8.95526C38.8092 9.3009 38.8755 9.72112 38.8755 10.2159V10.5923H34.5396V9.79688H37.835C37.835 9.51752 37.7782 9.27012 37.6646 9.05469C37.551 8.83688 37.3912 8.66525 37.1852 8.53977C36.9816 8.4143 36.7425 8.35156 36.4679 8.35156C36.1696 8.35156 35.9092 8.42495 35.6866 8.57173C35.4664 8.71615 35.296 8.90554 35.1752 9.13991C35.0569 9.37192 34.9977 9.62405 34.9977 9.89631V10.5178C34.9977 10.8823 35.0616 11.1925 35.1895 11.4482C35.3197 11.7038 35.5008 11.8991 35.7328 12.0341C35.9648 12.1667 36.2359 12.233 36.546 12.233C36.7472 12.233 36.9307 12.2045 37.0964 12.1477C37.2621 12.0885 37.4054 12.0009 37.5261 11.8849C37.6468 11.7689 37.7392 11.6257 37.8031 11.4553L38.8081 11.6364C38.7276 11.9323 38.5832 12.1915 38.3748 12.4141C38.1689 12.6342 37.9096 12.8059 37.5971 12.929C37.287 13.0497 36.9331 13.1101 36.5353 13.1101ZM41.2264 13L39.6213 7.54545H40.7186L41.7875 11.5511H41.8407L42.9132 7.54545H44.0105L45.0758 11.5334H45.1291L46.1909 7.54545H47.2882L45.6866 13H44.6035L43.4956 9.06179H43.4139L42.3059 13H41.2264Z" fill="black"/>
<defs>
<linearGradient id="paint0_linear_5301_4082" x1="-7.58981e-07" y1="24.8365" x2="12.7899" y2="52.7458" gradientUnits="userSpaceOnUse">
<stop stop-color="#BFE596"/>
<stop offset="1" stop-color="#74DB02"/>
</linearGradient>
</defs>
</svg>
