<svg width="72" height="54" viewBox="0 0 72 54" fill="none" xmlns="http://www.w3.org/2000/svg">
<path d="M6.39205 40.1343C8.19623 46.0483 14.3202 51.3301 24.106 51.3301C33.8918 51.3301 58.6939 47.8674 60.9331 34.7839C62.4866 25.703 53.785 -5.71365 30.2513 0.909523C20.8341 3.56222 3.12867 29.4378 6.39205 40.1343Z" fill="#F37422"/>
<g opacity="0.8">
<path d="M56.5942 19.2338C56.7699 12.1885 57.8541 7.13171 63.9716 9.82941C70.0891 12.5271 74.1946 21.3337 70.3269 24.4428C66.4593 27.5519 56.3799 28.0105 56.5942 19.2338Z" fill="#6F9C3D"/>
</g>
<path opacity="0.8" d="M28.1472 11.3551C12.291 14.9592 0.0581113 20.2474 0.000257579 29.7504C-0.00889076 31.2195 0.225709 32.68 0.694503 34.0723C2.87795 40.8155 24.7424 53.9997 36.5852 53.9997C48.4281 53.9997 56.8983 41.7176 64.0465 28.1605C64.7793 26.7699 65.3321 24.7579 65.3085 22.5573C65.3385 14.7535 58.4239 4.47694 28.1472 11.3551Z" fill="#FFBE00"/>
<g opacity="0.8">
<path d="M12.5463 7.67022C10.2836 7.32953 8.58011 7.06812 8.23727 9.33084C8.00585 10.8672 8.53511 12.8621 10.8085 13.2028C13.082 13.5434 17.1853 13.7341 16.6839 11.5014C16.4096 10.3186 14.8112 8.01092 12.5463 7.67022Z" fill="#6F9C3D"/>
</g>
<path d="M20.4265 25.352C20.375 25.2935 20.3133 25.2449 20.2443 25.2085C20.1159 25.129 19.9803 25.0616 19.8394 25.007C19.6619 24.9365 19.4783 24.8827 19.2908 24.8463C19.0862 24.8055 18.8762 24.799 18.6694 24.8271C18.0823 24.9042 17.7524 25.1656 17.6731 25.6113C17.6455 25.7214 17.6585 25.8378 17.7095 25.9391C17.7647 26.0326 17.8469 26.1073 17.9452 26.1534C18.0813 26.2179 18.2255 26.264 18.3737 26.2905L18.9887 26.4105C19.2797 26.4638 19.5662 26.539 19.8458 26.6355C20.0769 26.7105 20.2874 26.8381 20.4608 27.0084C20.6241 27.1798 20.7362 27.3936 20.7843 27.6255C20.8409 27.934 20.8365 28.2507 20.7715 28.5575C20.7056 28.9749 20.5601 29.3757 20.3429 29.7382C20.1503 30.0575 19.9038 30.341 19.6144 30.576C19.3357 30.7996 19.0242 30.9788 18.6909 31.1074C18.3652 31.2335 18.0257 31.3205 17.6795 31.3667C17.4182 31.4014 17.1544 31.4136 16.891 31.4031C16.6336 31.3952 16.3776 31.3636 16.126 31.3088C15.8865 31.2585 15.652 31.1868 15.4253 31.0945C15.2112 31.0102 15.0088 30.8986 14.8232 30.7624L15.826 29.0482C15.8873 29.1194 15.9596 29.1802 16.0403 29.2282C16.1995 29.325 16.3691 29.4033 16.546 29.4618C16.7649 29.5452 16.9908 29.609 17.221 29.6525C17.4812 29.7001 17.7474 29.7059 18.0095 29.6696C18.5902 29.5946 18.9137 29.3546 18.9844 28.954C19.0003 28.8936 19.0027 28.8304 18.9916 28.769C18.9805 28.7076 18.9561 28.6493 18.9201 28.5983C18.8354 28.5018 18.7279 28.4281 18.6073 28.384C18.4433 28.3176 18.2732 28.2674 18.0995 28.234L17.4567 28.0969C17.1863 28.0377 16.9228 27.9508 16.6703 27.8376C16.4724 27.7517 16.2965 27.622 16.156 27.4583C16.0266 27.2973 15.9417 27.1052 15.9096 26.9012C15.8734 26.6425 15.8814 26.3795 15.9332 26.1234C16.0005 25.719 16.1383 25.3295 16.3403 24.9728C16.6149 24.4848 16.9989 24.0671 17.4621 23.7525C17.9254 23.438 18.4553 23.2352 19.0101 23.16C19.2481 23.1284 19.4889 23.1234 19.728 23.145C19.9485 23.1652 20.1671 23.2032 20.3815 23.2586C20.5761 23.3129 20.7654 23.3846 20.9472 23.4729C21.1077 23.5478 21.2643 23.6307 21.4164 23.7214L20.4265 25.352Z" fill="black"/>
<path d="M21.3252 30.7966L22.7394 22.7464L25.7692 22.35C26.072 22.3 26.3827 22.3402 26.6627 22.4657C26.9131 22.5821 27.1271 22.7643 27.282 22.9928C27.4468 23.2369 27.5585 23.5128 27.6098 23.8028C27.6688 24.1215 27.6688 24.4483 27.6098 24.767C27.5461 25.1288 27.4306 25.4795 27.267 25.8084C27.103 26.1444 26.8971 26.4583 26.6542 26.7426C26.4193 27.0192 26.1424 27.2571 25.8335 27.4476C25.5385 27.6317 25.2076 27.7508 24.8628 27.7968L23.4229 27.9854L22.9708 30.5824L21.3252 30.7966ZM23.6993 26.3633L25.0385 26.1876C25.2596 26.1463 25.4561 26.0212 25.5871 25.8384C25.78 25.5895 25.9029 25.2936 25.9428 24.9813C25.9749 24.8241 25.9815 24.6627 25.9621 24.5034C25.9501 24.3902 25.9112 24.2814 25.8485 24.1863C25.7964 24.1095 25.7214 24.051 25.6342 24.0192C25.5471 23.9915 25.455 23.9827 25.3642 23.9935L24.0786 24.1606L23.6993 26.3633Z" fill="black"/>
<path d="M32.827 27.6939L32.5441 29.3288L27.5537 29.9716L28.9529 21.9299L33.8533 21.2871L33.5684 22.9199L30.3093 23.3484L30.035 24.9126L32.8355 24.5462L32.572 26.0461L29.7714 26.4125L29.4757 28.1267L32.827 27.6939Z" fill="black"/>
<path d="M33.697 25.1757C33.7912 24.6632 33.9563 24.1663 34.1876 23.6994C34.4311 23.1996 34.7426 22.7359 35.1133 22.3216C35.4852 21.9015 35.9187 21.5403 36.3989 21.2502C36.8749 20.9592 37.4074 20.7729 37.961 20.7038C38.5244 20.5983 39.107 20.6898 39.6109 20.9631C40.0356 21.2133 40.3485 21.6166 40.4851 22.0902L39.0495 23.2515C39.0168 23.0743 38.9435 22.9071 38.8352 22.763C38.7414 22.6441 38.623 22.5469 38.4881 22.478C38.3591 22.41 38.2177 22.3685 38.0724 22.3559C37.9258 22.3387 37.7777 22.3387 37.631 22.3559C37.3237 22.3942 37.0299 22.5051 36.7739 22.6794C36.5165 22.8526 36.288 23.0651 36.0968 23.3094C35.9029 23.5589 35.7436 23.8335 35.6233 24.1258C35.5042 24.4111 35.4165 24.7086 35.3619 25.0129C35.3064 25.3103 35.2963 25.6145 35.3319 25.915C35.3581 26.1734 35.4392 26.4232 35.5697 26.6478C35.6863 26.847 35.8593 27.0073 36.0668 27.1085C36.2978 27.2146 36.5553 27.249 36.8061 27.207C36.9653 27.1844 37.1213 27.1434 37.271 27.0849C37.4414 27.019 37.6039 26.9342 37.7553 26.832C37.9221 26.7203 38.0746 26.5886 38.2096 26.4399C38.3624 26.2753 38.4902 26.089 38.5888 25.8871L39.7737 26.6071C39.6129 26.9214 39.4064 27.2103 39.1609 27.4642C38.9131 27.7243 38.6355 27.9545 38.3338 28.1498C38.0396 28.3406 37.7265 28.5007 37.3996 28.6277C37.1029 28.7438 36.7937 28.8251 36.4782 28.8698C36.0204 28.9433 35.5511 28.8838 35.1262 28.6984C34.7436 28.5211 34.4163 28.2434 34.1791 27.8948C33.9293 27.5207 33.764 27.0966 33.6948 26.6521C33.6101 26.1635 33.6109 25.664 33.697 25.1757Z" fill="black"/>
<path d="M40.2725 28.3172L41.676 20.267L43.3151 20.0527L41.9138 28.103L40.2725 28.3172Z" fill="black"/>
<path d="M46.6067 19.6196L48.0874 19.4268L49.2744 27.1406L47.5924 27.3549L47.3567 25.6257L45.1475 25.9149L44.2904 27.7877L42.6084 28.002L46.6067 19.6196ZM47.3117 24.3807L46.9774 21.6445L45.6318 24.6015L47.3117 24.3807Z" fill="black"/>
<path d="M49.9756 27.0467L51.3769 18.9965L53.0183 18.7822L51.8976 25.2104L55.3388 24.7604L55.0539 26.3932L49.9756 27.0467Z" fill="black"/>
<path d="M17.3475 44.1906C16.7683 44.2838 16.1746 44.2133 15.6333 43.987C15.1577 43.7758 14.7482 43.4396 14.4484 43.0142C14.1377 42.5582 13.9307 42.0396 13.842 41.495C13.736 40.8814 13.7404 40.2537 13.8548 39.6416C13.9762 38.9599 14.1994 38.3005 14.5169 37.6852C14.8381 37.052 15.2448 36.4658 15.7254 35.9432C16.1907 35.4327 16.7295 34.9943 17.3239 34.6426C17.8891 34.3041 18.5178 34.0853 19.1709 33.9997C19.7501 33.9053 20.3442 33.9758 20.8851 34.2033C21.3627 34.4145 21.7722 34.7543 22.0679 35.1847C22.3785 35.6425 22.5834 36.1636 22.6679 36.7103C22.7696 37.3157 22.7652 37.9342 22.655 38.538C22.5326 39.219 22.3087 39.8777 21.9908 40.4922C21.6708 41.1235 21.2672 41.7087 20.7909 42.2321C20.3265 42.7443 19.7894 43.1855 19.1967 43.5413C18.6317 43.8831 18.0021 44.1042 17.3475 44.1906ZM15.9247 39.3951C15.8592 39.7599 15.8441 40.1319 15.8797 40.5008C15.9062 40.8209 15.9996 41.1319 16.154 41.4136C16.2937 41.6653 16.5067 41.8686 16.7647 41.9964C17.0632 42.1341 17.3965 42.1775 17.7203 42.1207C18.1044 42.0735 18.4717 41.9354 18.7917 41.7179C19.1188 41.5014 19.4083 41.2328 19.6488 40.9229C19.8919 40.6056 20.0935 40.2585 20.2487 39.8901C20.4041 39.5272 20.517 39.1476 20.5851 38.7588C20.6525 38.3942 20.6683 38.022 20.6323 37.6531C20.6028 37.333 20.5025 37.0234 20.3387 36.7467C20.1953 36.5009 19.982 36.3032 19.7259 36.1789C19.4285 36.0454 19.0978 36.0043 18.7767 36.0611C18.3931 36.1045 18.0256 36.2398 17.7053 36.4553C17.3844 36.669 17.0994 36.9322 16.8611 37.2353C16.6128 37.5487 16.4087 37.8948 16.2547 38.2638C16.1014 38.6269 15.9907 39.0066 15.9247 39.3951Z" fill="black"/>
<path d="M22.9678 43.3723L24.7184 33.3186L30.7395 32.5322L30.3838 34.5721L26.4133 35.0906L26.0362 37.2569L29.3081 36.8284L28.9781 38.7119L25.7083 39.1404L25.0162 43.1045L22.9678 43.3723Z" fill="black"/>
<path d="M30.0732 42.4424L31.8239 32.3909L37.8449 31.6045L37.4871 33.6444L33.5166 34.1629L33.1395 36.3185L36.4114 35.89L36.0836 37.7734L32.8117 38.202L32.1217 42.166L30.0732 42.4424Z" fill="black"/>
<path d="M43.7635 38.658L43.4078 40.6957L37.1768 41.5121L38.9295 31.4606L45.047 30.6592L44.6935 32.6991L40.6223 33.2305L40.2816 35.1846L43.7764 34.7282L43.4485 36.6095L39.9537 37.0681L39.5809 39.2108L43.7635 38.658Z" fill="black"/>
<path d="M44.6572 40.5328L46.4078 30.4813L50.404 29.9585C50.7782 29.8995 51.1615 29.9501 51.5075 30.1042C51.8211 30.2525 52.0907 30.48 52.2896 30.7641C52.4985 31.0679 52.6402 31.4127 52.7053 31.7755C52.7793 32.1728 52.7793 32.5803 52.7053 32.9776C52.6513 33.2897 52.5659 33.5955 52.4503 33.8904C52.3338 34.1885 52.1904 34.4754 52.0218 34.7475C51.8557 35.0151 51.6625 35.2649 51.4454 35.4931C51.2357 35.7163 51.003 35.9167 50.7512 36.091L52.0368 39.5729L49.7376 39.8686L48.6041 36.8495L47.2692 37.0252L46.7035 40.265L44.6572 40.5328ZM47.6228 34.9982L49.4955 34.7539C49.7796 34.6947 50.0285 34.5251 50.1876 34.2825C50.414 33.9791 50.5613 33.6242 50.6162 33.2497C50.6588 33.0905 50.6693 32.9244 50.6473 32.7611C50.6252 32.5978 50.5709 32.4405 50.4876 32.2983C50.4281 32.1994 50.3411 32.12 50.2373 32.0698C50.1334 32.0195 50.0171 32.0007 49.9026 32.0155L48.1006 32.2469L47.6228 34.9982Z" fill="black"/>
</svg>
