<svg width="68" height="70" viewBox="0 0 68 70" fill="none" xmlns="http://www.w3.org/2000/svg">
<g clip-path="url(#clip0_5301_4089)">
<path d="M33.7528 64.6117C40.9852 61.6352 41.576 54.2753 48.1167 53.5523C53.8151 52.9224 56.0606 58.2116 60.05 57.2008C66.1283 55.6629 69.7566 41.1537 67.1378 29.3026C64.4335 17.0653 53.5739 0.900067 35.9522 0.0347362C16.1683 -0.93549 1.47995 18.0473 0.80169 34.5337C0.729253 36.3167 0.358126 51.2518 11.9633 59.9079C12.5433 60.3405 23.9764 68.6366 33.7528 64.6117Z" fill="#F4F7FA"/>
<mask id="mask0_5301_4089" style="mask-type:luminance" maskUnits="userSpaceOnUse" x="20" y="31" width="22" height="33">
<path d="M24.6591 63.3512L20.4795 59.9118C20.4795 59.9118 21.4673 57.1331 23.7438 56.4718C28.3887 55.1221 26.8755 51.1723 26.4906 49.4236C25.9111 46.7866 26.5558 44.211 29.6462 45.4013C32.7366 46.5917 33.4096 40.8572 31.8548 36.7327C30.3336 32.6964 36.6729 27.679 40.7726 36.1141C43.2208 41.1517 39.1442 44.7986 37.526 47.1267C35.9077 49.4548 39.0076 52.3081 35.6865 54.0462C32.8499 55.5311 29.6694 55.6986 29.7496 58.3909C29.8297 61.0831 28.5176 62.9461 24.6591 63.3512Z" fill="white"/>
</mask>
<g mask="url(#mask0_5301_4089)">
<path d="M24.6591 63.3512L20.4795 59.9118C20.4795 59.9118 21.4673 57.1331 23.7438 56.4718C28.3887 55.1221 26.8755 51.1723 26.4906 49.4236C25.9111 46.7866 26.563 44.5334 29.4386 45.089C32.6917 45.7179 33.4096 40.8572 31.8548 36.7327C30.3336 32.6964 36.6729 27.679 40.7726 36.1141C43.2208 41.1517 39.1442 44.7986 37.526 47.1267C35.9077 49.4548 39.0076 52.3081 35.6865 54.0462C32.8499 55.5311 29.6694 55.6986 29.7496 58.3909C29.8297 61.0831 28.5176 62.9461 24.6591 63.3512Z" fill="url(#paint0_linear_5301_4089)"/>
<g style="mix-blend-mode:soft-light" opacity="0.5">
<path d="M22.5297 62.2485L22.4561 62.1612C22.5104 62.1158 27.9345 57.558 31.9413 51.4277C35.6324 45.7804 38.8409 37.6038 33.164 30.7224L33.2526 30.6504C35.7797 33.7135 36.7866 37.2836 36.2453 41.26C35.8131 44.4374 34.3969 47.8795 32.0359 51.4911C28.0197 57.6357 22.584 62.2029 22.5297 62.2485Z" fill="#BEB8F2"/>
<path d="M35.9466 42.913L35.8682 42.8299C38.6428 40.2315 40.9586 35.2028 40.9818 35.1523L41.0861 35.2004C41.0629 35.25 38.7377 40.3004 35.9466 42.913Z" fill="#BEB8F2"/>
<path d="M36.2349 40.2528C34.7963 35.9694 31.285 34.569 31.251 34.5553L31.2925 34.4492C31.3285 34.4629 34.8873 35.8808 36.3436 40.2168L36.2349 40.2528Z" fill="#BEB8F2"/>
<path d="M29.1019 55.2934C31.5583 50.3463 26.7448 44.6769 26.6934 44.6255L26.7689 44.54C26.8242 44.5856 31.6829 50.3528 29.2045 55.3438L29.1019 55.2934Z" fill="#BEB8F2"/>
<path d="M30.5881 53.5641L30.5156 53.4751C33.2818 51.2768 37.7002 51.8337 37.7447 51.8397L37.7294 51.9525C37.6862 51.9465 33.3153 51.3966 30.5881 53.5641Z" fill="#BEB8F2"/>
<path d="M23.2936 61.4258C24.5065 59.7115 23.256 56.5349 23.2432 56.5032L23.3494 56.4609C23.4025 56.5934 24.6359 59.7254 23.3873 61.4911L23.2936 61.4258Z" fill="#BEB8F2"/>
<path d="M24.5932 60.3627L24.5186 60.2765C25.7823 59.1964 28.8629 59.3685 29.8751 59.4251C30.018 59.4331 30.1407 59.44 30.1648 59.4369L30.1822 59.5495C30.1508 59.5543 30.0687 59.5495 29.8695 59.5387C28.8677 59.4827 25.8219 59.3111 24.5932 60.3627Z" fill="#BEB8F2"/>
</g>
</g>
<path d="M18.2862 54.9459C19.501 54.7697 20.3647 55.5839 20.8971 56.2702C20.8584 56.3811 20.8647 56.4545 20.8507 56.5745C20.7249 57.6573 20.4402 58.0925 20.1459 59.1403C20.0829 59.3657 19.6951 59.9715 19.5205 60.2089L19.1883 60.6465C19.1883 60.6465 16.3632 60.7084 16.1514 59.1242C15.9397 57.54 13.2489 57.2606 11.8424 56.9377C10.9784 56.7397 10.6472 56.3741 10.3415 56.2505C7.10593 54.9437 5.79046 55.6024 5.00089 54.5359C4.12947 53.3573 5.48381 52.2162 4.60321 50.8845C3.60937 49.3809 1.21604 49.8262 0.595004 48.1944C0.488762 47.9145 0.387105 47.6241 0.404007 47.2256C0.445538 46.2415 1.21821 45.6915 0.69569 44.8032C-0.354654 43.0173 -0.147966 40.7307 1.85469 39.9688C3.83127 39.2166 6.35306 41.7048 7.47922 46.2455C8.6503 49.384 9.25056 49.6193 10.8152 49.902C11.9114 50.1 15.0149 49.9152 15.5719 51.7681C16.129 53.6209 16.8978 55.1473 18.2862 54.9459Z" fill="#F7931E"/>
<mask id="mask1_5301_4089" style="mask-type:luminance" maskUnits="userSpaceOnUse" x="0" y="39" width="22" height="22">
<path d="M21.5116 57.1958L19.3083 60.5935C19.3083 60.5935 16.3625 60.7084 16.151 59.1242C15.9394 57.54 13.2484 57.2606 11.8419 56.9377C8.02492 56.0623 9.86459 51.9315 5.07261 50.3941C3.79819 49.986 1.20734 49.6565 0.595004 48.1944C-0.102569 46.5285 1.36767 45.9455 0.69569 44.8032C-0.354654 43.0173 -0.147966 40.7307 1.85469 39.9688C3.83127 39.2166 6.35306 41.7048 7.47922 46.2455C8.65029 49.3843 9.25056 49.6193 10.8152 49.902C11.9114 50.1 15.0149 49.9152 15.5719 51.7681C16.129 53.6209 16.898 55.1473 18.2864 54.9459C20.3985 54.6394 21.5116 57.1958 21.5116 57.1958Z" fill="white"/>
</mask>
<g mask="url(#mask1_5301_4089)">
<g style="mix-blend-mode:soft-light" opacity="0.5">
<path d="M20.3739 58.6193L20.3384 58.6913C19.9366 58.501 19.5341 58.3037 19.1417 58.1049C16.2377 56.6333 13.5894 54.9249 11.2702 53.0269C9.30542 51.4187 7.54905 49.652 6.05008 47.7764C4.84448 46.2682 3.79799 44.6814 2.93961 43.0599C2.3557 41.9641 1.8542 40.8268 1.43919 39.6574C1.37086 39.4625 1.3117 39.2585 1.25448 39.0614C1.17818 38.7974 1.09946 38.5268 0.998047 38.2746L1.06879 38.2402C1.17141 38.4961 1.25085 38.7695 1.32739 39.0343C1.38437 39.2304 1.44329 39.4335 1.5109 39.6262C1.92492 40.7923 2.4253 41.9263 3.00794 43.0189C3.86415 44.636 4.90822 46.219 6.11093 47.7236C7.60797 49.5959 9.35975 51.3582 11.3206 52.9633C13.6357 54.8582 16.2797 56.5639 19.1794 58.0331C19.5705 58.2314 19.9726 58.4292 20.3739 58.6193Z" fill="#FCFDFE"/>
<path d="M8.03046 49.9209L7.9759 49.9795C5.69339 47.7185 0.147332 47.291 0.0917969 47.2858L0.101936 47.207C0.157955 47.2111 5.7296 47.6417 8.03046 49.9209Z" fill="#FCFDFE"/>
<path d="M14.9896 55.629L14.9413 55.6933C13.204 54.3568 13.0657 49.9325 13.0645 49.8883L13.1408 49.8809C13.1422 49.926 13.2798 54.3134 14.9896 55.629Z" fill="#FCFDFE"/>
<path d="M16.0445 56.2951L16.0078 56.3671C14.7281 55.7265 12.6093 55.5839 10.0385 55.9658C9.90928 55.9847 9.90928 55.9847 9.89648 55.9787L9.93246 55.9067L9.91459 55.9425L9.91845 55.9034C9.92714 55.9034 9.97592 55.8959 10.0327 55.8875C12.618 55.503 14.7529 55.648 16.0445 56.2951Z" fill="#FCFDFE"/>
<path d="M19.6461 58.2608L19.592 58.3196C18.4644 57.2123 18.7385 54.7474 18.7411 54.7227L18.817 54.7272C18.8141 54.751 18.5446 57.1789 19.6461 58.2608Z" fill="#FCFDFE"/>
<path d="M20.3389 58.7356C19.0544 58.6413 17.6776 58.9276 16.1296 59.6129L16.1035 59.5409C17.6636 58.8511 19.0522 58.562 20.3493 58.6573L20.3389 58.7356Z" fill="#FCFDFE"/>
<path d="M3.52916 43.9639L3.47168 44.0196C2.27526 42.6845 0.700225 41.59 0.18278 41.2304C0.0574629 41.1433 0.0137631 41.1125 0 41.0989L0.0552949 41.041C0.0656776 41.0513 0.137147 41.101 0.227935 41.1642C0.748037 41.5249 2.32694 42.6229 3.52916 43.9639Z" fill="#FCFDFE"/>
<path d="M5.14481 46.4536L5.07528 46.4904C4.38157 44.927 5.61589 41.5576 5.66877 41.415L5.73977 41.439C5.72697 41.4736 4.4639 44.9196 5.14481 46.4536Z" fill="#FCFDFE"/>
</g>
</g>
<path d="M22.7559 52.5583C22.5937 52.7837 21.4924 51.8248 19.5025 51.6659C19.0054 51.6263 16.3087 51.2233 15.2717 52.9815C15.0703 53.3229 14.8691 53.6641 14.668 54.0053C13.7191 53.8831 12.8477 53.5929 13.1196 52.3754C13.5419 50.4849 10.79 49.0068 9.56361 48.9492C8.04556 48.8771 4.51882 48.6371 5.12681 45.7087C5.63387 43.2687 6.44638 41.7721 3.92556 40.2757C1.40473 38.7793 0.586669 36.455 2.0784 34.0734C3.64788 31.5669 1.49889 27.729 3.75629 26.1796C7.69085 23.4796 11.6037 29.8024 10.8204 35.1615C10.0371 40.5205 12.9921 38.7457 15.1867 39.7279C15.4785 39.8786 15.7513 40.0631 15.9994 40.2776C17.9359 41.9559 17.0737 44.4485 17.991 47.0541C19.2417 50.6076 23.0293 52.1786 22.7559 52.5583Z" fill="#39B54A"/>
<mask id="mask2_5301_4089" style="mask-type:luminance" maskUnits="userSpaceOnUse" x="1" y="25" width="18" height="30">
<path d="M18.5051 48.5137L15.3966 54.1368C14.4532 54.0612 12.8156 53.7355 13.1194 52.3754C13.5417 50.4849 10.7898 49.0068 9.56343 48.9492C8.04538 48.8771 4.51864 48.6371 5.12663 45.7087C5.63369 43.2687 6.4462 41.7721 3.92537 40.2757C1.40455 38.7793 0.586735 36.455 2.07846 34.0734C3.64794 31.5669 1.49896 27.729 3.75635 26.1796C7.69092 23.4796 11.6038 29.8024 10.8205 35.1615C10.0372 40.5205 12.9921 38.7457 15.1868 39.7279C18.1825 41.069 15.3348 44.8474 15.887 46.5224C16.3221 47.8356 17.6424 48.3176 18.5051 48.5137Z" fill="white"/>
</mask>
<g mask="url(#mask2_5301_4089)">
<g style="mix-blend-mode:soft-light" opacity="0.5">
<path d="M16.1944 50.7129L16.1058 50.8207C8.68699 44.6714 4.44939 34.7335 5.047 24.8848H5.18149C4.58726 34.6929 8.80651 44.5893 16.1944 50.7129Z" fill="#FCFDFE"/>
<path d="M12.4519 46.9933L12.3851 47.1155C9.02419 45.3572 4.76003 46.9904 4.7173 47.007L4.6748 46.88C4.71803 46.8629 9.03795 45.2074 12.4519 46.9933Z" fill="#FCFDFE"/>
<path d="M14.862 49.5414L14.7475 49.6199C12.6732 46.3619 15.7858 39.6764 15.8187 39.6104L15.9394 39.6639C15.9082 39.7296 12.827 46.346 14.862 49.5414Z" fill="#FCFDFE"/>
<path d="M7.54573 38.8468L7.43805 38.9346C5.57278 36.5141 0.831988 36.2076 0.78418 36.2047L0.799389 36.0684C0.847439 36.0712 5.64618 36.3816 7.54573 38.8468Z" fill="#FCFDFE"/>
<path d="M5.73141 32.8862L5.59667 32.8979C5.48343 29.3147 8.697 25.5379 8.7296 25.5L8.82883 25.5867C8.79672 25.6239 5.61986 29.3586 5.73141 32.8862Z" fill="#FCFDFE"/>
</g>
</g>
<path d="M29.0794 13.6218C31.0493 30.1725 33.0192 46.5505 34.9891 62.7558C35.0775 63.4824 34.5726 64.124 33.8661 64.1847C25.9492 64.9316 18.0323 65.6945 10.1156 66.4737C8.70326 66.5419 7.92793 65.7574 7.8369 64.972C5.80865 47.4785 3.78105 29.8017 1.75409 11.9415C1.6633 11.1393 2.34687 10.45 3.75819 10.5184C11.7139 11.0823 19.6697 11.6388 27.6256 12.1878C28.3377 12.2344 28.9911 12.8794 29.0794 13.6218Z" fill="#26264F"/>
<path d="M30.1792 13.5877C32.1611 30.2104 34.1433 46.6584 36.1258 62.9317C36.2149 63.6607 35.7069 64.3069 34.9958 64.3671C26.7753 65.0594 18.5547 65.7653 10.334 66.4847C9.58402 66.551 8.89441 65.9603 8.8029 65.171C6.76257 47.5972 4.72225 29.838 2.68193 11.8935C2.59041 11.088 3.13418 10.4696 3.88922 10.5205C12.165 11.0694 20.4408 11.6116 28.7167 12.1472C29.4336 12.1945 30.0903 12.8419 30.1792 13.5877Z" fill="url(#paint1_linear_5301_4089)"/>
<path d="M29.7013 16.3079C31.5373 31.7091 33.3734 46.96 35.2094 62.0605C35.2925 62.743 34.8175 63.3457 34.1533 63.3995C26.4223 64.0282 18.6913 64.6683 10.9602 65.3197C10.2617 65.3793 9.61942 64.8265 9.53419 64.0932C7.64759 47.8613 5.76109 31.4708 3.87465 14.9217C3.78918 14.173 4.29527 13.5936 4.99815 13.6349C12.7775 14.0852 20.5567 14.5308 28.3358 14.9717C29.0042 15.0108 29.6185 15.6123 29.7013 16.3079Z" fill="url(#paint2_linear_5301_4089)"/>
<path style="mix-blend-mode:multiply" opacity="0.3" d="M28.3356 14.9725C20.6485 14.5371 12.9615 14.0971 5.27441 13.6523C5.53299 15.1523 5.98705 16.6123 6.62513 17.9956C9.17493 23.4948 12.9207 23.7975 14.3863 28.5898C15.8959 33.5269 12.4911 35.0708 14.1545 39.5297C15.9597 44.3667 20.3868 43.6667 22.7263 48.9725C24.7432 53.5456 22.1468 55.6361 24.2323 58.4153C26.5182 61.4613 30.7466 60.4287 35.1361 61.4604C33.3243 46.5552 31.5126 31.5043 29.7011 16.3076C29.6182 15.612 29.004 15.0105 28.3356 14.9725Z" fill="url(#paint3_linear_5301_4089)"/>
<path d="M17.1078 12.9421C17.1389 13.2097 16.9581 13.415 16.7033 13.4003C16.4486 13.3857 16.2166 13.1548 16.1852 12.8857C16.1538 12.6166 16.3351 12.4111 16.5901 12.4277C16.8451 12.4443 17.0764 12.6737 17.1078 12.9421Z" fill="#DE8BDF"/>
<path d="M19.5108 27.8256C20.4934 27.8256 21.2901 26.8914 21.2901 25.739C21.2901 24.5866 20.4934 23.6523 19.5108 23.6523C18.5281 23.6523 17.7314 24.5866 17.7314 25.739C17.7314 26.8914 18.5281 27.8256 19.5108 27.8256Z" fill="#6F9C3D"/>
<path d="M26.5928 27.8256C27.5755 27.8256 28.3721 26.8914 28.3721 25.739C28.3721 24.5866 27.5755 23.6523 26.5928 23.6523C25.6101 23.6523 24.8135 24.5866 24.8135 25.739C24.8135 26.8914 25.6101 27.8256 26.5928 27.8256Z" fill="#6F9C3D"/>
<path d="M23.4062 27.8256C24.4029 27.8256 25.2109 26.8914 25.2109 25.739C25.2109 24.5866 24.4029 23.6523 23.4062 23.6523C22.4095 23.6523 21.6016 24.5866 21.6016 25.739C21.6016 26.8914 22.4095 27.8256 23.4062 27.8256Z" fill="#D8DEE8"/>
<path d="M33.6758 27.8256C34.6585 27.8256 35.4551 26.8914 35.4551 25.739C35.4551 24.5866 34.6585 23.6523 33.6758 23.6523C32.6931 23.6523 31.8965 24.5866 31.8965 25.739C31.8965 26.8914 32.6931 27.8256 33.6758 27.8256Z" fill="#6F9C3D"/>
<path d="M30.4892 27.8256C31.4859 27.8256 32.2939 26.8914 32.2939 25.739C32.2939 24.5866 31.4859 23.6523 30.4892 23.6523C29.4925 23.6523 28.6846 24.5866 28.6846 25.739C28.6846 26.8914 29.4925 27.8256 30.4892 27.8256Z" fill="#D8DEE8"/>
<path d="M37.5713 27.8256C38.5679 27.8256 39.3759 26.8914 39.3759 25.739C39.3759 24.5866 38.5679 23.6523 37.5713 23.6523C36.5746 23.6523 35.7666 24.5866 35.7666 25.739C35.7666 26.8914 36.5746 27.8256 37.5713 27.8256Z" fill="#D8DEE8"/>
<path d="M16.3242 27.8256C17.3209 27.8256 18.1289 26.8914 18.1289 25.739C18.1289 24.5866 17.3209 23.6523 16.3242 23.6523C15.3275 23.6523 14.5195 24.5866 14.5195 25.739C14.5195 26.8914 15.3275 27.8256 16.3242 27.8256Z" fill="#D8DEE8"/>
<path d="M3.51758 13.4297L14.5583 26.022H43.0545L29.2462 15.0245L3.51758 13.4297Z" fill="#6F9C3D"/>
<path d="M3.51758 13.4297L14.5583 26.022H18.1287L6.48752 13.6138L3.51758 13.4297Z" fill="#F4F7FA"/>
<path d="M9.67578 13.8105L21.647 26.0212H25.174L12.8881 14.0098L9.67578 13.8105Z" fill="#F4F7FA"/>
<path d="M16.125 14.2109L28.7098 26.0219H32.2537L19.3859 14.4133L16.125 14.2109Z" fill="#F4F7FA"/>
<path d="M25.9828 14.8214L22.6719 14.6162L35.8067 26.0213H39.368L25.9828 14.8214Z" fill="#F4F7FA"/>
<path d="M39.4316 26.0215C39.5495 27.0397 40.292 27.8256 41.1926 27.8256C42.0932 27.8256 42.8345 27.0397 42.9538 26.0215H39.4316Z" fill="#6F9C3D"/>
<path opacity="0.63" d="M25.8269 33.8881C24.2857 30.3572 20.376 28.6424 17.0941 30.0581C13.8122 31.4738 12.4014 35.4829 13.9426 39.0143C15.4838 42.5457 19.3933 44.2598 22.6752 42.8451C25.9571 41.4303 27.3679 37.4188 25.8269 33.8881ZM20.9876 38.9195L21.1192 39.914L20.158 40.0395L20.0353 39.1132C19.3744 39.1701 18.7136 39.0779 18.3125 38.9121L18.4559 37.7328C18.8976 37.903 19.5034 38.0323 20.1408 37.9488C20.7001 37.8768 21.0543 37.6111 21.0026 37.2213C20.9543 36.8504 20.6088 36.6577 19.8508 36.5086C18.7549 36.2947 17.9745 35.9006 17.8491 34.9548C17.7359 34.0969 18.255 33.3444 19.2774 33.0026L19.155 32.0763L20.1165 31.9508L20.2297 32.8089C20.8908 32.7523 21.3503 32.831 21.6946 32.9448L21.5558 34.0837C21.2866 34.0101 20.8058 33.8437 20.0993 33.9368C19.4619 34.0201 19.2921 34.3209 19.3281 34.5931C19.3706 34.915 19.741 35.0749 20.616 35.2779C21.8373 35.535 22.3787 36.0098 22.4951 36.8862C22.6097 37.7563 22.0899 38.577 20.9876 38.9195Z" fill="#F4F7FA"/>
<g opacity="0.63">
<path d="M29.3482 53.0594L14.3265 53.5118C14.0656 53.5197 13.8108 53.4323 13.6103 53.2661C13.4098 53.1 13.2775 52.8666 13.2383 52.61L12.6293 48.6293C12.6065 48.4801 12.6159 48.3278 12.657 48.1825C12.698 48.0372 12.7697 47.9023 12.8673 47.7868C12.9649 47.6712 13.0862 47.5776 13.223 47.5123C13.3598 47.447 13.5091 47.4114 13.6608 47.4079L28.6984 47.0618C28.9581 47.0557 29.2111 47.144 29.41 47.31C29.609 47.4761 29.7402 47.7086 29.7792 47.9639L30.3719 51.8388C30.3945 51.9873 30.3852 52.1388 30.3446 52.2835C30.3039 52.4281 30.2329 52.5626 30.1361 52.6779C30.0394 52.7933 29.9191 52.8869 29.7833 52.9527C29.6475 53.0184 29.4992 53.0548 29.3482 53.0594Z" fill="#F4F7FA"/>
<path d="M29.8527 56.3322L14.84 56.8427C14.5783 56.8517 14.3225 56.7647 14.1211 56.5985C13.9196 56.4322 13.7867 56.1982 13.7474 55.9409L13.7416 55.9035C13.7189 55.755 13.7282 55.6035 13.7687 55.4589C13.8092 55.3143 13.8801 55.1799 13.9767 55.0645C14.0733 54.9491 14.1934 54.8554 14.3291 54.7896C14.4648 54.7237 14.613 54.6872 14.7639 54.6824L29.7827 54.2095C30.0437 54.2013 30.2986 54.2884 30.4994 54.4544C30.7002 54.6204 30.8329 54.8538 30.8724 55.1104C30.8952 55.2586 30.8861 55.41 30.8458 55.5545C30.8055 55.6991 30.7348 55.8335 30.6385 55.9489C30.5422 56.0643 30.4223 56.1582 30.2869 56.2242C30.1514 56.2903 30.0035 56.3271 29.8527 56.3322Z" fill="#F4F7FA"/>
</g>
<path d="M12.04 55.4409C11.9966 55.4408 11.9549 55.4246 11.9228 55.3956C11.8908 55.3666 11.8708 55.3268 11.8666 55.2839C11.714 53.691 11.1905 52.1773 10.3954 51.022C9.69035 49.9985 8.85008 49.3876 8.14985 49.3876H8.14744C5.59281 49.3927 5.05846 55.2234 5.05339 55.2822C5.05145 55.3049 5.04502 55.327 5.03447 55.3472C5.02392 55.3675 5.00947 55.3854 4.99193 55.4001C4.97439 55.4148 4.95412 55.4259 4.93226 55.4327C4.91041 55.4396 4.88741 55.4421 4.86458 55.4401C4.81852 55.4362 4.77593 55.4142 4.74615 55.3791C4.71636 55.3439 4.70181 55.2985 4.70569 55.2527C4.72767 54.9992 5.27457 49.0465 8.14671 49.041H8.14985C8.97853 49.041 9.90188 49.6913 10.6835 50.8262C11.5124 52.029 12.0559 53.6005 12.2141 55.251C12.2163 55.2737 12.214 55.2965 12.2073 55.3183C12.2006 55.3401 12.1896 55.3603 12.175 55.3779C12.1605 55.3955 12.1425 55.41 12.1223 55.4207C12.1021 55.4314 12.0799 55.438 12.0571 55.4401L12.04 55.4409Z" fill="url(#paint4_linear_5301_4089)"/>
<path d="M1.39727 67.4408L4.7603 69.1333L6.79772 62.9163L3.44145 54.583L2.48939 54.8149L1.04498 66.7831C1.0285 66.9154 1.05349 67.0496 1.11654 67.1673C1.17959 67.285 1.27762 67.3805 1.39727 67.4408Z" fill="#FF931E"/>
<path style="mix-blend-mode:multiply" opacity="0.52" d="M6.79746 62.9171L3.44119 54.584L2.87956 54.7208C2.81551 55.6182 2.81858 56.519 2.88873 57.4159C3.11401 60.2532 3.86133 61.0426 3.49938 63.022C3.19828 64.6677 2.5408 64.8911 2.59826 65.9984C2.6608 67.2044 3.50687 68.2144 4.51279 69.0085L4.761 69.1333L6.79746 62.9171Z" fill="url(#paint5_radial_5301_4089)"/>
<path d="M3.44043 54.584L15.9794 54.5842L20.1293 67.9022L4.76024 69.1333L3.44043 54.584Z" fill="#39B54A"/>
<path d="M7.32528 55.7254C7.2861 55.7252 7.24813 55.7119 7.21747 55.6876C7.18682 55.6634 7.16525 55.6296 7.15626 55.5917C7.12076 55.4405 6.29691 51.8711 7.45857 50.1205C7.79154 49.6186 8.25659 49.3121 8.84091 49.2084C11.8439 48.6825 13.6928 55.0941 13.7698 55.3672C13.776 55.3892 13.7778 55.4121 13.7751 55.4347C13.7724 55.4573 13.7653 55.4792 13.754 55.4991C13.7428 55.5189 13.7278 55.5364 13.7098 55.5505C13.6918 55.5646 13.6711 55.575 13.6491 55.5811C13.627 55.5873 13.604 55.5891 13.5812 55.5864C13.5585 55.5837 13.5365 55.5766 13.5165 55.5654C13.4965 55.5543 13.4789 55.5393 13.4648 55.5214C13.4506 55.5035 13.4401 55.483 13.4339 55.4611C13.4158 55.3972 11.596 49.0761 8.90128 49.55C8.40822 49.6364 8.03204 49.886 7.74953 50.3102C6.66973 51.9383 7.4873 55.4757 7.49575 55.5113C7.50099 55.5334 7.50178 55.5564 7.49809 55.5789C7.49439 55.6013 7.48627 55.6228 7.47421 55.6422C7.46215 55.6615 7.44638 55.6783 7.42778 55.6916C7.40919 55.7049 7.38814 55.7144 7.36585 55.7196C7.3526 55.7231 7.33898 55.725 7.32528 55.7254Z" fill="url(#paint6_linear_5301_4089)"/>
<g style="mix-blend-mode:multiply" opacity="0.3">
<path d="M15.9789 54.584H9.75849C9.45159 54.8941 9.23404 55.2518 9.21304 55.6526C9.11645 57.5371 13.4728 58.156 13.8932 60.7388C14.1963 62.6017 12.331 64.7512 10.6666 65.7089C8.9129 66.7171 7.72493 66.207 6.53888 67.3273C6.01782 67.8193 5.70054 68.4348 5.51172 69.0728L20.1289 67.9019L15.9789 54.584Z" fill="#006837"/>
</g>
<path d="M7.32637 56.2368C7.59561 56.2368 7.81388 56.0199 7.81388 55.7522C7.81388 55.4846 7.59561 55.2676 7.32637 55.2676C7.05713 55.2676 6.83887 55.4846 6.83887 55.7522C6.83887 56.0199 7.05713 56.2368 7.32637 56.2368Z" fill="url(#paint7_linear_5301_4089)"/>
<path d="M13.8694 56.1553C14.1182 56.0529 14.2363 55.7694 14.1332 55.5221C14.0302 55.2749 13.745 55.1574 13.4963 55.2599C13.2475 55.3623 13.1294 55.6458 13.2325 55.8931C13.3355 56.1403 13.6207 56.2578 13.8694 56.1553Z" fill="url(#paint8_linear_5301_4089)"/>
<path d="M27.9923 11.6653L48.7819 12.0832L53.498 12.1773C54.4747 12.197 55.2679 11.4092 55.2679 10.4634V5.47546C55.2679 4.52948 54.4817 3.73064 53.5053 3.69319L28.0387 2.71745C27.7095 2.70472 27.3606 2.76713 27.0868 2.88835C26.4525 3.16895 25.9805 3.76304 25.9805 4.46467V9.76755C25.9807 10.7723 26.9009 11.6432 27.9923 11.6653Z" fill="#97A6B7"/>
<path d="M55.6482 5.46364V10.4564C55.6482 11.4031 54.8552 12.1573 53.8769 12.1366L28.3825 11.622C27.2894 11.5999 26.3965 10.7629 26.3965 9.75669V4.4502C26.3965 3.7481 26.8311 3.15401 27.4666 2.87269C27.7547 2.7465 28.068 2.68778 28.3825 2.70106L53.8769 3.67849C54.8552 3.71641 55.6482 4.51693 55.6482 5.46364Z" fill="#D8DEE8"/>
<path d="M55.442 5.40999C55.442 4.58522 54.6978 3.89056 53.8457 3.85815L28.3093 2.89201C27.3579 2.85576 26.5039 3.53602 26.5039 4.41192V9.64903C26.5039 10.5247 27.3295 11.2508 28.281 11.2707L53.8203 11.8026C54.6724 11.8206 55.4417 11.1663 55.4417 10.3418L55.442 5.40999Z" fill="white"/>
<path d="M37.1615 6.32638L37.6615 7.23108L38.7705 7.39286C38.8896 7.41015 38.9372 7.54097 38.8512 7.61442L38.0503 8.29636L38.2401 9.27835C38.2603 9.38421 38.1353 9.46414 38.0278 9.41349L37.0289 8.94182L36.0198 9.40101C35.9102 9.4507 35.782 9.36836 35.8025 9.26131L35.9957 8.27212L35.1716 7.55777C35.0823 7.48024 35.1315 7.34846 35.2551 7.33478L36.39 7.20924L36.8939 6.3211C36.9504 6.22509 37.1071 6.22845 37.1615 6.32638Z" fill="url(#paint9_linear_5301_4089)"/>
<path d="M41.3297 6.41707L41.8093 7.3028L42.8729 7.4605C42.9871 7.47755 43.0327 7.60453 42.9502 7.67654L42.1823 8.3448L42.3641 9.30494C42.3837 9.40888 42.2634 9.48713 42.1606 9.43744L41.2027 8.97585L40.2354 9.42544C40.1304 9.47345 40.0075 9.39352 40.0275 9.28886L40.2135 8.32007L39.4237 7.62109C39.3379 7.54523 39.3853 7.41634 39.5036 7.40289L40.5926 7.27952L41.0755 6.40938C41.1276 6.31769 41.2778 6.32105 41.3297 6.41707Z" fill="url(#paint10_linear_5301_4089)"/>
<path d="M45.3277 6.50319L45.7879 7.37069L46.8088 7.52503C46.9184 7.54159 46.9621 7.66713 46.8829 7.73746L46.1457 8.39228L46.3203 9.33418C46.3391 9.43596 46.2237 9.51253 46.125 9.46404L45.206 9.01181L44.2778 9.45252C44.1769 9.50053 44.059 9.42108 44.0784 9.31858L44.2566 8.36996L43.4991 7.68537C43.4168 7.6112 43.4622 7.4847 43.5756 7.47174L44.6202 7.35172L45.0838 6.49911C45.1338 6.40718 45.2779 6.40982 45.3277 6.50319Z" fill="url(#paint11_linear_5301_4089)"/>
<path d="M49.1656 6.58669L49.6074 7.43642L50.588 7.5874C50.6935 7.60372 50.7355 7.72662 50.6592 7.79575L49.9513 8.43785L50.1188 9.36079C50.1369 9.4604 50.0261 9.53577 49.9312 9.488L49.0485 9.04514L48.1572 9.4772C48.0606 9.52401 47.9472 9.44672 47.9657 9.34614L48.1369 8.41648L47.4097 7.74606C47.3918 7.73026 47.379 7.70954 47.373 7.68652C47.367 7.6635 47.368 7.63922 47.3759 7.61677C47.3838 7.59431 47.3982 7.5747 47.4173 7.56041C47.4365 7.54612 47.4594 7.5378 47.4833 7.53651L48.4861 7.41649L48.9313 6.58093C48.9792 6.49139 49.1177 6.49451 49.1656 6.58669Z" fill="url(#paint12_linear_5301_4089)"/>
<path d="M52.8532 6.66738L53.2779 7.50031L54.2196 7.64818C54.2419 7.6512 54.2629 7.66038 54.2803 7.67469C54.2977 7.68899 54.3106 7.70784 54.3178 7.7291C54.3249 7.75036 54.3259 7.77318 54.3207 7.79498C54.3155 7.81678 54.3042 7.83669 54.2881 7.85244L53.6075 8.48206L53.7685 9.387C53.7718 9.40944 53.7687 9.43234 53.7596 9.45314C53.7505 9.47393 53.7358 9.49181 53.7171 9.50477C53.6984 9.51772 53.6764 9.52524 53.6536 9.52649C53.6309 9.52773 53.6082 9.52265 53.5882 9.51181L52.7397 9.07759L51.8832 9.50101C51.79 9.5471 51.6814 9.47125 51.699 9.3726L51.8637 8.46046L51.1646 7.80372C51.1482 7.78787 51.1366 7.76769 51.1313 7.74555C51.1259 7.72341 51.127 7.70021 51.1344 7.67867C51.1419 7.65712 51.1553 7.63812 51.1732 7.62388C51.191 7.60964 51.2126 7.60075 51.2354 7.59825L52.1993 7.48111L52.6269 6.66162C52.6383 6.64144 52.655 6.62473 52.6753 6.6133C52.6955 6.60186 52.7185 6.59613 52.7418 6.59672C52.7651 6.59731 52.7877 6.60421 52.8073 6.61666C52.827 6.62911 52.8428 6.64665 52.8532 6.66738Z" fill="#D8DEE8"/>
<path d="M48.4481 5.44207C48.4481 5.62929 48.3117 5.77596 48.1161 5.76948L35.7377 5.35637C35.5315 5.34941 35.334 5.18835 35.334 4.99632V4.93391C35.334 4.74188 35.5431 4.59138 35.7493 4.59786L48.0955 5.02992C48.1884 5.03236 48.2768 5.0702 48.3424 5.1356C48.4081 5.20101 48.4459 5.28899 48.4481 5.38134V5.44207Z" fill="#8CC63F"/>
<path d="M31.1036 10.1411C29.3554 10.1003 27.9238 8.74888 27.9238 7.12839C27.9238 5.50791 29.3554 4.24027 31.1036 4.30196C32.8392 4.36317 34.2426 5.7141 34.2426 7.31346C34.2426 8.91282 32.8392 10.1817 31.1036 10.1411Z" fill="#009245"/>
<path d="M33.989 7.30666C33.989 8.77952 32.701 9.94298 31.103 9.90506C29.4945 9.86665 28.1826 8.6271 28.1826 7.13648C28.1826 5.64585 29.4945 4.48312 31.103 4.53905C32.701 4.59449 33.989 5.83356 33.989 7.30666Z" fill="#39B54A"/>
<mask id="mask3_5301_4089" style="mask-type:luminance" maskUnits="userSpaceOnUse" x="28" y="4" width="6" height="6">
<path d="M33.989 7.30666C33.989 8.77952 32.701 9.94298 31.103 9.90506C29.4945 9.86665 28.1826 8.6271 28.1826 7.13648C28.1826 5.64585 29.4945 4.48312 31.103 4.53905C32.701 4.59449 33.989 5.83356 33.989 7.30666Z" fill="white"/>
</mask>
<g mask="url(#mask3_5301_4089)">
<path d="M32.4926 6.69061C32.4926 7.39632 31.8747 7.95128 31.11 7.92992C30.3453 7.90856 29.7197 7.31591 29.7197 6.60612C29.7197 5.89633 30.3432 5.34161 31.11 5.36705C31.8769 5.3925 32.4926 5.98491 32.4926 6.69061Z" fill="white"/>
<path d="M33.1052 10.0357C33.0125 9.07965 32.1534 8.32138 31.1028 8.29282C30.0476 8.26425 29.1782 8.98148 29.084 9.94066L33.1052 10.0357Z" fill="white"/>
</g>
<g style="mix-blend-mode:multiply" opacity="0.3">
<path d="M49.1909 12.0424L28.3825 11.6224C27.2894 11.6003 26.3965 10.7633 26.3965 9.75705V4.45056C26.3965 3.74846 26.8311 3.15437 27.4666 2.87305C27.534 2.91673 27.6011 2.96186 27.667 3.00843C27.6813 3.01851 27.6955 3.02907 27.7098 3.03939C28.3441 3.49546 28.8818 4.07875 29.2003 4.82286C29.2329 4.89991 29.2638 4.97864 29.2918 5.05954C29.2923 5.0607 29.2927 5.0619 29.293 5.06314C29.4451 5.50024 29.6084 5.91455 29.7887 6.30317C30.3499 7.51175 31.0762 8.46733 32.155 9.06358C32.3853 9.19058 32.6254 9.29895 32.8731 9.38763C32.9658 9.421 33.0612 9.45244 33.1585 9.48101C34.2091 9.79473 35.5248 9.84994 37.2015 9.59094L37.5707 9.53405C37.6397 9.52325 37.7083 9.51293 37.7771 9.50261C38.5484 9.38571 39.3032 9.27793 40.044 9.2028L40.1985 9.18768C40.4219 9.16656 40.6439 9.14887 40.8644 9.13463C41.031 9.12391 41.1969 9.11535 41.3621 9.10895C41.3973 9.10895 41.4326 9.10655 41.4676 9.10583C41.6447 9.10023 41.8198 9.09783 41.993 9.09863C42.1041 9.09863 42.2148 9.10039 42.3252 9.10391C42.6053 9.11183 42.8842 9.12791 43.1612 9.15527C43.4705 9.18528 43.7781 9.22729 44.0838 9.28562C44.2103 9.30914 44.3367 9.33538 44.4629 9.36435C45.9809 9.71288 47.4645 10.4469 48.9436 11.8091C49.0228 11.8811 49.1025 11.9567 49.1817 12.0333C49.1848 12.0367 49.188 12.0393 49.1909 12.0424Z" fill="#D8DEE8"/>
</g>
<path d="M55.4296 29.6584L29.8813 30.0603C29.5645 30.0648 29.2528 30.1404 28.9696 30.2816C28.3333 30.5967 27.9033 31.216 27.9033 31.9189V37.2299C27.9033 38.2381 28.7953 39.0607 29.8903 39.0235L50.7228 38.3161L55.4185 38.1567C56.3983 38.1233 57.191 37.2926 57.191 36.3451V31.349C57.191 30.4016 56.4094 29.6426 55.4296 29.6584Z" fill="#97A6B7"/>
<path d="M57.6813 31.357V36.357C57.6813 37.3054 56.8857 38.1037 55.9042 38.1371L30.3248 39.0046C29.2281 39.0416 28.332 38.2518 28.332 37.2437V31.9271C28.332 31.2238 28.7686 30.6043 29.4058 30.2889C29.6916 30.1478 30.0057 30.0722 30.3248 30.0676L55.9042 29.6653C56.8867 29.6499 57.6813 30.4089 57.6813 31.357Z" fill="#D8DEE8"/>
<path d="M57.3658 31.3193C57.3658 30.4933 56.6743 29.8349 55.8205 29.8488L30.2633 30.2608C29.3086 30.2761 28.5166 31.0001 28.5166 31.8772V37.1231C28.5166 38.0002 29.3079 38.6855 30.2626 38.6539L55.8132 37.8063C56.6682 37.778 57.367 37.0862 57.367 36.259L57.3658 31.3193Z" fill="white"/>
<path d="M39.1338 33.2228L39.6356 34.102L40.7485 34.2035C40.868 34.2144 40.9158 34.343 40.8294 34.421L40.0258 35.1476L40.2161 36.121C40.2366 36.2259 40.111 36.313 40.0033 36.2679L39.001 35.8497L37.9886 36.3639C37.8785 36.4198 37.7498 36.3442 37.7713 36.2357L37.9659 35.2343L37.1387 34.5636C37.0488 34.4916 37.0983 34.356 37.2225 34.3356L38.3621 34.1483L38.8677 33.2309C38.9223 33.1327 39.0795 33.1277 39.1338 33.2228Z" fill="url(#paint13_linear_5301_4089)"/>
<path d="M43.3168 33.0876L43.7978 33.9488L44.865 34.0494C44.9795 34.0602 45.0254 34.186 44.9426 34.2625L44.1721 34.9735L44.3544 35.9265C44.3742 36.0295 44.2537 36.1144 44.1503 36.0705L43.1893 35.66L42.2187 36.1627C42.1134 36.2174 41.99 36.1432 42.0103 36.0371L42.1967 35.0568L41.4042 34.3996C41.3183 34.3276 41.3658 34.1963 41.4844 34.1766L42.577 33.9939L43.0616 33.0962C43.1133 32.9992 43.2639 32.9944 43.3168 33.0876Z" fill="url(#paint14_linear_5301_4089)"/>
<path d="M47.3279 32.9576L47.7893 33.8013L48.8136 33.9007C48.8374 33.902 48.8603 33.9102 48.8793 33.9244C48.8984 33.9386 48.9128 33.9581 48.9208 33.9805C48.9287 34.0028 48.9299 34.027 48.924 34.0499C48.9182 34.0729 48.9056 34.0936 48.888 34.1095L48.1486 34.8056L48.3237 35.7396C48.3425 35.8404 48.2271 35.9235 48.1276 35.8803L47.2048 35.477L46.2737 35.9683C46.1725 36.0219 46.0542 35.9491 46.0735 35.8452L46.2525 34.8851L45.4924 34.2406C45.4098 34.1707 45.4554 34.0416 45.5694 34.0221L46.6173 33.8443L47.084 32.9655C47.1323 32.8707 47.2772 32.8661 47.3279 32.9576Z" fill="url(#paint15_linear_5301_4089)"/>
<path d="M51.1781 32.8331L51.6214 33.6605L52.6054 33.7587C52.6287 33.76 52.651 33.7682 52.6697 33.7821C52.6883 33.7961 52.7024 33.8152 52.7102 33.8371C52.7179 33.859 52.719 33.8826 52.7132 33.9051C52.7074 33.9276 52.6951 33.9479 52.6778 33.9634L51.9674 34.6449L52.1365 35.5604C52.1548 35.6591 52.0435 35.7404 51.9484 35.6979L51.0627 35.3021L50.1693 35.7822C50.0727 35.8345 49.9585 35.763 49.9761 35.6622L50.1478 34.7217L49.4164 34.0895C49.3372 34.0208 49.3809 33.8946 49.4903 33.8756L50.4965 33.702L50.9432 32.8408C50.9912 32.7481 51.1301 32.7436 51.1781 32.8331Z" fill="#D8DEE8"/>
<path d="M54.8782 32.713L55.3044 33.5243L56.2502 33.6204C56.2727 33.6223 56.2942 33.6308 56.3119 33.6447C56.3297 33.6586 56.3431 33.6773 56.3503 33.6986C56.3576 33.7199 56.3585 33.7428 56.3529 33.7646C56.3473 33.7864 56.3354 33.8061 56.3187 33.8213L55.6359 34.4888L55.7977 35.3865C55.8151 35.4826 55.7081 35.5632 55.6166 35.5214L54.7654 35.1326L53.9061 35.6031C53.8126 35.6542 53.7035 35.5841 53.7214 35.4845L53.8865 34.5627L53.1863 33.9425C53.1102 33.8753 53.1522 33.7505 53.2573 33.7329L54.2231 33.5635L54.6522 32.7195C54.6985 32.6292 54.8321 32.6252 54.8782 32.713Z" fill="#D8DEE8"/>
<path d="M50.4591 31.7243C50.4591 31.912 50.3222 32.0666 50.1259 32.0707L37.7722 32.3258C37.5653 32.3301 37.4327 32.177 37.4327 31.9843V31.923C37.4317 31.8766 37.4401 31.8305 37.4573 31.7873C37.4745 31.7441 37.5002 31.7048 37.5328 31.6716C37.5655 31.6384 37.6045 31.612 37.6475 31.594C37.6906 31.576 37.7368 31.5666 37.7835 31.5666L50.138 31.3311C50.3343 31.3275 50.4591 31.4773 50.4591 31.6648V31.7243Z" fill="#8CC63F"/>
<path d="M33.0549 37.372C31.3007 37.4261 29.8643 36.1495 29.8643 34.5267C29.8643 32.9038 31.3007 31.556 33.0549 31.5231C34.7965 31.4902 36.2042 32.7674 36.2042 34.3697C36.2042 35.9719 34.7973 37.3188 33.0549 37.372Z" fill="#009245"/>
<path d="M35.9524 34.3763C35.9524 35.8518 34.6601 37.0871 33.0565 37.1368C31.4424 37.1848 30.126 36.0148 30.126 34.5218C30.126 33.0288 31.4424 31.7926 33.0565 31.7614C34.6591 31.7295 35.9524 32.9008 35.9524 34.3763Z" fill="#39B54A"/>
<mask id="mask4_5301_4089" style="mask-type:luminance" maskUnits="userSpaceOnUse" x="30" y="31" width="6" height="7">
<path d="M35.9524 34.3763C35.9524 35.8518 34.6601 37.0871 33.0565 37.1368C31.4424 37.1848 30.126 36.0148 30.126 34.5218C30.126 33.0288 31.4424 31.7926 33.0565 31.7614C34.6591 31.7295 35.9524 32.9008 35.9524 34.3763Z" fill="white"/>
</mask>
<g mask="url(#mask4_5301_4089)">
<path d="M34.4496 33.841C34.4496 34.5479 33.8292 35.1372 33.0621 35.1571C32.295 35.1771 31.667 34.6175 31.667 33.9065C31.667 33.1956 32.2926 32.6063 33.0621 32.5902C33.8317 32.5741 34.4496 33.1341 34.4496 33.841Z" fill="white"/>
<path d="M35.0643 37.1586C34.9714 36.2059 34.1093 35.493 33.0551 35.5213C31.9963 35.5499 31.1235 36.3154 31.0293 37.2813L35.0643 37.1586Z" fill="white"/>
</g>
<g style="mix-blend-mode:multiply" opacity="0.3">
<path d="M51.2027 38.2955L30.3248 39.0038C29.2281 39.0408 28.332 38.251 28.332 37.2429V31.9263C28.332 31.223 28.7686 30.6035 29.4058 30.2881C29.4736 30.3284 29.541 30.3699 29.6069 30.4129C29.6212 30.4223 29.6357 30.4319 29.6499 30.4417C30.2864 30.8644 30.8261 31.4194 31.1455 32.1474C31.1783 32.2228 31.2092 32.2998 31.2373 32.3793L31.2387 32.3829C31.3834 32.7962 31.5494 33.202 31.7359 33.5984C32.2989 34.7784 33.0279 35.6966 34.1109 36.2357C34.3426 36.3507 34.5836 36.4463 34.8314 36.5213C34.9244 36.5497 35.0199 36.5757 35.1177 36.5994C36.1719 36.8567 37.492 36.8394 39.1742 36.4904L39.5446 36.4133L39.7516 36.3706C40.5242 36.2117 41.2827 36.0629 42.0259 35.9474C42.0775 35.9397 42.1294 35.9316 42.1809 35.9234C42.4053 35.8898 42.6281 35.86 42.8492 35.8339C43.0166 35.8142 43.1827 35.7967 43.3486 35.7813C43.3838 35.7782 43.4191 35.7751 43.4543 35.7724C43.6311 35.7576 43.8069 35.7451 43.9817 35.7369C44.0929 35.7315 44.204 35.7271 44.3149 35.7239C44.5959 35.717 44.8758 35.7182 45.1535 35.7302C45.464 35.7434 45.7726 35.7693 46.0795 35.8106C46.2062 35.8274 46.3332 35.8468 46.4595 35.8689C47.9826 36.1358 49.4712 36.7907 50.9552 38.0749C51.0347 38.1438 51.1144 38.2141 51.1938 38.2868C51.197 38.2895 51.2 38.2924 51.2027 38.2955Z" fill="#D8DEE8"/>
</g>
<path d="M64.1553 16.927L39.7508 16.6808C39.4357 16.6776 39.1023 16.7475 38.8403 16.8728C38.2333 17.1647 37.7822 17.758 37.7822 18.4446V23.6308C37.7822 24.6149 38.6636 25.4421 39.7079 25.4337L59.6231 25.2729L64.1471 25.2366C65.0842 25.2289 65.846 24.4371 65.846 23.5103V18.6251C65.8452 18.1779 65.6674 17.7491 65.351 17.4313C65.0346 17.1136 64.605 16.9324 64.1553 16.927Z" fill="#97A6B7"/>
<path d="M66.2419 18.6224V23.5119C66.2419 24.4392 65.481 25.1999 64.5425 25.2075L40.1144 25.4034C39.0684 25.4116 38.2139 24.6175 38.2139 23.6331V18.4421C38.2139 17.7551 38.6301 17.1613 39.2379 16.8692C39.5111 16.7383 39.8111 16.6721 40.1144 16.6759L64.5415 16.9234C65.481 16.933 66.2419 17.6951 66.2419 18.6224Z" fill="#D8DEE8"/>
<path d="M65.9331 18.5792C65.9321 18.1894 65.7767 17.8158 65.5004 17.5392C65.2241 17.2627 64.8493 17.1056 64.4573 17.102L40.0982 16.8643C39.1877 16.8555 38.4805 17.5427 38.4805 18.3991V23.5222C38.4805 24.3787 39.1882 25.0681 40.0982 25.0613L64.472 24.8835C65.2894 24.8775 65.9316 24.2181 65.9316 23.4104L65.9331 18.5792Z" fill="white"/>
<path d="M48.5204 19.9795L48.9992 20.8511L50.0616 20.9786C50.1756 20.9923 50.2213 21.119 50.1387 21.1932L49.3716 21.883L49.5534 22.8386C49.5729 22.9418 49.4529 23.0234 49.3501 22.9769L48.3932 22.5429L47.4273 23.0198C47.3223 23.0717 47.1994 22.9944 47.2194 22.8893L47.4051 21.9157L46.616 21.2395C46.5303 21.166 46.5776 21.0357 46.696 21.0189L47.784 20.8648L48.2669 19.9812C48.3183 19.8859 48.4685 19.885 48.5204 19.9795Z" fill="url(#paint16_linear_5301_4089)"/>
<path d="M52.5136 19.9528L52.9723 20.8064L53.9915 20.9315C54.0156 20.9325 54.0389 20.9407 54.0583 20.9551C54.0777 20.9694 54.0923 20.9892 54.1002 21.0118C54.1082 21.0345 54.1091 21.059 54.1029 21.0822C54.0967 21.1054 54.0836 21.1262 54.0654 21.142L53.3304 21.8174L53.5045 22.7536C53.5233 22.8546 53.4079 22.9346 53.3096 22.8887L52.3921 22.4634L51.4651 22.93C51.3645 22.9806 51.2478 22.906 51.2659 22.8021L51.4441 21.8489L50.6874 21.1864C50.6053 21.1144 50.6507 20.9869 50.7642 20.9703L51.8073 20.8196L52.2702 19.9555C52.2824 19.9342 52.2999 19.9165 52.3212 19.9041C52.3424 19.8917 52.3665 19.885 52.3911 19.8848C52.4157 19.8845 52.44 19.8906 52.4614 19.9026C52.4829 19.9145 52.5009 19.9318 52.5136 19.9528Z" fill="url(#paint17_linear_5301_4089)"/>
<path d="M56.3452 19.9273L56.7863 20.7638L57.7649 20.8867C57.7878 20.8891 57.8096 20.8979 57.8276 20.9122C57.8456 20.9264 57.8591 20.9455 57.8665 20.9671C57.874 20.9888 57.8751 21.0121 57.8697 21.0343C57.8642 21.0566 57.8525 21.0768 57.8359 21.0926L57.1289 21.7542L57.2963 22.6716C57.3141 22.7705 57.2038 22.849 57.1091 22.8041L56.2278 22.3867L55.3383 22.8427C55.2417 22.8922 55.1287 22.8187 55.1473 22.7172L55.318 21.7835L54.5919 21.1354C54.5132 21.0648 54.5567 20.94 54.6656 20.9239L55.6667 20.7763L56.111 19.9289C56.1224 19.908 56.1392 19.8906 56.1597 19.8783C56.1802 19.8661 56.2037 19.8596 56.2276 19.8594C56.2515 19.8592 56.275 19.8654 56.2957 19.8774C56.3164 19.8893 56.3335 19.9065 56.3452 19.9273Z" fill="url(#paint18_linear_5301_4089)"/>
<path d="M60.0247 19.9025L60.4485 20.7225L61.389 20.8425C61.4114 20.8449 61.4327 20.8537 61.4502 20.8677C61.4678 20.8817 61.481 20.9005 61.4881 20.9218C61.4953 20.943 61.4962 20.9659 61.4907 20.9876C61.4852 21.0093 61.4735 21.0291 61.4571 21.0444L60.7781 21.6925L60.9389 22.5917C60.9421 22.6142 60.9391 22.6371 60.9302 22.658C60.9213 22.679 60.9068 22.6971 60.8883 22.7104C60.8698 22.7238 60.848 22.7319 60.8252 22.7338C60.8024 22.7358 60.7796 22.7315 60.759 22.7215L59.9125 22.3123L59.0579 22.7595C58.9652 22.8075 58.8568 22.7355 58.8744 22.6366L59.0386 21.7215L58.3413 21.0852C58.3243 21.0695 58.3121 21.0492 58.3064 21.0268C58.3007 21.0043 58.3016 20.9808 58.3091 20.9588C58.3165 20.9369 58.3302 20.9176 58.3484 20.9033C58.3666 20.8889 58.3886 20.88 58.4118 20.8778L59.3733 20.7338L59.8002 19.9033C59.811 19.883 59.8271 19.866 59.8468 19.8542C59.8666 19.8423 59.8892 19.836 59.9123 19.8359C59.9353 19.8359 59.958 19.842 59.9778 19.8538C59.9976 19.8655 60.0138 19.8824 60.0247 19.9025Z" fill="url(#paint19_linear_5301_4089)"/>
<path d="M63.5608 19.8779L63.9684 20.6823L64.8726 20.8006C64.8944 20.8034 64.915 20.8123 64.9319 20.8262C64.9488 20.8401 64.9614 20.8585 64.9683 20.8792C64.9752 20.8999 64.976 20.9222 64.9707 20.9434C64.9654 20.9645 64.9542 20.9838 64.9383 20.9989L64.2852 21.6345L64.4399 22.5164C64.4436 22.5383 64.4412 22.5607 64.4328 22.5813C64.4245 22.6018 64.4106 22.6197 64.3926 22.6328C64.3747 22.646 64.3535 22.654 64.3313 22.6559C64.3091 22.6578 64.2867 22.6536 64.2668 22.6436L63.4529 22.2418L62.6319 22.6801C62.6125 22.6911 62.5904 22.6965 62.5681 22.6956C62.5458 22.6948 62.5242 22.6876 62.5058 22.6751C62.4874 22.6626 62.4729 22.6452 62.464 22.6248C62.4551 22.6045 62.4521 22.582 62.4554 22.5601L62.6133 21.6631L61.943 21.039C61.9267 21.0235 61.9152 21.0037 61.9098 20.9819C61.9043 20.9602 61.9052 20.9373 61.9123 20.916C61.9194 20.8947 61.9325 20.8759 61.9499 20.8617C61.9673 20.8475 61.9885 20.8384 62.0109 20.8357L62.9352 20.6945L63.3457 19.8801C63.3556 19.8603 63.3708 19.8436 63.3897 19.8318C63.4085 19.82 63.4303 19.8137 63.4526 19.8135C63.4748 19.8133 63.4967 19.8192 63.5158 19.8305C63.5349 19.8419 63.5505 19.8583 63.5608 19.8779Z" fill="url(#paint20_linear_5301_4089)"/>
<path d="M59.3763 18.7998C59.3761 18.8436 59.3672 18.8869 59.35 18.9273C59.3329 18.9676 59.3079 19.0042 59.2765 19.0349C59.2451 19.0657 59.2078 19.0899 59.1669 19.1062C59.126 19.1225 59.0823 19.1306 59.0382 19.1301L47.1759 19.0686C46.9783 19.0686 46.7871 18.9145 46.7871 18.7261V18.6651C46.7871 18.4767 46.9788 18.3247 47.1763 18.3262L59.023 18.4061C59.2106 18.4076 59.3765 18.5569 59.3765 18.7402L59.3763 18.7998Z" fill="#8CC63F"/>
<path d="M42.7194 23.8802C41.0461 23.8883 39.6758 22.6053 39.6758 21.0204C39.6758 19.4354 41.0461 18.1551 42.7194 18.1671C44.3813 18.1788 45.7248 19.4616 45.7248 21.0269C45.7248 22.5921 44.3813 23.872 42.7194 23.8802Z" fill="#009245"/>
<path d="M45.4824 21.0257C45.4824 22.4671 44.2493 23.6421 42.7192 23.6478C41.1794 23.6546 39.9238 22.4779 39.9238 21.0197C39.9238 19.5615 41.1794 18.3874 42.7192 18.3975C44.2493 18.4093 45.4824 19.5855 45.4824 21.0257Z" fill="url(#paint21_linear_5301_4089)"/>
<mask id="mask5_5301_4089" style="mask-type:luminance" maskUnits="userSpaceOnUse" x="39" y="18" width="7" height="6">
<path d="M45.4824 21.0257C45.4824 22.4671 44.2493 23.6421 42.7192 23.6478C41.1794 23.6546 39.9238 22.4779 39.9238 21.0197C39.9238 19.5615 41.1794 18.3874 42.7192 18.3975C44.2493 18.4093 45.4824 19.5855 45.4824 21.0257Z" fill="white"/>
</mask>
<g mask="url(#mask5_5301_4089)">
<path d="M44.0491 20.4649C44.0491 21.1554 43.4576 21.7154 42.7255 21.7157C41.9934 21.7159 41.3945 21.1533 41.3945 20.4589C41.3945 19.7644 41.9914 19.2044 42.7255 19.208C43.4595 19.2116 44.0491 19.7743 44.0491 20.4649Z" fill="white"/>
<path d="M44.636 23.7206C44.5471 22.7875 43.7247 22.0694 42.7188 22.0703C41.7088 22.0715 40.8764 22.7971 40.7871 23.7381L44.636 23.7206Z" fill="white"/>
</g>
<g style="mix-blend-mode:multiply" opacity="0.3">
<path d="M60.0485 25.2435L40.1144 25.4034C39.0684 25.4116 38.2139 24.6175 38.2139 23.6331V18.4421C38.2139 17.7551 38.6301 17.1613 39.2379 16.8691C39.3026 16.9102 39.3668 16.9524 39.4296 16.9961C39.4434 17.0055 39.4571 17.0153 39.4707 17.0252C40.0777 17.4541 40.5925 18.0093 40.8972 18.7294C40.9286 18.8041 40.958 18.8802 40.9848 18.9584C40.9849 18.9596 40.9849 18.9608 40.9848 18.962C41.1297 19.3854 41.2867 19.7863 41.4593 20.1622C41.9966 21.329 42.6919 22.244 43.7251 22.798C43.9456 22.916 44.1755 23.0154 44.4126 23.0952C44.5014 23.1254 44.5925 23.1534 44.6859 23.179C45.6918 23.4569 46.952 23.4747 48.5577 23.1751C48.6765 23.1531 48.7936 23.131 48.9114 23.1094C48.9774 23.0969 49.043 23.0854 49.1092 23.0729C49.8478 22.937 50.5707 22.8108 51.2806 22.7169L51.4286 22.6979C51.6428 22.6708 51.8551 22.6473 52.0668 22.6276C52.2263 22.6126 52.3853 22.5996 52.5437 22.5887C52.5775 22.5866 52.6111 22.5844 52.6449 22.5827C52.8139 22.5726 52.9815 22.565 53.1483 22.5614C53.2545 22.5586 53.3606 22.5573 53.4666 22.5573C53.7351 22.5573 54.0021 22.5663 54.2677 22.5844C54.5642 22.6053 54.8588 22.6384 55.1519 22.6867C55.2731 22.7062 55.3939 22.7283 55.5141 22.7532C56.9691 23.0527 58.3916 23.7306 59.8097 25.0237C59.8858 25.0929 59.9619 25.164 60.0378 25.2368C60.0427 25.238 60.0458 25.2404 60.0485 25.2435Z" fill="#D8DEE8"/>
</g>
</g>
<defs>
<linearGradient id="paint0_linear_5301_4089" x1="37.0798" y1="32.7749" x2="25.8672" y2="63.1879" gradientUnits="userSpaceOnUse">
<stop stop-color="#FFC444"/>
<stop offset="1" stop-color="#F36F56"/>
</linearGradient>
<linearGradient id="paint1_linear_5301_4089" x1="6.59405" y1="38.5075" x2="55.6611" y2="30.6979" gradientUnits="userSpaceOnUse">
<stop stop-color="#444B8C"/>
<stop offset="1" stop-color="#26264F"/>
</linearGradient>
<linearGradient id="paint2_linear_5301_4089" x1="32.6335" y1="63.5458" x2="19.7087" y2="13.5897" gradientUnits="userSpaceOnUse">
<stop stop-color="#7AAF50"/>
<stop offset="1" stop-color="#18FF6E"/>
</linearGradient>
<linearGradient id="paint3_linear_5301_4089" x1="28.9417" y1="19.5416" x2="-18.9318" y2="119.429" gradientUnits="userSpaceOnUse">
<stop stop-color="#E38DDD"/>
<stop offset="1" stop-color="#9571F6"/>
</linearGradient>
<linearGradient id="paint4_linear_5301_4089" x1="3.88715" y1="51.2189" x2="5.41121" y2="51.7883" gradientUnits="userSpaceOnUse">
<stop stop-color="#AB316D"/>
<stop offset="1" stop-color="#792D3D"/>
</linearGradient>
<radialGradient id="paint5_radial_5301_4089" cx="0" cy="0" r="1" gradientUnits="userSpaceOnUse" gradientTransform="translate(4.69557 61.8585) scale(5.38355 5.35185)">
<stop stop-color="white"/>
<stop offset="0.09" stop-color="#FFEDD8"/>
<stop offset="0.21" stop-color="#FFD5A7"/>
<stop offset="0.33" stop-color="#FFC17D"/>
<stop offset="0.46" stop-color="#FFB05B"/>
<stop offset="0.59" stop-color="#FFA340"/>
<stop offset="0.72" stop-color="#FF9A2D"/>
<stop offset="0.86" stop-color="#FF9522"/>
<stop offset="1" stop-color="#FF931E"/>
</radialGradient>
<linearGradient id="paint6_linear_5301_4089" x1="9.36512" y1="48.604" x2="10.5722" y2="56.3435" gradientUnits="userSpaceOnUse">
<stop stop-color="#AB316D"/>
<stop offset="1" stop-color="#792D3D"/>
</linearGradient>
<linearGradient id="paint7_linear_5301_4089" x1="6.66864" y1="55.5093" x2="6.8649" y2="55.5828" gradientUnits="userSpaceOnUse">
<stop stop-color="#AB316D"/>
<stop offset="1" stop-color="#792D3D"/>
</linearGradient>
<linearGradient id="paint8_linear_5301_4089" x1="13.0254" y1="55.4647" x2="13.2214" y2="55.5382" gradientUnits="userSpaceOnUse">
<stop stop-color="#AB316D"/>
<stop offset="1" stop-color="#792D3D"/>
</linearGradient>
<linearGradient id="paint9_linear_5301_4089" x1="36.2096" y1="3.47595" x2="40.2515" y2="23.9767" gradientUnits="userSpaceOnUse">
<stop stop-color="#FFC444"/>
<stop offset="1" stop-color="#F36F56"/>
</linearGradient>
<linearGradient id="paint10_linear_5301_4089" x1="40.2523" y1="2.87893" x2="44.2563" y2="23.1878" gradientUnits="userSpaceOnUse">
<stop stop-color="#FFC444"/>
<stop offset="1" stop-color="#F36F56"/>
</linearGradient>
<linearGradient id="paint11_linear_5301_4089" x1="44.1295" y1="2.30688" x2="48.0975" y2="22.4323" gradientUnits="userSpaceOnUse">
<stop stop-color="#FFC444"/>
<stop offset="1" stop-color="#F36F56"/>
</linearGradient>
<linearGradient id="paint12_linear_5301_4089" x1="47.8515" y1="1.7586" x2="51.7848" y2="21.708" gradientUnits="userSpaceOnUse">
<stop stop-color="#FFC444"/>
<stop offset="1" stop-color="#F36F56"/>
</linearGradient>
<linearGradient id="paint13_linear_5301_4089" x1="38.1905" y1="30.4268" x2="42.167" y2="50.5957" gradientUnits="userSpaceOnUse">
<stop stop-color="#FFC444"/>
<stop offset="1" stop-color="#F36F56"/>
</linearGradient>
<linearGradient id="paint14_linear_5301_4089" x1="42.2488" y1="29.6138" x2="46.1895" y2="49.6006" gradientUnits="userSpaceOnUse">
<stop stop-color="#FFC444"/>
<stop offset="1" stop-color="#F36F56"/>
</linearGradient>
<linearGradient id="paint15_linear_5301_4089" x1="46.1419" y1="28.8335" x2="50.0482" y2="48.6465" gradientUnits="userSpaceOnUse">
<stop stop-color="#FFC444"/>
<stop offset="1" stop-color="#F36F56"/>
</linearGradient>
<linearGradient id="paint16_linear_5301_4089" x1="47.5983" y1="17.2242" x2="51.5113" y2="37.072" gradientUnits="userSpaceOnUse">
<stop stop-color="#FFC444"/>
<stop offset="1" stop-color="#F36F56"/>
</linearGradient>
<linearGradient id="paint17_linear_5301_4089" x1="51.4692" y1="16.5299" x2="55.3474" y2="36.2003" gradientUnits="userSpaceOnUse">
<stop stop-color="#FFC444"/>
<stop offset="1" stop-color="#F36F56"/>
</linearGradient>
<linearGradient id="paint18_linear_5301_4089" x1="55.1838" y1="15.8649" x2="59.0282" y2="35.3652" gradientUnits="userSpaceOnUse">
<stop stop-color="#FFC444"/>
<stop offset="1" stop-color="#F36F56"/>
</linearGradient>
<linearGradient id="paint19_linear_5301_4089" x1="58.7506" y1="15.2264" x2="62.5631" y2="34.5637" gradientUnits="userSpaceOnUse">
<stop stop-color="#FFC444"/>
<stop offset="1" stop-color="#F36F56"/>
</linearGradient>
<linearGradient id="paint20_linear_5301_4089" x1="62.1784" y1="14.6125" x2="65.9601" y2="33.7934" gradientUnits="userSpaceOnUse">
<stop stop-color="#FFC444"/>
<stop offset="1" stop-color="#F36F56"/>
</linearGradient>
<linearGradient id="paint21_linear_5301_4089" x1="70.6955" y1="21.0233" x2="70.7076" y2="21.0233" gradientUnits="userSpaceOnUse">
<stop stop-color="#39B54A"/>
<stop offset="1" stop-color="#8CC63F"/>
</linearGradient>
<clipPath id="clip0_5301_4089">
<rect width="68" height="69.1333" fill="white"/>
</clipPath>
</defs>
</svg>
