<svg width="23" height="23" viewBox="0 0 23 23" fill="none" xmlns="http://www.w3.org/2000/svg">
<path d="M4.48963 5.25V3.98999C4.48963 3.25999 4.48963 2.53 4.48963 1.81C4.49963 1.33652 4.69082 0.884885 5.02383 0.548157C5.35684 0.211428 5.80631 0.015254 6.27964 0H15.7196V4.71002C15.7036 4.97685 15.7443 5.24404 15.8392 5.49396C15.934 5.74388 16.0808 5.97084 16.2698 6.15985C16.4588 6.34887 16.6858 6.49562 16.9357 6.59045C17.1856 6.68529 17.4528 6.72606 17.7196 6.71002H22.4296V20.52C22.4417 20.7832 22.3978 21.0459 22.3007 21.2908C22.2037 21.5357 22.0557 21.7571 21.8666 21.9405C21.6776 22.1239 21.4517 22.2651 21.2039 22.3546C20.9562 22.4442 20.6923 22.4801 20.4296 22.46H6.45964C6.17435 22.4745 5.88953 22.4237 5.62678 22.3116C5.36403 22.1996 5.13027 22.0291 4.94326 21.8132C4.75625 21.5972 4.62091 21.3416 4.54751 21.0655C4.47411 20.7894 4.46457 20.5003 4.51963 20.22H7.58964C8.30434 20.2304 8.99926 19.9853 9.54927 19.5287C10.0993 19.0722 10.4682 18.4344 10.5896 17.73C10.6095 17.5205 10.6095 17.3095 10.5896 17.1C10.5896 14.17 10.5896 11.25 10.5896 8.33002C10.6047 7.63098 10.3751 6.94864 9.94056 6.40088C9.50601 5.85312 8.89377 5.47436 8.20964 5.33002C7.97197 5.28692 7.73115 5.2635 7.48963 5.26001L4.48963 5.25ZM19.0996 18V9.16998C19.0996 8.60998 18.8096 8.26 18.3496 8.25C17.8896 8.24 17.5996 8.60999 17.5996 9.17999V17.98H16.4796V12.25C16.4846 12.1701 16.4846 12.0899 16.4796 12.01C16.4731 11.8649 16.4228 11.7251 16.3353 11.6091C16.2479 11.4931 16.1274 11.4062 15.9896 11.36C15.8645 11.304 15.7251 11.2884 15.5907 11.3153C15.4563 11.3422 15.3336 11.4102 15.2396 11.51C15.1511 11.592 15.0825 11.6933 15.0391 11.806C14.9958 11.9186 14.9789 12.0397 14.9896 12.16V18.03H13.8596C13.8596 17.03 13.8596 16.11 13.8596 15.16C13.8589 14.997 13.8213 14.8364 13.7496 14.69C13.6777 14.5499 13.5605 14.4381 13.4172 14.3727C13.2738 14.3074 13.1126 14.2924 12.9596 14.33C12.7878 14.3674 12.6346 14.464 12.5267 14.6029C12.4189 14.7418 12.3633 14.9143 12.3696 15.09C12.3696 15.99 12.3696 16.89 12.3696 17.79V18.06H11.9696C11.8238 18.0624 11.682 18.1085 11.5626 18.1923C11.4432 18.276 11.3516 18.3937 11.2996 18.53C11.245 18.658 11.2291 18.7991 11.254 18.936C11.2789 19.0729 11.3434 19.1995 11.4396 19.3C11.5225 19.3881 11.6236 19.457 11.7359 19.5019C11.8482 19.5468 11.9689 19.5666 12.0896 19.56H19.3696C19.4766 19.5696 19.5845 19.5573 19.6865 19.5237C19.7886 19.4902 19.8827 19.4362 19.9632 19.3651C20.0437 19.294 20.1089 19.2072 20.1547 19.11C20.2005 19.0128 20.226 18.9073 20.2296 18.8C20.226 18.6939 20.2007 18.5897 20.1554 18.4938C20.1101 18.3978 20.0457 18.3121 19.9662 18.2419C19.8866 18.1717 19.7935 18.1185 19.6927 18.0855C19.5918 18.0525 19.4853 18.0404 19.3796 18.05L19.0996 18ZM10.8396 3H13.4596C13.6585 3 13.8493 2.92099 13.99 2.78033C14.1306 2.63968 14.2096 2.44891 14.2096 2.25C14.2096 2.05109 14.1306 1.86032 13.99 1.71967C13.8493 1.57901 13.6585 1.5 13.4596 1.5H8.25964C8.14619 1.49687 8.03361 1.52061 7.93107 1.56927C7.82854 1.61794 7.73896 1.69016 7.66964 1.78003C7.57561 1.88016 7.51464 2.00676 7.49496 2.1427C7.47528 2.27864 7.49786 2.4173 7.55964 2.53998C7.61793 2.68337 7.71971 2.80487 7.85066 2.88739C7.98161 2.96991 8.13514 3.0093 8.28964 3H10.8396ZM12.3496 4.5H11.2596C11.0607 4.5 10.87 4.57901 10.7293 4.71967C10.5887 4.86032 10.5096 5.05109 10.5096 5.25C10.5096 5.44891 10.5887 5.63968 10.7293 5.78033C10.87 5.92099 11.0607 6 11.2596 6H13.4096C13.6085 6 13.7993 5.92099 13.94 5.78033C14.0806 5.63968 14.1596 5.44891 14.1596 5.25C14.1596 5.05109 14.0806 4.86032 13.94 4.71967C13.7993 4.57901 13.6085 4.5 13.4096 4.5H12.3496Z" fill="currentColor"/>
<path d="M8.99172 12.7701V17.2501C9.00039 17.4577 8.96557 17.6648 8.88947 17.8581C8.81337 18.0514 8.69768 18.2267 8.54984 18.3727C8.40199 18.5186 8.22526 18.6321 8.03098 18.7057C7.8367 18.7793 7.62917 18.8114 7.42173 18.8001H1.55172C1.34502 18.8087 1.13882 18.7741 0.946216 18.6986C0.753617 18.6231 0.578855 18.5083 0.433048 18.3616C0.28724 18.2148 0.173583 18.0393 0.0993229 17.8462C0.0250633 17.6532 -0.00816844 17.4467 0.00172771 17.2401V8.36009C-0.00827331 8.15258 0.0252268 7.9453 0.100086 7.75151C0.174945 7.55771 0.289502 7.38169 0.436405 7.23478C0.583308 7.08788 0.759301 6.97334 0.953098 6.89848C1.14689 6.82362 1.35421 6.79009 1.56173 6.80009H7.43172C7.64012 6.78998 7.84832 6.82376 8.04284 6.89921C8.23735 6.97467 8.41386 7.09014 8.56092 7.23814C8.70798 7.38614 8.82231 7.56335 8.89652 7.75834C8.97073 7.95334 9.00317 8.16177 8.99172 8.3701V12.7701ZM4.33173 10.8801H5.73172C5.93064 10.8801 6.12141 10.8011 6.26206 10.6604C6.40271 10.5198 6.48172 10.329 6.48172 10.1301C6.48172 9.9312 6.40271 9.74043 6.26206 9.59977C6.12141 9.45912 5.93064 9.38011 5.73172 9.38011H2.90172C2.79703 9.37042 2.69147 9.38255 2.59171 9.41575C2.49195 9.44895 2.40016 9.50249 2.32215 9.57298C2.24414 9.64347 2.18161 9.7294 2.13851 9.8253C2.0954 9.9212 2.07266 10.025 2.07172 10.1301C2.0742 10.2339 2.09763 10.3361 2.14061 10.4306C2.18359 10.5251 2.24523 10.6099 2.32183 10.6799C2.39842 10.75 2.48839 10.8038 2.58632 10.8382C2.68426 10.8726 2.78815 10.8869 2.89173 10.8801H4.33173ZM5.66172 13.8801C6.20172 13.8801 6.54173 13.6101 6.56173 13.1701C6.57043 12.9765 6.50489 12.787 6.3785 12.6402C6.25211 12.4933 6.0744 12.4003 5.88172 12.3801C5.28172 12.3101 4.88172 12.5301 4.76172 12.9701C4.73894 13.0937 4.74636 13.221 4.78336 13.3411C4.82036 13.4612 4.88583 13.5707 4.97422 13.66C5.0626 13.7494 5.17127 13.816 5.29097 13.8544C5.41068 13.8927 5.53787 13.9015 5.66172 13.8801ZM5.66172 14.6301C5.17172 14.6301 4.85172 14.8401 4.77172 15.2101C4.75003 15.3108 4.74904 15.4148 4.76879 15.5159C4.78854 15.6169 4.82862 15.7129 4.8866 15.798C4.94458 15.8831 5.01927 15.9556 5.1061 16.011C5.19293 16.0663 5.2901 16.1034 5.39173 16.1201C6.01173 16.2301 6.50173 15.9501 6.56173 15.4801C6.60173 14.9501 6.26172 14.6301 5.66172 14.6301ZM3.01172 13.9301C3.21614 13.8795 3.41409 13.8057 3.60172 13.7101C3.73714 13.6185 3.83561 13.4816 3.87957 13.3241C3.92352 13.1666 3.91012 12.9986 3.84172 12.8501C3.69172 12.4801 3.33173 12.3201 2.78173 12.3801C2.62081 12.3947 2.46855 12.4595 2.34652 12.5654C2.22448 12.6712 2.13883 12.8128 2.10172 12.9701C2.08088 13.0965 2.08958 13.226 2.12716 13.3485C2.16473 13.471 2.23015 13.5831 2.31829 13.6761C2.40643 13.7691 2.51489 13.8404 2.6352 13.8845C2.7555 13.9286 2.88438 13.9442 3.01172 13.9301ZM3.01172 16.1301C3.55172 16.1301 3.90172 15.8501 3.90172 15.4001C3.90732 15.2062 3.83752 15.0175 3.70699 14.8739C3.57645 14.7304 3.39535 14.643 3.20172 14.6301C2.58172 14.5701 2.20172 14.8001 2.10172 15.2501C2.08434 15.3715 2.09582 15.4953 2.13523 15.6114C2.17464 15.7275 2.24087 15.8327 2.32854 15.9184C2.41621 16.0041 2.52286 16.0679 2.63982 16.1047C2.75678 16.1415 2.88077 16.1502 3.00173 16.1301H3.01172Z" fill="currentColor"/>
<path d="M21.9444 5.25006H17.6644C17.3644 5.25006 17.2344 5.12008 17.2344 4.83008C17.2344 3.42008 17.2344 2.00009 17.2344 0.590088V0.540039L21.9444 5.25006Z" fill="currentColor"/>
</svg>
