<svg width="21" height="22" viewBox="0 0 21 22" fill="none" xmlns="http://www.w3.org/2000/svg">
<path d="M10.4783 7.86947C13.8616 7.86947 17.2457 7.86947 20.6307 7.86947C20.8654 7.86947 20.9462 7.90989 20.9449 8.16937C20.9358 12.0277 20.9267 15.886 20.9449 19.743C20.9514 21.0912 20.0322 21.8475 19.1872 21.974C19.0577 21.9925 18.9269 22.0012 18.796 22.0001H2.14626C0.96099 22.0001 0.0873625 21.1773 0.00782322 19.9946C0.00782322 19.9047 0 19.8147 0 19.7247C0 15.8738 0 12.0242 0 8.17589C0 7.92814 0.0612837 7.86816 0.309029 7.86816C3.69662 7.86903 7.08639 7.86947 10.4783 7.86947ZM10.4679 13.6067C10.64 13.6067 10.8108 13.6067 10.9829 13.6067C11.2594 13.6095 11.5256 13.5024 11.7232 13.3091C11.9207 13.1157 12.0334 12.8518 12.0365 12.5753C12.0482 12.2233 12.0482 11.8725 12.0365 11.5205C12.0388 11.2555 11.9378 11.0001 11.755 10.8083C11.5722 10.6166 11.322 10.5035 11.0573 10.493C10.6664 10.4695 10.2746 10.4695 9.88374 10.493C9.62306 10.5023 9.37593 10.6114 9.19344 10.7978C9.01094 10.9842 8.90703 11.2336 8.90318 11.4944C8.88884 11.8621 8.88884 12.2311 8.90318 12.5975C8.90935 12.8703 9.0232 13.1295 9.21987 13.3186C9.41654 13.5077 9.68005 13.6113 9.95285 13.6067C10.125 13.6067 10.2958 13.6067 10.4679 13.6067ZM10.4679 16.2433C10.2971 16.2433 10.125 16.2433 9.95285 16.2433C9.68017 16.2377 9.41637 16.3403 9.21917 16.5287C9.02197 16.7171 8.90742 16.9759 8.90058 17.2486C8.88493 17.6163 8.88493 17.984 8.90058 18.3517C8.90279 18.6084 9.00249 18.8546 9.17946 19.0406C9.35644 19.2265 9.59748 19.3382 9.85375 19.3531C10.2615 19.3792 10.6704 19.3792 11.0781 19.3531C11.3343 19.3392 11.5756 19.2284 11.7531 19.0432C11.9306 18.858 12.031 18.6121 12.0339 18.3556C12.0496 17.9879 12.0496 17.6202 12.0339 17.2525C12.0284 16.9795 11.9148 16.7199 11.718 16.5306C11.5211 16.3414 11.2572 16.238 10.9842 16.2433C10.8134 16.2433 10.64 16.2459 10.4705 16.2459L10.4679 16.2433ZM3.15028 12.0459C3.15028 12.2259 3.15028 12.4058 3.15028 12.5858C3.14992 12.854 3.25545 13.1116 3.44393 13.3026C3.63242 13.4935 3.88863 13.6023 4.15691 13.6054C4.52461 13.6115 4.89189 13.6115 5.25872 13.6054C5.51082 13.6062 5.75387 13.5116 5.93912 13.3406C6.12437 13.1696 6.23811 12.9349 6.25753 12.6836C6.29404 12.2601 6.29404 11.8343 6.25753 11.4109C6.24198 11.1759 6.14238 10.9544 5.97694 10.7868C5.8115 10.6192 5.59128 10.5168 5.35652 10.4982C4.9254 10.4584 4.49154 10.4584 4.06042 10.4982C3.80935 10.5205 3.57593 10.6366 3.40674 10.8235C3.23755 11.0103 3.14504 11.2541 3.14767 11.5061C3.15028 11.6887 3.15288 11.8686 3.15288 12.0485L3.15028 12.0459ZM17.7816 12.0459C17.7816 11.866 17.7816 11.6861 17.7816 11.5061C17.7836 11.2545 17.6908 11.0114 17.5216 10.8251C17.3525 10.6388 17.1195 10.5231 16.8688 10.5008C16.4373 10.4617 16.003 10.4617 15.5714 10.5008C15.3423 10.5208 15.1275 10.6209 14.9649 10.7835C14.8023 10.9462 14.7022 11.1609 14.6822 11.3901C14.642 11.8238 14.642 12.2603 14.6822 12.694C14.7041 12.944 14.8192 13.1767 15.0048 13.3458C15.1903 13.5149 15.4326 13.608 15.6836 13.6067C16.0513 13.6128 16.419 13.6128 16.7867 13.6067C17.0506 13.6024 17.3026 13.4959 17.4896 13.3096C17.6766 13.1233 17.7841 12.8718 17.7894 12.6079C17.7881 12.4215 17.7842 12.2337 17.7842 12.042L17.7816 12.0459ZM3.15419 17.8054C3.15419 17.9931 3.15419 18.1809 3.15419 18.3687C3.15771 18.6166 3.25294 18.8544 3.4215 19.0362C3.59006 19.218 3.82001 19.3309 4.06694 19.3531C4.49852 19.3922 4.93276 19.3922 5.36434 19.3531C5.5991 19.3345 5.81933 19.2321 5.98477 19.0645C6.1502 18.8969 6.2498 18.6754 6.26535 18.4404C6.30186 18.0169 6.30186 17.5912 6.26535 17.1677C6.24564 16.9165 6.13181 16.682 5.94662 16.5111C5.76144 16.3401 5.51855 16.2454 5.26655 16.2459C4.89884 16.2398 4.53157 16.2398 4.16473 16.2459C3.89635 16.2483 3.6398 16.3567 3.45099 16.5474C3.26219 16.7382 3.15644 16.9958 3.1568 17.2642C3.15028 17.4455 3.15289 17.6254 3.15419 17.8054ZM17.7842 17.8054C17.7842 17.6254 17.7842 17.4455 17.7842 17.2655C17.7842 16.9972 17.6784 16.7398 17.4896 16.5491C17.3009 16.3584 17.0445 16.2499 16.7763 16.2472C16.4086 16.2411 16.0409 16.2411 15.6732 16.2472C15.4213 16.2468 15.1786 16.3415 14.9936 16.5125C14.8086 16.6834 14.6951 16.9179 14.6757 17.169C14.6391 17.5925 14.6391 18.0183 14.6757 18.4417C14.6912 18.6767 14.7908 18.8982 14.9562 19.0658C15.1217 19.2334 15.3419 19.3358 15.5767 19.3544C16.0082 19.3942 16.4425 19.3942 16.8741 19.3544C17.1213 19.3331 17.3518 19.2204 17.5205 19.0384C17.6892 18.8564 17.7842 18.6181 17.7868 18.37C17.7881 18.1809 17.7842 17.9931 17.7842 17.8054Z" fill="currentColor"/>
<path d="M10.472 6.82628C7.08175 6.82628 3.69155 6.82628 0.301354 6.82628C0.0692554 6.82628 -0.00376391 6.77152 0.000147855 6.53159C0.0197067 5.51062 -0.011586 4.48704 0.0301395 3.46738C0.071865 2.44771 0.998955 1.59625 2.02775 1.5819C2.21551 1.5819 2.45152 1.52062 2.5767 1.61059C2.70188 1.70056 2.61712 1.96004 2.62625 2.14389C2.67189 3.22485 3.51813 4.12846 4.54432 4.18192C5.68656 4.2406 6.62016 3.50258 6.78576 2.39686C6.81013 2.1935 6.81493 1.98828 6.8001 1.78401C6.79358 1.62754 6.83922 1.57017 7.00352 1.57669C7.35557 1.58842 7.70633 1.57669 8.05839 1.57669C9.98689 1.57669 11.9167 1.57669 13.8452 1.57017C14.089 1.57017 14.1699 1.62102 14.1529 1.87529C14.0969 2.69415 14.385 3.3735 15.0787 3.83118C15.3813 4.04546 15.738 4.17054 16.1082 4.1922C16.4784 4.21387 16.8472 4.13125 17.1728 3.95374C17.8965 3.58733 18.259 2.96928 18.3216 2.16736C18.3216 2.13477 18.3216 2.10217 18.3216 2.06957C18.3307 1.57147 18.3307 1.57147 18.8431 1.57539C19.9671 1.57539 20.8773 2.40599 20.9229 3.53127C20.9659 4.56789 20.9385 5.60711 20.9451 6.64503C20.9451 6.7676 20.9059 6.82889 20.7755 6.81715C20.7104 6.81715 20.6452 6.81715 20.5787 6.81715L10.472 6.82628Z" fill="currentColor"/>
<path d="M5.75937 1.61055C5.75937 1.77354 5.75937 1.93784 5.75937 2.10083C5.76542 2.37887 5.66078 2.64792 5.46845 2.84881C5.27613 3.04969 5.01188 3.16595 4.73384 3.172C4.4558 3.17805 4.18674 3.07341 3.98586 2.88108C3.78497 2.68876 3.66872 2.4245 3.66266 2.14646C3.64702 1.78788 3.65093 1.4267 3.66266 1.06812C3.66446 0.930362 3.69337 0.79431 3.74775 0.667726C3.80213 0.541143 3.88091 0.426507 3.97959 0.330369C4.07827 0.234231 4.19492 0.158472 4.32288 0.107415C4.45084 0.0563589 4.5876 0.0310062 4.72536 0.0328042C4.86312 0.0346021 4.99917 0.063518 5.12575 0.117897C5.25234 0.172275 5.36697 0.251052 5.46311 0.349732C5.55925 0.448413 5.63501 0.565063 5.68606 0.693023C5.73712 0.820982 5.76247 0.957743 5.76068 1.0955C5.76068 1.2611 5.75937 1.43322 5.75937 1.61055Z" fill="currentColor"/>
<path d="M15.1805 1.58179V1.0889C15.1752 0.951317 15.197 0.814034 15.2448 0.684889C15.2925 0.555745 15.3652 0.437268 15.4587 0.336227C15.5523 0.235185 15.6648 0.153555 15.7899 0.0959991C15.915 0.038443 16.0502 0.00608769 16.1877 0.000779451C16.3253 -0.00452879 16.4626 0.0173166 16.5918 0.0650643C16.7209 0.112812 16.8394 0.185526 16.9404 0.279061C17.0415 0.372595 17.1231 0.485117 17.1807 0.610199C17.2382 0.73528 17.2706 0.870474 17.2759 1.00806C17.2967 1.39156 17.2967 1.77592 17.2759 2.15942C17.2716 2.29701 17.2403 2.43241 17.1836 2.55788C17.127 2.68336 17.0463 2.79645 16.946 2.89071C16.8456 2.98498 16.7277 3.05855 16.599 3.10725C16.4702 3.15595 16.3332 3.17881 16.1956 3.17453C16.058 3.17025 15.9226 3.13891 15.7971 3.0823C15.6716 3.02569 15.5585 2.94493 15.4643 2.84461C15.37 2.7443 15.2964 2.6264 15.2477 2.49765C15.199 2.3689 15.1762 2.23181 15.1805 2.09423C15.1792 1.92472 15.1805 1.7539 15.1805 1.58179Z" fill="currentColor"/>
</svg>
