<svg width="24" height="22" viewBox="0 0 24 22" fill="none" xmlns="http://www.w3.org/2000/svg">
<path d="M0.0267787 0.259422C0.0845753 0.172431 0.164942 0.1028 0.25928 0.0579889C0.353619 0.0131781 0.458376 -0.00512712 0.56232 0.00503623C1.36563 0.00503623 2.16894 -0.0163864 2.97226 0.0291346C3.5334 0.0550137 4.06661 0.281405 4.47496 0.667149C4.88331 1.05289 5.13967 1.57238 5.19743 2.13114C5.25098 2.50334 5.32328 2.87554 5.37148 3.25042C5.38755 3.37895 5.43842 3.41643 5.55624 3.4084C5.62491 3.40439 5.69375 3.40439 5.76242 3.4084H22.5998C22.6748 3.4084 22.7525 3.4084 22.8275 3.4084C22.9002 3.40135 22.9734 3.41412 23.0394 3.44537C23.1055 3.47661 23.1618 3.52517 23.2024 3.58586C23.2431 3.64656 23.2665 3.71713 23.2703 3.79008C23.274 3.86303 23.258 3.93563 23.2237 4.00017C22.9078 4.92934 22.5838 5.85583 22.2625 6.78231C21.8608 7.94265 21.4583 9.10299 21.0548 10.2633C20.9055 10.7786 20.5859 11.2281 20.1482 11.5384C19.7105 11.8486 19.1806 12.0014 18.6449 11.9717H7.03701C6.7505 11.9717 6.7505 11.9717 6.79334 12.2529C6.88438 12.8259 6.97275 13.4016 7.06111 13.9746C7.11557 14.373 7.31739 14.7364 7.62673 14.9932C7.93607 15.25 8.33045 15.3815 8.732 15.3617C9.57815 15.3617 10.427 15.3617 11.2731 15.3617H20.1685C20.2576 15.3552 20.3471 15.3552 20.4363 15.3617C20.5271 15.3729 20.6105 15.4175 20.6704 15.4868C20.7303 15.556 20.7623 15.645 20.7603 15.7366C20.765 15.832 20.7334 15.9257 20.6718 15.9988C20.6101 16.0718 20.5231 16.1188 20.4282 16.1302C20.3453 16.1356 20.2621 16.1356 20.1792 16.1302C16.3902 16.1302 12.5986 16.1114 8.80965 16.1302C8.16991 16.1513 7.54629 15.9271 7.06642 15.5035C6.58656 15.0799 6.28674 14.4889 6.22834 13.8515C5.97396 11.9771 5.64996 10.1214 5.35541 8.25773C5.08943 6.58149 4.82166 4.90435 4.5521 3.22632C4.49051 2.83269 4.43695 2.423 4.36198 2.04277C4.29025 1.68749 4.09874 1.36761 3.81947 1.13659C3.54019 0.905567 3.19008 0.777406 2.82766 0.773537C2.06451 0.773537 1.30137 0.773537 0.535541 0.773537C0.429758 0.787319 0.32227 0.769191 0.226855 0.721483C0.13144 0.673775 0.0524448 0.598662 0 0.505766L0.0267787 0.259422ZM21.2583 7.24823H6.20692C6.04626 7.24823 5.98467 7.28036 6.03287 7.44906C6.0714 7.57964 6.09299 7.71463 6.09714 7.85071C6.09714 8.08635 6.19621 8.14794 6.4265 8.14526C11.1767 8.14526 15.927 8.14526 20.6773 8.14526H20.8674C20.894 8.14783 20.9206 8.14127 20.943 8.12667C20.9654 8.11208 20.9822 8.09031 20.9905 8.06494C21.0709 7.79449 21.1592 7.53207 21.2583 7.24823Z" fill="currentColor"/>
<path d="M19.5934 19.7798C19.5952 20.0709 19.5393 20.3595 19.4291 20.6289C19.3188 20.8983 19.1563 21.1433 18.951 21.3496C18.7456 21.556 18.5015 21.7196 18.2326 21.8312C17.9637 21.9428 17.6754 22 17.3843 21.9996C16.9441 22.0023 16.513 21.8741 16.1457 21.6314C15.7784 21.3887 15.4914 21.0424 15.3212 20.6364C15.151 20.2303 15.1053 19.7829 15.1897 19.3508C15.2742 18.9188 15.485 18.5215 15.7956 18.2095C16.1062 17.8974 16.5024 17.6846 16.934 17.5981C17.3657 17.5115 17.8133 17.5551 18.2202 17.7233C18.627 17.8916 18.9747 18.1768 19.2192 18.543C19.4637 18.9091 19.594 19.3396 19.5934 19.7798Z" fill="currentColor"/>
<path d="M6.96486 19.7721C6.96704 19.3326 7.0998 18.9036 7.34628 18.5397C7.59276 18.1758 7.94184 17.8934 8.34918 17.7283C8.75652 17.5632 9.20374 17.5229 9.63403 17.6125C10.0643 17.7021 10.4583 17.9176 10.7658 18.2316C11.0734 18.5456 11.2807 18.9439 11.3614 19.3759C11.4421 19.808 11.3926 20.2542 11.2191 20.6581C11.0457 21.0619 10.7561 21.4051 10.3872 21.644C10.0183 21.8829 9.58667 22.0068 9.1472 21.9999C8.56359 21.9901 8.00735 21.7508 7.5989 21.3338C7.19045 20.9168 6.96266 20.3558 6.96486 19.7721Z" fill="currentColor"/>
</svg>
