<svg width="22" height="22" viewBox="0 0 22 22" fill="none" xmlns="http://www.w3.org/2000/svg">
<path d="M8.39037 0C9.93764 0 11.4836 0 13.0308 0C13.5339 0.169955 13.7718 0.524821 13.8316 1.04964C13.9132 1.76617 14.0397 2.47726 14.1321 3.19379C14.1512 3.33656 14.2083 3.4059 14.3293 3.46164C14.7195 3.64248 15.0893 3.86002 15.4401 4.10747C15.5462 4.18225 15.6345 4.18633 15.7542 4.13603C16.4476 3.85186 17.1451 3.57586 17.8412 3.29849C18.4735 3.0456 18.9113 3.19515 19.2525 3.78388C19.912 4.9219 20.57 6.06128 21.2267 7.20065C21.5653 7.78802 21.4688 8.26797 20.9317 8.68674C20.3443 9.14494 19.761 9.60586 19.171 10.06C19.0758 10.1334 19.0282 10.2055 19.0432 10.3265C19.0975 10.7765 19.0975 11.2266 19.0432 11.6766C19.0282 11.8003 19.0812 11.8697 19.175 11.9417C19.776 12.4054 20.3742 12.8717 20.9698 13.3422C21.466 13.7337 21.5585 14.2178 21.2458 14.763C20.5795 15.9214 19.912 17.0798 19.2417 18.2369C18.9153 18.7984 18.4626 18.9507 17.8589 18.7087C17.156 18.4272 16.453 18.1471 15.7515 17.8643C15.6549 17.8249 15.5747 17.7977 15.4741 17.8684C15.0934 18.1349 14.6937 18.3715 14.2708 18.5686C14.1824 18.6094 14.1539 18.6706 14.1417 18.7658C14.0342 19.5367 13.9159 20.3076 13.8072 21.0785C13.7242 21.6645 13.3544 21.999 12.7657 21.999C11.3979 22.0003 10.0301 22.0003 8.66366 21.999C8.07629 21.999 7.69968 21.6577 7.61946 21.0785C7.5134 20.3076 7.39375 19.538 7.28634 18.7658C7.27139 18.6597 7.23196 18.6026 7.13814 18.5591C6.73025 18.366 6.33867 18.143 5.97293 17.8806C5.87232 17.8086 5.78802 17.8167 5.67789 17.8616C4.98447 18.1458 4.28698 18.4218 3.59084 18.6991C2.95317 18.9534 2.51944 18.8065 2.17817 18.2178C1.51875 17.0798 0.860682 15.9404 0.202616 14.801C-0.138653 14.211 -0.0434793 13.731 0.490859 13.315C1.07822 12.8581 1.66287 12.3972 2.2516 11.9431C2.34541 11.871 2.39572 11.8003 2.38212 11.6766C2.32909 11.2266 2.32909 10.7765 2.38212 10.3265C2.39708 10.2041 2.34949 10.132 2.25431 10.0586C1.65879 9.60042 1.06735 9.13542 0.475905 8.67315C-0.0407581 8.26933 -0.137295 7.78666 0.189019 7.22105C0.852524 6.06943 1.51875 4.91782 2.18497 3.76756C2.50993 3.20739 2.96812 3.05103 3.56773 3.29033C4.27746 3.5745 4.98719 3.85594 5.69421 4.14419C5.79754 4.18633 5.8764 4.18769 5.97021 4.12107C6.33868 3.86138 6.72753 3.63432 7.13543 3.44125C7.22788 3.39774 7.27139 3.34471 7.28634 3.23594C7.3788 2.54253 7.49981 1.85183 7.57595 1.15569C7.63441 0.607759 7.82748 0.180832 8.39037 0ZM14.3673 11.0185C14.3769 8.99538 12.7535 7.35293 10.7344 7.34206C8.71261 7.33118 7.06608 8.95459 7.05248 10.9696C7.04025 13.0022 8.6691 14.6501 10.6963 14.6569C12.7195 14.6637 14.3592 13.0376 14.3673 11.0185Z" fill="currentColor"/>
</svg>
