<svg width="23" height="22" viewBox="0 0 23 22" fill="none" xmlns="http://www.w3.org/2000/svg">
<path d="M10.8293 0H11.1847C11.302 0.0675317 11.4229 0.131507 11.5402 0.206147C14.8694 2.49749 18.1997 4.79001 21.5313 7.08372C21.7382 7.20866 21.9067 7.38821 22.0182 7.60265V21.308C22.0182 21.308 21.9862 21.3329 21.9791 21.3507C21.9179 21.5514 21.7895 21.725 21.6153 21.8421C21.4412 21.9593 21.232 22.0129 21.023 21.994C20.529 21.994 20.0349 21.994 19.5409 21.994C19.3134 21.994 19.2636 21.9336 19.2636 21.7168C19.2636 18.1625 19.2636 14.6188 19.2636 11.0859C19.2761 10.9549 19.2602 10.8229 19.2169 10.6987C19.1737 10.5745 19.1041 10.4611 19.013 10.3663C18.9219 10.2715 18.8113 10.1974 18.689 10.1492C18.5666 10.101 18.4353 10.0799 18.304 10.0871C13.4441 10.0871 8.58652 10.0871 3.73135 10.0871C3.60257 10.0783 3.47341 10.097 3.35243 10.142C3.23144 10.187 3.1214 10.2572 3.02962 10.348C2.93785 10.4387 2.86644 10.548 2.82013 10.6685C2.77382 10.7889 2.75368 10.9179 2.76103 11.0468C2.76103 11.2991 2.76103 11.5479 2.76103 11.8003C2.76103 15.1176 2.76103 18.435 2.76103 21.7523C2.76103 21.9407 2.71484 21.994 2.52646 21.9869C2.0253 21.9869 1.52413 21.9869 1.02298 21.9869C0.88511 22.0023 0.745546 21.9864 0.6147 21.9403C0.483854 21.8942 0.365115 21.8192 0.267362 21.7207C0.169609 21.6223 0.0953666 21.503 0.0501861 21.3719C0.00500553 21.2407 -0.00994285 21.101 0.00645154 20.9633C0.00645154 16.6175 0.00645154 12.2718 0.00645154 7.92609C-0.00177102 7.76654 0.0331753 7.60772 0.107609 7.46636C0.182043 7.325 0.293212 7.20632 0.429414 7.12282C3.27285 5.16795 6.11629 3.20953 8.95973 1.24756C9.57818 0.831704 10.1789 0.376756 10.8293 0Z" fill="currentColor"/>
<path d="M7.79354 21.994H5.58277C5.50948 22.0057 5.43445 22.0001 5.36369 21.9777C5.29292 21.9553 5.22839 21.9166 5.17521 21.8649C5.12204 21.8131 5.08169 21.7496 5.05742 21.6794C5.03314 21.6093 5.02562 21.5344 5.03542 21.4608V17.9421C5.02706 17.8702 5.03493 17.7973 5.05848 17.7289C5.08203 17.6605 5.12065 17.5982 5.17148 17.5467C5.22231 17.4952 5.28406 17.4557 5.35217 17.4313C5.42028 17.4068 5.49302 17.398 5.56501 17.4054C6.01996 17.4054 6.47846 17.4054 6.93696 17.4054C7.06847 17.4054 7.11823 17.4445 7.11112 17.576C7.10401 17.7075 7.11112 17.9314 7.11112 18.0913C7.10599 18.1849 7.12017 18.2785 7.15277 18.3663C7.18537 18.4541 7.23571 18.5342 7.30063 18.6017C7.36556 18.6693 7.44367 18.7227 7.53013 18.7587C7.6166 18.7947 7.70956 18.8125 7.80321 18.8111C7.89687 18.8096 7.98922 18.7889 8.07451 18.7502C8.15981 18.7115 8.23622 18.6556 8.299 18.5861C8.36178 18.5166 8.40957 18.4349 8.4394 18.3461C8.46924 18.2573 8.48048 18.1633 8.47242 18.07C8.47242 17.8923 8.47242 17.7146 8.47242 17.5333C8.47242 17.4409 8.5044 17.4054 8.59681 17.4054C9.09797 17.4054 9.59914 17.4054 10.1003 17.4054C10.1634 17.407 10.2255 17.4216 10.2827 17.4484C10.3398 17.4751 10.3909 17.5134 10.4326 17.5608C10.4743 17.6081 10.5058 17.6636 10.525 17.7237C10.5443 17.7838 10.551 17.8473 10.5446 17.9101C10.5446 18.3686 10.5446 18.8271 10.5446 19.2856C10.5446 19.9965 10.5446 20.7073 10.5446 21.4182C10.5446 21.8447 10.3882 21.9975 9.96167 21.9975L7.79354 21.994Z" fill="currentColor"/>
<path d="M14.2057 21.994H12.002C11.6466 21.994 11.4653 21.8305 11.4653 21.4573C11.4653 20.2725 11.4653 19.0996 11.4653 17.9385C11.4555 17.8668 11.4623 17.7939 11.4852 17.7252C11.508 17.6566 11.5463 17.5941 11.5972 17.5426C11.648 17.4911 11.7099 17.4519 11.7783 17.4281C11.8466 17.4043 11.9195 17.3966 11.9913 17.4054C12.4498 17.4054 12.9083 17.4054 13.3668 17.4054C13.4948 17.4054 13.5446 17.4409 13.5374 17.576C13.5303 17.7111 13.5374 17.9314 13.5374 18.1091C13.537 18.279 13.6009 18.4427 13.7163 18.5674C13.8317 18.692 13.99 18.7683 14.1594 18.7809C14.3338 18.7947 14.5064 18.7388 14.6396 18.6256C14.7729 18.5123 14.8558 18.3509 14.8703 18.1767C14.881 17.9695 14.881 17.7619 14.8703 17.5547C14.8703 17.448 14.9058 17.4054 15.0196 17.4054C15.4994 17.4054 15.9757 17.4054 16.4413 17.4054C16.5067 17.4023 16.572 17.413 16.633 17.4368C16.6939 17.4606 16.7492 17.497 16.7952 17.5436C16.8411 17.5902 16.8767 17.646 16.8996 17.7073C16.9226 17.7686 16.9323 17.8341 16.9282 17.8994C16.9282 19.1008 16.9282 20.3021 16.9282 21.5035C16.9327 21.5703 16.9225 21.6372 16.8985 21.6997C16.8745 21.7622 16.8372 21.8187 16.7892 21.8654C16.7412 21.912 16.6837 21.9477 16.6205 21.9699C16.5574 21.9921 16.4902 22.0003 16.4235 21.994H14.2057Z" fill="currentColor"/>
<path d="M10.9999 16.4955H8.80332C8.43012 16.4955 8.26661 16.332 8.26661 15.9624V12.4401C8.2562 12.3686 8.26245 12.2957 8.28486 12.227C8.30727 12.1583 8.34523 12.0957 8.3958 12.0441C8.44637 11.9925 8.50818 11.9533 8.5764 11.9295C8.64462 11.9057 8.71742 11.898 8.78911 11.9069C9.24761 11.9069 9.70611 11.9069 10.1611 11.9069C10.2961 11.9069 10.3352 11.9496 10.3281 12.0776C10.321 12.2055 10.3281 12.433 10.3281 12.5929C10.3281 12.7749 10.4004 12.9493 10.529 13.078C10.6577 13.2066 10.8321 13.2789 11.0141 13.2789C11.196 13.2789 11.3705 13.2066 11.4992 13.078C11.6278 12.9493 11.7001 12.7749 11.7001 12.5929C11.7001 12.4152 11.7001 12.2375 11.7001 12.0562C11.7001 11.9496 11.7285 11.9069 11.8458 11.9069C12.3221 11.9069 12.8019 11.9069 13.2675 11.9069C13.3324 11.9032 13.3974 11.9134 13.4581 11.9368C13.5187 11.9603 13.5736 11.9965 13.6191 12.043C13.6645 12.0895 13.6995 12.1452 13.7216 12.2063C13.7438 12.2674 13.7525 12.3326 13.7473 12.3974C13.7473 13.5988 13.7473 14.8001 13.7473 16.0015C13.7547 16.0682 13.7469 16.1356 13.7247 16.1989C13.7025 16.2622 13.6663 16.3196 13.6188 16.3671C13.5714 16.4145 13.514 16.4506 13.4507 16.4729C13.3874 16.4951 13.32 16.5029 13.2533 16.4955H10.9999Z" fill="currentColor"/>
</svg>
