<svg width="34" height="25" viewBox="0 0 34 25" fill="none" xmlns="http://www.w3.org/2000/svg">
<g clip-path="url(#clip0_5301_5844)">
<path d="M19.572 25.0003H11.7341C11.2879 25.006 10.8455 24.9194 10.4351 24.746C10.0247 24.5726 9.65551 24.3162 9.35106 23.9933C9.04661 23.6704 8.81371 23.2881 8.66722 22.8708C8.52073 22.4536 8.46389 22.0106 8.5004 21.5704C8.60819 20.7472 8.77752 19.9241 8.93151 19.1009C9.30107 17.043 9.65529 14.985 10.0403 13.0033C10.0403 12.7442 10.0403 12.6832 9.76309 12.6832H3.98863C3.86765 12.698 3.7449 12.6881 3.62792 12.6541C3.51094 12.6202 3.40223 12.563 3.30846 12.4858C3.21469 12.4087 3.13786 12.3134 3.08271 12.2058C3.02755 12.0982 2.99518 11.9805 2.98769 11.86C2.98079 11.7388 3.00016 11.6176 3.04436 11.5043C3.08857 11.3911 3.15664 11.2885 3.24408 11.2034C3.33152 11.1182 3.4363 11.0526 3.55141 11.0108C3.66653 10.9689 3.78935 10.9518 3.91166 10.9607H10.0711C10.3175 10.9607 10.3944 10.9607 10.4406 10.6711C10.9026 8.00846 11.3748 5.34078 11.8573 2.66802C11.9867 1.92677 12.3819 1.25652 12.9702 0.780484C13.5586 0.304444 14.3007 0.0545357 15.0602 0.0765331H30.7359C31.1505 0.0664009 31.563 0.137192 31.9499 0.284946C32.3368 0.4327 32.6905 0.654502 32.9908 0.937631C33.2911 1.22076 33.5322 1.55967 33.7001 1.93503C33.8681 2.3104 33.9596 2.7149 33.9696 3.12531C33.9669 3.8042 33.879 4.48013 33.7078 5.13752C32.9687 9.2737 32.2347 13.4048 31.5058 17.5308C31.1979 19.1924 30.9207 20.8387 30.6127 22.5003C30.4838 23.2484 30.0882 23.9259 29.4977 24.4098C28.9071 24.8937 28.1609 25.152 27.3944 25.1375L19.572 25.0003ZM16.3844 12.7137V12.6222H12.0575C11.8727 12.6222 11.8419 12.7137 11.8111 12.8662C11.7187 13.4302 11.6109 14.0095 11.5031 14.5735C11.1028 16.8906 10.6716 19.1467 10.2713 21.5095C10.2163 21.7313 10.2156 21.9631 10.2694 22.1852C10.3232 22.4074 10.43 22.6135 10.5807 22.7865C10.7314 22.9596 10.9216 23.0945 11.1357 23.1799C11.3497 23.2654 11.5813 23.2989 11.8111 23.2777H27.456C27.8327 23.3032 28.2045 23.182 28.4922 22.94C28.7799 22.6979 28.9606 22.3541 28.9959 21.982C29.2268 20.7168 29.4578 19.4515 29.6734 18.171C30.5511 13.293 31.4135 8.3997 32.2912 3.50641C32.3297 3.28567 32.3185 3.05922 32.2586 2.84321C32.1986 2.62721 32.0913 2.42696 31.9443 2.25668C31.7973 2.08639 31.6142 1.95026 31.408 1.858C31.2018 1.76573 30.9776 1.71964 30.7513 1.7229H27.8564C27.5638 1.7229 27.456 1.79911 27.3944 2.08874C27.1635 3.41496 26.9016 4.7259 26.6398 6.05212C26.5553 6.55138 26.293 7.00419 25.9004 7.32855C25.5078 7.65291 25.0108 7.82743 24.4995 7.82046H20.9579C20.6319 7.84178 20.3054 7.78556 20.0058 7.65652C19.7062 7.52749 19.4422 7.3294 19.2357 7.07874C19.0292 6.82808 18.8863 6.53207 18.8189 6.21559C18.7515 5.89911 18.7615 5.57125 18.8482 5.2594C19.0792 4.19233 19.264 3.12529 19.495 2.05822C19.495 1.78383 19.495 1.7229 19.2024 1.7229H15.1372C14.7703 1.71762 14.4136 1.84217 14.1313 2.07413C13.849 2.30609 13.6596 2.63016 13.5973 2.98808C13.5973 3.3082 13.4895 3.6436 13.428 3.97897C13.043 6.17409 12.6426 8.38448 12.2422 10.5796C12.2422 10.854 12.2422 10.8997 12.5348 10.8997H16.3999C16.0919 10.5948 15.7531 10.2899 15.4452 9.96981C15.3558 9.89299 15.2834 9.79883 15.2324 9.69311C15.1814 9.58738 15.1529 9.47236 15.1487 9.35527C15.1446 9.23818 15.1648 9.12152 15.2081 9.01251C15.2515 8.90349 15.3171 8.80441 15.4008 8.72157C15.4845 8.63872 15.5845 8.57385 15.6946 8.53092C15.8047 8.488 15.9226 8.468 16.0408 8.47212C16.1591 8.47624 16.2753 8.50445 16.3821 8.55493C16.4889 8.60541 16.584 8.67711 16.6616 8.76558L19.0792 11.1588C19.1792 11.2403 19.2597 11.3428 19.315 11.4588C19.3703 11.5747 19.3989 11.7013 19.3989 11.8295C19.3989 11.9578 19.3703 12.0844 19.315 12.2004C19.2597 12.3163 19.1792 12.4187 19.0792 12.5003C18.2785 13.3082 17.5393 14.1009 16.6616 14.8936C16.5794 14.9823 16.4794 15.0531 16.3681 15.1016C16.2568 15.1501 16.1365 15.175 16.0149 15.175C15.8933 15.175 15.7729 15.1501 15.6616 15.1016C15.5503 15.0531 15.4504 14.9823 15.3682 14.8936C15.2836 14.8083 15.218 14.7065 15.1757 14.5946C15.1334 14.4827 15.1153 14.3633 15.1225 14.244C15.1298 14.1248 15.1622 14.0084 15.2178 13.9023C15.2734 13.7962 15.3509 13.7029 15.4452 13.6284L16.3844 12.7137ZM23.514 1.7229H21.5892C21.3582 1.7229 21.2811 1.79903 21.2503 2.01245L20.5575 5.57956C20.5575 6.00639 20.5574 6.09789 20.9886 6.09789H24.3763C24.8075 6.09789 24.8999 6.09787 24.9769 5.59482C25.2232 4.39055 25.4388 3.17103 25.6851 1.96676C25.6851 1.75335 25.6851 1.7229 25.485 1.7229H23.514Z" fill="#6F9C3D"/>
<path d="M3.72691 7.82007H0.893538C0.715119 7.81806 0.541765 7.76128 0.397295 7.65762C0.252826 7.55395 0.144393 7.40849 0.086956 7.24126C0.0295186 7.07402 0.0258245 6.89321 0.0765236 6.72385C0.127223 6.55449 0.229739 6.40493 0.369946 6.29568C0.538384 6.18558 0.738252 6.13208 0.939779 6.14318H6.54478C6.66494 6.13222 6.78614 6.14683 6.90014 6.18598C7.01414 6.22514 7.1183 6.28793 7.20578 6.3702C7.29326 6.45248 7.36204 6.5523 7.40738 6.663C7.45272 6.7737 7.47365 6.89274 7.46875 7.0121C7.4671 7.12962 7.44097 7.24557 7.39196 7.35263C7.34296 7.45969 7.27206 7.55555 7.18388 7.63426C7.0957 7.71297 6.99209 7.77281 6.87946 7.81002C6.76684 7.84723 6.64762 7.861 6.52937 7.85049L3.72691 7.82007Z" fill="#6F9C3D"/>
<path d="M3.72637 15.7009H6.49809C7.08324 15.7009 7.46821 16.021 7.46821 16.524C7.47141 16.647 7.44768 16.7692 7.39875 16.8823C7.34982 16.9953 7.27678 17.0965 7.18466 17.1791C7.09253 17.2616 6.98352 17.3234 6.86501 17.3603C6.7465 17.3972 6.62135 17.4084 6.49809 17.393H0.923826C0.741525 17.406 0.559737 17.3613 0.404745 17.2654C0.249753 17.1695 0.129577 17.0274 0.0615106 16.8595C-0.00760453 16.7106 -0.0285026 16.5441 0.00182989 16.3831C0.0321624 16.222 0.112213 16.0742 0.230872 15.96C0.324239 15.8651 0.437305 15.7915 0.562264 15.7441C0.687224 15.6967 0.821049 15.6768 0.954559 15.6856L3.72637 15.7009Z" fill="#6F9C3D"/>
<path d="M23.6069 20.3205H20.9737C20.851 20.3356 20.7266 20.3248 20.6084 20.2889C20.4902 20.253 20.3809 20.1927 20.2879 20.1121C20.1949 20.0315 20.1201 19.9325 20.0685 19.8213C20.0168 19.7101 19.9895 19.5893 19.9883 19.4669C19.9897 19.3459 20.0167 19.2266 20.0674 19.1166C20.1181 19.0065 20.1914 18.9082 20.2827 18.8279C20.3741 18.7475 20.4813 18.6869 20.5977 18.65C20.714 18.613 20.8369 18.6005 20.9584 18.6132H26.2401C26.4688 18.6132 26.6881 18.7032 26.8498 18.8633C27.0115 19.0234 27.1024 19.2405 27.1024 19.4669C27.1024 19.6933 27.0115 19.9104 26.8498 20.0705C26.6881 20.2306 26.4688 20.3205 26.2401 20.3205H23.6069Z" fill="#6F9C3D"/>
</g>
<defs>
<clipPath id="clip0_5301_5844">
<rect width="34" height="25" fill="white"/>
</clipPath>
</defs>
</svg>
