<svg width="55" height="44" viewBox="0 0 55 44" fill="none" xmlns="http://www.w3.org/2000/svg">
<path d="M21.122 41.231L21.1206 41.214L17.6393 24.1484L7.22852 24.9872L13.4637 41.3714C13.4774 41.8598 13.8057 42.3458 14.4475 42.7163L16.5281 43.5734C16.7466 43.6996 17.1042 43.6996 17.3227 43.5734L20.9592 41.4739C21.0744 41.4073 21.1283 41.3185 21.122 41.231Z" fill="url(#paint0_linear_5301_5282)"/>
<path d="M17.3233 43.5733L12.1641 27.4427L17.4758 24.376L20.9595 41.4738L17.3233 43.5733Z" fill="#FCB258"/>
<path d="M3.7002 24.6155L9.05203 28.8395L13.2368 29.5574L21.1826 25.4129L15.6429 19.8389L3.7002 24.6155Z" fill="url(#paint1_linear_5301_5282)"/>
<path d="M21.6615 4.71582L7.17089 5.06678C7.1377 5.06745 7.1045 5.0679 7.07109 5.06925C5.61501 5.13069 4.09187 5.98959 2.78267 7.66679C-0.113352 11.3773 -0.871331 17.6869 1.08977 21.7601C2.00339 23.6573 3.34555 24.7341 4.81173 24.9687L18.7536 27.5595L21.6615 4.71582Z" fill="url(#paint2_linear_5301_5282)"/>
<path d="M41.7009 0.710377C32.2136 3.38596 23.0111 4.62317 21.766 4.70727C21.7355 4.70928 21.7048 4.71086 21.6741 4.71332C21.6662 4.71377 21.6615 4.71399 21.6615 4.71399C20.0408 4.85034 18.3611 5.83841 16.9084 7.69949C13.5664 11.9814 12.6918 19.263 14.9549 23.9633C15.9051 25.9368 17.2574 27.141 18.7538 27.5579C18.7538 27.5579 18.7579 27.5593 18.7637 27.5608C18.7852 27.5669 18.8067 27.5732 18.8285 27.5776C24.0512 28.6839 27.8437 30.6004 37.3454 34.9812C45.5031 38.7422 50.5071 -1.77324 41.7009 0.710377Z" fill="url(#paint3_linear_5301_5282)"/>
<path d="M50.4478 5.81722C49.1467 3.11473 47.3581 1.34491 45.3588 0.526609L45.3927 0.197406L43.6897 0.07115C43.3766 0.0262991 43.0607 0.00275157 42.7424 0.000957533L42.7294 6.10075e-05C40.031 -0.0111517 37.1814 1.5232 34.7449 4.6446C29.5738 11.2695 28.2206 22.5356 31.7224 29.8082C33.5785 33.6634 36.4263 35.622 39.4629 35.6251L41.7441 35.8104L41.8019 35.2466C43.7502 34.6176 45.6923 33.2014 47.4256 30.9808C52.5962 24.3559 53.9493 13.0898 50.4478 5.81722Z" fill="url(#paint4_linear_5301_5282)"/>
<path d="M51.6062 7.48657C54.6744 13.8588 53.4883 23.7311 48.9568 29.5368C44.426 35.3412 38.2653 34.8822 35.1968 28.5091C34.7342 27.5484 34.3682 26.5078 34.0962 25.4137C32.8262 20.311 33.5925 14.0422 36.0795 9.23889C36.5937 8.24051 37.1839 7.30694 37.8452 6.45926C42.3767 0.653306 48.5377 1.11325 51.6062 7.48657Z" fill="url(#paint5_linear_5301_5282)"/>
<path d="M52.7642 6.00191C49.2624 -1.27067 42.2321 -1.79564 37.0612 4.82906C31.8903 11.454 30.537 22.7201 34.0387 29.9929C37.5404 37.2655 44.5708 37.7904 49.7417 31.1655C54.9125 24.5408 56.2657 13.2747 52.7642 6.00191ZM48.9566 29.5365C44.4257 35.3409 38.265 34.8819 35.1965 28.5088C34.7339 27.5481 34.3679 26.5075 34.0959 25.4134C32.8259 20.3107 33.5922 14.0419 36.0792 9.23857C36.5934 8.24019 37.1836 7.30662 37.845 6.45894C42.3765 0.653213 48.5374 1.11316 51.6059 7.48625C54.6742 13.8584 53.4881 23.7308 48.9566 29.5365Z" fill="#FF9A9F"/>
<path d="M41.9169 35.6383C38.8412 35.6379 36.0726 33.553 34.3223 29.918C30.8515 22.7101 32.1988 11.5023 37.3253 4.93408C39.63 1.98154 42.4071 0.355469 45.1453 0.355469C48.2207 0.355469 50.9884 2.44036 52.739 6.07575C56.2098 13.284 54.8624 24.4915 49.736 31.0597C47.4313 34.0123 44.6544 35.6383 41.9169 35.6383ZM44.9457 2.21633C42.4448 2.21633 39.921 3.68542 37.8393 6.35271C37.1806 7.1968 36.5808 8.14091 36.0565 9.15925C33.5352 14.0289 32.7698 20.2729 34.0592 25.454C34.338 26.5755 34.7123 27.6282 35.1718 28.5824C36.7611 31.8836 39.292 33.777 42.1154 33.777C44.6158 33.777 47.1393 32.3084 49.2211 29.6413C53.7813 23.7986 54.9786 13.8262 51.8897 7.41141C50.3002 4.10994 47.769 2.21633 44.9457 2.21633Z" fill="#FCB258"/>
<path d="M44.6606 2.39063C46.8902 2.81065 48.9244 4.48561 50.3195 7.38276C53.3875 13.7549 52.2014 23.6273 47.6701 29.433C45.5897 32.0981 43.166 33.4418 40.8555 33.4997C43.5302 34.0036 46.4861 32.7015 48.9573 29.5357C53.4886 23.73 54.6749 13.8577 51.6067 7.48547C49.9468 4.03845 47.3824 2.32245 44.6606 2.39063Z" fill="url(#paint6_linear_5301_5282)"/>
<path d="M43.9752 11.9837L42.3456 24.0067L34.0962 25.4121C32.8262 20.3094 33.5925 14.0406 36.0795 9.2373L43.9752 11.9837Z" fill="url(#paint7_linear_5301_5282)"/>
<path d="M39.4296 22.0353C40.6263 24.5205 43.0285 24.6999 44.7954 22.436C46.5623 20.1724 47.0247 16.3226 45.8281 13.8374C44.6317 11.3522 42.2292 11.1731 40.4623 13.4367C38.6954 15.7005 38.233 19.5501 39.4296 22.0353Z" fill="#EB4141"/>
<path d="M42.2487 23.8511C41.2427 23.8511 40.3338 23.1617 39.7552 21.9604C38.586 19.5321 39.0407 15.7555 40.7686 13.5416C41.5342 12.5607 42.4517 12.0205 43.3518 12.0205C44.3576 12.0205 45.2665 12.7096 45.8449 13.9112C47.0141 16.3394 46.5593 20.1161 44.8315 22.3299C44.0658 23.3108 43.1486 23.8511 42.2487 23.8511Z" fill="#EF7B00"/>
<path d="M16.1513 9.78487C16.1513 9.78487 14.5822 13.4963 14.4824 16.3858C18.3183 16.0371 29.5521 17.133 29.5521 17.133C29.5521 17.133 30.1251 12.6246 31.794 8.61426C28.207 9.36147 16.1513 9.78487 16.1513 9.78487Z" fill="#F5F5F5"/>
<path d="M2.17598 9.34766C2.17598 9.34766 2.13091 9.40933 2.05354 9.5302C1.68845 10.1007 0.851534 12.0795 0.358398 15.0184C3.09834 15.3173 12.9716 15.9367 12.9716 15.9367C12.9716 15.9367 13.4105 12.0259 14.7058 9.83407L2.17598 9.34766Z" fill="#EF7B00"/>
<defs>
<linearGradient id="paint0_linear_5301_5282" x1="14.5954" y1="30.2555" x2="18.1081" y2="6.26604" gradientUnits="userSpaceOnUse">
<stop stop-color="#B87028"/>
<stop offset="0.3216" stop-color="#D6363D"/>
<stop offset="0.3385" stop-color="#DB3940"/>
<stop offset="0.4149" stop-color="#EF454D"/>
<stop offset="0.492" stop-color="#FB4D54"/>
<stop offset="0.5699" stop-color="#FF4F57"/>
</linearGradient>
<linearGradient id="paint1_linear_5301_5282" x1="11.7353" y1="29.8364" x2="15.248" y2="5.84679" gradientUnits="userSpaceOnUse">
<stop stop-color="#B85A28"/>
<stop offset="0.3216" stop-color="#D68136"/>
<stop offset="0.3385" stop-color="#DB9239"/>
<stop offset="0.4149" stop-color="#EF8945"/>
<stop offset="0.492" stop-color="#FB934D"/>
<stop offset="0.5699" stop-color="#FFA14F"/>
</linearGradient>
<linearGradient id="paint2_linear_5301_5282" x1="10.8308" y1="4.71582" x2="10.8308" y2="27.5595" gradientUnits="userSpaceOnUse">
<stop stop-color="#ED9249"/>
<stop offset="1" stop-color="#FF7100"/>
</linearGradient>
<linearGradient id="paint3_linear_5301_5282" x1="29.2727" y1="29.2177" x2="30.0588" y2="14.2819" gradientUnits="userSpaceOnUse">
<stop offset="0.1162" stop-color="#9E9C9D"/>
<stop offset="0.5699" stop-color="#DEDEDE"/>
</linearGradient>
<linearGradient id="paint4_linear_5301_5282" x1="40.0685" y1="32.9" x2="42.2398" y2="0.672308" gradientUnits="userSpaceOnUse">
<stop offset="0.3216" stop-color="#FF4D55"/>
<stop offset="0.3949" stop-color="#FF5D65"/>
<stop offset="0.4818" stop-color="#FF6970"/>
<stop offset="0.5699" stop-color="#FF6D74"/>
</linearGradient>
<linearGradient id="paint5_linear_5301_5282" x1="33.4924" y1="17.9976" x2="53.3111" y2="17.9976" gradientUnits="userSpaceOnUse">
<stop offset="0.1162" stop-color="#BAB8B9"/>
<stop offset="0.797" stop-color="#E6E6E6"/>
</linearGradient>
<linearGradient id="paint6_linear_5301_5282" x1="48.7126" y1="4.64788" x2="46.7706" y2="29.0372" gradientUnits="userSpaceOnUse">
<stop offset="0.0351" stop-color="#C43131"/>
<stop offset="1" stop-color="#FF6D74"/>
</linearGradient>
<linearGradient id="paint7_linear_5301_5282" x1="33.379" y1="16.9577" x2="44.2886" y2="19.2995" gradientUnits="userSpaceOnUse">
<stop offset="0.0351" stop-color="#C47331"/>
<stop offset="1" stop-color="#E6AD43"/>
</linearGradient>
</defs>
</svg>
