<svg width="22" height="16" viewBox="0 0 22 16" fill="none" xmlns="http://www.w3.org/2000/svg">
<path d="M10.9959 0.0108921C13.8341 0.0108921 16.6723 0.0369244 19.5098 0.000211856C20.904 -0.0178107 22.0601 1.11627 21.9978 2.5494C21.9657 3.28899 21.9939 4.03125 21.9919 4.77218C21.9919 5.26279 21.6837 5.58453 21.205 5.60589C19.9354 5.66329 19.0232 6.51435 18.8645 7.79062C18.7176 8.95941 19.6233 10.1676 20.7853 10.3532C20.9302 10.3765 21.0771 10.3919 21.2233 10.4005C21.6693 10.4252 21.9873 10.751 21.9893 11.2062C21.9926 12.0299 21.9965 12.8543 21.9893 13.676C21.9768 14.9162 20.9302 15.9855 19.7092 15.9902C17.4598 15.9989 15.2105 15.9902 12.9612 15.9935H2.46026C1.01428 15.9935 0.00438006 14.9703 0.00306851 13.5044C0.00306851 12.7468 0.00306851 11.9892 0.00306851 11.2349C0.00306851 10.7436 0.309316 10.4239 0.790001 10.4025C2.05958 10.3451 2.96849 9.49742 3.13047 8.21715C3.27671 7.06371 2.36518 5.83083 1.23199 5.65461C1.0792 5.63058 0.92378 5.61456 0.769016 5.60589C0.322432 5.58052 0.00569226 5.25612 0.00372493 4.80088C-0.000209735 3.98453 -0.00217707 3.16884 0.00372493 2.35315C0.0135616 1.0849 1.05887 0.0168989 2.30878 0.0122264C5.20469 0.00866638 8.10038 0.00822211 10.9959 0.0108921ZM7.78255 1.60822C6.00714 1.60822 4.23195 1.60822 2.45698 1.60822C1.89695 1.60822 1.57497 1.93797 1.57234 2.50735C1.57234 2.94055 1.58349 3.3751 1.5671 3.8063C1.55857 4.01723 1.62349 4.098 1.82941 4.15541C3.4354 4.60797 4.61843 6.06713 4.71089 7.68382C4.825 9.67831 3.65378 11.3451 1.75137 11.8804C1.61366 11.9191 1.56841 11.9678 1.57103 12.1107C1.57956 12.5432 1.57103 12.9784 1.57103 13.4096C1.57103 14.1012 1.86351 14.4002 2.53896 14.4002H13.0681C13.1173 14.4002 13.1671 14.3962 13.2157 14.4002C13.3232 14.4116 13.3593 14.3642 13.356 14.2567C13.3507 14.0318 13.3514 13.8068 13.356 13.5825C13.3628 13.375 13.4489 13.1784 13.5959 13.0345C13.7428 12.8905 13.9392 12.8106 14.1431 12.8116C14.3471 12.8126 14.5426 12.8946 14.6882 13.04C14.8338 13.1855 14.9179 13.383 14.9226 13.5905C14.9266 13.7908 14.9325 13.991 14.9226 14.1913C14.9141 14.3481 14.9541 14.4056 15.1194 14.4049C16.6086 14.3982 18.0973 14.4049 19.5859 14.3989C20.0843 14.3989 20.4141 14.0578 20.4213 13.5512C20.4272 13.1099 20.4082 12.668 20.4285 12.2275C20.4397 11.9939 20.3689 11.9084 20.1439 11.8464C18.5701 11.4091 17.3753 9.92795 17.2854 8.32462C17.1739 6.32679 18.3465 4.6567 20.2436 4.12737C20.3813 4.08866 20.4285 4.0426 20.4259 3.89842C20.4174 3.42449 20.4259 2.94923 20.4213 2.47464C20.4167 1.94064 20.0862 1.61156 19.5537 1.60689C18.9485 1.60355 18.3432 1.60689 17.7379 1.60689C16.8703 1.60689 16.0034 1.61156 15.1364 1.60288C14.964 1.60288 14.9063 1.64827 14.9194 1.82449C14.9293 2.02462 14.9293 2.22512 14.9194 2.42524C14.9004 2.62413 14.8092 2.80863 14.6634 2.94253C14.5177 3.07643 14.3281 3.15007 14.1318 3.14898C13.9355 3.14789 13.7467 3.07216 13.6024 2.93666C13.4582 2.80115 13.3689 2.61565 13.3521 2.41657C13.3427 2.23354 13.3438 2.05011 13.3553 1.86721C13.3744 1.66362 13.3147 1.60021 13.1048 1.60355C11.3329 1.61223 9.55774 1.60889 7.78255 1.60889V1.60822Z" fill="#686868"/>
<path d="M14.9225 6.00702C14.9225 6.14853 14.9258 6.29004 14.9225 6.43155C14.9038 6.62981 14.8132 6.81387 14.6683 6.94781C14.5235 7.08174 14.3348 7.15595 14.1392 7.15595C13.9435 7.15595 13.7548 7.08174 13.61 6.94781C13.4651 6.81387 13.3745 6.62981 13.3558 6.43155C13.3501 6.14853 13.3501 5.86529 13.3558 5.58182C13.3745 5.38356 13.4651 5.1995 13.61 5.06556C13.7548 4.93163 13.9435 4.85742 14.1392 4.85742C14.3348 4.85742 14.5235 4.93163 14.6683 5.06556C14.8132 5.1995 14.9038 5.38356 14.9225 5.58182C14.9258 5.724 14.9225 5.86551 14.9225 6.00702Z" fill="#686868"/>
<path d="M13.3527 9.9932C13.3527 9.8597 13.3527 9.7262 13.3527 9.5927C13.3698 9.39365 13.4593 9.20828 13.6038 9.07296C13.7482 8.93765 13.9371 8.86217 14.1334 8.86134C14.3297 8.8605 14.5192 8.93437 14.6647 9.06845C14.8103 9.20252 14.9013 9.38713 14.92 9.58602C14.9253 9.86037 14.9246 10.1354 14.92 10.4097C14.903 10.6088 14.8134 10.7941 14.669 10.9295C14.5246 11.0648 14.3357 11.1402 14.1394 11.1411C13.9431 11.1419 13.7536 11.0681 13.608 10.934C13.4625 10.7999 13.3714 10.6153 13.3527 10.4164C13.3501 10.2762 13.3527 10.1347 13.3527 9.9932Z" fill="#686868"/>
</svg>
