<svg width="23" height="15" viewBox="0 0 23 15" fill="none" xmlns="http://www.w3.org/2000/svg">
<path d="M8.33807 0.00596775C10.2605 0.00596775 12.1828 0.0106134 14.1045 0C14.3483 0 14.4004 0.0716412 14.397 0.291205C14.3846 1.10246 14.3887 1.91306 14.397 2.72431C14.397 3.14089 14.6216 3.41683 14.9866 3.48449C15.4612 3.57272 15.8571 3.25233 15.8619 2.75483C15.8708 1.93627 15.8749 1.11639 15.8584 0.300485C15.8536 0.057704 15.9269 -6.15397e-06 16.1707 0.00198385C17.5124 0.0145872 18.8533 0.00729636 20.1949 0.0079597C21.8495 0.0079597 22.9713 1.09981 22.9727 2.70773C22.9727 3.56012 22.9686 4.41251 22.9768 5.26423C22.9768 5.42741 22.9309 5.47848 22.7624 5.47118C22.4385 5.45725 22.1152 5.46123 21.7988 5.55742C20.8161 5.85393 20.1757 6.80515 20.3223 7.75902C20.4791 8.77857 21.327 9.51156 22.3721 9.53677C22.5652 9.54141 22.8172 9.45319 22.9364 9.57923C23.0555 9.70526 22.9706 9.94206 22.9713 10.1304C22.975 10.8667 22.975 11.6033 22.9713 12.34C22.9658 13.8949 21.831 14.9934 20.2237 14.9934C18.8649 14.9934 17.5069 14.9867 16.1488 15C15.9023 15 15.8543 14.925 15.8578 14.7068C15.8694 13.8883 15.8673 13.069 15.8578 12.2525C15.8536 11.7802 15.5153 11.4744 15.0647 11.5082C14.6682 11.538 14.3983 11.8226 14.3942 12.2472C14.386 13.0432 14.3942 13.8392 14.3901 14.6305C14.3901 15.0617 14.4367 14.9954 14.0073 14.9954C10.2479 14.9954 6.48897 14.9954 2.73051 14.9954C1.42175 14.9954 0.376666 14.2186 0.0787555 13.0345C0.0302891 12.85 0.00522374 12.6604 0.00410895 12.47C0.00410895 11.5599 0.00410911 10.6498 0 9.73909C0 9.5759 0.0465696 9.52548 0.213674 9.53344C0.643076 9.55533 1.06563 9.52549 1.4649 9.34108C1.89121 9.14566 2.23718 8.81692 2.44706 8.40781C2.65694 7.99872 2.71852 7.5331 2.62185 7.08597C2.52519 6.63884 2.27593 6.23625 1.91423 5.94308C1.55252 5.6499 1.09945 5.48321 0.628008 5.46987C0.59445 5.46987 0.559524 5.46987 0.525966 5.46987C0.00342377 5.46655 0.00342342 5.46654 0.00342342 4.94848C0.00342342 4.17901 0.00342342 3.40954 0.00342342 2.64007C0.00958709 1.11772 1.14918 0.0139242 2.72434 0.0106075C4.59581 0.00441641 6.46706 0.00287219 8.33807 0.00596775ZM14.3949 7.49304V8.83231C14.3949 8.84889 14.3949 8.86548 14.3949 8.88206C14.4072 9.34043 14.6956 9.63892 15.1263 9.63892C15.5571 9.63892 15.8584 9.33711 15.8612 8.88339C15.8676 7.96533 15.8676 7.04728 15.8612 6.12922C15.8612 5.6609 15.5537 5.35577 15.114 5.36107C14.686 5.36572 14.4004 5.66621 14.3949 6.12856C14.3894 6.5909 14.3956 7.03733 14.3949 7.49238V7.49304Z" fill="#6F9C3D"/>
</svg>
