<svg width="31" height="30" viewBox="0 0 31 30" fill="none" xmlns="http://www.w3.org/2000/svg">
<path d="M30.017 27.8932C29.9599 28.0678 29.909 28.2455 29.8432 28.4178C29.6649 28.881 29.3511 29.2798 28.9427 29.5621C28.5344 29.8443 28.0504 29.9969 27.554 30C20.8644 30 14.174 30 7.48278 30C6.8254 29.9971 6.19583 29.7344 5.73136 29.2692C5.26688 28.804 5.00519 28.174 5.00333 27.5166C4.99002 26.0221 4.99472 24.5275 5.00333 23.033C5.01002 22.9236 4.99244 22.8141 4.95183 22.7123C4.91123 22.6105 4.84861 22.519 4.76846 22.4442C3.47433 21.1689 2.19272 19.881 0.907974 18.5994C-0.305523 17.3859 -0.302391 15.9273 0.915804 14.7084C5.39661 10.2239 9.87689 5.73867 14.3567 1.25264C14.9047 0.704611 15.4527 0.17537 16.2458 0H17.0663C17.6322 0.147676 18.1485 0.443291 18.5624 0.856494C21.4169 3.72713 24.2773 6.59099 27.1438 9.44805C27.976 10.2787 28.2054 11.2346 27.7811 12.3338C27.7176 12.4982 27.7607 12.5194 27.9142 12.5483C28.986 12.7488 29.6608 13.3884 29.9536 14.4359C29.9685 14.4907 29.963 14.5534 30.017 14.5925V27.8932ZM17.5368 13.5105C14.2361 13.5105 10.9356 13.5105 7.63545 13.5105C6.62707 13.5105 6.0258 14.1063 6.02502 15.1084C6.02137 19.1999 6.02137 23.2913 6.02502 27.3828C6.02502 28.3911 6.64429 29.0002 7.65345 29.0034C8.47315 29.0034 9.29755 29.0034 10.1141 29.0034C15.8653 29.0034 21.6168 29.0034 27.3685 29.0034C28.3862 29.0034 29.018 28.377 29.0188 27.3655C29.0188 23.2835 29.0188 19.2017 29.0188 15.1202C29.0188 14.706 28.9155 14.3287 28.6376 14.0124C28.2954 13.6209 27.8547 13.5058 27.3497 13.5066C24.0792 13.5129 20.8083 13.5142 17.5368 13.5105ZM12.3156 12.4763C12.4722 12.4834 12.5388 12.4888 12.6045 12.4888C17.1527 12.4888 21.7008 12.4904 26.2489 12.4935C26.3255 12.4974 26.4019 12.4822 26.4712 12.4492C26.5405 12.4163 26.6005 12.3667 26.6459 12.3049C27.1516 11.6825 27.0945 10.8283 26.4838 10.2161C24.5751 8.30163 22.6656 6.38769 20.7553 4.47428C20.5862 4.30361 20.5056 4.29735 20.3325 4.47428C18.0418 6.77914 15.7453 9.07905 13.443 11.374C13.0915 11.7224 12.7329 12.0669 12.3156 12.4755V12.4763ZM1.01445 16.6711C1.02886 16.9765 1.12601 17.2723 1.29551 17.5268C1.39494 17.6732 1.4607 17.6967 1.59614 17.5527C2.92708 16.1301 4.43886 14.8767 5.65392 13.3399C5.87 13.0658 6.20195 12.9343 6.44387 12.6947C10.1496 8.99632 13.8522 5.29659 17.5517 1.59555C17.7036 1.44367 17.6675 1.38339 17.5133 1.28239C16.8799 0.85806 16.0869 0.955141 15.4942 1.54858C12.5714 4.47141 9.65063 7.39242 6.73198 10.3116C5.00646 12.0387 3.2799 13.7647 1.5523 15.4897C1.38936 15.6416 1.25798 15.8241 1.16568 16.0268C1.07339 16.2295 1.022 16.4485 1.01445 16.6711ZM8.12398 12.398L8.16312 12.4873C9.04676 12.4873 9.93091 12.4873 10.8156 12.4873C10.9182 12.4873 10.9722 12.409 11.0301 12.3511C13.9143 9.46684 16.799 6.58264 19.6843 3.69843C19.8017 3.58099 19.8056 3.51836 19.6843 3.40249C19.3312 3.06584 18.9797 2.72841 18.6524 2.36515C18.463 2.15298 18.3604 2.19917 18.1827 2.37689C14.9102 5.6609 11.6335 8.94021 8.35258 12.2148C8.27992 12.2802 8.2036 12.3414 8.12398 12.398ZM5.00177 15.6291C4.94148 15.6518 4.92348 15.6533 4.9086 15.6651C4.03175 16.5409 3.15438 17.4164 2.27649 18.2917C2.17079 18.3966 2.19193 18.4546 2.28666 18.5469C2.67029 18.9219 3.05078 19.3009 3.42422 19.6861C3.52835 19.7933 3.58941 19.8027 3.69824 19.69C4.08969 19.2836 4.49445 18.8859 4.89607 18.4867C4.92922 18.4587 4.95596 18.424 4.97447 18.3848C4.99298 18.3457 5.00282 18.3029 5.00333 18.2596C5.0002 17.3914 5.00177 16.5239 5.00177 15.6291ZM4.98924 19.8982L4.92113 19.8567C4.74341 20.0478 4.56334 20.2372 4.38797 20.4306C4.34961 20.4729 4.25488 20.5089 4.3363 20.5911C4.5422 20.797 4.74967 21.0013 4.98924 21.2401V19.8982Z" fill="black"/>
<path d="M9.51589 15.002C10.0138 15.002 10.5117 14.998 11.0097 15.002C11.1418 14.999 11.2731 15.0226 11.396 15.0713C11.5189 15.1199 11.6307 15.1927 11.725 15.2853C11.8193 15.3779 11.8941 15.4885 11.9449 15.6104C11.9958 15.7324 12.0217 15.8633 12.0212 15.9955C12.0314 16.6594 12.0298 17.3264 12.0212 17.9872C12.0141 18.5563 11.6195 18.9838 11.0543 18.9932C10.0297 19.0104 9.00465 19.0104 7.97905 18.9932C7.43102 18.9846 7.02783 18.583 7.00982 18.0193C6.9879 17.3366 6.98477 16.6515 7.00982 15.9688C7.03253 15.3817 7.46156 15.0051 8.04795 15.002C8.5357 14.998 9.02423 14.998 9.51589 15.002ZM9.53938 15.9994C9.11035 15.9994 8.67819 16.0041 8.2515 15.9994C8.09492 15.9994 8.02368 16.0323 8.02681 16.2076C8.03542 16.7337 8.03229 17.2606 8.02681 17.7867C8.02681 17.9245 8.04795 18.0013 8.21549 17.9997C9.08294 17.9924 9.95092 17.9924 10.8194 17.9997C10.976 17.9997 11.0191 17.941 11.0175 17.7938C11.0112 17.2669 11.0097 16.7408 11.0175 16.2139C11.0175 16.0456 10.9588 15.9962 10.7967 16.0002C10.3771 16.0049 9.9551 15.9994 9.53624 15.9994H9.53938Z" fill="black"/>
<path d="M8.52226 24.0143C8.2091 24.0143 7.89594 24.0198 7.5867 24.0143C7.24535 24.0064 7.01831 23.806 7.00813 23.5179C6.99795 23.2298 7.23126 22.9996 7.58748 22.9949C8.2138 22.9861 8.83751 22.9861 9.45861 22.9949C9.79918 23.0004 10.0239 23.2173 10.0231 23.5038C10.0223 23.7904 9.79448 24.0033 9.45783 24.0127C9.14624 24.0213 8.83386 24.0143 8.52226 24.0143Z" fill="black"/>
<path d="M12.5221 24.014C12.2199 24.014 11.9185 24.014 11.6163 24.014C11.2444 24.0077 11.0268 23.823 11.0197 23.5161C11.0119 23.1935 11.228 22.997 11.6194 22.9923C12.2231 22.986 12.8267 22.9853 13.4303 22.9923C13.799 22.997 14.0175 23.1982 14.0159 23.5035C14.0143 23.8089 13.7904 24.0022 13.4272 24.014H12.5221Z" fill="black"/>
<path d="M16.5008 24.0137C16.1986 24.0137 15.8972 24.0192 15.5958 24.0137C15.2333 24.0066 15.0133 23.8062 15.0156 23.4978C15.018 23.1893 15.2255 22.9998 15.577 22.9944C16.1991 22.985 16.8221 22.985 17.4458 22.9944C17.8145 23.0006 18.0189 23.2057 18.0087 23.5228C17.9993 23.8187 17.7863 24.0019 17.4348 24.0153H16.5008V24.0137Z" fill="black"/>
<path d="M8.50199 26.0111C8.18883 26.0111 7.87567 26.0174 7.56721 26.0111C7.23369 26.0041 7.0043 25.7896 7.00587 25.5015C7.00743 25.2133 7.22195 25.009 7.54529 25.0043C8.18727 24.9934 8.83003 24.9934 9.47357 25.0043C9.80004 25.009 10.0138 25.2157 10.0216 25.4944C10.0294 25.7731 9.79769 26.0033 9.46731 26.0119C9.13693 26.0205 8.82376 26.0111 8.50199 26.0111Z" fill="black"/>
<path d="M12.5165 26.0117C12.2034 26.0117 11.8902 26.0164 11.5817 26.0117C11.2365 26.0047 11.0243 25.8113 11.0196 25.5114C11.0149 25.2116 11.2161 25.008 11.5676 25.0026C12.2002 24.9926 12.8328 24.9926 13.4654 25.0026C13.8161 25.008 14.0213 25.2116 14.0134 25.5114C14.0056 25.8113 13.7872 26.0008 13.4474 26.0125H12.5165V26.0117Z" fill="black"/>
<path d="M21.0076 20.9914C21.0076 20.8262 20.9958 20.6602 21.0076 20.4958C21.0121 20.363 21.0673 20.237 21.1618 20.1435C21.2562 20.0501 21.3828 19.9963 21.5157 19.9932C21.644 19.994 21.7671 20.044 21.8597 20.1328C21.9523 20.2216 22.0074 20.3426 22.0136 20.4707C22.0351 20.8198 22.0351 21.1699 22.0136 21.519C22.0123 21.5851 21.9978 21.6503 21.971 21.7108C21.9442 21.7712 21.9056 21.8257 21.8575 21.871C21.8094 21.9164 21.7527 21.9517 21.6908 21.9749C21.6289 21.998 21.5629 22.0086 21.4969 22.006C21.2299 21.995 21.0271 21.786 21.0052 21.4869C20.9935 21.3225 21.0052 21.1566 21.0052 20.9914H21.0076Z" fill="black"/>
<path d="M8.0215 21.0264C8.0215 21.1916 8.03559 21.3583 8.0215 21.5212C7.99018 21.8187 7.76784 22.0183 7.50165 22.0089C7.37327 22.005 7.25126 21.9521 7.16058 21.8612C7.06991 21.7702 7.01744 21.648 7.0139 21.5196C6.99276 21.1705 6.99276 20.8204 7.0139 20.4713C7.02128 20.3431 7.07732 20.2225 7.17058 20.1342C7.26385 20.0459 7.3873 19.9965 7.51574 19.9961C7.7694 19.9961 7.97765 20.1934 8.0215 20.4729C8.02465 20.492 8.02622 20.5114 8.02619 20.5308C8.02619 20.696 8.02619 20.8612 8.02619 21.0264H8.0215Z" fill="black"/>
<path d="M24.0233 21.0342C24.0324 21.199 24.0324 21.3642 24.0233 21.529C24.0154 21.657 23.9594 21.7774 23.8665 21.8658C23.7735 21.9542 23.6506 22.0042 23.5223 22.0058C23.3942 22.0076 23.2704 21.9596 23.177 21.872C23.0835 21.7844 23.0277 21.664 23.0212 21.536C22.9981 21.1776 22.9981 20.818 23.0212 20.4595C23.0297 20.3314 23.0874 20.2115 23.1822 20.125C23.2771 20.0385 23.4018 19.992 23.5301 19.9953C23.6579 20.0014 23.7789 20.0547 23.8699 20.1447C23.9608 20.2348 24.0152 20.3553 24.0226 20.483C24.039 20.6662 24.0226 20.8518 24.0226 21.0365L24.0233 21.0342Z" fill="black"/>
<path d="M10.0228 21.0018C10.0228 21.1662 10.033 21.3322 10.0228 21.4966C10.0009 21.7957 9.79264 22.0008 9.52176 22.0055C9.45584 22.0063 9.3904 21.9941 9.32923 21.9695C9.26806 21.9449 9.21236 21.9085 9.16534 21.8622C9.11832 21.816 9.08092 21.761 9.05529 21.7002C9.02966 21.6395 9.01631 21.5743 9.016 21.5083C8.99727 21.1693 8.99727 20.8296 9.016 20.4906C9.01651 20.4245 9.03009 20.3593 9.05595 20.2985C9.08181 20.2377 9.11944 20.1827 9.16667 20.1366C9.21391 20.0904 9.26981 20.0541 9.33116 20.0296C9.3925 20.0052 9.45808 19.9932 9.52411 19.9942C9.78951 20.0005 10.0017 20.2126 10.0228 20.5078C10.0322 20.6706 10.0228 20.8366 10.0228 21.0018Z" fill="black"/>
<path d="M19.0084 20.9822C19.0084 20.817 18.9983 20.651 19.0084 20.4874C19.0148 20.3548 19.0718 20.2298 19.1677 20.1381C19.2635 20.0463 19.3909 19.9948 19.5236 19.9941C19.6515 19.996 19.7736 20.0476 19.864 20.1381C19.9543 20.2287 20.0058 20.3509 20.0074 20.4788C20.025 20.828 20.025 21.1779 20.0074 21.5271C20.0045 21.6551 19.9515 21.7769 19.8597 21.8663C19.7679 21.9556 19.6446 22.0053 19.5165 22.0046C19.3837 22.0035 19.2565 21.9507 19.1619 21.8575C19.0672 21.7643 19.0125 21.6379 19.0092 21.5051C18.9983 21.3329 19.0084 21.1567 19.0084 20.9822Z" fill="black"/>
<path d="M11.0212 20.9931C11.0212 20.8177 11.0102 20.6408 11.0212 20.4662C11.0276 20.3437 11.0792 20.2279 11.1659 20.1412C11.2526 20.0544 11.3684 20.0029 11.4909 19.9965C11.6197 19.9915 11.7454 20.0362 11.8421 20.1213C11.9389 20.2064 11.9992 20.3254 12.0108 20.4537C12.0296 20.8146 12.0296 21.1763 12.0108 21.5372C12.0042 21.6657 11.948 21.7866 11.8541 21.8746C11.7602 21.9625 11.6359 22.0107 11.5072 22.0088C11.3786 22.007 11.2557 21.9554 11.1643 21.8648C11.0729 21.7742 11.0202 21.6517 11.0173 21.5231C11.0048 21.3485 11.0173 21.1716 11.0173 20.9962L11.0212 20.9931Z" fill="black"/>
<path d="M14.017 21.0268C14.017 21.1834 14.0224 21.3399 14.017 21.4965C14.0044 21.7948 13.7985 22.0062 13.5245 22.0109C13.4585 22.0117 13.3931 21.9994 13.332 21.9745C13.2708 21.9497 13.2153 21.9129 13.1686 21.8663C13.1219 21.8197 13.085 21.7642 13.0601 21.7031C13.0352 21.642 13.0227 21.5766 13.0235 21.5106C13.013 21.1693 13.013 20.8277 13.0235 20.4858C13.0255 20.3575 13.0772 20.2349 13.1677 20.1439C13.2582 20.053 13.3805 20.0007 13.5089 19.998C13.6419 20 13.769 20.0535 13.8635 20.1472C13.9579 20.241 14.0124 20.3676 14.0154 20.5007C14.024 20.6713 14.017 20.8475 14.017 21.0268Z" fill="black"/>
<path d="M16.013 20.989C16.013 21.1738 16.0232 21.3601 16.013 21.5449C16.0038 21.6699 15.9475 21.7867 15.8555 21.8718C15.7635 21.9569 15.6426 22.0039 15.5172 22.0033C15.3919 22.0027 15.2714 21.9546 15.1802 21.8686C15.089 21.7826 15.0338 21.6653 15.0258 21.5402C15.0122 21.179 15.0122 20.8178 15.0258 20.4566C15.0348 20.3336 15.0889 20.2183 15.1778 20.1327C15.2667 20.0472 15.384 19.9975 15.5073 19.9932C15.6354 19.9935 15.7588 20.042 15.8529 20.129C15.947 20.216 16.005 20.3352 16.0154 20.4629C16.0154 20.4827 16.0154 20.5023 16.0154 20.5216V20.9914L16.013 20.989Z" fill="black"/>
<path d="M26.0236 21.0158C26.0236 21.181 26.0338 21.3462 26.0236 21.5106C26.0201 21.6436 25.9646 21.7699 25.8691 21.8624C25.7735 21.9549 25.6454 22.0063 25.5124 22.0054C25.3844 22.0048 25.2618 21.9542 25.1706 21.8644C25.0795 21.7746 25.0271 21.6527 25.0246 21.5247C25.0074 21.1755 25.0074 20.8248 25.0246 20.4764C25.0269 20.3483 25.0792 20.2261 25.1703 20.136C25.2614 20.0458 25.3842 19.9949 25.5124 19.9941C25.6451 19.9956 25.7722 20.0481 25.8673 20.1406C25.9624 20.2331 26.0184 20.3587 26.0236 20.4913C26.0346 20.6651 26.0236 20.8405 26.0236 21.0158Z" fill="black"/>
</svg>
