<svg width="30" height="26" viewBox="0 0 30 26" fill="none" xmlns="http://www.w3.org/2000/svg">
<path d="M0 9.67212C0.242721 9.38318 0.557099 9.16308 0.91165 9.03387C8.36154 6.07371 15.8095 3.10962 23.2554 0.141597L23.3921 0.0894747C23.8838 -0.107213 24.1602 0.014734 24.3589 0.511372C25.2354 2.70969 26.1104 4.90866 26.9837 7.10829L29.9015 14.4379C30.108 14.9581 29.9999 15.2138 29.4806 15.4213C28.387 15.8619 27.2954 16.3064 26.1969 16.7293C25.9835 16.8119 25.9068 16.9102 25.9078 17.1473C25.9176 19.7357 25.9147 22.3231 25.9137 24.9164C25.9163 25.0336 25.913 25.1507 25.9038 25.2675C25.8952 25.4051 25.836 25.5345 25.7375 25.6309C25.6391 25.7274 25.5085 25.7839 25.3708 25.7897C25.3029 25.7897 25.2341 25.7897 25.1663 25.7897C17.0312 25.7897 8.89653 25.7897 0.762166 25.7897C0.412061 25.7897 0.153417 25.6914 0 25.3728V9.67212ZM12.9814 10.4864C9.1637 10.4864 5.34598 10.4844 1.52827 10.4805C1.25585 10.4805 1.16931 10.5317 1.16931 10.8257C1.18046 15.3069 1.18046 19.7888 1.16931 24.2713C1.16931 24.5536 1.23619 24.6224 1.51942 24.6224C9.14567 24.6145 16.7719 24.6145 24.3982 24.6224C24.6549 24.6224 24.7385 24.5713 24.7385 24.2939C24.7286 19.8029 24.7286 15.3118 24.7385 10.8208C24.7385 10.5592 24.6785 10.4825 24.4061 10.4825C20.5975 10.4884 16.789 10.4887 12.9804 10.4835L12.9814 10.4864ZM3.65643 9.22859L3.67315 9.29448H6.97653C7.01045 9.29972 7.04516 9.29541 7.07678 9.28203C7.10839 9.26866 7.13565 9.24675 7.15552 9.21876C7.26566 9.03879 7.45055 8.9788 7.63544 8.90602C9.88817 8.00912 12.1409 7.11157 14.3936 6.21336C16.1225 5.52561 17.8517 4.84081 19.5813 4.15895C19.8763 4.04094 20.134 4.08323 20.3444 4.33302C21.1263 5.26237 22.1235 5.69902 23.3371 5.63313C23.6695 5.61543 23.8956 5.74623 24.0255 6.06191C24.4188 7.05781 24.8184 8.05174 25.2243 9.0437C25.2626 9.14205 25.2675 9.27678 25.3934 9.30038C25.8733 9.39283 25.9235 9.73605 25.9215 10.1393C25.9147 11.8475 25.9215 13.5567 25.9146 15.265C25.9146 15.5216 25.9707 15.56 26.2097 15.4616C26.9187 15.1666 27.6308 14.8716 28.3526 14.6051C28.625 14.5067 28.625 14.3985 28.5316 14.1635C26.8676 10.0049 25.2112 5.84162 23.5623 1.6738C23.4502 1.39057 23.3439 1.37876 23.0843 1.48399C17.6682 3.64756 12.2504 5.8072 6.83098 7.9629L3.65643 9.22859ZM10.0026 9.24334L10.0222 9.30333C14.6221 9.30333 19.2217 9.30333 23.8209 9.30333C24.0176 9.30333 24.0255 9.24137 23.9615 9.08402C23.6931 8.4261 23.4236 7.7672 23.1748 7.10239C23.104 6.91357 23.0165 6.82998 22.806 6.81719C21.7131 6.76502 20.6761 6.31851 19.8871 5.56036C19.8334 5.49541 19.7587 5.4513 19.6759 5.43568C19.5931 5.42005 19.5074 5.43389 19.4338 5.4748C16.6598 6.58936 13.8832 7.69704 11.104 8.79784C10.7343 8.94438 10.3684 9.09287 10.0016 9.24039L10.0026 9.24334Z" fill="black"/>
<path d="M12.9792 11.6631C15.3617 11.6631 17.7446 11.6631 20.1278 11.6631C20.5113 11.6631 20.6667 11.786 20.7936 12.1548C21.1801 13.2828 21.9403 14.0342 23.0653 14.4226C23.4243 14.5465 23.5502 14.7177 23.5502 15.0943C23.5541 16.7249 23.5541 18.3557 23.5502 19.9869C23.5502 20.3705 23.4263 20.5396 23.0683 20.6626C21.9295 21.0559 21.1673 21.8122 20.7837 22.955C20.6608 23.3237 20.5054 23.4329 20.115 23.4329C15.4083 23.4329 10.7012 23.4329 5.99378 23.4329C5.36831 23.4329 5.30537 23.3749 5.07623 22.7956C4.89693 22.3032 4.60855 21.8578 4.23267 21.4926C3.85679 21.1275 3.40317 20.8521 2.90577 20.6871C2.47208 20.5327 2.3521 20.3921 2.35013 19.9446C2.34423 18.3534 2.34423 16.7616 2.35013 15.1691C2.35013 14.698 2.46421 14.5692 2.91462 14.4039C3.98657 14.0106 4.72219 13.2799 5.10278 12.1991C5.25128 11.7752 5.38109 11.667 5.82758 11.666C8.21078 11.6621 10.5937 11.6621 12.9762 11.666L12.9792 11.6631ZM12.986 12.8324C10.7897 12.8324 8.59334 12.8324 6.39699 12.8324C6.22685 12.8324 6.11769 12.858 6.03607 13.0389C5.58459 14.058 4.77333 14.8748 3.75743 15.3333C3.68541 15.3568 3.62375 15.4045 3.58288 15.4684C3.54202 15.5322 3.52447 15.6081 3.53321 15.6834C3.54108 16.9238 3.54108 18.1636 3.53321 19.4028C3.52291 19.4781 3.53904 19.5546 3.57885 19.6193C3.61866 19.6841 3.67969 19.733 3.75153 19.7578C4.7675 20.2157 5.58031 21.0303 6.03607 22.0472C6.05724 22.1154 6.10129 22.1741 6.16078 22.2136C6.22027 22.253 6.29155 22.2707 6.36257 22.2636C10.7553 22.259 15.148 22.259 19.5407 22.2636C19.6112 22.2733 19.6829 22.258 19.7434 22.2205C19.8039 22.183 19.8494 22.1255 19.8721 22.0581C20.3283 21.0285 21.1515 20.2057 22.1812 19.7499C22.2487 19.727 22.3061 19.6813 22.3434 19.6206C22.3808 19.5599 22.3957 19.4881 22.3858 19.4175C22.3799 18.1676 22.3779 16.9176 22.3858 15.6686C22.3858 15.4808 22.3179 15.4061 22.1537 15.3294C21.1474 14.8736 20.3411 14.0676 19.8849 13.0615C19.8608 12.9856 19.8107 12.9206 19.7435 12.878C19.6762 12.8353 19.596 12.8178 19.5171 12.8285C17.3407 12.8353 15.1634 12.8324 12.986 12.8324Z" fill="black"/>
<path d="M9.42485 17.5221C9.42621 17.0553 9.52033 16.5933 9.70171 16.1631C9.8831 15.7329 10.1482 15.343 10.4815 15.0161C10.8148 14.6892 11.2097 14.4318 11.6434 14.2587C12.077 14.0857 12.5407 14.0006 13.0075 14.0083C14.9262 14.0171 16.5204 15.6428 16.4978 17.5644C16.5173 18.0429 16.4395 18.5203 16.2692 18.9679C16.0989 19.4155 15.8396 19.8238 15.5069 20.1683C15.1743 20.5127 14.7752 20.7861 14.3338 20.9719C13.8925 21.1576 13.418 21.252 12.9391 21.2491C12.4603 21.2462 11.987 21.1463 11.5479 20.9552C11.1088 20.7642 10.713 20.486 10.3845 20.1376C10.0559 19.7892 9.80151 19.3778 9.63657 18.9282C9.47163 18.4787 9.3996 18.0003 9.42485 17.5221ZM12.9564 19.8824C13.2647 19.8833 13.5701 19.8235 13.8552 19.7063C14.1404 19.5892 14.3997 19.417 14.6183 19.1997C14.8369 18.9823 15.0106 18.7241 15.1294 18.4396C15.2482 18.1551 15.3098 17.8501 15.3107 17.5418C15.3116 17.2335 15.2518 16.9281 15.1347 16.6429C15.0175 16.3578 14.8454 16.0985 14.628 15.8799C14.4107 15.6612 14.1524 15.4876 13.868 15.3688C13.5835 15.25 13.2784 15.1883 12.9702 15.1874C12.3476 15.1856 11.7497 15.4312 11.3082 15.8701C10.8667 16.3091 10.6176 16.9054 10.6158 17.528C10.614 18.1506 10.8595 18.7484 11.2985 19.19C11.7374 19.6315 12.3338 19.8806 12.9564 19.8824Z" fill="black"/>
<path d="M6.48876 16.6543C6.665 16.6564 6.83664 16.7107 6.98204 16.8104C7.12744 16.91 7.24007 17.0504 7.30572 17.214C7.37136 17.3775 7.38708 17.5569 7.35089 17.7294C7.3147 17.9019 7.22822 18.0598 7.10237 18.1832C6.97652 18.3065 6.81693 18.3899 6.64376 18.4226C6.47059 18.4554 6.29159 18.4361 6.12936 18.3673C5.96712 18.2984 5.82893 18.183 5.73222 18.0357C5.63551 17.8883 5.58462 17.7156 5.58596 17.5394C5.59449 17.3043 5.69289 17.0815 5.86085 16.9168C6.02882 16.7521 6.25357 16.6582 6.48876 16.6543ZM6.47204 17.267C6.32354 17.2817 6.20848 17.3525 6.20356 17.5325C6.19764 17.5687 6.19975 17.6057 6.20975 17.641C6.21974 17.6763 6.23738 17.7089 6.26141 17.7366C6.28544 17.7643 6.31527 17.7864 6.34878 17.8012C6.3823 17.8161 6.41867 17.8234 6.45533 17.8226C6.49374 17.8291 6.53314 17.8267 6.57046 17.8156C6.60779 17.8044 6.64205 17.7848 6.67058 17.7583C6.69911 17.7317 6.72115 17.699 6.73498 17.6626C6.74882 17.6261 6.75408 17.587 6.75036 17.5482C6.75823 17.3702 6.65693 17.2807 6.47204 17.263V17.267Z" fill="black"/>
<path d="M20.3268 17.5571C20.3237 17.7327 20.2687 17.9034 20.1688 18.0477C20.0689 18.1921 19.9286 18.3037 19.7654 18.3685C19.6023 18.4333 19.4236 18.4484 19.2519 18.412C19.0801 18.3755 18.923 18.289 18.8003 18.1634C18.6776 18.0379 18.5948 17.8788 18.5623 17.7063C18.5298 17.5338 18.549 17.3555 18.6175 17.1939C18.6861 17.0322 18.8009 16.8945 18.9475 16.798C19.0942 16.7014 19.2661 16.6504 19.4417 16.6514C19.6779 16.658 19.9023 16.7562 20.0674 16.9252C20.2326 17.0942 20.3256 17.3208 20.3268 17.5571ZM19.4289 17.2621C19.3744 17.2633 19.3215 17.2804 19.2767 17.3113C19.2319 17.3423 19.1972 17.3857 19.1768 17.4362C19.1564 17.4867 19.1513 17.542 19.1621 17.5954C19.1729 17.6488 19.1991 17.6978 19.2374 17.7365C19.2758 17.7751 19.3247 17.8016 19.378 17.8128C19.4313 17.8239 19.4866 17.8192 19.5373 17.7991C19.5879 17.7791 19.6316 17.7447 19.6628 17.7001C19.6941 17.6555 19.7115 17.6027 19.7131 17.5483C19.7229 17.384 19.6246 17.2788 19.4279 17.265L19.4289 17.2621Z" fill="black"/>
</svg>
