<svg width="390" height="384" viewBox="0 0 390 384" fill="none" xmlns="http://www.w3.org/2000/svg">
<path d="M368.664 263.681C328.239 353.783 225.037 390.983 144.826 382.931C122.926 380.732 78.861 376.309 44.9745 343.123C-20.1021 279.391 -7.6251 148.769 57.0648 72.8689C65.3955 63.0945 123.021 -2.36134 210.995 0.065811C275.404 1.84291 319.984 39.0236 325.403 43.6532C332.249 49.5017 347.33 63.3789 360.759 85.2106C392.312 136.508 393.926 207.377 368.664 263.681Z" fill="#E8EFE0"/>
<path d="M26.7842 336.665C26.7842 340.02 29.5314 342.764 32.8893 342.764H363.026C366.384 342.764 369.131 340.02 369.131 336.665L371.878 146.945C371.878 143.59 367.926 137.041 360.683 137.533L38.0366 129.185C33.8236 129.076 29.7501 130.697 26.7667 133.671C23.7832 136.645 22.1508 140.711 22.2504 144.92L26.7842 336.665Z" fill="#6F9C3D"/>
<path d="M32.8094 330.812C32.8094 333.989 35.4085 336.588 38.5851 336.588H355.062C358.239 336.588 360.838 333.989 360.838 330.812L363.43 158.583C363.125 148.218 354.038 144.493 348.53 144.713L39.3034 136.417C36.3435 136.338 33.4818 137.478 31.3854 139.569C29.289 141.66 28.1361 144.522 28.2104 147.482L32.8094 330.812Z" fill="#E8EFE0"/>
<path d="M357.419 248.989C357.415 248.989 357.41 248.989 357.406 248.989C356.939 248.982 356.565 248.598 356.572 248.13L356.777 234.162C356.784 233.699 357.162 233.328 357.623 233.328C357.627 233.328 357.632 233.328 357.636 233.328C358.103 233.335 358.477 233.719 358.47 234.187L358.265 248.155C358.258 248.618 357.88 248.989 357.419 248.989Z" fill="#91B3FA"/>
<path d="M357.921 214.761C357.916 214.761 357.912 214.761 357.908 214.761C357.44 214.755 357.067 214.369 357.074 213.902L357.859 160.406C357.845 157.228 356.88 154.691 354.992 152.882C351.468 149.506 345.874 149.679 345.638 149.69L246.802 147.039C246.335 147.027 245.966 146.638 245.979 146.171C245.991 145.703 246.35 145.306 246.848 145.348L345.625 147.998C346.239 147.962 352.196 147.859 356.163 151.66C358.395 153.798 359.535 156.744 359.552 160.415L358.767 213.928C358.76 214.39 358.382 214.761 357.921 214.761Z" fill="#5CA903"/>
<path d="M0.775405 358.513H388.443C388.869 358.513 389.218 358.164 389.218 357.738V342.619C389.218 342.193 388.869 341.844 388.443 341.844H0.775405C0.349028 341.844 0 342.193 0 342.619V357.738C0 358.164 0.34889 358.513 0.775405 358.513Z" fill="url(#paint0_linear_5768_728)"/>
<path d="M290.289 45.3141L92.2643 44.1018C85.7563 44.0619 80.5513 49.4979 80.8736 55.998L94.4971 337.343H314.861L327.097 85.9763L290.289 45.3141Z" fill="#C1E597"/>
<path d="M298.523 84.77C292.073 84.543 287.113 78.9834 287.622 72.5489L289.745 45.6836L327.136 85.8102L298.523 84.77Z" fill="#6F9C3D"/>
<path d="M125.466 223.954C152.917 223.509 258.293 221.691 284.903 221.232C288.259 221.174 291.019 223.207 291.001 225.72C290.984 228.112 288.442 230.057 285.248 230.123L125.91 233.423C122.841 233.486 120.202 231.789 119.824 229.507L119.728 228.93C119.295 226.321 121.956 224.01 125.466 223.954Z" fill="#6F9C3D"/>
<path d="M123.546 251.885C124.008 252.473 124.856 252.831 125.765 252.823L235.166 251.819C236.541 251.806 237.645 250.974 237.652 249.945L237.69 244.548C237.698 243.476 236.514 242.609 235.082 242.639L128.723 244.863C123.986 244.962 121.14 248.821 123.546 251.885Z" fill="#6F9C3D"/>
<path d="M124.937 272.776C152.388 272.331 257.764 270.513 284.374 270.054C287.73 269.996 290.49 272.029 290.472 274.542C290.455 276.934 287.913 278.88 284.719 278.946L125.381 282.245C122.311 282.308 119.673 280.611 119.294 278.329L119.199 277.752C118.766 275.143 121.427 272.833 124.937 272.776Z" fill="#6F9C3D"/>
<path d="M123.017 300.707C123.479 301.296 124.326 301.654 125.236 301.645L234.637 300.641C236.011 300.628 237.116 299.796 237.123 298.767L237.161 293.37C237.169 292.298 235.985 291.432 234.553 291.462L128.194 293.685C123.456 293.784 120.611 297.644 123.017 300.707Z" fill="#6F9C3D"/>
<g opacity="0.8">
<path d="M251.438 108.843C250.857 108.128 249.946 107.832 248.98 107.852L160.991 109.698L158.768 102.638C158.459 101.654 157.534 101.024 156.488 101.052L144.407 101.369C143.112 101.403 142.062 102.304 142.062 103.597C142.062 104.89 143.112 105.738 144.407 105.708L154.731 105.464L173.412 165.156C173.726 166.161 174.669 166.852 175.739 166.866L237.498 167.695C238.947 167.715 240.124 166.805 240.124 165.435C240.124 164.065 238.947 163.126 237.498 163.111L177.541 162.464L172.729 146.966L238.617 147.066C239.966 147.068 241.155 146.185 241.533 144.96L251.932 111.337C252.203 110.46 252.02 109.557 251.438 108.843Z" fill="white"/>
<path d="M184.777 170.547C179.695 170.468 175.584 174.423 175.584 179.363C175.584 184.303 179.695 188.43 184.777 188.563C189.889 188.698 194.071 184.744 194.071 179.75C194.071 174.755 189.889 170.626 184.777 170.547ZM184.777 183.759C182.402 183.703 180.474 181.777 180.474 179.465C180.474 177.153 182.402 175.308 184.777 175.351C187.158 175.395 189.101 177.321 189.101 179.646C189.101 181.969 187.158 183.815 184.777 183.759Z" fill="white"/>
<path d="M225.946 171.188C220.613 171.105 216.299 175.155 216.299 180.215C216.299 185.275 220.613 189.505 225.946 189.645C231.313 189.786 235.703 185.738 235.703 180.621C235.703 175.503 231.313 171.271 225.946 171.188ZM225.946 184.723C223.454 184.665 221.431 182.691 221.431 180.322C221.431 177.954 223.454 176.064 225.946 176.11C228.446 176.156 230.486 178.13 230.486 180.512C230.486 182.893 228.446 184.782 225.946 184.723Z" fill="white"/>
</g>
<path opacity="0.81" d="M201.048 210.668C159.387 210.668 125.494 176.775 125.494 135.114C125.494 93.4538 159.387 59.5605 201.048 59.5605C242.708 59.5605 276.602 93.4538 276.602 135.114C276.602 176.775 242.708 210.668 201.048 210.668ZM201.048 63.32C161.46 63.32 129.254 95.5267 129.254 135.114C129.254 174.702 161.46 206.908 201.048 206.908C240.635 206.908 272.842 174.702 272.842 135.114C272.842 95.5267 240.635 63.32 201.048 63.32Z" fill="white"/>
<path d="M202.041 144.516C200.875 144.592 199.789 144.05 199.186 143.08L189.044 126.795C188.094 125.269 188.606 123.178 190.187 122.126C191.768 121.075 193.819 121.459 194.768 122.984L201.801 134.289L211.081 115.388C211.914 113.692 213.915 112.914 215.55 113.649C217.184 114.385 217.834 116.355 217.002 118.05L205.009 142.495C204.46 143.614 203.368 144.385 202.158 144.506C202.119 144.51 202.08 144.513 202.041 144.516Z" fill="#FF8829"/>
<path d="M59.8046 205.251C59.1723 205.251 58.6504 204.749 58.6308 204.112C58.6179 203.685 58.3465 193.53 61.3363 182.686C65.3635 168.079 73.4398 159.422 84.6929 157.65C90.2064 156.782 95.1204 158.084 99.2969 161.519C112.911 172.716 114.205 202.758 114.254 204.032C114.279 204.68 113.773 205.226 113.125 205.25C112.471 205.266 111.931 204.769 111.906 204.121C111.894 203.82 110.602 173.857 97.8021 163.332C94.1672 160.344 89.8802 159.212 85.0583 159.972C60.0468 163.909 60.9672 203.64 60.9797 204.041C60.9994 204.689 60.4895 205.231 59.8411 205.251C59.8289 205.251 59.8167 205.251 59.8046 205.251Z" fill="url(#paint1_linear_5768_728)"/>
<path d="M10.3146 333.888L30.5024 194.672L106.34 193.397L130.784 341.626H16.8814C12.8298 341.626 9.72323 337.966 10.3146 333.888Z" fill="#FF8829"/>
<path d="M121.071 194.672L106.342 193.397L130.785 341.626H145.408C148.372 341.626 150.588 338.854 149.983 335.902L121.071 194.672Z" fill="#E26A0B"/>
<path d="M96.7805 204.932C96.1522 204.932 95.6315 204.435 95.6072 203.802C95.5956 203.5 94.3034 173.537 81.5036 163.013C77.8687 160.024 73.5818 158.892 68.7597 159.652C43.7678 163.587 44.6687 203.321 44.6809 203.721C44.7002 204.37 44.1904 204.912 43.542 204.931C42.8865 204.958 42.352 204.441 42.332 203.793C42.3191 203.366 42.0477 193.211 45.0377 182.366C49.0646 167.759 57.1412 159.103 68.3945 157.331C73.9086 156.463 78.822 157.765 82.9984 161.2C96.6119 172.397 97.9068 202.439 97.9552 203.712C97.9801 204.361 97.4746 204.906 96.826 204.931C96.8108 204.931 96.7954 204.932 96.7805 204.932Z" fill="url(#paint2_linear_5768_728)"/>
<path d="M299.145 371.551C304.115 371.98 312.739 372.678 319.539 372.977C323.626 373.157 325.979 372.757 327.334 372.214C327.332 372.367 327.327 372.512 327.321 372.646C327.289 373.361 326.708 373.933 325.985 373.974C313.138 374.691 302.92 374.222 299.283 374.001C298.53 373.955 298.082 373.138 298.467 372.496C298.659 372.175 298.892 371.861 299.145 371.551Z" fill="url(#paint3_linear_5768_728)"/>
<path d="M319.538 372.978C312.738 372.679 304.114 371.981 299.145 371.552C304.03 365.558 319.538 361.518 319.538 361.518H323.917C326.93 365.86 327.366 369.994 327.333 372.216C325.978 372.758 323.625 373.158 319.538 372.978Z" fill="url(#paint4_linear_5768_728)"/>
<path d="M324.653 354.369L324.243 362.48C324.199 363.358 323.542 364.096 322.662 364.222C321.787 364.347 320.615 364.363 319.372 363.949C318.607 363.695 318.04 363.051 317.899 362.265L316.482 354.369L324.653 354.369Z" fill="url(#paint5_linear_5768_728)"/>
<path d="M375.492 380.907C377.648 380.519 378.622 379.072 379.031 377.525C379.034 377.539 379.037 377.553 379.039 377.567C379.356 379.199 378.621 380.89 377.152 381.694C375.376 382.666 373.434 382.831 371.926 382.751C370.309 382.665 368.824 381.8 368.008 380.416L367.996 380.395C369.62 381.433 371.899 381.555 375.492 380.907Z" fill="url(#paint6_linear_5768_728)"/>
<path d="M365.33 356.864H368.942C374.443 356.719 377.898 371.716 379.029 377.524C378.62 379.071 377.645 380.518 375.49 380.906C371.897 381.554 369.617 381.432 367.994 380.394C365.022 375.338 363.548 367.935 362.84 363.614C362.034 358.7 365.33 356.864 365.33 356.864Z" fill="url(#paint7_linear_5768_728)"/>
<path d="M368.475 349.34L370.481 357.317C370.727 358.295 370.259 359.307 369.355 359.771C368.233 360.346 366.653 360.951 365.201 360.776C364.519 360.694 363.951 360.213 363.726 359.57L360.781 351.177L368.475 349.34Z" fill="url(#paint8_linear_5768_728)"/>
<path d="M297.922 244.275C297.922 244.275 315.845 356.312 315.55 356.928C315.55 356.928 320.5 359.178 325.897 357.214C325.897 357.214 324.276 297.323 320.478 274.359C320.478 274.359 351.068 327.89 360.782 354.564C360.782 354.564 365.848 353.96 370.042 351.2C370.042 351.2 337.106 254.846 328.319 242.012L297.922 244.275Z" fill="url(#paint9_linear_5768_728)"/>
<path d="M319.761 273.777C319.857 273.777 319.954 273.751 320.041 273.696C320.289 273.541 320.364 273.214 320.209 272.967L313.511 262.268C313.434 262.145 313.309 262.058 313.167 262.03L308.238 261.038C307.95 260.981 307.672 261.166 307.614 261.452C307.557 261.739 307.742 262.018 308.028 262.076L312.734 263.023L319.311 273.528C319.412 273.689 319.585 273.777 319.761 273.777Z" fill="url(#paint10_linear_5768_728)"/>
<path d="M215.672 134.568C215.672 134.568 227.767 137.236 235.123 140.632C236.584 141.307 237.749 142.486 238.413 143.94C240.613 148.759 247.195 160.844 259.961 166.612C258.122 169.052 255.162 174.127 253.873 182.658C246.206 176.951 239.587 167.421 236.409 151.792C236.409 151.792 233.989 153.107 230.971 151.641C229.376 150.867 227.534 149.768 226.152 148.904C224.775 148.043 223.749 146.705 223.35 145.142C222.824 143.078 223.134 141.263 223.134 139.316L216.917 137.39C216.917 137.39 215.049 136.684 215.672 134.568Z" fill="url(#paint11_linear_5768_728)"/>
<path d="M253.871 182.657C255.161 174.127 258.121 169.051 259.959 166.611C267.889 170.194 278.204 171.339 291.34 166.788C292.551 166.368 293.814 166.122 295.094 166.047C302.087 165.637 325.131 164.889 344.199 171.189C348.212 172.514 351.462 175.481 353.137 179.325C358.295 191.162 366.646 218.119 343.463 231.729C341.682 227.307 339.626 223.752 337.868 221.141C341.602 214.844 342.707 206.243 336.082 195.042C331.252 208.087 328.985 227.12 328.512 235.543C328.356 238.316 328.842 241.084 329.93 243.645L330.049 243.924C330.282 244.472 329.962 245.102 329.376 245.233C316.325 248.165 302.75 247.368 298.695 247.033C297.971 246.973 297.37 246.455 297.203 245.756C290.857 219.014 290.843 200.774 292.396 189.243C286.46 190.57 268.306 193.401 253.871 182.657Z" fill="#FF8829"/>
<path d="M292.374 189.96C292.635 189.96 292.863 189.767 292.898 189.5C294.389 178.242 297.424 173.328 297.454 173.28C297.61 173.033 297.536 172.706 297.289 172.549C297.043 172.394 296.716 172.466 296.56 172.713C296.43 172.917 293.374 177.837 291.848 189.362C291.81 189.651 292.014 189.918 292.304 189.956C292.327 189.959 292.351 189.96 292.374 189.96Z" fill="url(#paint12_linear_5768_728)"/>
<path d="M324.579 150.469C324.579 150.469 325.899 164.429 327.062 168.558C327.238 169.184 326.966 169.845 326.397 170.17C324.424 171.297 319.692 173.136 313.219 169.964C312.17 169.45 311.54 168.357 311.589 167.2L312.159 153.711L324.579 150.469Z" fill="url(#paint13_linear_5768_728)"/>
<path d="M311.875 132.607C311.875 132.607 307.652 142.308 307.368 147.4C307.085 152.491 305.987 155.795 311.875 156.82C317.762 157.846 322.721 154.913 325.408 149.841C325.408 149.841 329.618 142.026 328.674 138.825C327.729 135.625 311.875 132.607 311.875 132.607Z" fill="url(#paint14_linear_5768_728)"/>
<path d="M323.394 146.195L323.059 146.047C322.632 145.859 322.449 145.351 322.664 144.937C323.494 143.333 325.112 139.657 323.022 138.8C320.327 137.695 309.654 135.518 307.351 131.731C305.138 128.092 307.099 123.393 310.046 122.057C310.243 121.967 310.476 122.038 310.577 122.23L310.823 122.694C310.991 123.013 311.461 122.964 311.561 122.619C311.657 122.287 312.098 122.223 312.281 122.515C312.989 123.649 314.9 125.485 320.01 126.429C327.273 127.769 332.075 130.708 332.194 135.727C332.202 136.046 332.541 136.223 332.814 136.057C333.35 135.73 334.208 135.577 335.355 136.541C337.349 138.218 336.533 142.569 332.161 146.148C331.953 146.318 331.955 146.642 332.18 146.789C332.972 147.305 334.154 148.532 331.092 150.169C327.925 151.862 325.56 151.723 324.649 151.573C324.423 151.535 324.277 151.316 324.326 151.092L325.298 146.681C325.353 146.431 325.163 146.195 324.908 146.195L323.394 146.195Z" fill="url(#paint15_linear_5768_728)"/>
<path d="M323.213 147.126C323.213 147.126 324.824 140.929 327.602 142.667C330.38 144.404 326.161 149.61 323.927 149.842L323.213 147.126Z" fill="url(#paint16_linear_5768_728)"/>
<path d="M233.185 150.35C233.302 150.35 233.42 150.311 233.518 150.231C233.745 150.047 233.779 149.713 233.594 149.486C233.137 148.923 229.078 143.961 227.515 143.078C226.946 142.757 226.607 142.425 226.535 142.118C226.5 141.972 226.523 141.807 226.606 141.62L231.374 142.576L234.076 144.894C234.297 145.085 234.632 145.06 234.822 144.837C235.013 144.615 234.987 144.281 234.766 144.091L231.959 141.682C231.89 141.623 231.808 141.583 231.719 141.565L226.439 140.507C226.227 140.464 226.015 140.553 225.896 140.73C225.509 141.304 225.381 141.838 225.504 142.361C225.65 142.979 226.137 143.516 226.994 144C228.17 144.664 231.565 148.668 232.773 150.154C232.878 150.283 233.031 150.35 233.185 150.35Z" fill="url(#paint17_linear_5768_728)"/>
<path d="M323.418 238.438L304.752 238.669L311.285 232.519C312.909 230.991 315.387 230.743 317.261 231.959C318.359 232.671 319.549 233.637 320.58 234.917C320.58 234.917 332.224 230.661 337.868 221.141C339.626 223.752 341.682 227.307 343.463 231.729C338.403 234.699 331.844 237.035 323.418 238.438Z" fill="url(#paint18_linear_5768_728)"/>
<path d="M321.408 240.847C321.372 240.849 321.335 240.85 321.299 240.85L273.917 240.798C272.746 240.798 271.798 239.857 271.799 238.698C271.8 237.539 272.754 236.581 273.922 236.602L321.304 236.653C322.475 236.654 323.423 237.595 323.422 238.753C323.421 239.876 322.528 240.792 321.408 240.847Z" fill="url(#paint19_linear_5768_728)"/>
<path d="M231.322 198.282H270.782C273.693 198.282 276.342 199.944 277.584 202.549L295.826 240.822H246.788C244.913 240.822 243.227 239.688 242.538 237.962L228.392 202.546C227.574 200.5 229.098 198.282 231.322 198.282Z" fill="url(#paint20_linear_5768_728)"/>
<path d="M259.124 217.907C259.979 220.535 259.347 223.088 257.713 223.609C256.079 224.129 254.061 222.42 253.205 219.791C252.35 217.163 252.982 214.61 254.616 214.089C256.251 213.569 258.269 215.278 259.124 217.907Z" fill="#FF8829"/>
<defs>
<linearGradient id="paint0_linear_5768_728" x1="0" y1="350.179" x2="551.798" y2="350.127" gradientUnits="userSpaceOnUse">
<stop stop-color="#6F9C3D"/>
<stop offset="1" stop-color="#427C01"/>
</linearGradient>
<linearGradient id="paint1_linear_5768_728" x1="123.645" y1="105.258" x2="71.0101" y2="234.025" gradientUnits="userSpaceOnUse">
<stop stop-color="#E1473D"/>
<stop offset="1" stop-color="#E9605A"/>
</linearGradient>
<linearGradient id="paint2_linear_5768_728" x1="109.567" y1="99.5041" x2="56.9325" y2="228.271" gradientUnits="userSpaceOnUse">
<stop stop-color="#E1473D"/>
<stop offset="1" stop-color="#E9605A"/>
</linearGradient>
<linearGradient id="paint3_linear_5768_728" x1="327.334" y1="372.954" x2="298.326" y2="372.954" gradientUnits="userSpaceOnUse">
<stop stop-color="#4042E2"/>
<stop offset="1" stop-color="#4F52FF"/>
</linearGradient>
<linearGradient id="paint4_linear_5768_728" x1="327.335" y1="367.27" x2="299.145" y2="367.27" gradientUnits="userSpaceOnUse">
<stop stop-color="#09005D"/>
<stop offset="1" stop-color="#1A0F91"/>
</linearGradient>
<linearGradient id="paint5_linear_5768_728" x1="324.653" y1="359.334" x2="316.482" y2="359.334" gradientUnits="userSpaceOnUse">
<stop stop-color="#FEBBBA"/>
<stop offset="1" stop-color="#FF928E"/>
</linearGradient>
<linearGradient id="paint6_linear_5768_728" x1="379.112" y1="380.147" x2="367.996" y2="380.147" gradientUnits="userSpaceOnUse">
<stop stop-color="#4042E2"/>
<stop offset="1" stop-color="#4F52FF"/>
</linearGradient>
<linearGradient id="paint7_linear_5768_728" x1="379.029" y1="369.084" x2="362.713" y2="369.084" gradientUnits="userSpaceOnUse">
<stop stop-color="#09005D"/>
<stop offset="1" stop-color="#1A0F91"/>
</linearGradient>
<linearGradient id="paint8_linear_5768_728" x1="370.546" y1="355.073" x2="360.781" y2="355.073" gradientUnits="userSpaceOnUse">
<stop stop-color="#FEBBBA"/>
<stop offset="1" stop-color="#FF928E"/>
</linearGradient>
<linearGradient id="paint9_linear_5768_728" x1="348.965" y1="381.48" x2="315.128" y2="231.095" gradientUnits="userSpaceOnUse">
<stop stop-color="#09005D"/>
<stop offset="1" stop-color="#1A0F91"/>
</linearGradient>
<linearGradient id="paint10_linear_5768_728" x1="352.06" y1="207.715" x2="302.245" y2="285.727" gradientUnits="userSpaceOnUse">
<stop stop-color="#CB236D"/>
<stop offset="1" stop-color="#4C246D"/>
</linearGradient>
<linearGradient id="paint11_linear_5768_728" x1="236.234" y1="149.385" x2="274.909" y2="199.699" gradientUnits="userSpaceOnUse">
<stop stop-color="#FEBBBA"/>
<stop offset="1" stop-color="#FF928E"/>
</linearGradient>
<linearGradient id="paint12_linear_5768_728" x1="291.844" y1="181.214" x2="297.536" y2="181.214" gradientUnits="userSpaceOnUse">
<stop stop-color="#E1473D"/>
<stop offset="1" stop-color="#E9605A"/>
</linearGradient>
<linearGradient id="paint13_linear_5768_728" x1="322.438" y1="181.903" x2="318.207" y2="159.689" gradientUnits="userSpaceOnUse">
<stop stop-color="#FEBBBA"/>
<stop offset="1" stop-color="#FF928E"/>
</linearGradient>
<linearGradient id="paint14_linear_5768_728" x1="310.99" y1="141.146" x2="335.13" y2="159.618" gradientUnits="userSpaceOnUse">
<stop stop-color="#FEBBBA"/>
<stop offset="1" stop-color="#FF928E"/>
</linearGradient>
<linearGradient id="paint15_linear_5768_728" x1="327.981" y1="126.521" x2="305.497" y2="155.468" gradientUnits="userSpaceOnUse">
<stop stop-color="#09005D"/>
<stop offset="1" stop-color="#1A0F91"/>
</linearGradient>
<linearGradient id="paint16_linear_5768_728" x1="313.983" y1="137.233" x2="338.124" y2="155.705" gradientUnits="userSpaceOnUse">
<stop stop-color="#FEBBBA"/>
<stop offset="1" stop-color="#FF928E"/>
</linearGradient>
<linearGradient id="paint17_linear_5768_728" x1="225.459" y1="145.423" x2="234.95" y2="145.423" gradientUnits="userSpaceOnUse">
<stop stop-color="#FF928E"/>
<stop offset="1" stop-color="#FE7062"/>
</linearGradient>
<linearGradient id="paint18_linear_5768_728" x1="299.829" y1="197.683" x2="316.726" y2="223.028" gradientUnits="userSpaceOnUse">
<stop stop-color="#FEBBBA"/>
<stop offset="1" stop-color="#FF928E"/>
</linearGradient>
<linearGradient id="paint19_linear_5768_728" x1="329.444" y1="228.281" x2="291.834" y2="240.617" gradientUnits="userSpaceOnUse">
<stop stop-color="#09005D"/>
<stop offset="1" stop-color="#1A0F91"/>
</linearGradient>
<linearGradient id="paint20_linear_5768_728" x1="277.677" y1="203.923" x2="250.752" y2="232.382" gradientUnits="userSpaceOnUse">
<stop stop-color="#09005D"/>
<stop offset="1" stop-color="#1A0F91"/>
</linearGradient>
</defs>
</svg>
