<svg width="345" height="389" viewBox="0 0 345 389" fill="none" xmlns="http://www.w3.org/2000/svg">
<path d="M172.371 344.55C267.569 344.55 344.743 267.42 344.743 172.275C344.743 77.1302 267.569 0 172.371 0C77.1733 0 0 77.1302 0 172.275C0 267.42 77.1733 344.55 172.371 344.55Z" fill="#E8EFE0"/>
<path d="M214.956 141.948L254.743 194.259C259.678 214.637 248.505 232.964 227.465 237.79L134.955 195.384L214.956 141.948Z" fill="#FFA04F"/>
<path d="M251.836 189.007L316.033 208.387C321.525 224.913 313.614 258.797 297.358 270.204L227.467 237.79L251.836 189.007Z" fill="#FFA04F"/>
<path d="M210.898 151.389C210.898 151.389 95.695 64.4382 85.5158 81.3589C73.8579 100.738 195.527 175.56 195.527 175.56L210.898 151.389Z" fill="#FFA04F"/>
<path d="M205.264 242.639L122.285 242.138C117.107 242.107 112.918 237.691 112.928 232.281L113.239 52.8838C113.248 47.6664 117.37 43.4281 122.448 43.4127L203.815 43.1651C208.934 43.1495 213.119 47.3816 213.162 52.6229L214.637 232.849C214.681 238.285 210.484 242.671 205.264 242.639Z" fill="#8FC9ED"/>
<path d="M206.409 241.334C206.064 241.377 205.712 241.398 205.361 241.395L122.407 240.807C117.957 240.776 114.321 236.905 114.328 232.182L114.615 52.9817C114.622 48.4268 118.201 44.7095 122.566 44.692L203.927 44.3604C204.055 44.36 204.183 44.3625 204.31 44.368C206.357 44.457 208.271 45.3305 209.701 46.8256C211.162 48.3536 211.975 50.3785 211.993 52.5309L213.448 232.94C213.483 237.216 210.467 240.824 206.409 241.334Z" fill="#33201B"/>
<path d="M209.14 53.4385L210.539 233.219L117.088 232.695L117.326 53.4385H209.14Z" fill="white"/>
<path d="M184.678 63.3994H170.131L171.257 80.2492L187.316 80.233L184.678 63.3994Z" fill="#FFDED9"/>
<path d="M169.162 53.3613L170.132 63.4001H184.679L182.217 53.3613H169.162Z" fill="#FFDED9"/>
<path d="M170.132 63.3994H155.592L155.203 80.2652L171.258 80.2492L170.132 63.3994Z" fill="#FF8829"/>
<path d="M156.113 53.3613L155.592 63.4001H170.131L169.162 53.3613H156.113Z" fill="#FF8829"/>
<path d="M182.217 53.3613L184.679 63.4001H199.233L195.275 53.3613H182.217Z" fill="#FF8829"/>
<path d="M199.232 63.3994H184.678L187.316 80.233L203.38 80.2169L199.232 63.3994Z" fill="#FF8829"/>
<path d="M195.275 53.3613L199.234 63.4001H214.505L209.159 53.3613H195.275Z" fill="#FFDED9"/>
<path d="M214.504 63.3994H199.232L203.381 80.2169L219.955 80.2005L214.504 63.3994Z" fill="#FFDED9"/>
<path d="M116.915 53.3613L111.74 63.4001H126.533L130.026 53.3613H116.915Z" fill="#FFDED9"/>
<path d="M111.739 63.3994L106.508 80.3138L123.109 80.2973L126.532 63.3994H111.739Z" fill="#FFDED9"/>
<path d="M141.058 63.3994L139.154 80.2811L155.202 80.2652L155.591 63.3994H141.058Z" fill="#FFDED9"/>
<path d="M143.066 53.3613L141.059 63.4001H155.592L156.112 53.3613H143.066Z" fill="#FFDED9"/>
<path d="M126.534 63.3994L123.111 80.2973L139.156 80.2811L141.06 63.3994H126.534Z" fill="#FF8829"/>
<path d="M130.027 53.3613L126.533 63.4001H141.059L143.067 53.3613H130.027Z" fill="#FF8829"/>
<path d="M123.115 80.3452L106.514 80.3617C106.511 80.3455 106.509 80.3307 106.508 80.3145V82.818C106.508 87.3132 110.262 90.9573 114.894 90.9573C119.115 90.9573 123.115 87.8692 123.115 83.0102L123.115 80.3452Z" fill="#FFC9C0"/>
<path d="M139.156 80.2486L123.117 80.265C123.114 80.2488 123.113 80.234 123.111 80.2178V82.7213C123.111 87.2165 126.739 90.8606 131.213 90.8606C135.291 90.8606 139.156 87.7726 139.156 82.9135L139.156 80.2486Z" fill="#CE6512"/>
<path d="M155.199 80.2486L139.16 80.265C139.157 80.2488 139.156 80.234 139.154 80.2178V82.7213C139.154 87.2165 142.781 90.8606 147.256 90.8606C151.334 90.8606 155.199 87.7726 155.199 82.9135L155.199 80.2486Z" fill="#FFC9C0"/>
<path d="M171.251 80.2486L155.213 80.265C155.21 80.2488 155.209 80.234 155.207 80.2178V82.7213C155.207 87.2165 158.834 90.8606 163.309 90.8606C167.387 90.8606 171.252 87.7726 171.252 82.9135L171.251 80.2486Z" fill="#CE6512"/>
<path d="M187.306 80.2486L171.268 80.265C171.265 80.2488 171.263 80.234 171.262 80.2178V82.7213C171.262 87.2165 174.889 90.8606 179.364 90.8606C183.441 90.8606 187.306 87.7726 187.306 82.9135L187.306 80.2486Z" fill="#FFC9C0"/>
<path d="M203.349 80.2486L187.311 80.265C187.308 80.2488 187.306 80.234 187.305 80.2178V82.7213C187.305 87.2165 190.932 90.8606 195.407 90.8606C199.484 90.8606 203.349 87.7726 203.349 82.9135L203.349 80.2486Z" fill="#CE6512"/>
<path d="M219.958 80.1665L203.374 80.183C203.37 80.1667 203.369 80.152 203.367 80.1357V82.6393C203.367 87.1345 207.118 90.7786 211.745 90.7786C215.961 90.7786 219.958 87.6905 219.958 82.8315V80.1665Z" fill="#FFC9C0"/>
<path d="M122.952 80.3452V80.3145H106.508C106.509 80.3307 106.511 80.3455 106.514 80.3617L122.952 80.3452Z" fill="#FBD2CB"/>
<path d="M122.953 80.3455L123.113 80.3453C123.113 80.3347 123.112 80.3246 123.112 80.3145H122.953V80.3455Z" fill="#F13005"/>
<path d="M123.113 80.3145C123.114 80.3246 123.115 80.3347 123.117 80.3453V80.3145H123.113Z" fill="#F13005"/>
<path d="M192.374 101.591H132.727V161.205H192.374V101.591Z" fill="#6F9C3D" fill-opacity="0.45"/>
<path d="M173.678 139.836H151.505C151.064 139.836 150.673 139.551 150.538 139.131L146.291 125.899C146.192 125.59 146.246 125.252 146.437 124.99C146.628 124.728 146.933 124.573 147.257 124.573H177.925C178.25 124.573 178.554 124.728 178.746 124.99C178.937 125.252 178.991 125.59 178.892 125.899L174.645 139.131C174.51 139.551 174.119 139.836 173.678 139.836ZM152.245 137.806H172.938L176.533 126.604H148.65L152.245 137.806Z" fill="#0D0D0D"/>
<path d="M171.858 145.44H152.949C152.388 145.44 151.934 144.985 151.934 144.425C151.934 143.864 152.388 143.409 152.949 143.409H171.116C172.353 143.379 172.912 142.521 173.001 141.647C173.081 140.863 172.783 140.066 172.257 139.837L178.642 119.842C178.776 119.421 179.167 119.136 179.609 119.136H186.212C186.772 119.136 187.227 119.59 187.227 120.151C187.227 120.712 186.772 121.166 186.212 121.166H180.35L174.498 139.726C176.053 142.283 173.935 145.44 171.858 145.44Z" fill="#0D0D0D"/>
<path d="M158.46 150.495C159.372 149.583 159.372 148.105 158.46 147.193C157.549 146.281 156.07 146.281 155.159 147.193C154.247 148.105 154.247 149.583 155.159 150.495C156.07 151.406 157.548 151.406 158.46 150.495Z" fill="#0D0D0D"/>
<path d="M170.864 149.426C171.16 148.171 170.383 146.914 169.128 146.617C167.873 146.321 166.616 147.098 166.32 148.353C166.023 149.608 166.8 150.865 168.055 151.161C169.31 151.458 170.567 150.681 170.864 149.426Z" fill="#0D0D0D"/>
<path d="M163.142 139.836C162.582 139.836 162.127 139.381 162.127 138.821V125.588C162.127 125.028 162.582 124.573 163.142 124.573C163.703 124.573 164.157 125.028 164.157 125.588V138.821C164.157 139.382 163.703 139.836 163.142 139.836Z" fill="#0D0D0D"/>
<path d="M157.484 139.836C157.02 139.836 156.602 139.517 156.495 139.046L153.492 125.813C153.368 125.267 153.711 124.723 154.257 124.599C154.804 124.475 155.348 124.817 155.472 125.364L158.475 138.596C158.599 139.143 158.257 139.687 157.71 139.811C157.634 139.828 157.559 139.836 157.484 139.836Z" fill="#0D0D0D"/>
<path d="M168.569 139.836C168.521 139.836 168.471 139.833 168.422 139.826C167.867 139.745 167.483 139.23 167.563 138.675L169.488 125.442C169.569 124.888 170.084 124.503 170.639 124.584C171.194 124.665 171.578 125.18 171.498 125.735L169.573 138.967C169.499 139.472 169.065 139.836 168.569 139.836Z" fill="#0D0D0D"/>
<path d="M175.804 133.303H149.41C148.849 133.303 148.395 132.848 148.395 132.288C148.395 131.727 148.849 131.272 149.41 131.272H175.804C176.365 131.272 176.819 131.727 176.819 132.288C176.819 132.848 176.365 133.303 175.804 133.303Z" fill="#0D0D0D"/>
<path d="M148.566 130.75C152.662 130.75 155.983 127.429 155.983 123.332C155.983 119.236 152.662 115.915 148.566 115.915C144.469 115.915 141.148 119.236 141.148 123.332C141.148 127.429 144.469 130.75 148.566 130.75Z" fill="#FF8829"/>
<path d="M146.212 126.252C144.822 126.252 144.371 125.034 144.371 125.034L145.123 124.606C145.123 124.606 145.393 125.41 146.212 125.41C146.821 125.41 147.174 124.982 147.174 124.433C147.174 123.869 146.836 123.456 146.055 123.456C145.326 123.456 144.642 124.027 144.642 124.027V120.9H147.949V121.757H145.544V122.787C145.544 122.787 145.837 122.629 146.288 122.629C147.22 122.629 148.084 123.2 148.084 124.433C148.084 125.666 147.122 126.252 146.212 126.252Z" fill="white"/>
<path d="M152.662 123.531C152.662 124.959 152.031 126.252 150.693 126.252C149.355 126.252 148.709 124.959 148.709 123.531C148.709 122.103 149.355 120.811 150.693 120.811C152.031 120.811 152.662 122.103 152.662 123.531ZM151.76 123.531C151.76 122.501 151.422 121.652 150.693 121.652C149.964 121.652 149.611 122.501 149.611 123.531C149.611 124.561 149.964 125.41 150.693 125.41C151.422 125.41 151.76 124.561 151.76 123.531Z" fill="white"/>
<path d="M186.887 172.417H137.133V194.579H186.887V172.417Z" fill="#6F9C3D"/>
<path d="M155.88 186.757C155.88 188.736 154.31 189.882 151.299 189.882H145.377V178.43H150.972C153.835 178.43 155.307 179.624 155.307 181.407C155.307 182.552 154.718 183.436 153.786 183.927C155.062 184.335 155.88 185.317 155.88 186.757ZM148.011 180.426V183.125H150.645C151.937 183.125 152.641 182.667 152.641 181.767C152.641 180.867 151.937 180.426 150.645 180.426H148.011ZM153.213 186.479C153.213 185.513 152.477 185.055 151.103 185.055H148.011V187.886H151.103C152.477 187.886 153.213 187.46 153.213 186.479Z" fill="white"/>
<path d="M157.793 184.843V178.43H160.443V184.745C160.443 186.92 161.392 187.82 162.995 187.82C164.615 187.82 165.548 186.92 165.548 184.745V178.43H168.166V184.843C168.166 188.213 166.235 190.078 162.979 190.078C159.724 190.078 157.793 188.213 157.793 184.843Z" fill="white"/>
<path d="M176.117 185.824V189.881H173.467V185.792L169.033 178.43H171.847L174.906 183.517L177.966 178.43H180.567L176.117 185.824Z" fill="white"/>
<path d="M251.054 188.029C233.269 157.943 197.172 100.854 197.172 100.854C197.172 100.854 189.218 99.2511 188.701 113.776C188.185 128.301 204.572 154.172 204.572 154.172C204.572 154.172 197.942 224.457 234.17 224.508C259.338 224.544 261.047 200.173 251.054 188.029Z" fill="#FFA04F"/>
<path d="M112.927 117.188C112.927 117.188 88.3441 127.003 103.903 146.764C119.461 166.525 127.485 146.764 118.388 130.772C115.028 124.866 112.927 117.188 112.927 117.188Z" fill="#FFA04F"/>
<path d="M112.927 139.464C112.927 139.464 88.3441 149.278 103.903 169.039C119.461 188.8 127.485 169.039 118.388 153.048C115.028 147.141 112.927 139.464 112.927 139.464Z" fill="#FFA04F"/>
<path d="M112.39 178.646C112.39 178.646 93.2121 186.302 105.35 201.719C117.489 217.136 123.749 201.719 116.652 189.243C114.03 184.635 112.39 178.646 112.39 178.646Z" fill="#FFA04F"/>
<path d="M113.233 295.737C113.233 295.737 165.086 200.993 156.833 191.395C148.58 181.798 88.7617 287 88.7617 287L113.233 295.737Z" fill="#FFA04F"/>
<path d="M133.834 308.347C129.461 316.393 81.6262 354.156 81.6262 354.156C39.4728 335.975 107.312 293.274 107.312 293.274C107.312 293.274 90.3835 264.815 105.354 260.916C116.281 258.067 123.454 265.669 126.526 269.981C126.948 270.569 127.291 271.097 127.559 271.529C128.012 272.262 128.239 272.716 128.239 272.716C128.239 272.716 138.21 300.297 133.834 308.347Z" fill="#FFA04F"/>
<path d="M118.802 299.353L113.281 295.646L81.2339 354.738L30.3477 327.673C30.3477 327.673 40.8142 260.646 47.9746 251.795C55.1349 242.944 65.0656 238.244 65.0656 238.244C74.0735 233.822 77.6503 238.125 81.7494 237.228C91.1106 235.185 95.9444 243.339 98.6129 242.54C101.657 241.627 105.696 242.141 109.178 243.555C110.682 244.164 112.078 244.942 113.249 245.85L113.259 245.86C114.46 246.783 115.421 247.846 116.002 248.993L131.147 253.229L127.381 267.303L127.875 267.4L126.797 269.486L118.802 299.353Z" fill="#FFA04F"/>
<path d="M120.985 295.126C117.494 307.942 107.916 306.029 110.906 298.437L126.684 270.205C127.107 270.793 127.291 271.097 127.559 271.529C122.902 279.928 120.985 295.126 120.985 295.126Z" fill="#DB6704"/>
<path d="M58.0996 389C32.0778 387.045 3.06857 358.035 5.37091 343.761L34.6582 315.476L88.8458 343.462L58.0996 389Z" fill="#FFA04F"/>
</svg>
