<svg width="321" height="315" viewBox="0 0 321 315" fill="none" xmlns="http://www.w3.org/2000/svg">
<path d="M270.974 263.311C262.957 271.578 255.782 276.438 250.29 280.107C196.72 315.888 135.484 305.575 116.552 302.049C86.0057 296.362 60.2214 292.352 38.0678 272.329C-12.2728 226.835 -9.82614 131.929 28.6414 73.1407C33.2023 66.169 71.6098 9.2192 132.979 1.19468C134.479 0.99842 135.6 0.886438 136.581 0.782539C146.074 -0.22298 204.902 -5.52995 252.874 34.6723C259.741 40.4272 270.791 50.8068 281.033 66.6388C318.507 124.525 318.626 214.178 270.974 263.311Z" fill="#E8EFE0"/>
<path d="M246.453 260.795C231.061 257.785 219.28 234.798 220.4 215.447C221.554 195.53 235.597 192.77 245.465 168.539C256.676 141.013 244.087 130.986 249.874 90.0453C251.18 80.8098 258.736 27.3533 277.765 24.5884C295.359 22.0279 325.198 62.4449 319.493 96.1061C315.425 120.108 296.281 123.005 291.623 150.996C287.537 175.554 300.923 181.445 297.196 205.226C292.661 234.175 266.662 264.747 246.453 260.795Z" fill="#6F9C3D"/>
<g style="mix-blend-mode:soft-light">
<path d="M242.501 243.786C258.517 215.75 269.834 166.983 276.507 131.011C283.731 92.0635 287.221 59.3062 287.256 58.9795L285.93 58.8398C285.895 59.1654 282.409 91.8788 275.197 130.777C268.544 166.645 257.27 215.253 241.346 243.125L242.501 243.786Z" fill="#F0F0F0"/>
</g>
<path d="M191.815 209.508C191.652 209.54 191.483 209.53 191.324 209.479C191.165 209.428 191.022 209.337 190.908 209.216C190.794 209.094 190.712 208.946 190.671 208.784C190.63 208.623 190.631 208.453 190.673 208.292C209.253 137.263 203.563 60.2705 203.503 59.5005C203.488 59.3692 203.5 59.2364 203.538 59.1098C203.576 58.9832 203.639 58.8656 203.723 58.7638C203.807 58.6621 203.911 58.5784 204.028 58.5176C204.145 58.4568 204.274 58.4203 204.405 58.4101C204.537 58.4 204.669 58.4165 204.795 58.4585C204.92 58.5006 205.035 58.5674 205.134 58.6551C205.233 58.7427 205.313 58.8493 205.37 58.9686C205.427 59.0878 205.459 59.2173 205.464 59.3493C205.524 60.1216 211.235 137.445 192.576 208.791C192.529 208.97 192.433 209.132 192.299 209.259C192.164 209.385 191.997 209.472 191.815 209.508Z" fill="url(#paint0_linear_6211_1578)"/>
<path d="M173.604 195.945C173.529 195.961 173.451 195.958 173.378 195.936C173.304 195.914 173.237 195.875 173.183 195.82C153.523 176.583 144.913 160.421 147.593 147.767C149.976 136.517 160.802 132.363 160.911 132.323C161.026 132.284 161.152 132.292 161.262 132.345C161.372 132.398 161.457 132.491 161.5 132.605C161.542 132.719 161.539 132.846 161.49 132.957C161.442 133.069 161.352 133.158 161.24 133.205C161.136 133.244 150.779 137.231 148.511 147.973C145.91 160.289 154.434 176.16 173.844 195.147C173.933 195.235 173.984 195.354 173.986 195.479C173.987 195.604 173.939 195.724 173.852 195.814C173.785 195.882 173.699 195.928 173.604 195.945Z" fill="#F0F0F0"/>
<path d="M45.3535 151.238C45.3535 213.404 97.633 263.796 162.133 263.796C226.633 263.796 281.802 211.199 281.802 149.033C281.802 86.8676 226.629 38.6777 162.133 38.6777C97.6364 38.6777 45.3535 89.0761 45.3535 151.238Z" fill="#FF8829"/>
<path d="M272.632 123.868C272.702 123.869 272.772 123.861 272.84 123.843C272.941 123.82 273.037 123.777 273.121 123.716C273.205 123.655 273.276 123.578 273.33 123.489C273.383 123.401 273.419 123.302 273.434 123.199C273.449 123.097 273.443 122.992 273.417 122.892C272.15 118.313 270.555 113.832 268.645 109.482C268.555 109.291 268.395 109.141 268.199 109.064C268.002 108.988 267.784 108.989 267.588 109.068C267.492 109.106 267.404 109.162 267.33 109.234C267.256 109.307 267.198 109.393 267.158 109.488C267.118 109.583 267.097 109.685 267.098 109.789C267.098 109.892 267.119 109.994 267.16 110.089C269.041 114.371 270.611 118.784 271.857 123.292C271.907 123.459 272.009 123.605 272.149 123.709C272.289 123.813 272.458 123.869 272.632 123.868Z" fill="white"/>
<path d="M254.787 88.692C254.961 88.6922 255.131 88.6377 255.273 88.5362C255.357 88.4766 255.428 88.4006 255.481 88.3129C255.535 88.2251 255.57 88.1274 255.585 88.0257C255.599 87.9239 255.594 87.8202 255.567 87.7209C255.541 87.6215 255.494 87.5285 255.431 87.4475C233.795 59.7917 198.943 43.2832 162.202 43.2832C146.506 43.2832 131.335 46.3494 117.095 52.3941C116.999 52.4328 116.913 52.4904 116.84 52.5634C116.767 52.6364 116.71 52.7234 116.671 52.819C116.632 52.9147 116.614 53.0171 116.615 53.1202C116.617 53.2233 116.64 53.325 116.682 53.4192C116.773 53.6103 116.935 53.7586 117.133 53.833C117.332 53.9075 117.551 53.9023 117.746 53.8186C131.779 47.8583 146.737 44.8371 162.202 44.8371C198.44 44.8371 232.809 61.1147 254.142 88.3826C254.219 88.4798 254.317 88.5582 254.429 88.6118C254.541 88.6654 254.663 88.6929 254.787 88.692Z" fill="white"/>
<path d="M61.2422 151.237C61.2422 205.049 106.5 248.672 162.328 248.672C218.157 248.672 265.914 203.145 265.914 149.333C265.914 95.5206 218.157 53.8037 162.328 53.8037C106.5 53.8037 61.2422 97.4266 61.2422 151.237Z" fill="#89BE4C"/>
<path d="M61.2422 151.238C61.2422 97.4268 106.5 53.8027 162.328 53.8027C192.565 53.8027 220.42 66.0398 239.615 85.8004L161.747 148.256L145.739 247.362C97.8043 239.73 61.2422 199.602 61.2422 151.238Z" fill="#87C145"/>
<path d="M75 144.465C75 193.029 116.693 232.398 168.123 232.398C219.553 232.398 263.55 191.309 263.55 142.745C263.55 94.1809 219.554 56.5322 168.123 56.5322C116.692 56.5322 75 95.901 75 144.465Z" fill="#6F9C3D"/>
<path opacity="0.78" d="M240.078 146.185C240.327 150.32 244.008 153.479 248.299 153.238C252.59 152.996 255.866 149.449 255.616 145.314C255.366 141.178 251.685 138.02 247.394 138.26C243.104 138.5 239.831 142.049 240.078 146.185Z" fill="white"/>
<path opacity="0.78" d="M71.9426 155.618C72.1918 159.753 75.8733 162.91 80.1642 162.67C84.455 162.43 87.7314 158.881 87.4821 154.745C87.2329 150.609 83.5514 147.452 79.2605 147.693C74.9697 147.933 71.6979 151.481 71.9426 155.618Z" fill="white"/>
<path opacity="0.78" d="M177.514 222.933C173.286 223.678 170.485 227.584 171.257 231.661C172.029 235.737 176.083 238.436 180.311 237.691C184.538 236.947 187.34 233.04 186.568 228.965C185.796 224.89 181.743 222.188 177.514 222.933Z" fill="white"/>
<path opacity="0.78" d="M147.253 63.2377C143.024 63.9823 140.223 67.8889 140.995 71.9653C141.767 76.0416 145.82 78.7407 150.049 77.9961C154.277 77.2515 157.079 73.3448 156.307 69.2696C155.535 65.1945 151.481 62.4931 147.253 63.2377Z" fill="white"/>
<path opacity="0.78" d="M122.186 227.221C121.395 229.144 121.593 230.945 122.628 231.243C123.663 231.541 125.142 230.224 125.933 228.302C126.724 226.379 126.526 224.576 125.491 224.278C124.456 223.98 122.976 225.3 122.186 227.221Z" fill="white"/>
<path opacity="0.78" d="M189.826 75.7503C189.036 77.6736 189.233 79.4746 190.268 79.7724C191.304 80.0703 192.783 78.753 193.574 76.8309C194.364 74.9087 194.167 73.1055 193.133 72.8076C192.099 72.5098 190.618 73.827 189.826 75.7503Z" fill="white"/>
<path opacity="0.78" d="M86.8668 198.426C85.1553 199.674 84.3532 201.313 85.0768 202.085C85.8004 202.857 87.775 202.473 89.4877 201.225C91.2003 199.977 92.0001 198.339 91.2765 197.566C90.5529 196.794 88.5783 197.178 86.8668 198.426Z" fill="white"/>
<path opacity="0.78" d="M226.27 102.826C224.559 104.074 223.758 105.712 224.481 106.485C225.205 107.257 227.18 106.871 228.891 105.625C230.602 104.378 231.405 102.738 230.681 101.965C229.957 101.192 227.983 101.578 226.27 102.826Z" fill="white"/>
<path opacity="0.78" d="M82.4312 112.662C80.4936 111.772 78.6159 111.841 78.2385 112.817C77.8611 113.792 79.1248 115.303 81.0625 116.192C83.0002 117.081 84.8779 117.013 85.2564 116.037C85.6349 115.062 84.3689 113.55 82.4312 112.662Z" fill="white"/>
<path opacity="0.78" d="M234.696 187.857C232.759 186.968 230.881 187.038 230.502 188.012C230.124 188.986 231.39 190.499 233.328 191.389C235.265 192.279 237.143 192.208 237.52 191.233C237.898 190.257 236.634 188.746 234.696 187.857Z" fill="white"/>
<path opacity="0.78" d="M114.602 80.6238C113.425 78.8922 111.782 78.0137 110.934 78.6613C110.086 79.3089 110.357 81.2311 111.53 82.9604C112.702 84.6898 114.349 85.5706 115.197 84.923C116.045 84.2753 115.783 82.3544 114.602 80.6238Z" fill="white"/>
<path opacity="0.78" d="M204.227 221.093C203.05 219.361 201.407 218.482 200.559 219.13C199.711 219.778 199.982 221.699 201.155 223.429C202.327 225.16 203.974 226.039 204.822 225.392C205.67 224.744 205.404 222.823 204.227 221.093Z" fill="white"/>
<path d="M165.475 148.219L227.994 178.272C229.206 178.85 230.623 177.98 230.581 176.677L230.337 168.919C230.288 167.41 232.133 166.574 233.307 167.572L278.508 205.934C279.893 207.108 278.754 209.288 276.952 208.916L218.731 196.934C217.339 196.648 216.834 194.983 217.849 194.019L224.665 187.54C224.86 187.356 225.009 187.128 225.099 186.875C225.189 186.622 225.217 186.351 225.182 186.085C225.146 185.818 225.048 185.564 224.895 185.344C224.742 185.123 224.538 184.942 224.301 184.816L163.78 151.257C163.582 151.151 163.406 151.007 163.264 150.832C163.122 150.657 163.016 150.456 162.953 150.24C162.89 150.024 162.87 149.797 162.896 149.573C162.921 149.35 162.991 149.133 163.101 148.937C163.333 148.54 163.707 148.245 164.147 148.112C164.587 147.979 165.061 148.017 165.475 148.219Z" fill="#FF8829"/>
<path d="M271.483 205.755C271.767 205.758 272.047 205.68 272.29 205.532C272.533 205.384 272.729 205.17 272.856 204.916C273.011 204.616 273.055 204.272 272.981 203.943C272.907 203.614 272.719 203.322 272.45 203.118L262.559 195.236C262.392 195.105 262.181 195.042 261.97 195.062C261.759 195.081 261.564 195.181 261.424 195.341C261.357 195.418 261.306 195.509 261.275 195.607C261.243 195.705 261.232 195.809 261.242 195.911C261.252 196.013 261.283 196.113 261.333 196.203C261.383 196.293 261.45 196.372 261.531 196.435L271.423 204.318C258.244 201.417 227.374 194.932 226.734 194.87C226.525 194.848 226.316 194.908 226.151 195.037C225.986 195.166 225.878 195.355 225.849 195.562C225.831 195.768 225.894 195.973 226.026 196.132C226.157 196.291 226.346 196.392 226.552 196.413C227.475 196.555 251.133 201.511 271.141 205.717C271.254 205.741 271.368 205.754 271.483 205.755Z" fill="white"/>
<path d="M158.953 145.258L159.078 86.3381C159.057 85.0335 157.599 84.2231 156.418 84.8581L149.385 88.6365C148.016 89.3719 146.398 88.1748 146.777 86.7133L161.318 30.3765C161.763 28.654 164.294 28.624 164.78 30.3372L180.527 85.6789C180.904 87.003 179.604 88.2002 178.247 87.7753L169.145 84.9192C168.02 84.5729 166.856 85.3441 166.804 86.4835L162.534 145.306C162.505 145.764 162.298 146.193 161.956 146.501C161.615 146.809 161.168 146.972 160.709 146.954C160.253 146.954 159.816 146.777 159.489 146.461C159.161 146.145 158.969 145.714 158.953 145.258Z" fill="#FF8829"/>
<path d="M175.698 80.2772C175.799 80.277 175.898 80.259 175.993 80.2241C176.089 80.1898 176.177 80.1368 176.252 80.0682C176.327 79.9995 176.388 79.9166 176.431 79.8242C176.474 79.7319 176.498 79.6319 176.502 79.5301C176.506 79.4283 176.49 79.3267 176.454 79.2312C176.161 78.3781 169.844 55.8503 164.514 36.7893C164.415 36.4631 164.212 36.1784 163.936 35.9787C163.66 35.7791 163.326 35.6756 162.985 35.6841C162.645 35.6926 162.316 35.8127 162.051 36.0259C161.785 36.2391 161.596 36.5336 161.514 36.8644L158.804 48.956C158.782 49.0573 158.782 49.1619 158.801 49.2635C158.821 49.3652 158.86 49.4619 158.918 49.548C158.976 49.6341 159.05 49.7077 159.136 49.7647C159.223 49.8216 159.32 49.8607 159.421 49.8795C159.627 49.9252 159.843 49.8886 160.022 49.7775C160.201 49.6664 160.33 49.4897 160.38 49.285L163.091 37.1934C166.482 49.808 174.709 79.207 174.945 79.7854C175.007 79.9329 175.113 80.0584 175.247 80.1459C175.381 80.2335 175.538 80.2792 175.698 80.2772Z" fill="white"/>
<path d="M162.849 156.429C167.439 156.429 171.16 152.842 171.16 148.417C171.16 143.992 167.439 140.405 162.849 140.405C158.258 140.405 154.537 143.992 154.537 148.417C154.537 152.842 158.258 156.429 162.849 156.429Z" fill="#FF8829"/>
<path d="M76.8248 302.868C82.197 303.33 91.5207 304.087 98.8675 304.412C103.286 304.606 105.83 304.173 107.292 303.586C107.292 303.751 107.284 303.907 107.278 304.048C107.258 304.424 107.099 304.779 106.832 305.044C106.565 305.309 106.209 305.466 105.833 305.484C91.9442 306.26 80.8975 305.753 76.9644 305.513C76.7788 305.504 76.5987 305.447 76.4414 305.348C76.2842 305.249 76.155 305.111 76.0664 304.948C75.9779 304.784 75.9328 304.601 75.9357 304.415C75.9385 304.229 75.9891 304.047 76.0827 303.886C76.3056 303.53 76.5536 303.19 76.8248 302.868Z" fill="#D1EABA"/>
<path d="M98.8728 304.412C91.5214 304.087 82.1977 303.334 76.8301 302.868C82.1123 296.386 98.8728 292.017 98.8728 292.017H103.605C106.861 296.713 107.332 301.184 107.298 303.586C105.835 304.173 103.292 304.61 98.8728 304.412Z" fill="url(#paint1_linear_6211_1578)"/>
<path d="M104.405 284.284L103.962 293.057C103.939 293.521 103.756 293.962 103.444 294.306C103.132 294.649 102.71 294.874 102.251 294.941C101.059 295.12 99.8412 295.018 98.6944 294.646C98.2897 294.514 97.9281 294.275 97.6478 293.954C97.3676 293.633 97.1789 293.243 97.1018 292.824L95.5703 284.281L104.405 284.284Z" fill="url(#paint2_linear_6211_1578)"/>
<path d="M159.363 312.986C161.692 312.566 162.747 311.002 163.189 309.329C163.189 309.344 163.189 309.359 163.197 309.374C163.543 311.138 162.745 312.967 161.156 313.837C159.237 314.888 157.137 315.068 155.501 314.98C154.642 314.941 153.806 314.69 153.067 314.249C152.328 313.808 151.709 313.192 151.266 312.454L151.252 312.432C153.013 313.554 155.477 313.687 159.363 312.986Z" fill="#D1EABA"/>
<path d="M148.375 286.986H152.281C158.229 286.829 161.963 303.048 163.187 309.33C162.745 311.002 161.686 312.562 159.361 312.987C155.475 313.688 153.014 313.555 151.256 312.433C148.043 306.965 146.449 298.959 145.684 294.286C144.813 288.971 148.375 286.986 148.375 286.986Z" fill="url(#paint3_linear_6211_1578)"/>
<path d="M151.779 278.845L153.948 287.472C154.076 287.987 154.025 288.53 153.804 289.013C153.583 289.495 153.204 289.888 152.73 290.127C151.518 290.75 149.809 291.404 148.24 291.215C147.879 291.167 147.538 291.02 147.257 290.79C146.975 290.559 146.763 290.255 146.645 289.91L143.461 280.828L151.779 278.845Z" fill="url(#paint4_linear_6211_1578)"/>
<path d="M75.5078 165.223C75.5078 165.223 94.8847 286.387 94.5662 287.052C94.5662 287.052 99.9176 289.486 105.753 287.363C105.753 287.363 104 222.592 99.8945 197.757C99.8945 197.757 132.964 255.649 143.466 284.496C143.466 284.496 148.944 283.843 153.478 280.858C153.478 280.858 117.87 176.654 108.37 162.774L75.5078 165.223Z" fill="url(#paint5_linear_6211_1578)"/>
<path d="M72.4468 80.6192C71.0632 80.699 69.6971 80.9686 68.3868 81.4204C54.1917 86.343 43.0342 85.1043 34.4571 81.2288C32.4698 83.8678 29.2638 89.3572 27.8789 98.5824C43.4843 110.202 63.1116 107.14 69.5293 105.704C67.849 118.172 67.8652 137.903 74.7227 166.821C74.8112 167.193 75.0152 167.528 75.3054 167.777C75.5957 168.026 75.9573 168.176 76.3384 168.207C80.7238 168.569 95.399 169.43 109.509 166.26C109.657 166.227 109.795 166.161 109.915 166.068C110.035 165.975 110.133 165.857 110.202 165.722C110.271 165.587 110.31 165.439 110.316 165.287C110.322 165.136 110.294 164.985 110.236 164.845L110.108 164.543C108.931 161.778 108.407 158.78 108.574 155.78C109.086 146.672 111.536 126.087 116.76 111.981C117.063 112.495 117.346 113.001 117.621 113.506C118.567 104.228 122.122 95.1006 124.627 85.8962C104.194 79.3955 79.8918 80.1863 72.4468 80.6192Z" fill="#6F9C3D"/>
<path d="M104.323 63.7725C104.323 63.7725 105.75 78.8703 107.007 83.3356C107.1 83.6648 107.079 84.0155 106.949 84.3316C106.818 84.6477 106.586 84.9109 106.288 85.0789C104.155 86.2979 99.0392 88.287 92.0409 84.856C91.4889 84.5827 91.0284 84.1545 90.7154 83.6238C90.4025 83.0931 90.2508 82.4827 90.2786 81.8672L90.8949 67.2785L104.323 63.7725Z" fill="url(#paint6_linear_6211_1578)"/>
<path d="M90.5872 44.459C90.5872 44.459 86.0217 54.9505 85.7158 60.4561C85.41 65.9616 84.2225 69.5358 90.5872 70.6452C96.9519 71.7546 102.314 68.5822 105.218 63.0963C105.218 63.0963 109.77 54.6446 108.749 51.1836C107.727 47.7226 90.5872 44.459 90.5872 44.459Z" fill="url(#paint7_linear_6211_1578)"/>
<path d="M103.044 59.152L102.682 58.9927C102.572 58.9448 102.474 58.8751 102.393 58.7878C102.311 58.7004 102.249 58.5973 102.208 58.4848C102.168 58.3723 102.152 58.2528 102.16 58.1336C102.168 58.0145 102.2 57.8982 102.255 57.792C103.153 56.0604 104.902 52.0822 102.641 51.1552C100.512 50.2812 98.2074 49.7906 96.0182 49.0899C93.9858 48.4388 90.0378 47.7576 88.9783 45.6127C88.6713 44.9927 89.0072 44.2608 89.3384 43.6501L91.1941 40.2422C91.7169 39.2806 92.2582 38.2958 93.0914 37.587C94.9991 35.9627 97.2749 37.3884 99.3857 37.7786C107.233 39.2275 112.427 42.4068 112.558 47.8338C112.559 47.9113 112.581 47.9872 112.621 48.0533C112.662 48.1195 112.719 48.1737 112.788 48.2101C112.856 48.2466 112.933 48.264 113.01 48.2606C113.088 48.2571 113.163 48.2329 113.228 48.1905C113.805 47.8373 114.736 47.6722 115.976 48.7147C118.131 50.5283 117.245 55.2338 112.523 59.1046C112.469 59.1462 112.427 59.1996 112.398 59.2606C112.37 59.3216 112.356 59.3885 112.358 59.4559C112.359 59.5233 112.377 59.5893 112.409 59.6486C112.441 59.7079 112.487 59.7588 112.542 59.7973C113.4 60.3549 114.677 61.6825 111.367 63.4523C107.943 65.2832 105.386 65.1331 104.401 64.9715C104.344 64.9612 104.289 64.9394 104.24 64.9074C104.191 64.8754 104.149 64.8338 104.117 64.7851C104.085 64.7365 104.063 64.6818 104.052 64.6243C104.041 64.5669 104.042 64.5079 104.055 64.4509L105.106 59.6807C105.12 59.6175 105.12 59.5519 105.105 59.4888C105.091 59.4257 105.062 59.3667 105.021 59.3162C104.981 59.2657 104.93 59.2249 104.871 59.1969C104.813 59.1689 104.749 59.1543 104.684 59.1543L103.044 59.152Z" fill="url(#paint8_linear_6211_1578)"/>
<path d="M102.846 60.1588C102.846 60.1588 104.588 53.463 107.591 55.3367C110.594 57.2104 106.033 62.8406 103.618 63.0957L102.846 60.1588Z" fill="url(#paint9_linear_6211_1578)"/>
<path d="M86.8164 46.2461C94.2832 24.1004 125.265 38.0611 115.05 57.3564C104.32 52.4951 91.8274 44.7107 86.8164 46.2461Z" fill="#6F9C3D"/>
<path d="M105.071 52.133L85.5992 54.6924C85.356 54.7244 85.1087 54.6928 84.8814 54.6008C84.654 54.5087 84.4544 54.3593 84.302 54.1671C82.0562 51.3145 79.1906 49.7318 75.8369 49.1522C75.7467 49.1361 75.665 49.0893 75.6054 49.0198C75.5458 48.9503 75.5121 48.8623 75.5099 48.7707C75.5077 48.6792 75.5372 48.5897 75.5934 48.5174C75.6497 48.4451 75.7291 48.3945 75.8184 48.3742L87.5645 45.63C87.5774 45.6266 87.5905 45.6243 87.6038 45.6231C93.598 45.114 99.4192 47.8166 105.178 51.6736C105.22 51.7023 105.253 51.7431 105.271 51.7907C105.29 51.8383 105.294 51.8904 105.282 51.9401C105.27 51.9899 105.244 52.0349 105.206 52.0694C105.168 52.1038 105.121 52.126 105.071 52.133Z" fill="#5E8136"/>
<path d="M109.307 163.95C110.367 163.97 111.421 163.779 112.407 163.387C113.392 162.995 114.29 162.41 115.047 161.667C115.804 160.924 116.405 160.037 116.816 159.059C117.227 158.081 117.438 157.031 117.438 155.97V120.451C117.439 118.209 116.556 116.058 114.981 114.464C113.405 112.869 111.265 111.961 109.024 111.937C95.024 111.784 66.1491 111.776 42.5241 113.768C40.9663 113.901 39.511 114.6 38.4334 115.733C37.3557 116.866 36.7303 118.354 36.6753 119.917L34.4664 154.256C34.4269 155.335 34.6026 156.411 34.983 157.421C35.3635 158.431 35.9412 159.355 36.6824 160.139C37.4236 160.924 38.3135 161.553 39.3002 161.99C40.2869 162.426 41.3506 162.662 42.4295 162.684L109.307 163.95Z" fill="#C9B64A"/>
<path d="M109.329 124.295C109.388 127.317 109.298 132.112 109.225 135.21C109.217 135.591 109.129 135.966 108.967 136.311C108.805 136.655 108.573 136.963 108.285 137.213C107.998 137.463 107.661 137.65 107.297 137.762C106.933 137.874 106.55 137.91 106.172 137.865L94.6494 136.514C94.2852 136.472 93.9333 136.356 93.6147 136.175C93.296 135.993 93.017 135.75 92.7944 135.458C92.5717 135.167 92.4099 134.834 92.3186 134.478C92.2273 134.123 92.2083 133.753 92.2628 133.39L93.6765 123.953C93.7736 123.304 94.1002 122.712 94.5969 122.285C95.0936 121.857 95.7274 121.622 96.3828 121.622H106.593C107.308 121.621 107.995 121.9 108.506 122.4C109.018 122.899 109.313 123.58 109.329 124.295Z" fill="white"/>
<path opacity="0.37" d="M79.2191 142.18L69.608 143.219C69.2927 143.253 68.9738 143.217 68.6738 143.114C68.3739 143.011 68.1001 142.844 67.8719 142.624C67.6436 142.404 67.4664 142.136 67.3528 141.84C67.2392 141.544 67.192 141.226 67.2144 140.91L69.316 112.31C73.3448 112.183 77.3195 112.089 81.1533 112.023V140.031C81.1518 140.565 80.9536 141.079 80.5967 141.475C80.2399 141.872 79.7493 142.123 79.2191 142.18Z" fill="white"/>
<path d="M75.2771 137.222C75.2626 137.469 75.1547 137.7 74.9754 137.869C74.7961 138.039 74.5588 138.133 74.3123 138.133H74.2557C74.129 138.126 74.0049 138.094 73.8906 138.039C73.7763 137.984 73.674 137.907 73.5896 137.812C73.5052 137.717 73.4404 137.606 73.3988 137.487C73.3573 137.367 73.3398 137.24 73.3475 137.113L74.7958 112.151L76.7358 112.106L75.2771 137.222Z" fill="white"/>
<path d="M104 133.303C104.082 133.303 104.161 133.272 104.221 133.216C104.281 133.16 104.317 133.083 104.322 133.001L104.821 125.139C104.824 125.096 104.819 125.054 104.805 125.013C104.792 124.972 104.771 124.935 104.743 124.903C104.715 124.871 104.68 124.844 104.642 124.825C104.604 124.806 104.562 124.795 104.52 124.793C104.477 124.788 104.433 124.793 104.392 124.806C104.351 124.819 104.313 124.84 104.281 124.868C104.249 124.896 104.222 124.931 104.204 124.97C104.185 125.009 104.175 125.051 104.173 125.094L103.675 132.956C103.671 132.998 103.677 133.041 103.69 133.082C103.704 133.122 103.725 133.16 103.753 133.192C103.781 133.224 103.815 133.251 103.853 133.269C103.892 133.288 103.933 133.299 103.976 133.302L104 133.303Z" fill="url(#paint10_linear_6211_1578)"/>
<path d="M102.974 133.303C103.057 133.303 103.137 133.27 103.197 133.212C103.258 133.154 103.293 133.075 103.296 132.991L103.557 124.978C103.558 124.936 103.551 124.894 103.536 124.854C103.521 124.815 103.499 124.778 103.47 124.748C103.441 124.717 103.406 124.692 103.367 124.674C103.329 124.657 103.287 124.647 103.245 124.646C103.202 124.642 103.159 124.647 103.118 124.661C103.077 124.675 103.04 124.697 103.008 124.727C102.977 124.756 102.952 124.792 102.936 124.832C102.919 124.872 102.911 124.915 102.913 124.958L102.651 132.969C102.648 133.055 102.679 133.138 102.737 133.201C102.796 133.263 102.877 133.3 102.962 133.303H102.974Z" fill="url(#paint11_linear_6211_1578)"/>
<path d="M101.589 133.302C101.547 133.3 101.506 133.29 101.468 133.272C101.43 133.254 101.395 133.229 101.367 133.198C101.338 133.166 101.316 133.13 101.302 133.09C101.288 133.05 101.282 133.008 101.284 132.966C101.411 130.274 101.654 125.14 101.659 124.965C101.659 124.879 101.693 124.797 101.753 124.737C101.813 124.677 101.895 124.643 101.981 124.643C102.066 124.643 102.148 124.677 102.208 124.737C102.269 124.797 102.303 124.879 102.303 124.965C102.303 125.097 101.99 131.675 101.926 132.993C101.923 133.075 101.887 133.154 101.827 133.211C101.767 133.268 101.687 133.3 101.604 133.3L101.589 133.302Z" fill="url(#paint12_linear_6211_1578)"/>
<path d="M99.4502 133.626C99.6171 133.626 99.7775 133.561 99.8975 133.445C100.017 133.328 100.088 133.17 100.093 133.003C100.365 125.241 100.324 125.065 100.287 124.95C100.243 124.793 100.142 124.658 100.003 124.573C99.8635 124.487 99.6973 124.458 99.5375 124.49C99.3776 124.523 99.236 124.614 99.141 124.747C99.046 124.88 99.0047 125.043 99.0255 125.205C99.0462 125.667 98.902 130.188 98.805 132.958C98.7994 133.129 98.8617 133.295 98.9783 133.42C99.0949 133.545 99.2563 133.619 99.4271 133.626H99.4502Z" fill="url(#paint13_linear_6211_1578)"/>
<path d="M98.0544 133.303C98.1398 133.303 98.2217 133.269 98.2821 133.209C98.3425 133.148 98.3764 133.066 98.3764 132.981V125.118C98.3764 125.033 98.3425 124.951 98.2821 124.89C98.2217 124.83 98.1398 124.796 98.0544 124.796C97.969 124.796 97.8871 124.83 97.8267 124.89C97.7664 124.951 97.7324 125.033 97.7324 125.118V132.981C97.7323 133.023 97.7405 133.065 97.7566 133.104C97.7728 133.143 97.7965 133.179 97.8264 133.209C97.8563 133.239 97.8919 133.263 97.931 133.279C97.9702 133.295 98.0121 133.303 98.0544 133.303Z" fill="url(#paint14_linear_6211_1578)"/>
<path d="M96.9251 133.303C97.0094 133.303 97.0904 133.271 97.1508 133.212C97.2112 133.153 97.2461 133.073 97.2483 132.988C97.3094 130.257 97.4537 125.795 97.5829 125.254C97.6187 125.19 97.632 125.117 97.6207 125.045C97.6095 124.973 97.5743 124.907 97.5209 124.857C97.4675 124.808 97.399 124.778 97.3265 124.772C97.254 124.767 97.1817 124.786 97.1213 124.826C96.9459 124.942 96.7751 125.05 96.5997 132.969C96.5981 133.054 96.6303 133.137 96.6893 133.199C96.7483 133.26 96.8293 133.296 96.9147 133.299L96.9251 133.303Z" fill="url(#paint15_linear_6211_1578)"/>
<path d="M105.735 134.019C105.9 134.019 106.059 133.955 106.178 133.841C106.298 133.728 106.369 133.572 106.378 133.407L106.808 125.152C106.812 125.067 106.8 124.983 106.772 124.903C106.743 124.823 106.7 124.75 106.643 124.687C106.586 124.624 106.518 124.573 106.441 124.537C106.365 124.5 106.282 124.479 106.198 124.475C106.027 124.468 105.861 124.528 105.734 124.642C105.608 124.756 105.531 124.916 105.52 125.086L105.091 133.341C105.086 133.426 105.098 133.51 105.127 133.59C105.155 133.67 105.199 133.744 105.256 133.806C105.312 133.869 105.381 133.92 105.457 133.957C105.534 133.993 105.617 134.014 105.701 134.018L105.735 134.019Z" fill="url(#paint16_linear_6211_1578)"/>
<path d="M85.5334 113.256C86.3273 113.271 87.1163 113.128 87.8542 112.835C88.5922 112.541 89.2641 112.103 89.831 111.547C90.3978 110.991 90.848 110.327 91.1554 109.594C91.4628 108.862 91.6211 108.075 91.6211 107.281V80.6931C91.6221 79.0148 90.9611 77.404 89.7817 76.2103C88.6023 75.0167 86.9998 74.3368 85.3222 74.3183C74.8409 74.2028 53.2263 74.2028 35.5401 75.6897C34.3738 75.789 33.2843 76.3122 32.4775 77.1605C31.6707 78.0088 31.2025 79.1235 31.1616 80.2937L29.5078 106C29.4789 106.807 29.6109 107.612 29.8962 108.368C30.1815 109.124 30.6144 109.816 31.1697 110.403C31.7249 110.99 32.3914 111.46 33.1303 111.787C33.8691 112.113 34.6656 112.29 35.4732 112.305L85.5334 113.256Z" fill="#C9B64A"/>
<path d="M85.5484 83.5696C85.5922 85.8312 85.5253 89.4215 85.4699 91.7408C85.4632 92.0257 85.3971 92.306 85.2758 92.5639C85.1546 92.8218 84.9809 93.0516 84.7658 93.2384C84.5507 93.4253 84.299 93.5653 84.0268 93.6493C83.7545 93.7333 83.4678 93.7596 83.1848 93.7264L74.5593 92.7151C74.2866 92.6832 74.0232 92.5968 73.7846 92.4609C73.546 92.3251 73.3372 92.1426 73.1705 91.9244C73.0038 91.7062 72.8827 91.4567 72.8144 91.1907C72.7461 90.9248 72.7319 90.6478 72.7728 90.3762L73.8311 83.311C73.905 82.8271 74.1496 82.3857 74.5207 82.0666C74.8918 81.7474 75.3648 81.5718 75.8542 81.5713H83.4976C84.0328 81.5699 84.5472 81.7784 84.9305 82.1519C85.3139 82.5255 85.5357 83.0344 85.5484 83.5696Z" fill="white"/>
<path opacity="0.37" d="M63.0092 96.9588L55.8136 97.7346C55.5771 97.7612 55.3376 97.7351 55.1124 97.6584C54.8871 97.5816 54.6816 97.4561 54.5104 97.2906C54.3393 97.1252 54.2068 96.924 54.1225 96.7014C54.0381 96.4788 54.004 96.2403 54.0225 96.0029L55.5955 74.5927C58.611 74.4968 61.5862 74.4276 64.4564 74.3779V95.3449C64.458 95.7455 64.3109 96.1324 64.0435 96.4306C63.7761 96.7288 63.4075 96.917 63.0092 96.9588Z" fill="white"/>
<path d="M60.0584 93.2477C60.048 93.4321 59.9675 93.6055 59.8334 93.7324C59.6993 93.8593 59.5217 93.93 59.3371 93.93H59.2944C59.1994 93.9245 59.1065 93.9004 59.0209 93.859C58.9353 93.8175 58.8588 93.7596 58.7956 93.6885C58.7325 93.6174 58.684 93.5345 58.6529 93.4446C58.6219 93.3547 58.6088 93.2595 58.6146 93.1646L59.6994 74.4799L61.1501 74.4453L60.0584 93.2477Z" fill="white"/>
<path d="M81.5608 90.3147C81.623 90.3148 81.6828 90.2908 81.7277 90.2478C81.7727 90.2047 81.7993 90.146 81.802 90.0838L82.1747 84.1962C82.1769 84.1641 82.1726 84.1318 82.1621 84.1014C82.1516 84.071 82.1351 84.043 82.1136 84.0191C82.092 83.9952 82.0659 83.9759 82.0368 83.9623C82.0076 83.9487 81.9761 83.941 81.9439 83.9399C81.9115 83.9363 81.8788 83.9396 81.8478 83.9496C81.8168 83.9596 81.7882 83.976 81.764 83.9978C81.7398 84.0196 81.7205 84.0463 81.7074 84.0761C81.6942 84.1059 81.6875 84.1382 81.6877 84.1708L81.3149 90.0584C81.3129 90.0904 81.3173 90.1225 81.3279 90.1528C81.3385 90.1831 81.355 90.2109 81.3765 90.2347C81.398 90.2585 81.4241 90.2777 81.4532 90.2913C81.4822 90.3048 81.5137 90.3124 81.5457 90.3135L81.5608 90.3147Z" fill="url(#paint17_linear_6211_1578)"/>
<path d="M80.7937 90.3142C80.8558 90.3139 80.9155 90.2899 80.9604 90.2469C81.0053 90.2039 81.0319 90.1454 81.0349 90.0833L81.2299 84.0802C81.2321 84.0166 81.2091 83.9547 81.1659 83.908C81.1226 83.8613 81.0627 83.8335 80.9991 83.8308C80.9673 83.8283 80.9353 83.8323 80.9051 83.8428C80.8749 83.8533 80.8473 83.8699 80.8238 83.8916C80.8004 83.9133 80.7817 83.9396 80.769 83.9689C80.7563 83.9982 80.7497 84.0298 80.7498 84.0617L80.5548 90.0648C80.5529 90.1283 80.576 90.1901 80.6192 90.2367C80.6624 90.2834 80.7221 90.3112 80.7856 90.3142H80.7937Z" fill="url(#paint18_linear_6211_1578)"/>
<path d="M79.7506 90.3133C79.7189 90.3121 79.6877 90.3046 79.6589 90.2913C79.6301 90.278 79.6042 90.259 79.5827 90.2356C79.5612 90.2122 79.5446 90.1848 79.5338 90.1549C79.523 90.125 79.5183 90.0933 79.5198 90.0616C79.6156 88.0459 79.7979 84.2028 79.8002 84.0723C79.8002 84.0084 79.8257 83.947 79.8709 83.9017C79.9161 83.8565 79.9775 83.8311 80.0415 83.8311C80.1054 83.8311 80.1668 83.8565 80.212 83.9017C80.2572 83.947 80.2827 84.0084 80.2827 84.0723C80.2827 84.1716 80.0518 89.0953 80.0011 90.0754C79.9984 90.1376 79.9718 90.1963 79.9268 90.2394C79.8819 90.2824 79.8221 90.3064 79.7599 90.3063L79.7506 90.3133Z" fill="url(#paint19_linear_6211_1578)"/>
<path d="M78.1546 90.5561C78.2788 90.5559 78.3982 90.5078 78.4878 90.4218C78.5774 90.3357 78.6305 90.2184 78.6358 90.0943C78.8401 84.2828 78.8043 84.1524 78.7812 84.0658C78.7497 83.947 78.674 83.8447 78.5696 83.7798C78.4653 83.7149 78.3401 83.6923 78.2196 83.7166C78.0991 83.7409 77.9925 83.8103 77.9214 83.9106C77.8503 84.0109 77.8202 84.1345 77.8372 84.2563C77.8522 84.6026 77.7449 87.9863 77.6722 90.0608C77.6678 90.188 77.7138 90.3119 77.8003 90.4053C77.8868 90.4987 78.0066 90.5541 78.1338 90.5595L78.1546 90.5561Z" fill="url(#paint20_linear_6211_1578)"/>
<path d="M77.1084 90.3145C77.1724 90.3145 77.2337 90.2891 77.2789 90.2439C77.3242 90.1986 77.3496 90.1373 77.3496 90.0733V84.1856C77.3496 84.1216 77.3242 84.0602 77.2789 84.015C77.2337 83.9697 77.1724 83.9443 77.1084 83.9443C77.0444 83.9443 76.9831 83.9697 76.9378 84.015C76.8926 84.0602 76.8672 84.1216 76.8672 84.1856V90.0733C76.8672 90.1373 76.8926 90.1986 76.9378 90.2439C76.9831 90.2891 77.0444 90.3145 77.1084 90.3145Z" fill="url(#paint21_linear_6211_1578)"/>
<path d="M76.2647 90.3141C76.3269 90.3142 76.3867 90.2902 76.4317 90.2472C76.4766 90.2042 76.5032 90.1454 76.5059 90.0832C76.5521 88.0387 76.6605 84.6989 76.7575 84.2972C76.7787 84.2585 76.789 84.2148 76.7874 84.1707C76.7857 84.1266 76.7722 84.0837 76.7482 84.0467C76.7309 84.0201 76.7084 83.9972 76.6821 83.9793C76.6559 83.9615 76.6264 83.9489 76.5953 83.9425C76.5642 83.9361 76.5321 83.9358 76.501 83.9418C76.4698 83.9478 76.4401 83.9599 76.4136 83.9774C76.2832 84.064 76.1574 84.1448 76.0235 90.0729C76.0222 90.136 76.0456 90.1971 76.0887 90.2433C76.1318 90.2894 76.1912 90.3169 76.2543 90.3199L76.2647 90.3141Z" fill="url(#paint22_linear_6211_1578)"/>
<path d="M82.8587 90.8499C82.983 90.85 83.1026 90.802 83.1923 90.7159C83.282 90.6298 83.3349 90.5124 83.34 90.3881L83.662 84.2084C83.6652 84.1447 83.6558 84.0811 83.6344 84.021C83.6129 83.961 83.5797 83.9058 83.5368 83.8587C83.4939 83.8116 83.442 83.7735 83.3843 83.7465C83.3265 83.7195 83.264 83.7043 83.2004 83.7016C83.0721 83.6963 82.9469 83.7418 82.8521 83.8282C82.7572 83.9147 82.7003 84.0351 82.6937 84.1634L82.3717 90.3431C82.3685 90.4068 82.3778 90.4705 82.3993 90.5305C82.4208 90.5905 82.454 90.6457 82.4969 90.6928C82.5398 90.7399 82.5917 90.7781 82.6494 90.805C82.7072 90.832 82.7697 90.8472 82.8334 90.8499H82.8587Z" fill="url(#paint23_linear_6211_1578)"/>
<path d="M27.1504 89.6923C28.6218 89.3309 31.9248 84.8609 32.2756 86.4945C32.6265 88.128 31.6317 90.1979 31.7794 90.8929C31.9271 91.5879 33.035 95.4772 32.1545 97.1095C31.5186 98.2871 30.271 101.992 29.6259 103.963C29.4112 104.618 29.237 105.482 28.5526 105.404C27.8682 105.327 27.3385 104.407 27.275 103.721C27.245 103.446 25.6755 90.0524 27.1504 89.6923Z" fill="url(#paint24_linear_6211_1578)"/>
<path d="M132.519 95.2066C130.708 91.0506 124.935 85.9884 124.633 85.8926C122.125 95.0969 117.709 102.699 116.766 111.983C122.954 123.353 121.535 136.764 117.67 143.286C120.08 146.881 122.107 150.719 123.719 154.737C147.51 140.483 138.091 108.008 132.519 95.2066Z" fill="#6F9C3D"/>
<path d="M101.95 165.038L81.3477 164.589C81.3477 164.589 99.3131 159.51 100.428 160.895C100.428 160.895 111.564 153.576 117.666 143.279C120.076 146.875 122.103 150.713 123.715 154.73C118.244 157.943 111.059 163.525 101.95 165.038Z" fill="url(#paint25_linear_6211_1578)"/>
<path d="M102.53 161.472C102.53 161.472 102.956 169.683 92.1802 168.491C86.3233 167.843 76.8691 162.381 76.8691 162.381C76.8691 162.381 101.512 162.316 102.53 161.472Z" fill="url(#paint26_linear_6211_1578)"/>
<defs>
<linearGradient id="paint0_linear_6211_1578" x1="199.156" y1="58.4132" x2="198.028" y2="209.585" gradientUnits="userSpaceOnUse">
<stop stop-color="#2B3582"/>
<stop offset="1" stop-color="#150E42"/>
</linearGradient>
<linearGradient id="paint1_linear_6211_1578" x1="107.302" y1="298.238" x2="76.8255" y2="298.238" gradientUnits="userSpaceOnUse">
<stop stop-color="#2B3582"/>
<stop offset="1" stop-color="#150E42"/>
</linearGradient>
<linearGradient id="paint2_linear_6211_1578" x1="104.405" y1="289.653" x2="95.5715" y2="289.653" gradientUnits="userSpaceOnUse">
<stop stop-color="#F9B776"/>
<stop offset="1" stop-color="#F47960"/>
</linearGradient>
<linearGradient id="paint3_linear_6211_1578" x1="163.187" y1="300.201" x2="145.547" y2="300.201" gradientUnits="userSpaceOnUse">
<stop stop-color="#2B3582"/>
<stop offset="1" stop-color="#150E42"/>
</linearGradient>
<linearGradient id="paint4_linear_6211_1578" x1="154.018" y1="285.045" x2="143.461" y2="285.045" gradientUnits="userSpaceOnUse">
<stop stop-color="#F9B776"/>
<stop offset="1" stop-color="#F47960"/>
</linearGradient>
<linearGradient id="paint5_linear_6211_1578" x1="188.132" y1="122.148" x2="152.676" y2="170.691" gradientUnits="userSpaceOnUse">
<stop stop-color="#2B3582"/>
<stop offset="0.55" stop-color="#1F205F"/>
<stop offset="1" stop-color="#150E42"/>
</linearGradient>
<linearGradient id="paint6_linear_6211_1578" x1="102.007" y1="97.7673" x2="97.431" y2="73.7451" gradientUnits="userSpaceOnUse">
<stop stop-color="#F9B776"/>
<stop offset="1" stop-color="#F47960"/>
</linearGradient>
<linearGradient id="paint7_linear_6211_1578" x1="89.6305" y1="53.6934" x2="115.736" y2="73.6618" gradientUnits="userSpaceOnUse">
<stop stop-color="#F9B776"/>
<stop offset="1" stop-color="#F47960"/>
</linearGradient>
<linearGradient id="paint8_linear_6211_1578" x1="110.715" y1="39.9825" x2="86.3985" y2="71.2811" gradientUnits="userSpaceOnUse">
<stop stop-color="#2B3582"/>
<stop offset="1" stop-color="#150E42"/>
</linearGradient>
<linearGradient id="paint9_linear_6211_1578" x1="92.8676" y1="49.4606" x2="118.973" y2="69.429" gradientUnits="userSpaceOnUse">
<stop stop-color="#F9B776"/>
<stop offset="1" stop-color="#F47960"/>
</linearGradient>
<linearGradient id="paint10_linear_6211_1578" x1="100.355" y1="123.387" x2="120.988" y2="153.36" gradientUnits="userSpaceOnUse">
<stop stop-color="#2B3582"/>
<stop offset="1" stop-color="#150E42"/>
</linearGradient>
<linearGradient id="paint11_linear_6211_1578" x1="99.6119" y1="123.897" x2="120.245" y2="153.87" gradientUnits="userSpaceOnUse">
<stop stop-color="#2B3582"/>
<stop offset="1" stop-color="#150E42"/>
</linearGradient>
<linearGradient id="paint12_linear_6211_1578" x1="98.718" y1="124.513" x2="119.351" y2="154.486" gradientUnits="userSpaceOnUse">
<stop stop-color="#2B3582"/>
<stop offset="1" stop-color="#150E42"/>
</linearGradient>
<linearGradient id="paint13_linear_6211_1578" x1="97.1697" y1="125.578" x2="117.803" y2="155.551" gradientUnits="userSpaceOnUse">
<stop stop-color="#2B3582"/>
<stop offset="1" stop-color="#150E42"/>
</linearGradient>
<linearGradient id="paint14_linear_6211_1578" x1="96.149" y1="126.281" x2="116.783" y2="156.254" gradientUnits="userSpaceOnUse">
<stop stop-color="#2B3582"/>
<stop offset="1" stop-color="#150E42"/>
</linearGradient>
<linearGradient id="paint15_linear_6211_1578" x1="95.516" y1="126.717" x2="116.148" y2="156.69" gradientUnits="userSpaceOnUse">
<stop stop-color="#2B3582"/>
<stop offset="1" stop-color="#150E42"/>
</linearGradient>
<linearGradient id="paint16_linear_6211_1578" x1="101.415" y1="122.656" x2="122.048" y2="152.629" gradientUnits="userSpaceOnUse">
<stop stop-color="#2B3582"/>
<stop offset="1" stop-color="#150E42"/>
</linearGradient>
<linearGradient id="paint17_linear_6211_1578" x1="78.8313" y1="82.8905" x2="94.2772" y2="105.328" gradientUnits="userSpaceOnUse">
<stop stop-color="#2B3582"/>
<stop offset="1" stop-color="#150E42"/>
</linearGradient>
<linearGradient id="paint18_linear_6211_1578" x1="78.2767" y1="83.2721" x2="93.7226" y2="105.71" gradientUnits="userSpaceOnUse">
<stop stop-color="#2B3582"/>
<stop offset="1" stop-color="#150E42"/>
</linearGradient>
<linearGradient id="paint19_linear_6211_1578" x1="77.6052" y1="83.7329" x2="93.0511" y2="106.172" gradientUnits="userSpaceOnUse">
<stop stop-color="#2B3582"/>
<stop offset="1" stop-color="#150E42"/>
</linearGradient>
<linearGradient id="paint20_linear_6211_1578" x1="76.4477" y1="84.531" x2="91.8936" y2="106.97" gradientUnits="userSpaceOnUse">
<stop stop-color="#2B3582"/>
<stop offset="1" stop-color="#150E42"/>
</linearGradient>
<linearGradient id="paint21_linear_6211_1578" x1="75.6831" y1="85.0572" x2="91.1291" y2="107.495" gradientUnits="userSpaceOnUse">
<stop stop-color="#2B3582"/>
<stop offset="1" stop-color="#150E42"/>
</linearGradient>
<linearGradient id="paint22_linear_6211_1578" x1="75.2099" y1="85.3835" x2="90.6558" y2="107.821" gradientUnits="userSpaceOnUse">
<stop stop-color="#2B3582"/>
<stop offset="1" stop-color="#150E42"/>
</linearGradient>
<linearGradient id="paint23_linear_6211_1578" x1="79.625" y1="82.3428" x2="95.0721" y2="104.782" gradientUnits="userSpaceOnUse">
<stop stop-color="#2B3582"/>
<stop offset="1" stop-color="#150E42"/>
</linearGradient>
<linearGradient id="paint24_linear_6211_1578" x1="39.1534" y1="69.6362" x2="0.893544" y2="185.093" gradientUnits="userSpaceOnUse">
<stop stop-color="#F9B776"/>
<stop offset="1" stop-color="#F47960"/>
</linearGradient>
<linearGradient id="paint25_linear_6211_1578" x1="81.4954" y1="126.909" x2="96.4784" y2="149.377" gradientUnits="userSpaceOnUse">
<stop stop-color="#F9B776"/>
<stop offset="1" stop-color="#F47960"/>
</linearGradient>
<linearGradient id="paint26_linear_6211_1578" x1="111.37" y1="130.538" x2="96.6884" y2="152.554" gradientUnits="userSpaceOnUse">
<stop stop-color="#F9B776"/>
<stop offset="1" stop-color="#F47960"/>
</linearGradient>
</defs>
</svg>
