<svg width="316" height="315" viewBox="0 0 316 315" fill="none" xmlns="http://www.w3.org/2000/svg">
<path d="M300.842 216.301C267.681 290.212 183.022 320.728 117.225 314.123C99.2594 312.319 63.1125 308.691 35.315 281.468C-18.0681 229.188 -7.83311 122.037 45.2328 59.7753C52.0666 51.7572 99.3376 -1.93704 171.503 0.0539856C224.339 1.51176 260.909 32.0115 265.354 35.8093C270.969 40.6069 283.341 51.9905 294.357 69.8993C320.24 111.979 321.564 170.114 300.842 216.301Z" fill="#E8EFE0"/>
<path d="M13.269 37.0882C12.9732 35.829 14.7445 34.9919 15.8292 35.8716C26.8435 44.803 53.3076 71.5488 46.7122 118.289C38.4373 176.931 52.5842 198.329 70.1936 211.382C70.1936 211.382 46.0101 205.244 30.795 183.531C-6.56167 130.22 18.5285 59.4771 13.269 37.0882Z" fill="#FF8829"/>
<path d="M21.6509 55.4049C23.0287 61.9332 24.2569 68.4816 25.2059 75.0593C26.1947 81.6316 26.9524 88.2268 27.471 94.8329C27.9602 101.44 28.3057 108.054 28.3254 114.671C28.3794 121.288 28.1044 127.899 27.8013 134.536C27.5413 141.171 27.2358 147.853 27.7214 154.583C28.199 161.299 29.6127 168.073 32.4181 174.424C33.1194 176.007 33.8568 177.585 34.6945 179.109C35.4998 180.648 36.3843 182.157 37.2997 183.651C39.1482 186.631 41.2289 189.511 43.5476 192.245C48.2018 197.703 53.815 202.545 59.9987 206.642C60.6495 207.074 61.582 206.968 62.0814 206.406C62.5719 205.854 62.4624 205.067 61.842 204.631L61.8376 204.628C60.3663 203.594 58.9104 202.548 57.5137 201.449C56.805 200.909 56.1255 200.343 55.434 199.788C54.7677 199.211 54.0751 198.657 53.4301 198.063C50.8043 195.726 48.3718 193.232 46.1649 190.596C41.7258 185.348 38.1721 179.499 35.4798 173.436C34.1728 170.391 33.1281 167.268 32.3653 164.085C31.6052 160.903 31.1272 157.664 30.8629 154.4C30.3334 147.868 30.5726 141.252 30.7773 134.616C30.9721 127.979 31.1151 121.308 30.9399 114.642C30.8628 111.309 30.7163 107.978 30.5008 104.651C30.4042 102.987 30.2702 101.325 30.1397 99.6627C29.9908 98.0017 29.8312 96.3416 29.656 94.683C28.9411 88.0495 27.992 81.4379 26.8024 74.8616C25.5763 68.2901 24.1487 61.749 22.4316 55.2665C22.3825 55.0812 22.1689 54.9654 21.9543 55.0078C21.7456 55.0489 21.6133 55.2251 21.6509 55.4049Z" fill="white"/>
<path d="M41.8006 177.454C40.4501 178.886 38.0751 178.474 37.2628 176.681C32.7801 166.784 22.6362 137.657 39.3892 104.102C53.5364 75.7655 58.515 59.056 60.2493 51.3139C60.6161 49.6767 62.8597 49.4594 63.5368 50.9943C71.0084 67.9294 90.7364 125.533 41.8006 177.454Z" fill="#FF8829"/>
<path d="M39.3466 176.41C39.2985 176.419 39.2491 176.423 39.1984 176.422C38.774 176.416 38.435 176.066 38.4415 175.642C38.4489 175.161 39.3854 127.057 57.2765 86.7692C57.4488 86.3816 57.9029 86.2067 58.2912 86.3787C58.6792 86.5511 58.854 87.0052 58.6818 87.3934C40.9209 127.388 39.9861 175.187 39.9787 175.665C39.9732 176.039 39.7015 176.347 39.3466 176.41Z" fill="white"/>
<path d="M162.607 82.5293C161.61 82.5293 160.787 81.7366 160.757 80.7333C160.736 80.0599 160.308 64.0481 165.022 46.9493C171.372 23.9186 184.106 10.2689 201.85 7.47576C210.543 6.1067 218.291 8.15926 224.876 13.5756C246.341 31.2305 248.383 78.5986 248.459 80.6063C248.498 81.6288 247.701 82.4888 246.678 82.5279C245.648 82.5522 244.796 81.7695 244.757 80.7474C244.739 80.2723 242.701 33.0291 222.519 16.4343C216.788 11.7221 210.028 9.93761 202.426 11.1359C162.989 17.3439 164.441 79.9883 164.46 80.6204C164.491 81.6429 163.687 82.4971 162.665 82.5286C162.646 82.5289 162.627 82.5293 162.607 82.5293Z" fill="#FF8829"/>
<path d="M84.577 285.355L116.408 65.8504L235.983 63.8398L274.524 297.555H94.9311C88.5427 297.555 83.6448 291.784 84.577 285.355Z" fill="#FF8829"/>
<path d="M259.206 65.8504L235.982 63.8398L274.523 297.555H297.579C302.253 297.555 305.746 293.186 304.793 288.531L259.206 65.8504Z" fill="#E26A0B"/>
<path d="M220.912 82.0271C219.921 82.0271 219.1 81.2434 219.062 80.2452C219.043 79.7701 217.006 32.5268 196.824 15.9321C191.093 11.2199 184.334 9.43541 176.731 10.6337C137.325 16.8369 138.746 79.4865 138.765 80.1186C138.795 81.141 137.992 81.9953 136.969 82.0261C135.936 82.0688 135.093 81.2532 135.061 80.2311C135.041 79.5577 134.613 63.5459 139.327 46.4471C145.677 23.4164 158.411 9.76674 176.155 6.97368C184.849 5.60495 192.596 7.65718 199.181 13.0735C220.646 30.7284 222.687 78.0965 222.764 80.1042C222.803 81.1267 222.006 81.9867 220.983 82.0258C220.959 82.0264 220.935 82.0271 220.912 82.0271Z" fill="#FF8829"/>
<path d="M19.623 120.419C19.623 112.449 26.0838 105.988 34.0535 105.988H156.77C163.541 105.988 169.123 111.294 169.467 118.055L178.526 295.972C178.795 301.263 174.63 305.726 169.333 305.822L28.6838 308.379C23.7065 308.469 19.623 304.459 19.623 299.481V120.419Z" fill="#669136"/>
<path d="M49.2409 305.354C49.2394 305.354 49.2379 305.354 49.2365 305.354L33.4986 305.151C28.2362 305.082 23.9551 300.745 23.9551 295.483V271.722C23.9551 271.536 24.1055 271.386 24.2911 271.386C24.4766 271.386 24.6271 271.536 24.6271 271.722V295.483C24.6271 300.38 28.6107 304.415 33.5074 304.479L49.245 304.682C49.4306 304.684 49.5791 304.837 49.5767 305.022C49.5743 305.207 49.4243 305.354 49.2409 305.354Z" fill="white"/>
<path d="M24.2911 264.698C24.1055 264.698 23.9551 264.547 23.9551 264.362V260.514C23.9551 260.328 24.1055 260.178 24.2911 260.178C24.4766 260.178 24.6271 260.328 24.6271 260.514V264.362C24.6271 264.548 24.4766 264.698 24.2911 264.698Z" fill="white"/>
<path d="M29.6778 108.727C29.6628 106.177 31.9052 104.204 34.432 104.547C51.1902 106.819 108.817 113.848 156.462 110.19C158.635 110.023 160.52 111.67 160.636 113.846L170.134 292.556C170.264 295.006 168.393 297.101 165.944 297.246C145.905 298.432 63.3796 303.016 33.9441 299.933C32.1525 299.746 30.7927 298.237 30.7821 296.436L29.6778 108.727Z" fill="#6F9C3D"/>
<path opacity="0.6" d="M31.6505 113.206C31.636 110.752 33.794 108.853 36.2256 109.183C52.3527 111.37 107.809 118.134 153.66 114.614C155.751 114.454 157.566 116.038 157.677 118.132L166.818 290.112C166.943 292.47 165.142 294.487 162.785 294.626C143.501 295.768 64.0833 300.179 35.7562 297.212C34.0321 297.032 32.7234 295.58 32.7133 293.847L31.6505 113.206Z" fill="white"/>
<path opacity="0.52" d="M46.5809 126.466L48.2937 163.337C48.3507 164.564 49.3412 165.539 50.5684 165.573C57.3969 165.766 78.6749 166.285 90.6892 165.659C92.0482 165.588 93.1233 164.488 93.1683 163.128C93.3974 156.213 93.8988 136.088 92.3231 127.675C92.0686 126.316 90.9005 125.32 89.5186 125.271L49.1575 123.86C47.7022 123.809 46.5133 125.012 46.5809 126.466Z" fill="white"/>
<g opacity="0.6">
<path d="M148.478 129.674C148.762 129.674 148.988 129.442 148.98 129.158L148.937 127.716C148.929 127.432 148.69 127.196 148.406 127.191L102.304 126.369C102.02 126.364 101.865 126.579 101.959 126.847L102.783 129.187C102.878 129.455 103.187 129.674 103.471 129.674H148.478Z" fill="white"/>
</g>
<g opacity="0.6">
<path d="M102.304 135.466C102.02 135.461 101.865 135.676 101.959 135.944L102.783 138.284C102.878 138.551 103.187 138.77 103.471 138.77H148.478C148.762 138.77 148.988 138.538 148.979 138.255L148.937 136.813C148.929 136.529 148.69 136.293 148.406 136.287L102.304 135.466Z" fill="white"/>
</g>
<g opacity="0.6">
<path d="M102.304 144.979C102.02 144.974 101.865 145.189 101.959 145.456L102.783 147.796C102.878 148.064 103.187 148.283 103.471 148.283H148.478C148.762 148.283 148.988 148.051 148.979 147.767L148.937 146.325C148.929 146.042 148.69 145.805 148.406 145.8L102.304 144.979Z" fill="white"/>
</g>
<g opacity="0.6">
<path d="M152.777 177.152C153.061 177.152 153.278 176.921 153.259 176.637L153.164 175.194C153.145 174.91 152.898 174.677 152.614 174.675L47.0829 173.843C46.799 173.841 46.7115 174.02 46.8883 174.242L48.8837 176.749C49.0606 176.971 49.4375 177.152 49.7215 177.152H152.777Z" fill="white"/>
</g>
<g opacity="0.6">
<path d="M47.0829 180.716C46.799 180.714 46.7115 180.894 46.8883 181.116L48.8837 183.622C49.0606 183.844 49.4375 184.025 49.7215 184.025H152.777C153.061 184.025 153.278 183.794 153.259 183.51L153.164 182.067C153.145 181.784 152.898 181.55 152.614 181.548L47.0829 180.716Z" fill="white"/>
</g>
<path opacity="0.6" d="M47.5376 192.2C50.0306 192.009 54.6993 191.92 57.2691 191.884C58.3581 191.869 59.3131 192.606 59.5685 193.665C60.0645 195.721 60.7487 199.292 60.6626 203.075C60.6367 204.208 59.7087 205.112 58.5756 205.1L49.092 204.998C47.9257 204.985 46.9575 204.093 46.849 202.932L46.0151 194.011C45.9291 193.088 46.6135 192.271 47.5376 192.2Z" fill="white"/>
<g opacity="0.6">
<path d="M64.1537 195.825C63.87 195.813 63.6725 196.033 63.7147 196.314L64.2181 199.666C64.2603 199.946 64.5271 200.176 64.811 200.176H89.6869C89.9708 200.176 90.2002 199.944 90.1967 199.66L90.1688 197.428C90.1653 197.144 89.9303 196.902 89.6466 196.89L64.1537 195.825Z" fill="white"/>
</g>
<path opacity="0.6" d="M99.2015 192.2C101.695 192.009 106.363 191.92 108.933 191.884C110.022 191.869 110.977 192.606 111.232 193.665C111.728 195.721 112.413 199.292 112.326 203.075C112.301 204.208 111.373 205.112 110.24 205.1L100.756 204.998C99.5898 204.985 98.6215 204.093 98.513 202.932L97.6792 194.011C97.5928 193.088 98.2773 192.271 99.2015 192.2Z" fill="white"/>
<g opacity="0.6">
<path d="M115.82 195.825C115.536 195.813 115.339 196.033 115.381 196.314L115.884 199.666C115.926 199.946 116.193 200.176 116.477 200.176H141.353C141.637 200.176 141.866 199.944 141.863 199.66L141.835 197.428C141.831 197.144 141.596 196.902 141.313 196.89L115.82 195.825Z" fill="white"/>
</g>
<g opacity="0.6">
<path d="M44.6913 222.72C45.0161 223.681 46.1352 224.347 47.4091 224.339L151.231 223.649C152.406 223.641 153.345 222.885 153.32 221.97C153.295 221.079 152.365 220.367 151.223 220.362L47.3981 219.993C45.5654 219.987 44.2239 221.338 44.6913 222.72Z" fill="white"/>
</g>
<g opacity="0.6">
<path d="M44.6913 241.476C45.0161 242.437 46.1352 243.103 47.4091 243.095L151.231 242.404C152.406 242.397 153.345 241.641 153.32 240.725C153.295 239.835 152.365 239.122 151.223 239.118L47.3981 238.749C45.5654 238.743 44.2239 240.094 44.6913 241.476Z" fill="white"/>
</g>
<g opacity="0.6">
<path d="M44.6913 260.233C45.0161 261.194 46.1352 261.86 47.4091 261.852L151.231 261.161C152.406 261.153 153.345 260.398 153.32 259.482C153.295 258.592 152.365 257.879 151.223 257.875L47.3981 257.506C45.5654 257.499 44.2239 258.851 44.6913 260.233Z" fill="white"/>
</g>
<g opacity="0.6">
<path d="M44.6913 278.987C45.0161 279.948 46.1352 280.614 47.4091 280.606L151.231 279.915C152.406 279.907 153.345 279.152 153.32 278.236C153.295 277.346 152.365 276.633 151.223 276.629L47.3981 276.26C45.5654 276.253 44.2239 277.605 44.6913 278.987Z" fill="white"/>
</g>
<path d="M87.5688 134.031C87.3655 133.781 87.0465 133.677 86.7081 133.684L55.9038 134.33L55.1257 131.858C55.0176 131.514 54.6938 131.293 54.3276 131.303L50.0982 131.414C49.6447 131.426 49.2773 131.741 49.2773 132.194C49.2773 132.647 49.6447 132.944 50.0982 132.933L53.7124 132.848L60.2523 153.746C60.3624 154.097 60.6926 154.339 61.067 154.344L82.6883 154.635C83.1957 154.641 83.6077 154.323 83.6077 153.843C83.6077 153.363 83.1958 153.035 82.6883 153.029L61.6978 152.803L60.0132 147.377L83.0799 147.412C83.5522 147.413 83.9685 147.104 84.1009 146.675L87.7415 134.904C87.8364 134.597 87.7725 134.281 87.5688 134.031Z" fill="#6F9C3D"/>
<path d="M64.2319 155.633C62.4528 155.606 61.0137 156.99 61.0137 158.72C61.0137 160.449 62.4529 161.894 64.2319 161.941C66.0216 161.988 67.4857 160.604 67.4857 158.855C67.4856 157.106 66.0215 155.661 64.2319 155.633ZM64.2319 160.259C63.4004 160.239 62.7256 159.565 62.7256 158.755C62.7256 157.946 63.4004 157.3 64.2319 157.315C65.0657 157.331 65.7459 158.005 65.7459 158.818C65.7458 159.632 65.0656 160.278 64.2319 160.259Z" fill="#6F9C3D"/>
<path d="M78.6451 155.856C76.778 155.827 75.2676 157.245 75.2676 159.016C75.2676 160.788 76.778 162.269 78.6451 162.318C80.5237 162.367 82.0608 160.95 82.0608 159.158C82.0609 157.367 80.5237 155.885 78.6451 155.856ZM78.6451 160.595C77.7724 160.574 77.0643 159.883 77.0643 159.054C77.0643 158.225 77.7725 157.563 78.6451 157.579C79.5203 157.595 80.2344 158.287 80.2344 159.12C80.2344 159.954 79.5203 160.615 78.6451 160.595Z" fill="#6F9C3D"/>
<path d="M103.023 81.7309C98.5905 78.6471 94.7362 78.7081 92.0229 79.5088C89.5478 80.239 87.9436 82.6288 88.1791 85.1985L89.3492 97.9702L103.273 99.2059C103.273 99.2059 111.716 87.7786 103.023 81.7309ZM96.9 92.0344C94.9826 92.0344 93.4282 90.48 93.4282 88.5626C93.4282 86.6452 94.9826 85.0907 96.9 85.0907C98.8175 85.0907 100.372 86.6451 100.372 88.5626C100.372 90.4801 98.8175 92.0344 96.9 92.0344Z" fill="#669136"/>
<path d="M90.7395 92.5966C90.5678 92.5966 90.4213 92.4656 90.4053 92.2911L90.219 90.2572C90.202 90.0724 90.3381 89.909 90.5229 89.892C90.7114 89.8743 90.8713 90.0111 90.888 90.1962L91.0744 92.2302C91.0915 92.4149 90.9553 92.5783 90.7705 92.5953C90.76 92.5963 90.7497 92.5966 90.7395 92.5966ZM90.3743 88.6107C90.2026 88.6107 90.0561 88.4797 90.0402 88.3052L89.8986 86.7612C89.6742 84.3131 91.2147 82.0338 93.5612 81.3412C95.223 80.8506 96.9353 80.7804 98.65 81.1321C98.8318 81.1692 98.949 81.347 98.9117 81.5288C98.8745 81.7102 98.6984 81.8263 98.5152 81.7903C96.909 81.4615 95.3065 81.5268 93.7514 81.9856C91.7117 82.5876 90.3726 84.5704 90.5678 86.7001L90.7093 88.2441C90.7264 88.4289 90.5902 88.5923 90.4055 88.6093C90.3949 88.6105 90.3845 88.6107 90.3743 88.6107Z" fill="white"/>
<path d="M70.3438 106.224V99.8032C70.3438 97.5866 72.1809 95.8112 74.3962 95.8871L118.667 97.4039C120.632 97.4712 122.223 99.022 122.341 100.984L122.711 107.154L70.3438 106.224Z" fill="#669136"/>
<path d="M86.8555 98.3059H84.9513C84.7657 98.3059 84.6152 98.1557 84.6152 97.9698C84.6152 97.784 84.7657 97.6338 84.9513 97.6338H86.8555C87.0411 97.6338 87.1915 97.784 87.1915 97.9698C87.1915 98.1557 87.0411 98.3059 86.8555 98.3059Z" fill="white"/>
<path d="M72.7422 104.207C72.5567 104.207 72.4062 104.057 72.4062 103.871V101.274C72.4062 99.2665 74.039 97.6338 76.0461 97.6338H83.0458C83.2313 97.6338 83.3818 97.784 83.3818 97.9698C83.3818 98.1555 83.2313 98.3058 83.0458 98.3058H76.0461C74.4097 98.3058 73.0782 99.6372 73.0782 101.274V103.871C73.0782 104.057 72.9278 104.207 72.7422 104.207Z" fill="white"/>
<path d="M52.3056 107.846C52.4124 105.622 54.2463 103.874 56.4725 103.874L133.889 103.872C136.673 103.872 139.053 105.875 139.527 108.618L139.593 108.997C140.113 112.001 137.8 114.749 134.751 114.749H55.3259C53.5012 114.749 52.0471 113.223 52.1346 111.401L52.3056 107.846Z" fill="url(#paint0_linear_6208_1284)"/>
<g opacity="0.3">
<path d="M216.206 216.973C215.632 216.973 215.139 216.539 215.078 215.956C214.945 214.681 214.865 213.381 214.84 212.092C214.828 211.465 215.327 210.947 215.953 210.935C215.961 210.935 215.968 210.935 215.975 210.935C216.592 210.935 217.098 211.429 217.11 212.049C217.133 213.273 217.21 214.508 217.336 215.72C217.402 216.343 216.949 216.902 216.326 216.967C216.286 216.971 216.246 216.973 216.206 216.973ZM216.279 207.083C216.235 207.083 216.19 207.08 216.145 207.075C215.522 207.001 215.077 206.437 215.151 205.814C215.302 204.535 215.51 203.25 215.768 201.995C215.894 201.38 216.491 200.986 217.108 201.111C217.722 201.237 218.118 201.838 217.991 202.451C217.746 203.645 217.549 204.866 217.405 206.081C217.337 206.659 216.847 207.083 216.279 207.083ZM218.528 197.455C218.402 197.455 218.273 197.434 218.147 197.389C217.557 197.178 217.249 196.529 217.459 195.938C217.89 194.728 218.379 193.521 218.913 192.351C219.174 191.78 219.847 191.53 220.418 191.789C220.988 192.05 221.239 192.723 220.979 193.294C220.472 194.404 220.007 195.55 219.598 196.7C219.432 197.165 218.995 197.455 218.528 197.455ZM222.875 188.57C222.666 188.57 222.455 188.512 222.265 188.392C221.737 188.054 221.582 187.353 221.919 186.824C222.61 185.74 223.357 184.672 224.138 183.651C224.52 183.154 225.232 183.059 225.73 183.44C226.228 183.821 226.323 184.533 225.942 185.031C225.2 186.001 224.49 187.014 223.833 188.045C223.616 188.384 223.25 188.57 222.875 188.57ZM229.093 180.877C228.8 180.877 228.508 180.764 228.286 180.54C227.845 180.093 227.849 179.375 228.296 178.934C229.208 178.033 230.172 177.157 231.161 176.333C231.643 175.932 232.359 175.996 232.76 176.478C233.162 176.96 233.097 177.676 232.615 178.077C231.675 178.861 230.759 179.693 229.891 180.549C229.67 180.768 229.381 180.877 229.093 180.877ZM236.858 174.752C236.479 174.752 236.108 174.562 235.893 174.216C235.562 173.684 235.725 172.984 236.257 172.653C237.348 171.974 238.482 171.334 239.628 170.75C240.187 170.465 240.87 170.688 241.155 171.246C241.44 171.805 241.217 172.489 240.659 172.773C239.571 173.328 238.493 173.936 237.456 174.581C237.27 174.697 237.063 174.752 236.858 174.752ZM278.459 172.049C278.302 172.049 278.142 172.016 277.99 171.947C276.879 171.442 275.732 170.979 274.579 170.571C273.988 170.362 273.679 169.713 273.888 169.123C274.097 168.531 274.746 168.222 275.337 168.431C276.551 168.861 277.76 169.348 278.929 169.88C279.5 170.139 279.752 170.812 279.493 171.383C279.303 171.802 278.89 172.049 278.459 172.049ZM245.781 170.503C245.31 170.503 244.87 170.207 244.708 169.737C244.504 169.144 244.819 168.498 245.411 168.294C246.626 167.875 247.874 167.504 249.12 167.19C249.729 167.041 250.346 167.406 250.498 168.015C250.651 168.623 250.282 169.24 249.674 169.393C248.49 169.69 247.305 170.042 246.151 170.44C246.029 170.482 245.904 170.503 245.781 170.503ZM269.051 168.999C268.976 168.999 268.9 168.992 268.824 168.976C267.628 168.733 266.405 168.538 265.191 168.397C264.568 168.324 264.122 167.76 264.194 167.138C264.267 166.515 264.83 166.066 265.453 166.141C266.731 166.29 268.018 166.495 269.276 166.751C269.891 166.876 270.287 167.476 270.162 168.09C270.053 168.628 269.58 168.999 269.051 168.999ZM255.43 168.353C254.857 168.353 254.365 167.921 254.303 167.339C254.236 166.715 254.688 166.156 255.311 166.089C256.588 165.953 257.887 165.87 259.174 165.843C259.182 165.843 259.19 165.843 259.198 165.843C259.814 165.843 260.32 166.335 260.333 166.954C260.346 167.581 259.848 168.1 259.221 168.113C257.999 168.139 256.765 168.218 255.552 168.347C255.511 168.351 255.47 168.353 255.43 168.353Z" fill="#5CA903"/>
<path d="M285.39 175.99C285.166 175.99 284.94 175.924 284.743 175.787C284.262 175.452 283.767 175.123 283.27 174.806C282.741 174.47 282.585 173.768 282.922 173.239C283.259 172.71 283.961 172.553 284.489 172.891C285.012 173.224 285.533 173.571 286.039 173.922C286.554 174.28 286.681 174.988 286.323 175.502C286.102 175.82 285.749 175.99 285.39 175.99Z" fill="#5CA903"/>
</g>
<g opacity="0.3">
<path d="M303.833 205.278C303.285 205.278 302.803 204.881 302.714 204.323C302.621 203.745 302.515 203.159 302.398 202.582C302.273 201.967 302.67 201.368 303.285 201.244C303.902 201.119 304.499 201.516 304.623 202.131C304.746 202.738 304.858 203.355 304.956 203.963C305.055 204.583 304.633 205.165 304.014 205.264C303.954 205.274 303.893 205.278 303.833 205.278Z" fill="#5CA903"/>
<path d="M260.223 256.524C259.7 256.524 259.176 256.515 258.65 256.497C258.023 256.476 257.532 255.951 257.553 255.324C257.575 254.697 258.103 254.204 258.726 254.227C259.941 254.268 261.154 254.26 262.346 254.201C262.973 254.171 263.505 254.653 263.536 255.279C263.567 255.906 263.084 256.438 262.457 256.469C261.72 256.505 260.968 256.524 260.223 256.524ZM252.687 255.886C252.624 255.886 252.559 255.881 252.495 255.87C251.246 255.657 249.993 255.388 248.769 255.071C248.162 254.914 247.798 254.295 247.955 253.688C248.112 253.081 248.732 252.715 249.338 252.873C250.5 253.174 251.691 253.429 252.877 253.632C253.495 253.738 253.911 254.324 253.805 254.942C253.71 255.496 253.23 255.886 252.687 255.886ZM268.39 255.763C267.855 255.763 267.378 255.383 267.275 254.838C267.159 254.221 267.565 253.628 268.181 253.512C269.36 253.29 270.545 253.015 271.704 252.693C272.309 252.526 272.934 252.879 273.102 253.483C273.269 254.088 272.915 254.713 272.311 254.881C271.091 255.22 269.842 255.51 268.601 255.743C268.53 255.757 268.459 255.763 268.39 255.763ZM243.33 253.199C243.186 253.199 243.04 253.171 242.898 253.113C241.728 252.631 240.565 252.093 239.44 251.515C238.883 251.228 238.663 250.543 238.95 249.986C239.237 249.428 239.921 249.209 240.479 249.496C241.547 250.045 242.652 250.556 243.763 251.014C244.343 251.252 244.619 251.916 244.381 252.496C244.2 252.934 243.777 253.199 243.33 253.199ZM277.691 252.916C277.252 252.916 276.833 252.66 276.648 252.231C276.399 251.655 276.664 250.987 277.24 250.738C278.34 250.263 279.436 249.733 280.496 249.165C281.049 248.868 281.737 249.076 282.033 249.629C282.329 250.182 282.122 250.869 281.569 251.166C280.453 251.764 279.299 252.322 278.141 252.822C277.994 252.886 277.841 252.916 277.691 252.916ZM286.142 248.097C285.791 248.097 285.444 247.935 285.222 247.629C284.854 247.122 284.966 246.412 285.473 246.043C286.446 245.336 287.4 244.58 288.31 243.796C288.784 243.386 289.501 243.439 289.911 243.914C290.32 244.389 290.267 245.106 289.793 245.516C288.836 246.341 287.832 247.136 286.808 247.88C286.607 248.026 286.373 248.097 286.142 248.097ZM293.341 241.55C293.074 241.55 292.806 241.456 292.59 241.266C292.12 240.851 292.075 240.134 292.49 239.663C293.287 238.761 294.054 237.816 294.77 236.852C295.144 236.35 295.855 236.244 296.358 236.619C296.861 236.993 296.966 237.704 296.592 238.208C295.838 239.221 295.031 240.216 294.193 241.166C293.968 241.42 293.655 241.55 293.341 241.55ZM298.941 233.589C298.756 233.589 298.569 233.544 298.395 233.449C297.845 233.147 297.645 232.457 297.947 231.907C298.527 230.853 299.067 229.763 299.555 228.666C299.809 228.093 300.481 227.835 301.053 228.089C301.626 228.343 301.884 229.014 301.63 229.587C301.116 230.743 300.547 231.891 299.937 233.001C299.73 233.377 299.341 233.589 298.941 233.589ZM302.658 224.59C302.554 224.59 302.448 224.576 302.343 224.545C301.741 224.372 301.393 223.743 301.567 223.141C301.898 221.988 302.186 220.805 302.42 219.626C302.542 219.011 303.141 218.612 303.754 218.733C304.369 218.855 304.769 219.453 304.647 220.068C304.4 221.31 304.098 222.555 303.748 223.768C303.605 224.266 303.151 224.59 302.658 224.59ZM304.306 215.001C304.283 215.001 304.259 215 304.236 214.998C303.61 214.96 303.133 214.422 303.172 213.796C303.226 212.913 303.253 212.018 303.253 211.134C303.253 210.814 303.249 210.495 303.242 210.177C303.229 209.55 303.726 209.031 304.353 209.018C304.987 208.991 305.499 209.501 305.513 210.128C305.52 210.462 305.524 210.798 305.524 211.134C305.524 212.063 305.495 213.006 305.438 213.935C305.401 214.537 304.901 215.001 304.306 215.001Z" fill="#5CA903"/>
<path d="M234.775 248.501C234.55 248.501 234.322 248.434 234.123 248.295C233.621 247.941 233.116 247.571 232.623 247.193C232.125 246.812 232.031 246.099 232.412 245.601C232.794 245.104 233.506 245.009 234.004 245.391C234.472 245.749 234.952 246.102 235.429 246.437C235.942 246.797 236.065 247.506 235.705 248.019C235.484 248.333 235.132 248.501 234.775 248.501Z" fill="#5CA903"/>
</g>
<path d="M236.308 235.333C236.451 235.509 236.69 235.574 236.902 235.496L242.963 233.267C245.352 235.107 248.053 236.58 250.988 237.588L252.466 243.871C252.518 244.091 252.704 244.254 252.929 244.277L260.636 245.058C260.861 245.081 261.076 244.958 261.171 244.753L263.879 238.894C266.957 238.495 269.897 237.594 272.607 236.27L278.098 239.669C278.291 239.788 278.538 239.772 278.713 239.629L284.715 234.732C284.89 234.588 284.955 234.35 284.877 234.137L282.648 228.076C284.488 225.687 285.961 222.987 286.97 220.052L293.252 218.573C293.472 218.521 293.635 218.336 293.658 218.11L294.439 210.403C294.462 210.178 294.339 209.963 294.134 209.868L288.275 207.16C287.876 204.082 286.975 201.142 285.651 198.432L289.05 192.941C289.169 192.749 289.153 192.502 289.01 192.326L284.112 186.325C283.969 186.149 283.731 186.084 283.518 186.162L277.457 188.391C275.068 186.551 272.368 185.078 269.432 184.07L267.954 177.787C267.902 177.567 267.716 177.404 267.491 177.381L259.784 176.6C259.559 176.577 259.344 176.7 259.249 176.906L256.541 182.764C253.463 183.163 250.523 184.064 247.813 185.388L242.322 181.989C242.13 181.87 241.883 181.886 241.707 182.029L235.706 186.927C235.53 187.07 235.465 187.309 235.543 187.521L237.772 193.582C235.932 195.971 234.459 198.672 233.45 201.607L227.168 203.085C226.948 203.137 226.785 203.323 226.762 203.548L225.981 211.255C225.958 211.48 226.081 211.695 226.286 211.79L232.145 214.498C232.544 217.576 233.445 220.516 234.769 223.226L231.37 228.717C231.251 228.91 231.267 229.156 231.41 229.332L236.308 235.333Z" fill="#5CA903"/>
<path opacity="0.56" d="M260.204 218.616C256.408 218.616 253.075 215.829 252.506 211.965C251.88 207.717 254.826 203.752 259.074 203.126C261.131 202.822 263.184 203.339 264.853 204.579C266.522 205.82 267.609 207.636 267.912 209.694C268.538 213.942 265.592 217.906 261.344 218.532C260.961 218.589 260.58 218.616 260.204 218.616ZM260.221 204.858C259.928 204.858 259.634 204.879 259.338 204.923C256.082 205.403 253.823 208.443 254.303 211.699C254.783 214.956 257.822 217.216 261.079 216.735C264.336 216.256 266.595 213.215 266.115 209.959C265.882 208.381 265.05 206.989 263.77 206.037C262.729 205.264 261.494 204.858 260.221 204.858Z" fill="white"/>
<path opacity="0.56" d="M260.363 229.862C259.711 229.862 259.056 229.83 258.398 229.763C258.191 229.742 257.985 229.718 257.779 229.691C256.762 229.554 255.758 229.338 254.781 229.043C254.768 229.039 254.755 229.035 254.741 229.032C254.704 229.02 254.666 229.008 254.628 228.996C254.555 228.974 254.482 228.95 254.409 228.927C254.217 228.865 254.095 228.687 254.094 228.495C254.094 228.449 254.102 228.401 254.117 228.355C254.194 228.116 254.45 227.986 254.689 228.063C255.916 228.461 257.195 228.729 258.49 228.859C264.919 229.512 270.918 226.723 274.654 221.992C276.732 219.361 278.11 216.129 278.472 212.553C278.536 211.926 278.567 211.3 278.567 210.678C278.567 206.494 277.139 202.47 274.458 199.185C271.378 195.41 267.012 193.061 262.166 192.57C252.156 191.558 243.196 198.872 242.183 208.877C242.121 209.494 242.09 210.112 242.09 210.728C242.09 213.397 242.675 216.036 243.811 218.455C243.84 218.517 243.854 218.583 243.854 218.648C243.854 218.818 243.757 218.981 243.593 219.059C243.365 219.165 243.095 219.068 242.989 218.84C241.796 216.302 241.182 213.53 241.182 210.728C241.181 210.082 241.214 209.433 241.279 208.786C242.343 198.282 251.757 190.603 262.257 191.667C267.345 192.182 271.928 194.648 275.161 198.611C277.976 202.06 279.475 206.284 279.476 210.677C279.476 211.329 279.442 211.986 279.376 212.644C278.86 217.733 276.394 222.315 272.432 225.549C268.982 228.364 264.757 229.862 260.363 229.862Z" fill="white"/>
<g opacity="0.3">
<path d="M177.466 246.891C177.163 246.891 176.884 246.693 176.794 246.387C176.626 245.816 176.473 245.232 176.34 244.652C176.254 244.274 176.489 243.898 176.867 243.811C177.244 243.723 177.62 243.961 177.707 244.338C177.834 244.891 177.98 245.448 178.139 245.993C178.249 246.364 178.036 246.754 177.664 246.863C177.598 246.882 177.532 246.891 177.466 246.891Z" fill="#5CA903"/>
<path d="M176.43 241.598C176.074 241.598 175.77 241.329 175.733 240.968C175.629 239.948 175.576 238.912 175.576 237.887C175.576 237.672 175.579 237.455 175.583 237.238C175.592 236.851 175.933 236.558 176.299 236.551C176.686 236.56 176.993 236.88 176.985 237.267C176.981 237.474 176.979 237.681 176.979 237.887C176.979 238.864 177.029 239.853 177.128 240.825C177.167 241.211 176.887 241.555 176.502 241.594C176.477 241.597 176.453 241.598 176.43 241.598ZM176.584 234.319C176.551 234.319 176.517 234.317 176.483 234.312C176.1 234.257 175.834 233.901 175.889 233.518C176.065 232.288 176.32 231.058 176.646 229.863C176.747 229.489 177.135 229.27 177.507 229.371C177.881 229.473 178.101 229.858 177.999 230.232C177.688 231.372 177.446 232.545 177.277 233.718C177.227 234.067 176.927 234.319 176.584 234.319ZM178.498 227.295C178.409 227.295 178.319 227.278 178.232 227.242C177.874 227.095 177.703 226.685 177.85 226.327C178.323 225.18 178.872 224.049 179.483 222.968C179.674 222.63 180.101 222.512 180.439 222.703C180.776 222.893 180.895 223.321 180.704 223.658C180.121 224.689 179.597 225.766 179.147 226.861C179.036 227.131 178.774 227.295 178.498 227.295ZM182.081 220.956C181.936 220.956 181.79 220.911 181.664 220.818C181.353 220.588 181.288 220.148 181.519 219.837C182.259 218.839 183.068 217.878 183.923 216.981C184.191 216.701 184.635 216.691 184.915 216.958C185.195 217.225 185.206 217.669 184.938 217.949C184.123 218.804 183.351 219.721 182.645 220.673C182.508 220.858 182.296 220.956 182.081 220.956ZM187.104 215.685C186.901 215.685 186.7 215.597 186.561 215.428C186.316 215.129 186.359 214.687 186.658 214.442C187.618 213.655 188.636 212.919 189.683 212.257C190.01 212.048 190.443 212.146 190.651 212.474C190.858 212.801 190.76 213.234 190.433 213.441C189.434 214.074 188.464 214.775 187.548 215.526C187.418 215.633 187.26 215.685 187.104 215.685ZM193.252 211.793C192.99 211.793 192.738 211.644 192.618 211.391C192.453 211.041 192.603 210.623 192.953 210.458C194.075 209.928 195.241 209.463 196.418 209.076C196.787 208.957 197.182 209.157 197.303 209.524C197.424 209.892 197.223 210.289 196.856 210.409C195.733 210.777 194.622 211.22 193.552 211.726C193.455 211.772 193.353 211.793 193.252 211.793ZM200.164 209.523C199.836 209.523 199.542 209.291 199.477 208.956C199.403 208.576 199.65 208.208 200.03 208.133C201.244 207.896 202.489 207.732 203.731 207.645C204.118 207.624 204.453 207.91 204.479 208.296C204.506 208.682 204.215 209.017 203.829 209.044C202.644 209.126 201.457 209.283 200.3 209.51C200.254 209.519 200.209 209.523 200.164 209.523ZM211.051 209.434C211.01 209.434 210.969 209.43 210.927 209.423C209.921 209.244 208.887 209.117 207.854 209.046C207.697 209.035 207.544 209.025 207.39 209.017C207.003 208.997 206.706 208.668 206.726 208.281C206.746 207.893 207.079 207.585 207.463 207.616C207.627 207.625 207.79 207.635 207.954 207.647C209.033 207.722 210.117 207.855 211.173 208.042C211.554 208.11 211.808 208.474 211.74 208.855C211.68 209.195 211.385 209.434 211.051 209.434Z" fill="#5CA903"/>
</g>
<g opacity="0.3">
<path d="M206.272 268.141C205.889 268.141 205.576 267.833 205.571 267.449C205.566 267.062 205.875 266.744 206.263 266.739C207.429 266.724 208.603 266.638 209.754 266.482C210.136 266.434 210.491 266.699 210.543 267.084C210.595 267.468 210.325 267.82 209.942 267.872C208.735 268.035 207.503 268.126 206.281 268.141C206.278 268.141 206.275 268.141 206.272 268.141ZM202.688 267.972C202.663 267.972 202.638 267.971 202.612 267.968C201.399 267.838 200.18 267.633 198.992 267.358C198.614 267.27 198.379 266.895 198.466 266.517C198.553 266.139 198.932 265.906 199.307 265.991C200.442 266.254 201.604 266.45 202.762 266.574C203.147 266.615 203.426 266.961 203.384 267.346C203.346 267.706 203.042 267.972 202.688 267.972ZM213.367 267.183C213.056 267.183 212.772 266.975 212.689 266.66C212.59 266.286 212.814 265.902 213.189 265.804C214.317 265.507 215.436 265.139 216.516 264.709C216.877 264.568 217.283 264.742 217.426 265.103C217.569 265.462 217.393 265.87 217.033 266.013C215.902 266.463 214.728 266.849 213.545 267.159C213.485 267.175 213.426 267.183 213.367 267.183ZM195.71 266.355C195.63 266.355 195.549 266.341 195.469 266.312C194.322 265.894 193.188 265.4 192.101 264.845C191.756 264.669 191.62 264.247 191.796 263.901C191.972 263.558 192.394 263.421 192.739 263.596C193.776 264.125 194.856 264.596 195.95 264.995C196.313 265.128 196.501 265.531 196.368 265.894C196.265 266.178 195.996 266.355 195.71 266.355ZM220.019 264.538C219.771 264.538 219.53 264.405 219.403 264.173C219.217 263.832 219.342 263.406 219.682 263.221C220.703 262.663 221.701 262.038 222.648 261.36C222.963 261.134 223.401 261.207 223.626 261.522C223.851 261.837 223.779 262.275 223.464 262.5C222.471 263.21 221.425 263.867 220.354 264.452C220.248 264.51 220.132 264.538 220.019 264.538ZM225.843 260.374C225.653 260.374 225.464 260.297 225.325 260.146C225.064 259.861 225.083 259.417 225.369 259.155C226.229 258.367 227.048 257.52 227.805 256.638C228.057 256.344 228.5 256.31 228.793 256.562C229.087 256.814 229.121 257.257 228.869 257.55C228.076 258.475 227.217 259.364 226.316 260.19C226.182 260.313 226.012 260.374 225.843 260.374ZM230.502 254.934C230.368 254.934 230.233 254.896 230.114 254.816C229.791 254.602 229.704 254.166 229.919 253.844C230.566 252.874 231.158 251.855 231.679 250.816C231.853 250.471 232.275 250.33 232.621 250.504C232.967 250.678 233.106 251.1 232.932 251.446C232.385 252.535 231.764 253.604 231.086 254.622C230.951 254.824 230.728 254.934 230.502 254.934Z" fill="#5CA903"/>
<path d="M189.302 263.081C189.166 263.081 189.03 263.042 188.909 262.96C188.412 262.624 187.923 262.271 187.454 261.913C187.147 261.677 187.089 261.237 187.324 260.929C187.56 260.623 188 260.564 188.308 260.799C188.754 261.142 189.221 261.478 189.695 261.799C190.016 262.016 190.1 262.452 189.883 262.773C189.747 262.973 189.526 263.081 189.302 263.081Z" fill="#5CA903"/>
</g>
<path d="M189.884 254.022C189.98 254.139 190.14 254.183 190.282 254.131L194.338 252.639C195.936 253.871 197.743 254.856 199.707 255.531L200.697 259.735C200.731 259.882 200.856 259.992 201.006 260.007L206.163 260.529C206.314 260.544 206.458 260.462 206.522 260.325L208.334 256.405C210.393 256.137 212.361 255.535 214.174 254.649L217.848 256.923C217.977 257.003 218.142 256.992 218.26 256.896L222.276 253.619C222.393 253.523 222.437 253.364 222.385 253.222L220.893 249.166C222.125 247.567 223.11 245.76 223.785 243.796L227.989 242.807C228.136 242.772 228.245 242.648 228.261 242.497L228.783 237.34C228.798 237.189 228.716 237.045 228.579 236.982L224.659 235.17C224.391 233.11 223.788 231.143 222.903 229.329L225.177 225.655C225.257 225.526 225.246 225.361 225.15 225.244L221.873 221.228C221.777 221.11 221.618 221.067 221.476 221.119L217.42 222.611C215.821 221.379 214.014 220.394 212.05 219.719L211.061 215.515C211.026 215.367 210.902 215.258 210.751 215.243L205.594 214.721C205.443 214.705 205.3 214.787 205.236 214.925L203.424 218.845C201.364 219.112 199.397 219.715 197.583 220.601L193.909 218.327C193.78 218.247 193.615 218.258 193.498 218.353L189.482 221.631C189.364 221.726 189.321 221.886 189.373 222.028L190.864 226.084C189.633 227.683 188.648 229.49 187.973 231.454L183.769 232.443C183.622 232.478 183.512 232.602 183.497 232.753L182.974 237.91C182.959 238.061 183.041 238.204 183.179 238.268L187.099 240.08C187.366 242.14 187.969 244.107 188.855 245.921L186.58 249.595C186.501 249.724 186.511 249.889 186.607 250.006L189.884 254.022Z" fill="#5CA903"/>
<path opacity="0.56" d="M205.869 242.929C204.738 242.929 203.641 242.569 202.717 241.882C201.58 241.037 200.84 239.799 200.633 238.398C200.207 235.505 202.213 232.805 205.107 232.377C208.005 231.956 210.701 233.959 211.128 236.851C211.334 238.253 210.983 239.651 210.138 240.788C209.293 241.925 208.055 242.666 206.653 242.872C206.391 242.91 206.129 242.929 205.869 242.929ZM205.883 233.723C205.694 233.723 205.503 233.737 205.311 233.765C203.183 234.079 201.707 236.065 202.021 238.194C202.173 239.224 202.717 240.135 203.553 240.756C204.39 241.378 205.418 241.635 206.449 241.485C207.48 241.333 208.39 240.788 209.012 239.952C209.634 239.115 209.892 238.087 209.74 237.056C209.455 235.12 207.784 233.723 205.883 233.723Z" fill="white"/>
<path opacity="0.56" d="M205.968 250.758C205.524 250.758 205.077 250.735 204.626 250.69C203.732 250.6 202.845 250.418 201.99 250.15C201.951 250.138 201.913 250.125 201.875 250.113C201.578 250.017 201.389 249.743 201.389 249.447C201.389 249.375 201.4 249.302 201.424 249.23C201.543 248.861 201.938 248.661 202.307 248.779C203.103 249.037 203.931 249.211 204.767 249.295H204.767C204.813 249.3 204.859 249.304 204.905 249.308C206.885 249.489 208.836 249.17 210.616 248.403C211.581 247.987 212.497 247.438 213.339 246.763C213.346 246.758 213.353 246.752 213.359 246.747C213.38 246.73 213.401 246.713 213.422 246.696C215.865 244.702 217.386 241.876 217.703 238.739C217.745 238.333 217.765 237.928 217.765 237.525C217.765 234.816 216.84 232.212 215.105 230.084C213.111 227.641 210.285 226.121 207.147 225.803C204.012 225.487 200.936 226.408 198.493 228.402C196.05 230.396 194.529 233.222 194.211 236.359C194.17 236.758 194.15 237.158 194.15 237.557C194.151 239.285 194.529 240.993 195.265 242.559C195.31 242.655 195.331 242.757 195.331 242.857C195.331 243.12 195.182 243.372 194.928 243.491C194.577 243.655 194.16 243.506 193.995 243.155C193.172 241.403 192.749 239.491 192.748 237.558C192.748 237.112 192.77 236.665 192.816 236.218C193.171 232.707 194.873 229.546 197.606 227.315C200.34 225.085 203.777 224.049 207.288 224.407C210.799 224.763 213.96 226.464 216.191 229.198C218.133 231.577 219.167 234.492 219.167 237.522C219.167 237.972 219.145 238.426 219.099 238.879C218.41 245.676 212.657 250.758 205.968 250.758Z" fill="white"/>
<defs>
<linearGradient id="paint0_linear_6208_1284" x1="139.666" y1="109.31" x2="52.1309" y2="109.31" gradientUnits="userSpaceOnUse">
<stop stop-color="#6F9C3D"/>
<stop offset="1" stop-color="#9BDD51"/>
</linearGradient>
</defs>
</svg>
